<?xml version="1.0" standalone="no"?>
<!DOCTYPE svg PUBLIC "-//W3C//DTD SVG 1.1//EN" "http://www.w3.org/Graphics/SVG/1.1/DTD/svg11.dtd" >
<svg xmlns="http://www.w3.org/2000/svg">
<metadata></metadata>
<defs>
<font id="bein-arabic_blackblack" horiz-adv-x="0" >
<font-face units-per-em="2048" ascent="1638" descent="-410" />
<missing-glyph horiz-adv-x="325" />
<glyph unicode="&#x64c;&#x651;" arabic-form="isolated" d="M-234 448l101 56q6 5 22.5 9.5t34.5 -6.5q23 -15 23 -52v-1l-7 -98q29 -4 57 -0.5t55 11.5q-18 14 -29.5 33.5t-15.5 40.5q-7 26 -2 53t19 49q32 46 90 49q29 1 54.5 -11t40.5 -33q36 -47 20 -103q-10 -34 -34 -61q9 -2 17.5 -4t17.5 -4l-14 -72q-21 5 -42 10.5t-42 13.5 q-11 -8 -22 -13t-19 -9q-83 -33 -176 -20q-5 2 -11.5 3t-13.5 4q-8 3 -13 11q-9 10 -10 20.5t-1 24.5l7 77l-73 -41zM-230 103q0 -43 30 -73t72 -30h257q43 0 73 30t30 73v126h-72v-116q0 -17 -12 -29t-29 -12h-80v157h-72v-157h-84q-17 0 -29 12t-12 29v116h-72v-126z M75.5 485.5q-4.5 -13.5 0.5 -28.5q4 -19 16.5 -29t28.5 -18q14 11 24.5 25.5t14.5 29.5q4 14 -1 28.5t-20 22.5q-14 6 -27 3.5t-22.5 -11.5t-14 -22.5z" />
<glyph unicode="&#x64d;&#x651;" arabic-form="isolated" d="M-231 0v72h462v-72h-462zM-231 144v72h462v-72h-462zM-231 394v127h72v-117q0 -17 12 -29t29 -12h85v158h71v-158h80q17 0 29 12t12 29v117h72v-127q0 -43 -30 -73t-72 -30h-257q-43 0 -73 30t-30 73z" />
<glyph unicode="&#x64e;&#x651;" arabic-form="isolated" d="M-230 103v126h72v-116q0 -17 12 -29t29 -12h84v157h72v-157h80q17 0 29 12t12 29v116h71v-126q0 -21 -7.5 -40t-21.5 -33t-33 -22t-40 -8h-257q-42 0 -72 30t-30 73zM-230 318v71h461v-71h-461z" />
<glyph unicode="&#x64f;&#x651;" arabic-form="isolated" d="M-230 103q0 -21 8 -40t22 -33q28 -30 72 -30h257q42 0 72 30t30 73v126h-72v-116q0 -17 -12 -29t-29 -12h-79v157h-72v-157h-85q-17 0 -29 12t-12 29v116h-71v-126zM-190 322l22 68q37 -12 77 -19.5t82 1.5q-32 32 -37 78q-3 27 5 53t25 46q18 20 42 30t52 8 q29 -3 52.5 -17t37.5 -37q30 -51 8 -105q-7 -17 -17.5 -31t-23.5 -26q8 -4 16.5 -6.5t17.5 -5.5l-23 -69q-20 7 -40.5 14.5t-40.5 18.5q-25 -13 -43 -17q-30 -8 -58.5 -9.5t-55 1.5t-51.5 9.5t-47 14.5zM25 458q1 -9 5.5 -20t17.5 -21q5 -4 8.5 -6.5t8.5 -5.5 q14 11 26.5 23.5t18.5 27.5q5 14 2 29t-17 23q-13 8 -26.5 7t-23.5 -8.5t-16 -20.5t-4 -28z" />
<glyph unicode="&#x650;&#x651;" arabic-form="isolated" d="M-231 0v72h462v-72h-462zM-231 250v127h72v-117q0 -17 12 -29t29 -12h85v158h71v-158h80q17 0 29 12t12 29v117h72v-127q0 -43 -30 -73t-72 -30h-257q-43 0 -73 30t-30 73z" />
<glyph unicode="&#x64b;&#x651;" arabic-form="isolated" d="M-230 103v126h72v-116q0 -17 12 -29t29 -12h84v157h72v-157h80q17 0 29 12t12 29v116h71v-126q0 -21 -7.5 -40t-21.5 -33t-33 -22t-40 -8h-257q-42 0 -72 30t-30 73zM-230 318v71h461v-71h-461zM-230 462v71h461v-71h-461z" />
<glyph unicode="&#xfedf;&#xfe82;" horiz-adv-x="1209" arabic-form="isolated" d="M105 0v255h171v739h254v-739h243q32 0 54.5 22.5t22.5 54.5v1018h254v-1018q0 -69 -26 -129.5t-71 -105.5t-105 -71t-129 -26h-668zM219 1156q26 42 54 60.5t58 18.5q16 0 35 -6t50 -21q19 -9 34 -13t29 -1.5t28.5 13.5t32.5 33l50 -69q-21 -23 -37 -38t-29 -23.5 t-25.5 -12t-25.5 -3.5q-28 0 -83 26q-20 10 -33.5 16t-24 5.5t-21 -8t-24.5 -25.5l-18 -21z" />
<glyph unicode="&#xfee0;&#xfe82;" horiz-adv-x="1249" arabic-form="final" d="M105 0v255h171v739h255v-739h320v1095h255v-1095h185v-255h-1186zM219 1156q26 42 54 60.5t58 18.5q16 0 35 -6t50 -21q19 -9 34 -13t29 -1.5t28.5 13.5t32.5 33l50 -69q-21 -23 -37 -38t-29 -23.5t-25.5 -12t-25.5 -3.5q-28 0 -83 26q-20 10 -33.5 16t-24 5.5t-21 -8 t-24.5 -25.5l-18 -21z" />
<glyph unicode="&#xfedf;&#xfe84;" horiz-adv-x="1209" arabic-form="isolated" d="M105 0v255h171v739h254v-739h243q32 0 54.5 22.5t22.5 54.5v1018h254v-1018q0 -69 -26 -129.5t-71 -105.5t-105 -71t-129 -26h-668zM247 1093v94h49q-16 40 -16 80q0 30 8.5 58t27 50t48.5 35.5t73 14.5h81v-95h-80h1q-34 -1 -49.5 -20.5t-15.5 -42.5q0 -15 3 -29 t8 -25.5t12.5 -18.5t15.5 -7h142v-94h-308z" />
<glyph unicode="&#xfee0;&#xfe84;" horiz-adv-x="1249" arabic-form="final" d="M105 0v255h171v739h255v-739h320v1095h255v-1095h185v-255h-1186zM247 1093v94h49q-16 40 -16 80q0 30 8.5 58t27 50t48.5 35.5t73 14.5h81v-95h-80h1q-34 -1 -49.5 -20.5t-15.5 -42.5q0 -15 3 -29t8 -25.5t12.5 -18.5t15.5 -7h142v-94h-308z" />
<glyph unicode="&#xfedf;&#xfe88;" horiz-adv-x="1209" arabic-form="isolated" d="M105 0v255h171v739h254v-739h243q32 0 54.5 22.5t22.5 54.5v1018h254v-1018q0 -69 -26 -129.5t-71 -105.5t-105 -71t-129 -26h-668zM216 -338h49q-16 40 -16 80q0 30 8.5 58t27 50t48.5 35.5t73 14.5h81v-95h-80h1q-34 -1 -49.5 -20.5t-15.5 -42.5q0 -15 3 -29t8 -25.5 t12.5 -18.5t15.5 -7h142v-94h-308v94z" />
<glyph unicode="&#xfee0;&#xfe88;" horiz-adv-x="1249" arabic-form="final" d="M105 0v255h171v739h255v-739h320v1095h255v-1095h185v-255h-1186zM216 -338h49q-16 40 -16 80q0 30 8.5 58t27 50t48.5 35.5t73 14.5h81v-95h-80h1q-34 -1 -49.5 -20.5t-15.5 -42.5q0 -15 3 -29t8 -25.5t12.5 -18.5t15.5 -7h142v-94h-308v94z" />
<glyph unicode="&#xfedf;&#xfe8e;" horiz-adv-x="1209" arabic-form="isolated" d="M105 0v255h171v739h254v-739h243q32 0 54.5 22.5t22.5 54.5v1018h254v-1018q0 -69 -26 -129.5t-71 -105.5t-105 -71t-129 -26h-668z" />
<glyph unicode="&#xfee0;&#xfe8e;" horiz-adv-x="1249" arabic-form="final" d="M105 0v255h171v739h255v-739h320v1095h255v-1095h185v-255h-1186z" />
<glyph unicode="&#x67e;" horiz-adv-x="1435" arabic-form="isolated" d="M105 454v372h256v-372q0 -41 15.5 -77.5t42.5 -63.5t63.5 -42.5t78.5 -15.5h438q32 0 54 22.5t22 54.5v662h255v-662q0 -69 -26 -129.5t-71 -105.5t-105 -71t-129 -26h-438q-95 0 -178 36t-144.5 97.5t-97.5 144t-36 176.5zM499 -232q0 27 10 50.5t27.5 41t40.5 27.5 t50 10t50.5 -10t41 -27.5t28 -41t10.5 -50.5t-10.5 -50.5t-28 -41t-41 -28t-50.5 -10.5t-50 10.5t-40.5 28t-27.5 41t-10 50.5zM654 -482q0 27 10 50.5t27.5 41t40.5 27.5t50 10t50.5 -10t41 -27.5t28 -41t10.5 -50.5t-10.5 -50.5t-28 -41t-41 -28t-50.5 -10.5t-50 10.5 t-40.5 28t-27.5 41t-10 50.5zM806 -232q0 27 10 50.5t27.5 41t41 27.5t50.5 10t50.5 -10t41 -27.5t27.5 -41t10 -50.5t-10 -50.5t-27.5 -41t-41 -28t-50.5 -10.5t-50.5 10.5t-41 28t-27.5 41t-10 50.5z" />
<glyph unicode="&#x67e;" horiz-adv-x="1474" arabic-form="final" d="M105 454v372h256v-372q0 -41 15.5 -77.5t42.5 -63.5t63.5 -42.5t77.5 -15.5h515v739h256v-739h185v-255h-956q-94 0 -177 36t-144.5 97.5t-97.5 144t-36 176.5zM547 -232q0 27 10 50.5t27.5 41t40.5 27.5t50 10t50.5 -10t41 -27.5t28 -41t10.5 -50.5t-10.5 -50.5t-28 -41 t-41 -28t-50.5 -10.5t-50 10.5t-40.5 28t-27.5 41t-10 50.5zM702 -482q0 27 10 50.5t27.5 41t40.5 27.5t50 10t50.5 -10t41 -27.5t28 -41t10.5 -50.5t-10.5 -50.5t-28 -41t-41 -28t-50.5 -10.5t-50 10.5t-40.5 28t-27.5 41t-10 50.5zM854 -232q0 27 10 50.5t27.5 41t41 27.5 t50.5 10t50.5 -10t41 -27.5t27.5 -41t10 -50.5t-10 -50.5t-27.5 -41t-41 -28t-50.5 -10.5t-50.5 10.5t-41 28t-27.5 41t-10 50.5z" />
<glyph unicode="&#x67e;" horiz-adv-x="630" arabic-form="initial" d="M-59 -241q0 27 10 50.5t27.5 41t40.5 27.5t50 10t50.5 -10t41 -27.5t28 -41t10.5 -50.5t-10.5 -50.5t-28 -41t-41 -28t-50.5 -10.5t-50 10.5t-40.5 28t-27.5 41t-10 50.5zM-41 0v255h233q31 0 53.5 22.5t22.5 54.5v662h255v-662q0 -69 -26 -129.5t-71 -105.5t-105.5 -71 t-128.5 -26h-233zM96 -491q0 27 10 50.5t27.5 41t40.5 27.5t50 10t50.5 -10t41 -27.5t28 -41t10.5 -50.5t-10.5 -50.5t-28 -41t-41 -28t-50.5 -10.5t-50 10.5t-40.5 28t-27.5 41t-10 50.5zM248 -241q0 27 10 50.5t27.5 41t41 27.5t50.5 10t50.5 -10t41 -27.5t27.5 -41 t10 -50.5t-10 -50.5t-27.5 -41t-41 -28t-50.5 -10.5t-50.5 10.5t-41 28t-27.5 41t-10 50.5z" />
<glyph unicode="&#x67e;" horiz-adv-x="668" arabic-form="medial" d="M-41 -232q0 27 10 50.5t27.5 41t40.5 27.5t50 10t50.5 -10t41 -27.5t28 -41t10.5 -50.5t-10.5 -50.5t-28 -41t-41 -28t-50.5 -10.5t-50 10.5t-40.5 28t-27.5 41t-10 50.5zM-40 0v255h309v739h255v-739h186v-255h-750zM114 -482q0 27 10 50.5t27.5 41t40.5 27.5t50 10 t50.5 -10t41 -27.5t28 -41t10.5 -50.5t-10.5 -50.5t-28 -41t-41 -28t-50.5 -10.5t-50 10.5t-40.5 28t-27.5 41t-10 50.5zM266 -232q0 27 10 50.5t27.5 41t41 27.5t50.5 10t50.5 -10t41 -27.5t27.5 -41t10 -50.5t-10 -50.5t-27.5 -41t-41 -28t-50.5 -10.5t-50.5 10.5t-41 28 t-27.5 41t-10 50.5z" />
<glyph unicode="&#x6a4;" horiz-adv-x="1862" arabic-form="isolated" d="M105 457v369h256v-369q0 -42 16 -78.5t43.5 -64t64.5 -43.5t79 -16h295v291q0 96 35.5 178t96 142t142 94t174.5 34t174.5 -34.5t143 -94.5t96.5 -141t35 -173v-217q0 -75 -26 -137t-71.5 -105.5t-106.5 -67.5t-130 -24h-858q-95 0 -178.5 36t-146 98.5t-98.5 145.5 t-36 177zM1024 1220q0 27 10 50.5t27.5 41t41 28t50.5 10.5t50.5 -10.5t41 -28t27.5 -41t10 -50.5t-10 -50.5t-27.5 -41t-41 -27.5t-50.5 -10t-50.5 10t-41 27.5t-27.5 41t-10 50.5zM1115 255h307q33 0 55.5 21.5t22.5 57.5v217q0 39 -15 73.5t-41.5 60t-61.5 40t-75 14.5 t-75 -15t-61 -41t-41 -61t-15 -76v-291zM1176 1470q0 27 10.5 50.5t28 41t41 28t50.5 10.5t50 -10.5t40.5 -28t27.5 -41t10 -50.5t-10 -50.5t-27.5 -41t-40.5 -27.5t-50 -10t-50.5 10t-41 27.5t-28 41t-10.5 50.5zM1331 1220q0 27 10.5 50.5t28 41t41 28t50.5 10.5t50 -10.5 t40.5 -28t27.5 -41t10 -50.5t-10 -50.5t-27.5 -41t-40.5 -27.5t-50 -10t-50.5 10t-41 27.5t-28 41t-10.5 50.5z" />
<glyph unicode="&#x6a4;" horiz-adv-x="1897" arabic-form="final" d="M105 457v369h255v-369q0 -42 16 -78.5t43.5 -64t64.5 -43.5t79 -16h295v291q0 96 35 178t96 142t142.5 94t173.5 34q93 0 175 -34.5t143 -94.5t96 -141t35 -173v-296h185v-255h-1376q-95 0 -178.5 36t-145.5 98.5t-98 145.5t-36 177zM1022 1220q0 27 10 50.5t27.5 41 t41 28t50.5 10.5t50.5 -10.5t41 -28t27.5 -41t10 -50.5t-10 -50.5t-27.5 -41t-41 -27.5t-50.5 -10t-50.5 10t-41 27.5t-27.5 41t-10 50.5zM1114 255h385v296q0 39 -15.5 73.5t-41.5 60t-61.5 40t-75.5 14.5q-39 0 -74 -15t-61 -41t-41 -61t-15 -76v-291zM1174 1470 q0 27 10.5 50.5t28 41t41 28t50.5 10.5t50 -10.5t40.5 -28t27.5 -41t10 -50.5t-10 -50.5t-27.5 -41t-40.5 -27.5t-50 -10t-50.5 10t-41 27.5t-28 41t-10.5 50.5zM1329 1220q0 27 10.5 50.5t28 41t41 28t50.5 10.5t50 -10.5t40.5 -28t27.5 -41t10 -50.5t-10 -50.5t-27.5 -41 t-40.5 -27.5t-50 -10t-50.5 10t-41 27.5t-28 41t-10.5 50.5z" />
<glyph unicode="&#x6a4;" horiz-adv-x="1145" arabic-form="initial" d="M-42 0v255h186v291q0 96 35 178t96 142t142 94t174 34t174.5 -34.5t142.5 -94.5t96 -141t35 -173v-217q0 -75 -26 -137t-71.5 -105.5t-106 -67.5t-129.5 -24h-748zM308 1220q0 27 10 50.5t27.5 41t41 28t50.5 10.5t50.5 -10.5t41 -28t27.5 -41t10 -50.5t-10 -50.5 t-27.5 -41t-41 -27.5t-50.5 -10t-50.5 10t-41 27.5t-27.5 41t-10 50.5zM398 255h308q33 0 55.5 21.5t22.5 57.5v217q1 39 -14 73.5t-41.5 60t-62 40t-75.5 14.5t-75 -15t-61.5 -41t-41.5 -61t-15 -76v-291zM460 1470q0 27 10.5 50.5t28 41t41 28t50.5 10.5t50 -10.5 t40.5 -28t27.5 -41t10 -50.5t-10 -50.5t-27.5 -41t-40.5 -27.5t-50 -10t-50.5 10t-41 27.5t-28 41t-10.5 50.5zM615 1220q0 27 10.5 50.5t28 41t41 28t50.5 10.5t50 -10.5t40.5 -28t27.5 -41t10 -50.5t-10 -50.5t-27.5 -41t-40.5 -27.5t-50 -10t-50.5 10t-41 27.5t-28 41 t-10.5 50.5z" />
<glyph unicode="&#x6a4;" horiz-adv-x="1183" arabic-form="medial" d="M-42 0v255h186v291q0 96 35 178t96 142t142 94t174 34t174.5 -34.5t142.5 -94.5t96.5 -141t35.5 -173v-296h185v-255h-1267zM306 1220q0 27 10 50.5t27.5 41t41 28t50.5 10.5t50.5 -10.5t41 -28t27.5 -41t10 -50.5t-10 -50.5t-27.5 -41t-41 -27.5t-50.5 -10t-50.5 10 t-41 27.5t-27.5 41t-10 50.5zM398 255h387v296q0 39 -15.5 73.5t-41.5 60t-61.5 40t-75.5 14.5t-75 -15t-61.5 -41t-41.5 -61t-15 -76v-291zM458 1470q0 27 10.5 50.5t28 41t41 28t50.5 10.5t50 -10.5t40.5 -28t27.5 -41t10 -50.5t-10 -50.5t-27.5 -41t-40.5 -27.5t-50 -10 t-50.5 10t-41 27.5t-28 41t-10.5 50.5zM613 1220q0 27 10.5 50.5t28 41t41 28t50.5 10.5t50 -10.5t40.5 -28t27.5 -41t10 -50.5t-10 -50.5t-27.5 -41t-40.5 -27.5t-50 -10t-50.5 10t-41 27.5t-28 41t-10.5 50.5z" />
<glyph unicode="&#x686;" horiz-adv-x="1098" arabic-form="isolated" d="M105 -49q0 57 18 111.5t55 97.5t91.5 69t128.5 26h259q32 0 55 21.5t23 52.5v200q0 62 -17 103t-45 65t-63 33.5t-72 9.5q-40 0 -85 -9t-88 -21.5t-80 -27.5t-61 -27l-110 230q31 15 80.5 34t107.5 36t119 28.5t117 11.5q85 0 166 -20.5t144.5 -73t102.5 -143t39 -229.5 v-200q0 -68 -26 -128t-71 -104.5t-106 -70.5t-130 -26h-259q-19 0 -29 -15t-10 -34t10 -35t29 -16h239v-255h-239q-74 0 -128.5 26.5t-91.5 69.5t-55 98t-18 112zM717 -175q0 26 18 44t44 18t44 -18t18 -44t-18 -44t-44 -18t-44 18t-18 44zM791 -294q0 26 18 44t44 18 q25 0 44 -18t19 -44t-19 -44t-44 -18q-26 0 -44 18t-18 44zM864 -175q0 26 18 44t44 18t44 -18t18 -44t-18 -44t-44 -18t-44 18t-18 44z" />
<glyph unicode="&#x686;" horiz-adv-x="1135" arabic-form="final" d="M105 -49q0 57 18 111.5t55 97.5t91.5 69t128.5 26h338v274q0 62 -17 103t-44.5 65t-63 33.5t-72.5 9.5q-39 0 -84 -9t-88 -21.5t-80.5 -27.5t-61.5 -27l-110 230q31 15 80.5 34t107.5 36t119 28.5t117 11.5q85 0 166.5 -20.5t145 -73t102.5 -143t39 -229.5v-274h185v-255 h-779q-19 0 -28.5 -15t-9.5 -34t9.5 -35t28.5 -16h239v-255h-239q-74 0 -128.5 26.5t-91.5 69.5t-55 98t-18 112zM717 -175q0 26 18 44t44 18t44 -18t18 -44t-18 -44t-44 -18t-44 18t-18 44zM791 -294q0 26 18 44t44 18q25 0 44 -18t19 -44t-19 -44t-44 -18q-26 0 -44 18 t-18 44zM864 -175q0 26 18 44t44 18t44 -18t18 -44t-18 -44t-44 -18t-44 18t-18 44z" />
<glyph unicode="&#x686;" horiz-adv-x="1099" arabic-form="initial" d="M-42 0v255h703q33 0 56 21.5t23 52.5v200q0 62 -17 103t-45 65t-63 33.5t-72 9.5q-40 0 -85 -9t-88 -21.5t-80.5 -27.5t-62.5 -27l-109 230q32 15 81.5 34t107 36t119 28.5t117.5 11.5q85 0 166 -20.5t144.5 -73t102 -143t38.5 -229.5v-200q0 -68 -26 -128t-71.5 -104.5 t-106 -70.5t-129.5 -26h-703zM272 -232q0 27 10 50.5t27.5 41t40.5 27.5t50 10t50.5 -10t41 -27.5t28 -41t10.5 -50.5t-10.5 -50.5t-28 -41t-41 -28t-50.5 -10.5t-50 10.5t-40.5 28t-27.5 41t-10 50.5zM427 -482q0 27 10 50.5t27.5 41t40.5 27.5t50 10t50.5 -10t41 -27.5 t28 -41t10.5 -50.5t-10.5 -50.5t-28 -41t-41 -28t-50.5 -10.5t-50 10.5t-40.5 28t-27.5 41t-10 50.5zM579 -232q0 27 10 50.5t27.5 41t41 27.5t50.5 10t50.5 -10t41 -27.5t27.5 -41t10 -50.5t-10 -50.5t-27.5 -41t-41 -28t-50.5 -10.5t-50.5 10.5t-41 28t-27.5 41t-10 50.5z " />
<glyph unicode="&#x686;" horiz-adv-x="1141" arabic-form="medial" d="M-42 0v255h785v274q0 62 -17 103t-45 65t-63 33.5t-72 9.5q-40 0 -85 -9t-88.5 -21.5t-81 -27.5t-61.5 -27l-109 230q31 15 80.5 34t107.5 36t119.5 28.5t117.5 11.5q85 0 166 -20.5t144.5 -73t102 -143t38.5 -229.5v-274h186v-255h-1225zM272 -232q0 27 10 50.5t27.5 41 t40.5 27.5t50 10t50.5 -10t41 -27.5t28 -41t10.5 -50.5t-10.5 -50.5t-28 -41t-41 -28t-50.5 -10.5t-50 10.5t-40.5 28t-27.5 41t-10 50.5zM427 -482q0 27 10 50.5t27.5 41t40.5 27.5t50 10t50.5 -10t41 -27.5t28 -41t10.5 -50.5t-10.5 -50.5t-28 -41t-41 -28t-50.5 -10.5 t-50 10.5t-40.5 28t-27.5 41t-10 50.5zM579 -232q0 27 10 50.5t27.5 41t41 27.5t50.5 10t50.5 -10t41 -27.5t27.5 -41t10 -50.5t-10 -50.5t-27.5 -41t-41 -28t-50.5 -10.5t-50.5 10.5t-41 28t-27.5 41t-10 50.5z" />
<glyph unicode="&#xfdf2;" horiz-adv-x="1956" arabic-form="isolated" d="M71 329v202q0 96 35.5 180t97 146.5t144 99t175.5 36.5t176 -37t144.5 -99.5t97 -145.5t34.5 -175v-281h142v1095h255v-1095h81q32 0 54.5 22t22.5 54v1019h255v-1019q0 -68 -26 -128.5t-71 -105.5t-105.5 -71t-129.5 -26h-732v537q0 41 -15.5 77.5t-42.5 64t-63 43.5 t-77 16t-77 -16t-62.5 -44t-42 -66t-15.5 -81v-202q0 -31 21.5 -52.5t53.5 -21.5h150v-255h-150q-68 0 -128 26t-105 70.5t-71 104.5t-26 128z" />
<glyph unicode="&#xfdfa;" horiz-adv-x="1320" arabic-form="isolated" d="M105 420q0 54 47 89q-7 -12 -13.5 -21t-8.5 -12q-4 -9 -7 -18.5t-3 -19.5q-1 -16 13 -16q9 0 17 8q5 8 2 21l7 -7q2 -23 -9 -38q-5 -7 -10 -10t-14 -3q-21 0 -21 27zM110 870q2 30 16.5 57.5t45.5 50.5q-6 -10 -11 -19t-11 -20q-16 -24 -19 -45q0 -11 5.5 -17.5 t13.5 -6.5q10 0 17 11q5 6 6 12.5t0 15.5l5 -9q3 -31 -6 -47q-15 -18 -28 -14q-19 0 -26.5 7t-7.5 24zM120 650q-6 59 0 159h18q-5 -53 -5 -85t5 -40q18 -93 56 -93q26 0 52 50q11 28 22 53.5t24 54.5q22 45 48 66t59 20q17 0 51 -59q8 -21 25.5 -32t48.5 -11q15 -2 32.5 5 t32.5 21l-12 122q-30 19 -50 77q-5 -50 -30.5 -75t-72.5 -22q-34 1 -51 29t-14 84q0 2 1.5 11.5t7.5 28.5q2 17 3 31.5t-1 25.5q-11 -15 -18.5 -35t-12.5 -46q-4 -16 -7 -33.5t-6 -35.5q-18 -48 -46 -48q-20 0 -34 36q-6 17 -9.5 36t-1.5 39q0 32 2 50.5t4 26.5l14 -3 q-2 -13 -3 -27t-1 -29q0 -86 38 -87q13 0 40 89q14 51 33.5 81t42.5 41l-6 -39q-4 -22 -7.5 -46.5t-5.5 -57.5q-4 -69 50 -69q15 -2 28 4t27 17q12 14 19 28.5t7 30.5l-16 128l19 42q7 -18 9 -29.5t2 -19.5l7 -56t11 -75q5 -12 10.5 -22.5t11.5 -20.5q0 13 -1 17l8 54 q18 -7 30 -91q1 -1 7 -1q29 0 43 23q-11 26 -17 44t-11 27q-10 29 -16 52t-6 40l-10 23l14 42l45 -72l-1 -16q-9 4 -14 10t-8 13l-2 -11q20 -51 32 -86t12 -54q-2 -40 -18.5 -60t-45.5 -22l10 -88q19 18 32 28.5t24 14.5q-2 -35 9.5 -53.5t37.5 -18.5q51 -3 78 37 q12 18 18.5 40t3.5 49l-34 274q-1 6 -1.5 21t-0.5 36l4 54q11 -3 18 -25.5t13 -63.5l28 -276q13 -139 74 -142q-21 27 -30.5 60.5t-9.5 73.5q2 49 40 79q16 12 33.5 17t37.5 5q75 -2 126 -60v-5q-11 7 -29.5 14t-48.5 14q-37 3 -91 -15q-20 -6 -33.5 -11t-16.5 -10 q0 -17 27 -75q17 -32 38 -50t44 -18q15 -1 36.5 3.5t47.5 16.5q29 10 49 21t36 22l-22 -49q-26 -28 -97 -54q-82 -34 -139 -31q-28 0 -46 59q-23 60 -45 60q0 -20 -9 -40.5t-21 -41.5q-35 -47 -73 -44q-5 0 -9 0.5t-9 2.5q3 -8 4.5 -16.5t3.5 -16.5l19 -158q24 9 46 26 q15 15 32 31t33 31q2 -8 4.5 -15.5t3.5 -15.5q8 -28 21 -39q94 154 175 153q44 -2 66 -22t20 -61q-2 -36 -17.5 -63t-44.5 -47q-29 -19 -61 -27t-70 -7q-32 3 -69 15l-28 -54h-11q4 3 9 19.5t13 46.5q-7 5 -16 20t-20 40q-32 -67 -76 -82l7 -64q6 -38 22 -59.5t46 -23.5 q42 0 93 39q32 24 49 37t19 13l5 -3q-2 -4 -2 -23q-2 -11 0.5 -18.5t6.5 -15.5q5 -5 12 -9t17 -4q31 0 54 35q7 11 12 19.5t9 14.5t8 11h5q0 -16 1 -26.5t6 -18.5q22 -22 29 -22q16 0 34 15q0 8 -2.5 14.5t-11.5 14.5l22 50q8 -8 12 -21t4 -34q-2 -15 -7 -29.5t-10 -28.5 q-21 -30 -49 -30q-16 2 -27.5 11.5t-16.5 31.5q-31 -63 -82 -63q-11 2 -20 7t-17 15q-16 19 -16 45q-15 -11 -28 -20.5t-27 -20.5q-27 -17 -47 -27t-35 -10q-19 0 -44 30q-25 25 -44 25l-45 -25q-43 -29 -43 -58q0 -3 2 -10.5t7 -19.5q46 15 73 15q22 0 40 -26 q14 -28 14 -64q-1 -69 -47 -66q-13 0 -27.5 6t-31.5 17q-18 14 -29.5 27.5t-18.5 31.5q-11 -5 -32.5 -18t-48.5 -36q-19 -20 -40 -39.5t-41 -41.5q-29 -23 -49.5 -34.5t-35.5 -11.5q-43 4 -63.5 24t-18.5 62q5 107 59 178q-8 -1 -15 -1h-15q-147 5 -142 154q0 45 11.5 87 t33.5 83l12 -3q-9 -20 -17.5 -51t-19.5 -69q-1 -53 27 -93q35 -55 110 -58q32 0 71.5 9.5t87.5 29.5q111 52 111 66q0 9 -152 47l18 54l5 -1q29 -3 51.5 8.5t39.5 34.5q19 23 26 48.5t5 51.5l-11 87q-47 -34 -80 -34q-27 1 -47.5 13.5t-32.5 39.5q-3 8 -8.5 16t-10.5 16 q-9 17 -24 17q-56 4 -99 -90q-11 -23 -21.5 -47.5t-20.5 -46.5q-22 -59 -54 -59q-11 3 -23.5 11.5t-23.5 26.5q-11 16 -19.5 33.5t-12.5 39.5zM217 131q0 53 45 85q-8 -14 -13 -20.5t-7 -8.5q-10 -20 -10 -37q-1 -19 14 -19q7 0 12 6q3 5 4.5 11t-0.5 11l4 -5 q1 -13 -0.5 -22.5t-7.5 -14.5q-4 -6 -9 -10.5t-10 -4.5q-22 5 -22 29zM224 1105q5 53 49 85q-5 -6 -9 -14t-9 -16q-7 -8 -10 -17.5t-3 -20.5q0 -16 13 -19q7 0 15 8q5 10 5 25l3 -7q3 -21 -6 -38q-12 -15 -21 -14q-27 0 -27 28zM304 446q0 11 11 11q13 0 22.5 -12t17.5 -41 q0 11 3 21.5t8 24.5q10 22 22 22q5 0 15 -10v-18q-2 -4 -10 -4q0 3 -2.5 5t-4.5 6q-11 0 -31 -69h-7q-3 41 -19 44q-25 0 -25 20zM311 549q1 26 12 48t35 40q-10 -12 -15.5 -19.5t-7.5 -11.5q-10 -17 -10 -36q0 -20 16 -20q4 -1 13 8q6 10 4 23l5 -4q4 -28 -8 -40 q-5 -5 -10.5 -9t-10.5 -3q-23 0 -23 24zM325 99q-3 -37 9 -57.5t36 -20.5q32 -1 86 47q19 18 37.5 36t37.5 33q9 8 30.5 21.5t57.5 32.5q0 8 -0.5 14.5t-0.5 11.5q1 45 59 98q26 27 39.5 46t9.5 32l-8 62h-13q-46 2 -93 82q-2 -20 -13.5 -39t-35.5 -39q15 -5 31.5 -11.5 t34.5 -15.5q2 -5 2.5 -12t0.5 -18q-2 -18 -8 -35t-19 -36q-12 -9 -32 -19.5t-49 -22.5q-80 -50 -145 -57q-12 -19 -18.5 -29.5t-8.5 -15.5q-14 -30 -20.5 -51t-6.5 -37zM409 1229v10l24 37h3q-2 -10 -4 -19.5t-2 -19.5q0 -28 12 -28q11 0 16 4t5 16q-1 6 -1.5 16.5 t-2.5 21.5l12 13q0 -79 20 -68q5 -2 8 2t3 10q0 7 -3 18.5t-6 24.5l11 16q5 -19 8 -34t3 -25q-3 -35 -24 -34q-18 0 -23 20q-1 -23 -31 -23q-18 0 -18 37v19zM414 583l34 38l42 -34l-31 -42zM428 1379l2 26q40 -17 41 -48q3 -48 -14 -57l-4 1q10 18 3 44q-4 22 -28 34z M462 -93q1 26 13.5 48.5t33.5 39.5q-17 -20 -19 -30q-6 -9 -9 -19.5t-3 -19.5q0 -19 15 -19q2 0 6 3t7 7q2 3 3 9.5t0 11.5l4 -7q6 -22 -6 -37q-8 -11 -24 -11q-21 2 -21 24zM490 596l35 36l39 -34l-34 -39zM560 -5q1 36 4.5 63.5t12.5 47.5h11q-3 -14 -5.5 -32.5 t-5.5 -43.5q0 -53 40 -89q14 -11 31 -17.5t38 -6.5q77 -5 163 61q35 28 56.5 48.5t25.5 33.5q0 5 -1 10t-4 10q-9 19 -30 22l-44 4q-42 3 -41 50q2 45 16 67t37 22q31 -2 62 -49q26 -47 25 -103q0 -29 -6.5 -50.5t-17.5 -37.5q-15 -23 -32 -40t-36 -31q-51 -37 -93 -56 t-74 -18q-32 2 -57 13t-45 29q-15 19 -24 42.5t-6 50.5zM624 740l12 -90q6 -72 24.5 -106.5t47.5 -34.5h3l-21 141q-2 6 -3.5 16t-4.5 26l6 22q-5 4 -7.5 6.5t-4.5 5.5q-14 12 -18 22.5t-2 19.5q-9 -7 -16 -14.5t-16 -13.5zM662 1385l22 54l53 -113v-23l-27 28q-2 0 -2 -5 v-12l49 -319q6 -29 2 -61t-16 -68h-7q1 34 -1 67t-9 64l-49 338q-1 5 -3.5 13.5t-7.5 17.5q-4 11 -4 19zM678 159q27 -39 82 -40q-14 48 -37 48q-27 2 -45 -8zM833 159h69q-1 5 -6 9.5t-13 9.5q-8 9 -14 12t-11 3q-18 0 -25 -34zM896 1269q0 17 10 17q18 0 41 -56 q10 70 30 70q4 -2 9 -5t9 -8l-1 -20q-3 -1 -8 -1q-1 2 -4 6t-10 6q-10 0 -25 -71h-7q-3 31 -16 39q-7 0 -12 2.5t-8 4.5q-8 5 -8 16zM904 523q5 -3 17 -4.5t31 -4.5q32 0 61.5 6t60.5 17q22 10 36.5 19.5t21.5 16.5q-14 29 -38 41.5t-59 12.5q-17 2 -36.5 -7t-41.5 -28 q-19 -17 -31 -34t-22 -35zM990 75q4 2 19 23t45 59q20 38 38 41q10 -3 29 -3q0 12 17 34q3 -17 10 -13q4 1 5.5 4t1.5 5q0 12 1 16q5 -1 6 4q15 -46 -5 -49q3 2 -2 2.5t-19 2.5q7 -23 -20 -29h-20q-4 0 -7 1q-9 -1 -26 -31q-11 -17 -27 -33.5t-41 -31.5zM1002 1069 q15 5 39 19t56 34l-62 3q4 0 -2 -2.5t-20 -7.5q0 11 11 22q5 6 9 10t11 4l77 -1q3 -40 -34 -63q-33 -18 -71 -18h-14zM1160 688q0 2 2 8.5t10 17.5q43 -33 42 -90q0 -32 -20 -52v16q5 11 6 18t1 12q0 11 -4.5 23t-14.5 20q-22 25 -22 27z" />
<glyph unicode="&#xfdfb;" horiz-adv-x="4918" arabic-form="isolated" d="M105 191q0 38 12.5 76t41.5 80q5 7 27 36t60 77l10 -8q-113 -142 -113 -215q0 -84 70 -84q71 0 227 138q72 63 136 98t123 41q-6 27 -9 51.5t-3 44.5q0 33 7 67t20 72q39 90 92 90q28 0 66 -64q20 -32 39.5 -49t39.5 -17q38 0 136 40q29 12 57 24l56 24q-9 2 -22 6 q-11 3 -27.5 8t-39.5 12q-30 11 -52 15.5t-36 4.5q-18 0 -26 -8h-129v12q0 23 9.5 41.5t30.5 31.5q29 26 67 26q27 0 58.5 -7t67.5 -19q54 -20 86.5 -31t46.5 -16q68 -17 137 -24.5t142 -7.5q0 -5 -18 -50q-24 -42 -28 -42q-32 6 -64 8t-61 2q-24 0 -56.5 -7.5t-77.5 -24.5 q-42 -17 -72.5 -32t-48.5 -29q-14 -14 -37 -52.5t-53 -101.5q-77 -162 -77 -261q0 -37 22 -57q20 -22 55 -22q18 0 47 17.5t71 51.5q30 26 58 51t57 51q36 27 92.5 63t134.5 82q54 32 83.5 56.5t34.5 39.5q-2 21 -3.5 44t-4.5 46l-104 659q-3 13 -12 38q-5 12 -6.5 21 t-1.5 16l28 110l100 -203v-30l-46 46l86 -560q6 -42 6 -95q0 -72 -11 -124.5t-35 -85.5q-46 -63 -46 -145q0 -27 8.5 -48.5t23.5 -39.5q17 -20 35.5 -28.5t42.5 -8.5q97 0 324 189q261 223 365 265q-2 3 -25 19.5t-67 47.5q-32 24 -49 49.5t-17 52.5q0 64 46 92 q31 17 104 17q30 0 87.5 -7.5t143.5 -25.5q97 -18 162.5 -29t100.5 -13q0 -5 -4 -16t-12 -32q-8 -20 -12.5 -31.5t-7.5 -14.5q-74 -27 -151 -60t-162 -73q32 -47 32 -94q0 -15 -10 -38q-13 -26 -18 -26t-16.5 8.5t-31.5 23.5q-18 15 -31 28t-22 24q-11 -11 -25.5 -36.5 t-32.5 -67.5q-21 -54 -31.5 -100.5t-10.5 -90.5q0 -77 70 -77q57 0 203 149q35 33 92.5 71t140.5 80q66 30 100 57t37 47q-3 21 -5 44t-7 46l-99 659q-3 8 -6 17t-8 21t-6.5 21t-1.5 16l26 110l101 -203v-30l-45 46l85 -560q2 -17 3 -37.5t1 -44.5q0 -215 -76 -251 q-37 -19 -73 -37l-72 -36q-41 -21 -78.5 -50.5t-76.5 -67.5q-159 -161 -247 -161q-46 0 -72 38q-26 40 -26 95q0 42 11 91.5t35 106.5q18 43 36.5 79t41.5 68q-51 -26 -113 -69t-138 -106q-100 -85 -158.5 -132.5t-76.5 -60.5q-65 -44 -119 -67t-100 -23q-33 0 -59 13.5 t-43 40.5q-36 51 -36 125q0 80 36 157q-55 -29 -106 -59q-43 -27 -81.5 -53t-71.5 -53q-38 -32 -73.5 -62.5t-73.5 -60.5q-42 -36 -77 -53t-61 -17q-24 0 -42 9t-33 27q-18 21 -28 47.5t-10 61.5q0 56 20.5 123t58.5 146q23 39 45 79t45 81q-30 -18 -56.5 -26t-49.5 -8 q-22 0 -43 12.5t-38 39.5q-33 47 -60 47q-29 0 -58 -32q-34 -33 -34 -55q0 -21 17 -43.5t49 -46.5q29 -18 56 -35t54 -35q0 -18 -4 -41t-12 -52q-28 14 -58 32q-49 23 -84 23q-45 0 -93.5 -18t-99.5 -57l-82 -70t-85 -70q-89 -73 -165 -73q-40 0 -70 30q-32 31 -32 95z M207 510q0 29 11.5 61t31.5 66q23 36 44.5 58.5t41.5 33.5l2 -8q-42 -42 -62 -77.5t-20 -63.5q0 -40 26 -40q8 0 12 4q3 2 6.5 3t5.5 3l4 -6q-17 -41 -32 -62.5t-32 -21.5q-39 0 -39 50zM223 295v4q156 61 262 165q35 38 74 98q27 45 36 45q16 0 28 -31q5 -11 6.5 -20 t1.5 -14q0 -38 -16 -38q-21 0 -56 26q-9 -18 -22.5 -40t-33.5 -48q-46 -62 -116 -97.5t-164 -49.5zM414 835q0 49 38 49q48 0 81 -103q30 183 80 183q26 0 26 -54q0 -26 -18 -50q-15 18 -26 18q-14 0 -23.5 -18t-18.5 -53q-3 -24 -7 -49.5t-9 -52.5q-6 21 -18 47.5t-32 62.5 q-2 -17 -9 -23.5t-20 -6.5q-16 0 -30 14t-14 36zM533 123q8 21 15.5 43.5t18.5 48.5q26 -6 49 -17.5t47 -26.5q6 17 12 35.5t12 36.5q28 -8 52.5 -18.5t42.5 -25.5q0 -10 -12 -46q-12 -35 -20 -45q-29 14 -50 25.5t-39 17.5q-8 -26 -16 -43t-14 -28q-71 37 -98 43zM579 560 q6 -9 17 -13.5t25 -6.5q-5 9 -11.5 16.5t-12.5 13.5l-10.5 -3.5t-7.5 -6.5zM663 1046q49 14 80.5 29t48.5 32q-33 12 -74 12q-8 0 -12 -2t-5.5 -3t-3.5 -1q0 47 19.5 66.5t61.5 13.5q23 -3 47.5 -10.5t48.5 -19.5q-3 -15 -15.5 -33t-32.5 -41q-6 -6 -22 -13t-40 -18 t-43 -15.5t-30 -4.5q-12 0 -28 8zM842 928l4 50q214 217 528 265l-10 -42q-159 -30 -289.5 -98t-232.5 -175zM1131 484l10 38q36 30 59 30q15 0 32 -1.5t32 -6.5l-22 -38q-11 -6 -21.5 -15.5t-24.5 -26.5q-11 -14 -18 -25.5t-7 -20.5q0 -26 47 -26q62 0 100 52 q-5 -20 -14 -37.5t-26 -34.5q-15 -14 -33.5 -21.5t-36.5 -7.5q-61 0 -61 59q0 14 15.5 39.5t43.5 64.5q-5 0 -10 1t-10 1q-14 0 -29 -6t-26 -18zM1135 1004v24q6 18 18 36q6 13 14.5 22t18.5 15q-5 -61 0 -91t24 -30q14 0 22 10t8 30q0 9 -4 27t-10 46l22 30q8 -12 13 -32.5 t7 -48.5q3 -40 30 -40q18 0 18 24q-2 8 -5 19l-5 22.5t-8 31.5l20 42q14 -38 21 -70t7 -61q0 -72 -50 -72q-20 0 -46 26q-6 -23 -20 -34.5t-32 -11.5q-33 0 -39 48q0 20 -1 38t-1 38q-6 -8 -11 -17.5t-11 -20.5zM1352 64q0 55 44 125q45 71 83 92l2 -6q-39 -42 -60 -78.5 t-21 -63.5q0 -41 27 -41q4 0 12 4q3 3 5 4q1 1 3 2l8 -4q-32 -88 -63 -88q-40 0 -40 54zM1603 293q0 55 44 125q22 35 43 58t42 34l2 -6q-83 -86 -83 -144q0 -39 27 -39q8 0 14 6t8 6l4 -6q-15 -44 -30 -65t-33 -21q-38 0 -38 52zM1651 1324l29 110l100 -203v-30l-48 46 l104 -653q2 -11 2 -30v-46q0 -32 -8.5 -67.5t-23.5 -74.5h-16q3 44 0 97.5t-14 116.5l-104 659q0 8 -2.5 17t-6.5 21q-8 12 -10 21t-2 16zM1937 554q8 21 15.5 43t16.5 48q30 -8 54 -19t42 -25q0 -9 -12 -45q-12 -35 -20 -46q-35 18 -58.5 28.5t-37.5 15.5zM1939 1233 q40 -26 74 -84q30 -54 30 -103q0 -27 -4 -49.5t-10 -42.5q68 -19 68 -94q0 -18 -5 -34t-17 -33q-20 -32 -54 -32q-52 0 -52 58q0 6 5.5 26t16.5 53q24 66 24 110q0 39 -17.5 71t-50.5 58q0 2 -2.5 25.5t-5.5 70.5zM1993 850q0 -35 32 -35q29 0 56 35q-9 18 -25 30.5 t-39 21.5q-11 -14 -17.5 -26t-6.5 -26zM2063 88q0 52 48 127q21 35 40.5 57t42.5 33v-6q-81 -89 -81 -144q0 -40 28 -40q3 0 5.5 1t5.5 3q2 1 2.5 2t2.5 2q1 1 3 2l6 -6q-29 -85 -61 -85q-42 0 -42 54zM2145 934l31 70q47 50 110.5 93t144.5 84q81 39 158.5 65t154.5 37 l-36 -60q-79 -15 -157 -42t-156 -68q-76 -38 -138.5 -82t-111.5 -97zM2174 1223q94 30 126 62q-17 5 -34.5 7.5t-37.5 2.5h-5.5t-6.5 -2q-3 0 -5.5 -1t-4.5 -1q0 86 82 77q47 -9 94 -30q-5 -15 -17 -31.5t-35 -39.5q-8 -11 -56 -32q-49 -20 -74 -20q-5 0 -11.5 1.5 t-14.5 6.5zM2204 739q44 -27 73.5 -47t46.5 -35q12 -11 29 -25.5t36 -32.5l236 102q-101 24 -180 35t-141 11q-33 0 -58 -1.5t-42 -6.5zM2457 976v24q5 8 8 16.5t8 17.5q8 14 16.5 23t19.5 17q-15 -122 26 -122q28 0 28 40q0 18 -12 72l18 31q9 -12 14 -32t8 -49 q2 -20 9 -31t21 -11q19 0 19 26q0 2 -4.5 20t-12.5 54l19 41q24 -74 24 -133q0 -68 -47 -68q-9 0 -21.5 6t-24.5 18q-6 -21 -19 -33.5t-33 -12.5q-18 0 -27.5 12.5t-12.5 35.5q-2 18 -2 37v39q-5 -8 -10.5 -17t-11.5 -21zM2545 492l12 36q32 32 60 32q14 0 29 -2.5t32 -5.5 l-22 -40q-11 -5 -21.5 -14.5t-23.5 -23.5q-14 -17 -21 -28t-7 -20q0 -14 14 -21t37 -7q29 0 54.5 13t45.5 39q-5 -20 -15 -36.5t-27 -33.5q-31 -31 -67 -31q-62 0 -62 61q0 27 60 102q-5 2 -10.5 2h-11.5q-31 0 -56 -22zM2873 92q0 54 44 127q44 67 84 92l2 -10 q-82 -85 -82 -142q0 -40 28 -40q8 0 12 4q9 6 10 6l4 -4q-15 -42 -31 -64.5t-33 -22.5q-20 0 -29 14t-9 40zM2967 1324l26 110l102 -203v-30l-46 46l99 -653q2 -11 3 -30t1 -46q0 -32 -7.5 -67.5t-24.5 -74.5h-15q4 44 -0.5 97.5t-15.5 116.5l-100 659q-3 8 -6 17t-8 21 t-6.5 21t-1.5 16zM3019 522q0 35 3 55.5t9 31.5q2 -2 8 -14q-6 -57 12 -141q11 -65 30 -95t47 -30q24 0 42 41q14 34 14 62q3 23 8 56.5t10 77.5q3 17 10.5 41.5t21.5 57.5q15 32 28.5 54t27.5 34q10 0 22 -30q5 -14 7.5 -24t2.5 -18q0 2 -3 -14.5t-11 -51.5 q-8 -31 -12 -61.5t-4 -57.5q0 -26 4.5 -48t15.5 -40q12 -26 29.5 -37t41.5 -11q29 0 53.5 9t44.5 29q40 37 40 90q0 23 -7.5 58t-24.5 83q-30 96 -30 118q0 -4 18 68q2 0 5 -0.5t9 -3.5q24 -32 47.5 -108t44.5 -197q6 -40 43 -68q18 -15 36 -21.5t36 -6.5q43 0 64 24 q-15 60 -74 209q-27 69 -39.5 105t-12.5 39q0 4 18 75q8 -8 31.5 -34t64.5 -73v-16q-6 0 -16.5 3.5t-25.5 12.5q45 -113 69.5 -182.5t24.5 -96.5q0 -30 -6.5 -55t-21.5 -49q-31 -55 -86 -55q-32 0 -56.5 11.5t-41.5 31.5q-14 -14 -30 -35t-33 -48q-20 -33 -29 -61t-9 -51 q0 -32 18 -57q18 -24 52 -24q21 0 66.5 24t114.5 77q88 66 136.5 101.5t54.5 40.5q15 8 28 13.5t24 10.5q15 5 31 9t33 4q0 8 -1.5 20.5t-6.5 29.5q-6 33 -6 38q0 30 11 62t30 68q42 77 90 77q8 0 20.5 -16t33.5 -46q35 -63 95 -63q55 0 88 36q54 59 68 67v-7.5t-2 -16.5 q-6 -18 -6 -29q0 -23 11 -33.5t31 -10.5q42 0 63 36q15 32 25.5 52.5t16.5 26.5q6 -48 34 -71q25 -28 54 -28q18 0 40 16v14q-20 37 -44 96.5t-54 142.5q-5 10 -9.5 21.5t-10.5 25.5q-2 5 -4.5 10.5t-5.5 11.5q-3 9 -5.5 14t-2.5 10q0 3 4 13t10 27q8 15 11 26t5 14 q9 -8 33 -39t65 -87q-5 -5 -5.5 -7.5t-0.5 -4.5l-38 16q-2 -2 -2 -8q5 -9 12 -22q13 -24 38 -67q24 -47 36 -85t12 -73q0 -25 -5.5 -50.5t-14.5 -48.5q-14 -29 -32.5 -44.5t-41.5 -15.5q-20 0 -56 24q-18 9 -29 20t-17 22q-3 -12 -24 -42q-33 -34 -73 -34q-15 0 -26.5 3 t-17.5 11q-11 25 -26 46q-70 -70 -119 -70q-27 0 -47 8t-35 26q-11 11 -36 58q-12 34 -34 34q-18 0 -31 -11t-25 -31q-18 -33 -18 -50q0 -58 166 -141q6 -3 0 -50q-9 -41 -14 -44q-17 8 -32 14l-30 12q-17 9 -33.5 12.5t-30.5 3.5q-45 0 -93 -17t-102 -55 q-42 -32 -83.5 -65.5t-85.5 -65.5q-93 -72 -155 -72q-38 0 -76 38q-40 43 -40 103q0 104 110 227q0 1 -12 22q-8 8 -11 15t-5 15h-4q-17 -45 -30.5 -73.5t-27.5 -43.5q-17 -23 -40 -33.5t-52 -10.5q-135 0 -135 221q0 18 1 38t3 46q1 8 1.5 15t1.5 12t1 10 q-12 -14 -20.5 -44t-13.5 -71q-5 -35 -8 -68l-6 -66q-11 -55 -29 -82t-41 -27q-63 0 -99 111q-14 42 -21 81.5t-7 78.5zM3144 74q0 8 12.5 19.5t39.5 25.5q48 33 54 52q-37 9 -40 26q-2 8 0.5 18t7.5 24q12 25 22 28l-10 16l4 10q6 0 16 -3t24 -11l4 -6q12 -8 24.5 -22.5 t29.5 -35.5q9 -46 -22 -52q-8 -2 -19 -1.5t-25 5.5q-3 -20 -12 -36.5t-24 -26.5q-15 -9 -33.5 -21t-38.5 -27q5 -5 15.5 -8.5t30.5 -3.5q23 0 46 13t50 37q33 32 51 67l8 -4q-64 -151 -165 -151q-50 0 -50 68zM3154 944q0 61 52 145q26 38 49.5 64t46.5 38l2 -8 q-92 -98 -92 -163q0 -46 30 -46q8 0 14 6q5 8 10 8l6 -4q-36 -100 -70 -100q-48 0 -48 60zM3226 221q8 -9 16.5 -12.5t17.5 -3.5q9 16 6 26q0 13 -14 10q-17 -3 -26 -20zM3280 199q5 -5 10.5 -5.5t13.5 1.5q8 0 12 4q-5 5 -13.5 11.5t-20.5 18.5zM3332 950v24q5 11 8 20 t8 18q8 12 18 21t19 15q-15 -118 24 -118q28 0 28 36q0 9 -2.5 28t-7.5 46l20 32q8 -14 12.5 -34.5t7.5 -47.5q3 -40 28 -40q20 0 20 22q0 4 -18 76l20 43q14 -38 21 -71.5t7 -63.5q0 -35 -13 -53.5t-37 -18.5q-11 0 -21.5 7t-24.5 21q-14 -46 -52 -46q-18 0 -28.5 11 t-13.5 37q-2 18 -2 37v39q-4 -9 -8.5 -18.5t-12.5 -21.5zM3363 1316l6 72q38 -24 60 -87q22 -53 22 -94q0 -35 -8 -73.5t-22 -81.5q3 25 4.5 49.5t1.5 53.5q0 102 -64 161zM3589 976q46 15 76.5 30t48.5 30q-33 12 -70 12h-5.5t-6.5 -2t-5.5 -2h-4.5q0 87 80 75 q41 -6 92 -30q-5 -11 -17.5 -29.5t-32.5 -39.5q-5 -5 -18.5 -12t-37.5 -16q-24 -12 -42 -17t-32 -5q-5 0 -11.5 1.5t-13.5 4.5zM3762 1324l30 110l99 -203v-30l-48 46l102 -653q0 -11 1 -30t1 -46q0 -42 -5.5 -77t-16.5 -65h-24q3 44 -1 97.5t-13 116.5l-103 659 q-2 8 -5.5 17t-8.5 21q-3 12 -5.5 21t-2.5 16zM3935 46q0 29 11.5 59t34.5 66t43 59.5t41 34.5l2 -8q-41 -44 -61.5 -79t-20.5 -64q0 -40 28 -40q2 0 5.5 1.5t6.5 4.5t5 4q1 1 3 2l6 -4q-29 -88 -62 -88q-42 0 -42 52zM3997 918q0 30 12 65.5t38 74.5q46 81 97 105l2 -6 q-95 -98 -95 -163q0 -46 29 -46q5 0 8 1t8 3q5 3 6.5 4.5l3.5 3.5l6 -6q-33 -98 -69 -98q-46 0 -46 62zM4088 72v2q65 27 121 61.5t104 75.5q39 35 62.5 51.5t29.5 16.5q7 0 18 -8q15 -6 18 -6q21 0 46 34l4 -2q-9 -22 10 -22q18 0 24 32l6 4q6 -29 -6 -50q-9 -22 -26 -22 q-9 0 -15.5 4t-12.5 10q-24 -30 -38 -30q-5 0 -11.5 2.5t-14.5 5.5q-16 8 -30 8q-8 0 -46 -44q-41 -54 -103 -87q-29 -14 -62.5 -22.5t-77.5 -13.5zM4248 1097q0 50 36 50q44 0 77 -99q17 88 35.5 131.5t42.5 43.5t24 -52q0 -22 -16 -48q-16 16 -26 16q-23 0 -38 -64 q-5 -25 -9 -49t-7 -50q-6 20 -18 44.5t-30 58.5q-6 -29 -29 -29q-8 0 -14 4t-14 10q-6 8 -10 16t-4 17zM4311 777q92 30 126 59q-30 12 -70 12q-3 0 -6 -1t-6 -1q-5 -2 -8 -2h-6q0 86 82 74q46 -3 94 -30q-5 -12 -16.5 -29.5t-31.5 -37.5q-8 -5 -22 -13t-38 -19 q-48 -18 -70 -18q-10 0 -28 6zM4461 32l14 56q138 144 338 171l-18 -52q-102 -20 -185.5 -64t-148.5 -111zM4608 317q8 20 15.5 42t18.5 49q29 -8 52.5 -19.5t43.5 -26.5q0 -6 -3 -16.5t-9 -28.5q-8 -18 -13.5 -29l-8.5 -17q-33 18 -57.5 29.5t-38.5 16.5z" />
<glyph unicode="&#x621;" horiz-adv-x="1173" arabic-form="isolated" d="M105 0v255h183q-49 112 -49 235q0 83 23.5 162t75.5 140.5t135 99.5t201 41h230v-255h-222q-46 -4 -81 -21t-58.5 -43t-35.5 -58.5t-12 -65.5q0 -43 8.5 -85t24 -75.5t36.5 -54t45 -20.5h459v-255h-963z" />
<glyph unicode="&#x622;" horiz-adv-x="465" arabic-form="isolated" d="M42 1511q26 42 54 60.5t58 18.5q16 0 35 -6t50 -21q19 -9 34 -13t29 -1.5t28.5 13.5t32.5 33l50 -69q-21 -23 -37 -38t-29 -23.5t-25.5 -12t-25.5 -3.5q-28 0 -83 26q-20 10 -33.5 16t-24 5.5t-21 -8t-24.5 -25.5l-18 -21zM105 0h255v1350h-255v-1350z" />
<glyph unicode="&#x622;" horiz-adv-x="520" arabic-form="final" d="M41 1511q26 42 54 60.5t58 18.5q16 0 35 -6t50 -21q19 -9 34 -13t29 -1.5t28.5 13.5t32.5 33l50 -69q-21 -23 -37 -38t-29 -23.5t-25.5 -12t-25.5 -3.5q-28 0 -83 26q-20 10 -33.5 16t-24 5.5t-21 -8t-24.5 -25.5l-18 -21zM105 331v1019h256v-1019q0 -32 22.5 -54 t54.5 -22h124v-255h-124q-69 0 -129.5 26t-106 71t-71.5 105.5t-26 128.5z" />
<glyph unicode="&#x623;" horiz-adv-x="465" arabic-form="isolated" d="M77 1449v94h49q-16 40 -16 80q0 30 8.5 58t27 50t48.5 35.5t73 14.5h81v-95h-80h1q-34 -1 -49.5 -20.5t-15.5 -42.5q0 -15 3 -29t8 -25.5t12.5 -18.5t15.5 -7h142v-94h-308zM105 0v1350h255v-1350h-255z" />
<glyph unicode="&#x623;" horiz-adv-x="548" arabic-form="final" d="M105 1449v94h49q-16 40 -16 80q0 30 8.5 58t27 50t48.5 35.5t73 14.5h81v-95h-80h1q-34 -1 -49.5 -20.5t-15.5 -42.5q0 -15 3 -29t8 -25.5t12.5 -18.5t15.5 -7h142v-94h-308zM133 331v1019h256v-1019q0 -32 22.5 -54t54.5 -22h124v-255h-124q-69 0 -129.5 26t-106 71 t-71.5 105.5t-26 128.5z" />
<glyph unicode="&#x624;" horiz-adv-x="1116" arabic-form="isolated" d="M105 329v202q0 96 35.5 180t97 147t144 99.5t175.5 36.5q94 0 176.5 -37.5t144 -100.5t97 -146t35.5 -174v-440q0 -93 -35.5 -175.5t-96.5 -144t-143.5 -97t-175.5 -35.5h-321v255h321q57 0 102 26t69 75h-295q-68 0 -128 26t-105 70.5t-71 104.5t-26 128zM361 329 q0 -31 21.5 -52.5t52.5 -21.5h320v281q0 40 -15.5 77t-42.5 64.5t-63 44t-77 16.5t-76.5 -16t-62 -44t-42 -66t-15.5 -81v-202zM385 1145v94h49q-16 40 -16 80q0 30 8.5 58t27 50t48.5 35.5t73 14.5h81v-95h-80h1q-34 -1 -49.5 -20.5t-15.5 -42.5q0 -15 3 -29t8 -25.5 t12.5 -18.5t15.5 -7h142v-94h-308z" />
<glyph unicode="&#x624;" horiz-adv-x="1152" arabic-form="final" d="M105 329v202q0 96 35.5 180t97 147t143.5 99.5t175 36.5q94 0 176.5 -37.5t144 -100.5t97 -146t35.5 -174v-281h185v-255h-194q-17 -75 -58.5 -140t-100 -113t-131 -75.5t-152.5 -27.5h-320v255h320q57 0 102 26t69 75h-295q-68 0 -128 26t-104.5 70.5t-70.5 104.5 t-26 128zM360 329q0 -31 21.5 -52.5t52.5 -21.5h320v281q0 40 -15 77t-42 64.5t-63.5 44t-77.5 16.5t-76.5 -16t-62 -44t-42 -66t-15.5 -81v-202zM385 1145v94h49q-16 40 -16 80q0 30 8.5 58t27 50t48.5 35.5t73 14.5h81v-95h-80h1q-34 -1 -49.5 -20.5t-15.5 -42.5 q0 -15 3 -29t8 -25.5t12.5 -18.5t15.5 -7h142v-94h-308z" />
<glyph unicode="&#x625;" horiz-adv-x="577" arabic-form="isolated" d="M140 -337h49q-16 40 -16 80q0 30 8.5 58t27 50t48.5 35.5t73 14.5h81v-95h-80h1q-34 -1 -49.5 -20.5t-15.5 -42.5q0 -15 3 -29t8 -25.5t12.5 -18.5t15.5 -7h142v-94h-308v94zM157 0v1350h255v-1350h-255z" />
<glyph unicode="&#x625;" horiz-adv-x="520" arabic-form="final" d="M105 331v1019h256v-1019q0 -32 22.5 -54t54.5 -22h124v-255h-124q-69 0 -129.5 26t-106 71t-71.5 105.5t-26 128.5zM130 -337v-94h308v94h-142q-8 0 -15.5 7t-12.5 18.5t-8 25.5t-3 29q0 23 15.5 42.5t49.5 20.5h-1h80v95h-81q-43 -1 -73 -14.5t-48.5 -35.5t-27 -50 t-8.5 -58q0 -40 16 -80h-49z" />
<glyph unicode="&#x626;" horiz-adv-x="1227" arabic-form="isolated" d="M75 926v94h49q-16 40 -16 80q0 30 8.5 58t27 50t48.5 35.5t73 14.5h81v-95h-80h1q-34 -1 -49.5 -20.5t-15.5 -42.5q0 -15 3 -29t8 -25.5t12.5 -18.5t15.5 -7h142v-94h-308zM105 103v723h254v-723q0 -51 21.5 -89t57 -63.5t81 -38.5t93.5 -13t93.5 13t81.5 39t58 64.5 t22 89.5q0 47 -18.5 75.5t-55.5 28.5h-329v450q0 69 26 130t71.5 106.5t106 72t129.5 26.5h271v-256h-271q-32 0 -55 -22.5t-23 -56.5v-195h74q81 0 143 -26t103 -73.5t62 -113.5t21 -146q0 -115 -44 -201.5t-115.5 -144t-163 -86.5t-187.5 -29q-95 0 -186.5 28.5t-162.5 86 t-114.5 143.5t-43.5 201z" />
<glyph unicode="&#x626;" horiz-adv-x="1166" arabic-form="final" d="M80 926v94h49q-16 40 -16 80q0 30 8.5 58t27 50t48.5 35.5t73 14.5h81v-95h-80h1q-34 -1 -49.5 -20.5t-15.5 -42.5q0 -15 3 -29t8 -25.5t12.5 -18.5t15.5 -7h142v-94h-308zM106 102v724h256v-724q0 -51 21.5 -89t57 -63.5t81 -38.5t92.5 -13q33 0 66 7t62.5 20t54.5 32 t42 43h-298v255h667v-255h-95q-18 -91 -67 -158t-116.5 -111.5t-149.5 -66t-166 -21.5q-95 0 -186.5 28.5t-163 86t-115 143.5t-43.5 201z" />
<glyph unicode="&#x626;" horiz-adv-x="625" arabic-form="initial" d="M-42 0v255h231q32 0 55 22.5t23 54.5v662h255v-662q0 -69 -26.5 -129.5t-71.5 -105.5t-105.5 -71t-129.5 -26h-231zM235 1145v94h49q-16 40 -16 80q0 30 8.5 58t27 50t48.5 35.5t73 14.5h81v-95h-80h1q-34 -1 -49.5 -20.5t-15.5 -42.5q0 -15 3 -29t8 -25.5t12.5 -18.5 t15.5 -7h142v-94h-308z" />
<glyph unicode="&#x626;" horiz-adv-x="666" arabic-form="medial" d="M-42 0v255h309v739h255v-739h186v-255h-750zM235 1145v94h49q-16 40 -16 80q0 30 8.5 58t27 50t48.5 35.5t73 14.5h81v-95h-80h1q-34 -1 -49.5 -20.5t-15.5 -42.5q0 -15 3 -29t8 -25.5t12.5 -18.5t15.5 -7h142v-94h-308z" />
<glyph unicode="&#x627;" horiz-adv-x="465" arabic-form="isolated" d="M105 0v1350h255v-1350h-255z" />
<glyph unicode="&#x627;" horiz-adv-x="520" arabic-form="final" d="M105 331v1019h256v-1019q0 -32 22.5 -54t54.5 -22h124v-255h-124q-69 0 -129.5 26t-105.5 71t-71.5 105.5t-26.5 128.5z" />
<glyph unicode="&#x628;" horiz-adv-x="1435" arabic-form="isolated" d="M105 454v372h256v-372q0 -41 15.5 -77.5t42.5 -63.5t63.5 -42.5t78.5 -15.5h438q32 0 54 22.5t22 54.5v662h255v-662q0 -69 -26 -129.5t-71 -105.5t-105 -71t-129 -26h-438q-95 0 -178 36t-144.5 97.5t-97.5 144t-36 176.5zM589 -225q0 27 10 50t27.5 40.5t41 27.5 t50.5 10t50.5 -10t41 -27.5t28 -40.5t10.5 -50t-10.5 -50.5t-28 -41t-41 -28t-50.5 -10.5t-50.5 10.5t-41 28t-27.5 41t-10 50.5z" />
<glyph unicode="&#x628;" horiz-adv-x="1474" arabic-form="final" d="M105 454v372h256v-372q0 -41 15.5 -77.5t42.5 -63.5t63.5 -42.5t77.5 -15.5h515v739h256v-739h185v-255h-956q-94 0 -177 36t-144.5 97.5t-97.5 144t-36 176.5zM589 -225q0 27 10 50t27.5 40.5t41 27.5t50.5 10t50.5 -10t41 -27.5t28 -40.5t10.5 -50t-10.5 -50.5t-28 -41 t-41 -28t-50.5 -10.5t-50.5 10.5t-41 28t-27.5 41t-10 50.5z" />
<glyph unicode="&#x628;" horiz-adv-x="627" arabic-form="initial" d="M-42 0v255h233q31 0 53.5 22.5t22.5 54.5v662h255v-662q0 -69 -26 -129.5t-71 -105.5t-105.5 -71t-128.5 -26h-233zM263 -225q0 27 10 50t27.5 40.5t41 27.5t50.5 10t50.5 -10t41 -27.5t27.5 -40.5t10 -50t-10 -50.5t-27.5 -41t-41 -28t-50.5 -10.5t-50.5 10.5t-41 28 t-27.5 41t-10 50.5z" />
<glyph unicode="&#x628;" horiz-adv-x="666" arabic-form="medial" d="M-42 0v255h309v739h255v-739h186v-255h-750zM194 -225q0 27 10 50t27.5 40.5t41 27.5t50.5 10t50.5 -10t41 -27.5t27.5 -40.5t10 -50t-10 -50.5t-27.5 -41t-41 -28t-50.5 -10.5t-50.5 10.5t-41 28t-27.5 41t-10 50.5z" />
<glyph unicode="&#x629;" horiz-adv-x="1107" arabic-form="isolated" d="M105 331v205q0 95 35.5 178.5t96 145.5t142 98t174.5 36q92 0 174 -36.5t143 -98.5t96.5 -144.5t35.5 -174.5v-206q0 -75 -26 -136.5t-71.5 -105.5t-106 -68t-129.5 -24h-232q-71 0 -131.5 23.5t-105 67t-70 104.5t-25.5 136zM270 1220q0 27 10 50.5t27.5 41t41 28 t50.5 10.5t50.5 -10.5t41 -28t27.5 -41t10 -50.5t-10 -50.5t-27.5 -41t-41 -27.5t-50.5 -10t-50.5 10t-41 27.5t-27.5 41t-10 50.5zM361 331q0 -34 22 -54.5t54 -20.5h232q32 0 54.5 21.5t22.5 56.5v206q0 40 -15 76t-41.5 63t-61.5 43t-75 16t-75 -16t-61 -43.5t-41 -64 t-15 -78.5v-205zM577 1220q0 27 10.5 50.5t28 41t41 28t50.5 10.5t50 -10.5t40.5 -28t27.5 -41t10 -50.5t-10 -50.5t-27.5 -41t-40.5 -27.5t-50 -10t-50.5 10t-41 27.5t-28 41t-10.5 50.5z" />
<glyph unicode="&#x629;" horiz-adv-x="1153" arabic-form="final" d="M105 329v202q0 96 35.5 180t97 146.5t144 99t175.5 36.5t176 -37t144.5 -99.5t97 -145.5t34.5 -175v-281h186v-255h-440v537q0 41 -15.5 77.5t-42.5 64t-63 43.5t-77 16t-77 -16t-62.5 -44t-42 -66t-15.5 -81v-202q0 -31 21.5 -52.5t53.5 -21.5h150v-255h-150 q-68 0 -128 26t-105 70.5t-71 104.5t-26 128zM273 1220q0 27 10 50.5t27.5 41t41 28t50.5 10.5t50.5 -10.5t41 -28t27.5 -41t10 -50.5t-10 -50.5t-27.5 -41t-41 -27.5t-50.5 -10t-50.5 10t-41 27.5t-27.5 41t-10 50.5zM580 1220q0 27 10.5 50.5t28 41t41 28t50.5 10.5 t50 -10.5t40.5 -28t27.5 -41t10 -50.5t-10 -50.5t-27.5 -41t-40.5 -27.5t-50 -10t-50.5 10t-41 27.5t-28 41t-10.5 50.5z" />
<glyph unicode="&#x62a;" horiz-adv-x="1435" arabic-form="isolated" d="M105 454v372h256v-372q0 -41 15.5 -77.5t42.5 -63.5t63.5 -42.5t78.5 -15.5h438q32 0 54 22.5t22 54.5v662h255v-662q0 -69 -26 -129.5t-71 -105.5t-105 -71t-129 -26h-438q-95 0 -178 36t-144.5 97.5t-97.5 144t-36 176.5zM435 1220q0 27 10.5 50.5t28 41t41 28 t50.5 10.5t50.5 -10.5t41 -28t27.5 -41t10 -50.5t-10 -50.5t-27.5 -41t-41 -27.5t-50.5 -10t-50.5 10t-41 27.5t-28 41t-10.5 50.5zM743 1220q0 27 10.5 50.5t28 41t41 28t50.5 10.5t50 -10.5t40.5 -28t27.5 -41t10 -50.5t-10 -50.5t-27.5 -41t-40.5 -27.5t-50 -10t-50.5 10 t-41 27.5t-28 41t-10.5 50.5z" />
<glyph unicode="&#x62a;" horiz-adv-x="1474" arabic-form="final" d="M105 454v372h256v-372q0 -41 15.5 -77.5t42.5 -63.5t63.5 -42.5t77.5 -15.5h515v739h256v-739h185v-255h-956q-94 0 -177 36t-144.5 97.5t-97.5 144t-36 176.5zM436 1220q0 27 10 50.5t27.5 41t41 28t50.5 10.5t50.5 -10.5t41 -28t27.5 -41t10 -50.5t-10 -50.5t-27.5 -41 t-41 -27.5t-50.5 -10t-50.5 10t-41 27.5t-27.5 41t-10 50.5zM743 1220q0 27 10.5 50.5t28 41t41 28t50.5 10.5t50 -10.5t40.5 -28t27.5 -41t10 -50.5t-10 -50.5t-27.5 -41t-40.5 -27.5t-50 -10t-50.5 10t-41 27.5t-28 41t-10.5 50.5z" />
<glyph unicode="&#x62a;" horiz-adv-x="630" arabic-form="initial" d="M-42 0v255h233q31 0 53.5 22.5t22.5 54.5v662h255v-662q0 -69 -26 -129.5t-71 -105.5t-105.5 -71t-128.5 -26h-233zM-41 1220q0 27 10 50.5t27.5 41t41 28t50.5 10.5t50.5 -10.5t41 -28t28 -41t10.5 -50.5t-10.5 -50.5t-28 -41t-41 -27.5t-50.5 -10t-50.5 10t-41 27.5 t-27.5 41t-10 50.5zM266 1220q0 27 10.5 50.5t28 41t41 28t50.5 10.5t50.5 -10.5t41 -28t27.5 -41t10 -50.5t-10 -50.5t-27.5 -41t-41 -27.5t-50.5 -10t-50.5 10t-41 27.5t-28 41t-10.5 50.5z" />
<glyph unicode="&#x62a;" horiz-adv-x="667" arabic-form="medial" d="M-42 1220q0 27 10 50.5t27.5 41t41 28t50.5 10.5t50.5 -10.5t41 -28t28 -41t10.5 -50.5t-10.5 -50.5t-28 -41t-41 -27.5t-50.5 -10t-50.5 10t-41 27.5t-27.5 41t-10 50.5zM-41 0v255h309v739h255v-739h186v-255h-750zM266 1220q0 27 10 50.5t27.5 41t41 28t50.5 10.5 t50.5 -10.5t41 -28t27.5 -41t10 -50.5t-10 -50.5t-27.5 -41t-41 -27.5t-50.5 -10t-50.5 10t-41 27.5t-27.5 41t-10 50.5z" />
<glyph unicode="&#x62b;" horiz-adv-x="1435" arabic-form="isolated" d="M105 454v372h256v-372q0 -41 15.5 -77.5t42.5 -63.5t63.5 -42.5t78.5 -15.5h438q32 0 54 22.5t22 54.5v662h255v-662q0 -69 -26 -129.5t-71 -105.5t-105 -71t-129 -26h-438q-95 0 -178 36t-144.5 97.5t-97.5 144t-36 176.5zM436 1220q0 27 10 50.5t27.5 41t41 28 t50.5 10.5t50.5 -10.5t41 -28t27.5 -41t10 -50.5t-10 -50.5t-27.5 -41t-41 -27.5t-50.5 -10t-50.5 10t-41 27.5t-27.5 41t-10 50.5zM588 1470q0 27 10.5 50.5t28 41t41 28t50.5 10.5t50 -10.5t40.5 -28t27.5 -41t10 -50.5t-10 -50.5t-27.5 -41t-40.5 -27.5t-50 -10t-50.5 10 t-41 27.5t-28 41t-10.5 50.5zM743 1220q0 27 10.5 50.5t28 41t41 28t50.5 10.5t50 -10.5t40.5 -28t27.5 -41t10 -50.5t-10 -50.5t-27.5 -41t-40.5 -27.5t-50 -10t-50.5 10t-41 27.5t-28 41t-10.5 50.5z" />
<glyph unicode="&#x62b;" horiz-adv-x="1474" arabic-form="final" d="M105 454v372h256v-372q0 -41 15.5 -77.5t42.5 -63.5t63.5 -42.5t77.5 -15.5h515v739h256v-739h185v-255h-956q-94 0 -177 36t-144.5 97.5t-97.5 144t-36 176.5zM436 1220q0 27 10 50.5t27.5 41t41 28t50.5 10.5t50.5 -10.5t41 -28t27.5 -41t10 -50.5t-10 -50.5t-27.5 -41 t-41 -27.5t-50.5 -10t-50.5 10t-41 27.5t-27.5 41t-10 50.5zM588 1470q0 27 10.5 50.5t28 41t41 28t50.5 10.5t50 -10.5t40.5 -28t27.5 -41t10 -50.5t-10 -50.5t-27.5 -41t-40.5 -27.5t-50 -10t-50.5 10t-41 27.5t-28 41t-10.5 50.5zM743 1220q0 27 10.5 50.5t28 41t41 28 t50.5 10.5t50 -10.5t40.5 -28t27.5 -41t10 -50.5t-10 -50.5t-27.5 -41t-40.5 -27.5t-50 -10t-50.5 10t-41 27.5t-28 41t-10.5 50.5z" />
<glyph unicode="&#x62b;" horiz-adv-x="630" arabic-form="initial" d="M-61 1220q0 27 10 50.5t27.5 41t41 28t50.5 10.5t50.5 -10.5t41 -28t27.5 -41t10 -50.5t-10 -50.5t-27.5 -41t-41 -27.5t-50.5 -10t-50.5 10t-41 27.5t-27.5 41t-10 50.5zM-42 0v255h233q31 0 53.5 22.5t22.5 54.5v662h255v-662q0 -69 -26 -129.5t-71 -105.5t-105.5 -71 t-128.5 -26h-233zM91 1470q0 27 10.5 50.5t28 41t41 28t50.5 10.5t50 -10.5t40.5 -28t27.5 -41t10 -50.5t-10 -50.5t-27.5 -41t-40.5 -27.5t-50 -10t-50.5 10t-41 27.5t-28 41t-10.5 50.5zM246 1220q0 27 10.5 50.5t28 41t41 28t50.5 10.5t50 -10.5t40.5 -28t27.5 -41 t10 -50.5t-10 -50.5t-27.5 -41t-40.5 -27.5t-50 -10t-50.5 10t-41 27.5t-28 41t-10.5 50.5z" />
<glyph unicode="&#x62b;" horiz-adv-x="668" arabic-form="medial" d="M-44 1220q0 27 10 50.5t27.5 41t41 28t50.5 10.5t50.5 -10.5t41 -28t27.5 -41t10 -50.5t-10 -50.5t-27.5 -41t-41 -27.5t-50.5 -10t-50.5 10t-41 27.5t-27.5 41t-10 50.5zM-40 0v255h309v739h255v-739h186v-255h-750zM108 1470q0 27 10.5 50.5t28 41t41 28t50.5 10.5 t50 -10.5t40.5 -28t27.5 -41t10 -50.5t-10 -50.5t-27.5 -41t-40.5 -27.5t-50 -10t-50.5 10t-41 27.5t-28 41t-10.5 50.5zM263 1220q0 27 10.5 50.5t28 41t41 28t50.5 10.5t50 -10.5t40.5 -28t27.5 -41t10 -50.5t-10 -50.5t-27.5 -41t-40.5 -27.5t-50 -10t-50.5 10t-41 27.5 t-28 41t-10.5 50.5z" />
<glyph unicode="&#x62c;" horiz-adv-x="1095" arabic-form="isolated" d="M105 -49q0 57 18 111.5t55 97.5t91.5 69t128.5 26h260q32 0 54.5 21.5t22.5 52.5v200q0 62 -17 103t-44.5 65t-63 33.5t-72.5 9.5q-39 0 -84 -9t-88 -21.5t-80.5 -27.5t-61.5 -27l-109 230q31 15 80.5 34t107 36t118.5 28.5t117 11.5q57 0 112.5 -9t105.5 -29.5t93 -55.5 t74.5 -86.5t49 -122t17.5 -163.5v-200q0 -68 -26 -128t-71 -104.5t-105.5 -70.5t-129.5 -26h-260q-19 0 -28.5 -15t-9.5 -34t9.5 -35t28.5 -16h239v-255h-239q-74 0 -128.5 26.5t-91.5 69.5t-55 98t-18 112zM732 -225q0 27 10 50t27.5 40.5t41 27.5t50.5 10t50.5 -10 t41 -27.5t27.5 -40.5t10 -50t-10 -50.5t-27.5 -41t-41 -28t-50.5 -10.5t-50.5 10.5t-41 28t-27.5 41t-10 50.5z" />
<glyph unicode="&#x62c;" horiz-adv-x="1135" arabic-form="final" d="M105 -49q0 57 18 111.5t55 97.5t91.5 69t128.5 26h338v274q0 62 -17 103t-44.5 65t-63 33.5t-72.5 9.5q-39 0 -84 -9t-88 -21.5t-80.5 -27.5t-61.5 -27l-110 230q31 15 80.5 34t107.5 36t119 28.5t117 11.5q85 0 166.5 -20.5t145 -73t102.5 -143t39 -229.5v-274h185v-255 h-779q-19 0 -28.5 -15t-9.5 -34t9.5 -35t28.5 -16h239v-255h-239q-74 0 -128.5 26.5t-91.5 69.5t-55 98t-18 112zM732 -225q0 27 10 50t27.5 40.5t41 27.5t50.5 10t50.5 -10t41 -27.5t28 -40.5t10.5 -50t-10.5 -50.5t-28 -41t-41 -28t-50.5 -10.5t-50.5 10.5t-41 28 t-27.5 41t-10 50.5z" />
<glyph unicode="&#x62c;" horiz-adv-x="1099" arabic-form="initial" d="M-42 0v255h703q33 0 56 21.5t23 52.5v200q0 62 -17 103t-45 65t-63 33.5t-72 9.5q-40 0 -85 -9t-88 -21.5t-80.5 -27.5t-62.5 -27l-109 230q32 15 81.5 34t107 36t119 28.5t117.5 11.5q85 0 166 -20.5t144.5 -73t102 -143t38.5 -229.5v-200q0 -68 -26 -128t-71.5 -104.5 t-106 -70.5t-129.5 -26h-703zM418 -225q0 27 10 50t27.5 40.5t41 27.5t50.5 10t50.5 -10t41 -27.5t27.5 -40.5t10 -50t-10 -50.5t-27.5 -41t-41 -28t-50.5 -10.5t-50.5 10.5t-41 28t-27.5 41t-10 50.5z" />
<glyph unicode="&#x62c;" horiz-adv-x="1141" arabic-form="medial" d="M-42 0v255h785v274q0 62 -17 103t-45 65t-63 33.5t-72 9.5q-40 0 -85 -9t-88.5 -21.5t-81 -27.5t-61.5 -27l-109 230q31 15 80.5 34t107.5 36t119.5 28.5t117.5 11.5q85 0 166 -20.5t144.5 -73t102 -143t38.5 -229.5v-274h186v-255h-1225zM417 -225q0 27 10 50t27.5 40.5 t41 27.5t50.5 10t50.5 -10t41 -27.5t27.5 -40.5t10 -50t-10 -50.5t-27.5 -41t-41 -28t-50.5 -10.5t-50.5 10.5t-41 28t-27.5 41t-10 50.5z" />
<glyph unicode="&#x62d;" horiz-adv-x="1095" arabic-form="isolated" d="M105 -49q0 57 18 111.5t55 97.5t91.5 69t128.5 26h260q32 0 54.5 21.5t22.5 52.5v200q0 62 -17 103t-44.5 65t-63 33.5t-72.5 9.5q-39 0 -84 -9t-88 -21.5t-80.5 -27.5t-61.5 -27l-109 230q31 15 80.5 34t107 36t118.5 28.5t117 11.5q57 0 112.5 -9t105.5 -29.5t93 -55.5 t74.5 -86.5t49 -122t17.5 -163.5v-200q0 -68 -26 -128t-71 -104.5t-105.5 -70.5t-129.5 -26h-260q-19 0 -28.5 -15t-9.5 -34t9.5 -35t28.5 -16h337v-255h-337q-74 0 -128.5 26.5t-91.5 69.5t-55 98t-18 112z" />
<glyph unicode="&#x62d;" horiz-adv-x="1135" arabic-form="final" d="M105 -49q0 57 18 111.5t55 97.5t91.5 69t128.5 26h338v274q0 62 -17 103t-44.5 65t-63 33.5t-72.5 9.5q-39 0 -84 -9t-88 -21.5t-80.5 -27.5t-61.5 -27l-110 230q31 15 80.5 34t107.5 36t119 28.5t117 11.5q85 0 166.5 -20.5t145 -73t102.5 -143t39 -229.5v-274h185v-255 h-779q-19 0 -28.5 -15t-9.5 -34t9.5 -35t28.5 -16h339v-255h-339q-74 0 -128.5 26.5t-91.5 69.5t-55 98t-18 112z" />
<glyph unicode="&#x62d;" horiz-adv-x="1099" arabic-form="initial" d="M-42 0v255h703q33 0 56 21.5t23 52.5v200q0 62 -17 103t-45 65t-63 33.5t-72 9.5q-40 0 -85 -9t-88 -21.5t-80.5 -27.5t-62.5 -27l-109 230q32 15 81.5 34t107 36t119 28.5t117.5 11.5q85 0 166 -20.5t144.5 -73t102 -143t38.5 -229.5v-200q0 -68 -26 -128t-71.5 -104.5 t-106 -70.5t-129.5 -26h-703z" />
<glyph unicode="&#x62d;" horiz-adv-x="1141" arabic-form="medial" d="M-42 0v255h785v274q0 62 -17 103t-45 65t-63 33.5t-72 9.5q-40 0 -85 -9t-88.5 -21.5t-81 -27.5t-61.5 -27l-109 230q31 15 80.5 34t107.5 36t119.5 28.5t117.5 11.5q85 0 166 -20.5t144.5 -73t102 -143t38.5 -229.5v-274h186v-255h-1225z" />
<glyph unicode="&#x62e;" horiz-adv-x="1095" arabic-form="isolated" d="M105 -49q0 57 18 111.5t55 97.5t91.5 69t128.5 26h260q32 0 54.5 21.5t22.5 52.5v200q0 62 -17 103t-44.5 65t-63 33.5t-72.5 9.5q-39 0 -84 -9t-88 -21.5t-80.5 -27.5t-61.5 -27l-109 230q31 15 80.5 34t107 36t118.5 28.5t117 11.5q57 0 112.5 -9t105.5 -29.5t93 -55.5 t74.5 -86.5t49 -122t17.5 -163.5v-200q0 -68 -26 -128t-71 -104.5t-105.5 -70.5t-129.5 -26h-260q-19 0 -28.5 -15t-9.5 -34t9.5 -35t28.5 -16h337v-255h-337q-74 0 -128.5 26.5t-91.5 69.5t-55 98t-18 112zM410 1220q0 27 10 50.5t27.5 41t41 28t50.5 10.5t50.5 -10.5 t41 -28t27.5 -41t10 -50.5t-10 -50.5t-27.5 -41t-41 -27.5t-50.5 -10t-50.5 10t-41 27.5t-27.5 41t-10 50.5z" />
<glyph unicode="&#x62e;" horiz-adv-x="1135" arabic-form="final" d="M105 -49q0 57 18 111.5t55 97.5t91.5 69t128.5 26h338v274q0 62 -17 103t-44.5 65t-63 33.5t-72.5 9.5q-39 0 -84 -9t-88 -21.5t-80.5 -27.5t-61.5 -27l-110 230q31 15 80.5 34t107.5 36t119 28.5t117 11.5q85 0 166.5 -20.5t145 -73t102.5 -143t39 -229.5v-274h185v-255 h-779q-19 0 -28.5 -15t-9.5 -34t9.5 -35t28.5 -16h337v-255h-337q-74 0 -128.5 26.5t-91.5 69.5t-55 98t-18 112zM410 1220q0 27 10 50.5t27.5 41t41 28t50.5 10.5t50.5 -10.5t41 -28t28 -41t10.5 -50.5t-10.5 -50.5t-28 -41t-41 -27.5t-50.5 -10t-50.5 10t-41 27.5 t-27.5 41t-10 50.5z" />
<glyph unicode="&#x62e;" horiz-adv-x="1099" arabic-form="initial" d="M-42 0v255h703q33 0 56 21.5t23 52.5v200q0 62 -17 103t-45 65t-63 33.5t-72 9.5q-40 0 -85 -9t-88 -21.5t-80.5 -27.5t-62.5 -27l-109 230q32 15 81.5 34t107 36t119 28.5t117.5 11.5q85 0 166 -20.5t144.5 -73t102 -143t38.5 -229.5v-200q0 -68 -26 -128t-71.5 -104.5 t-106 -70.5t-129.5 -26h-703zM413 1220q0 27 10.5 50.5t28 41t41 28t50.5 10.5t50 -10.5t40.5 -28t27.5 -41t10 -50.5t-10 -50.5t-27.5 -41t-40.5 -27.5t-50 -10t-50.5 10t-41 27.5t-28 41t-10.5 50.5z" />
<glyph unicode="&#x62e;" horiz-adv-x="1141" arabic-form="medial" d="M-42 0v255h785v274q0 62 -17 103t-45 65t-63 33.5t-72 9.5q-40 0 -85 -9t-88.5 -21.5t-81 -27.5t-61.5 -27l-109 230q31 15 80.5 34t107.5 36t119.5 28.5t117.5 11.5q85 0 166 -20.5t144.5 -73t102 -143t38.5 -229.5v-274h186v-255h-1225zM415 1220q0 27 10.5 50.5t28 41 t41 28t50.5 10.5t50 -10.5t40.5 -28t27.5 -41t10 -50.5t-10 -50.5t-27.5 -41t-40.5 -27.5t-50 -10t-50.5 10t-41 27.5t-28 41t-10.5 50.5z" />
<glyph unicode="&#x62f;" horiz-adv-x="951" arabic-form="isolated" d="M105 0v255h407q32 0 55 21.5t23 52.5v200q0 51 -24.5 90t-77 65.5t-134.5 40.5t-198 14v255q184 0 315 -30.5t214 -89.5t122 -145.5t39 -199.5v-200q0 -68 -26 -128t-71.5 -104.5t-106.5 -70.5t-130 -26h-407z" />
<glyph unicode="&#x62f;" horiz-adv-x="989" arabic-form="final" d="M105 0v255h486v274q0 51 -24.5 90t-77 65.5t-135 40.5t-198.5 14v255q184 0 315 -30.5t214.5 -89.5t122 -145.5t38.5 -199.5v-274h185v-255h-926z" />
<glyph unicode="&#x630;" horiz-adv-x="951" arabic-form="isolated" d="M105 0v255h407q32 0 55 21.5t23 52.5v200q0 51 -24.5 90t-77 65.5t-134.5 40.5t-198 14v255q184 0 315 -30.5t214 -89.5t122 -145.5t39 -199.5v-200q0 -68 -26 -128t-71.5 -104.5t-106.5 -70.5t-130 -26h-407zM376 1220q0 27 10.5 50.5t28 41t41 28t50.5 10.5t50.5 -10.5 t41 -28t27.5 -41t10 -50.5t-10 -50.5t-27.5 -41t-41 -27.5t-50.5 -10t-50.5 10t-41 27.5t-28 41t-10.5 50.5z" />
<glyph unicode="&#x630;" horiz-adv-x="960" arabic-form="final" d="M76 0v255h486v274q0 51 -24.5 90t-77 65.5t-135 40.5t-198.5 14v255q184 0 315 -30.5t214.5 -89.5t122 -145.5t38.5 -199.5v-274h185v-255h-926zM347 1220q0 27 10.5 50.5t28 41t41 28t50.5 10.5t50.5 -10.5t41 -28t27.5 -41t10 -50.5t-10 -50.5t-27.5 -41t-41 -27.5 t-50.5 -10t-50.5 10t-41 27.5t-28 41t-10.5 50.5z" />
<glyph unicode="&#x631;" horiz-adv-x="645" arabic-form="isolated" d="M27 -143q49 21 86.5 43.5t65 46t45.5 46t30 42.5q27 48 29 94v865h256v-857q0 -2 -1 -29t-11.5 -69t-34.5 -96t-70 -110.5t-118 -111.5t-178 -100z" />
<glyph unicode="&#x631;" horiz-adv-x="681" arabic-form="final" d="M27 -143q49 21 86.5 43.5t64.5 45t45 44t30 41.5q27 46 29 90v873h256v-739h185v-255h-204q-12 -41 -37 -89t-70.5 -98.5t-115.5 -99.5t-171 -91z" />
<glyph unicode="&#x632;" horiz-adv-x="642" arabic-form="isolated" d="M24 -143q49 21 86.5 43.5t65 46t45.5 46t30 42.5q27 48 29 94v865h256v-857q0 -2 -1 -29t-11.5 -69t-34.5 -96t-70 -110.5t-118 -111.5t-178 -100zM276 1220q0 27 10.5 50.5t28 41t41 28t50.5 10.5t50.5 -10.5t41 -28t28 -41t10.5 -50.5t-10.5 -50.5t-28 -41t-41 -27.5 t-50.5 -10t-50.5 10t-41 27.5t-28 41t-10.5 50.5z" />
<glyph unicode="&#x632;" horiz-adv-x="679" arabic-form="final" d="M25 -143q49 21 86.5 43.5t64.5 45t45 44t30 41.5q27 46 29 90v873h256v-739h185v-255h-204q-12 -41 -37 -89t-70.5 -98.5t-115.5 -99.5t-171 -91zM277 1220q0 27 10 50.5t27.5 41t41 28t50.5 10.5t50.5 -10.5t41 -28t28 -41t10.5 -50.5t-10.5 -50.5t-28 -41t-41 -27.5 t-50.5 -10t-50.5 10t-41 27.5t-27.5 41t-10 50.5z" />
<glyph unicode="&#x633;" horiz-adv-x="2045" arabic-form="isolated" d="M105 97v729h256v-729q0 -49 22 -86t57.5 -61.5t81 -37t92.5 -12.5t92.5 12.5t81 37t57 61.5t21.5 86v897h257v-739h153v739h256v-739h75q33 0 56 21.5t23 51.5v666h254v-666q0 -68 -26 -127.5t-71.5 -104t-106 -70.5t-129.5 -26h-495q-18 -89 -66.5 -155.5t-116.5 -111 t-149.5 -66.5t-165.5 -22q-95 0 -186.5 28t-163 84.5t-115.5 141t-44 198.5z" />
<glyph unicode="&#x633;" horiz-adv-x="2083" arabic-form="final" d="M105 97v729h256v-729q0 -49 21.5 -86t57 -61.5t81 -37t93.5 -12.5q47 0 92.5 12.5t81 37t57.5 61.5t22 86v897h256v-739h154v739h255v-739h154v739h254v-739h185v-255h-1012q-18 -89 -66.5 -155.5t-116.5 -111t-149.5 -66.5t-166.5 -22q-96 0 -187.5 28t-163 84.5 t-115 141t-43.5 198.5z" />
<glyph unicode="&#x633;" horiz-adv-x="1475" arabic-form="initial" d="M-42 0v255h338v739h254v-739h155v739h255v-739h75q33 0 56 21.5t23 52.5v665h256v-665q0 -68 -26.5 -128t-72 -104.5t-106.5 -70.5t-130 -26h-1077z" />
<glyph unicode="&#x633;" horiz-adv-x="1513" arabic-form="medial" d="M-42 0v255h337v739h254v-739h155v739h255v-739h156v739h255v-739h185v-255h-1597z" />
<glyph unicode="&#x634;" horiz-adv-x="2045" arabic-form="isolated" d="M105 97v729h256v-729q0 -49 22 -86t57.5 -61.5t81 -37t92.5 -12.5t92.5 12.5t81 37t57 61.5t21.5 86v897h257v-739h153v739h256v-739h75q33 0 56 21.5t23 51.5v666h254v-666q0 -68 -26 -127.5t-71.5 -104t-106 -70.5t-129.5 -26h-495q-18 -89 -66.5 -155.5t-116.5 -111 t-149.5 -66.5t-165.5 -22q-95 0 -186.5 28t-163 84.5t-115.5 141t-44 198.5zM1127 1220q0 27 10 50.5t27.5 41t41 28t50.5 10.5t50.5 -10.5t41 -28t27.5 -41t10 -50.5t-10 -50.5t-27.5 -41t-41 -27.5t-50.5 -10t-50.5 10t-41 27.5t-27.5 41t-10 50.5zM1279 1470 q0 27 10.5 50.5t28 41t41 28t50.5 10.5t50 -10.5t40.5 -28t27.5 -41t10 -50.5t-10 -50.5t-27.5 -41t-40.5 -27.5t-50 -10t-50.5 10t-41 27.5t-28 41t-10.5 50.5zM1434 1220q0 27 10.5 50.5t28 41t41 28t50.5 10.5t50 -10.5t40.5 -28t27.5 -41t10 -50.5t-10 -50.5t-27.5 -41 t-40.5 -27.5t-50 -10t-50.5 10t-41 27.5t-28 41t-10.5 50.5z" />
<glyph unicode="&#x634;" horiz-adv-x="2083" arabic-form="final" d="M105 97v729h256v-729q0 -49 21.5 -86t57 -61.5t81 -37t93.5 -12.5q47 0 92.5 12.5t81 37t57 61.5t21.5 86v897h257v-739h154v739h255v-739h154v739h254v-739h185v-255h-1012q-18 -89 -66.5 -155.5t-116.5 -111t-149.5 -66.5t-166.5 -22q-96 0 -187.5 28t-163 84.5 t-115 141t-43.5 198.5zM1127 1220q0 27 10 50.5t27.5 41t41 28t50.5 10.5t50.5 -10.5t41 -28t27.5 -41t10 -50.5t-10 -50.5t-27.5 -41t-41 -27.5t-50.5 -10t-50.5 10t-41 27.5t-27.5 41t-10 50.5zM1279 1470q0 27 10.5 50.5t28 41t41 28t50.5 10.5t50 -10.5t40.5 -28 t27.5 -41t10 -50.5t-10 -50.5t-27.5 -41t-40.5 -27.5t-50 -10t-50.5 10t-41 27.5t-28 41t-10.5 50.5zM1434 1220q0 27 10.5 50.5t28 41t41 28t50.5 10.5t50 -10.5t40.5 -28t27.5 -41t10 -50.5t-10 -50.5t-27.5 -41t-40.5 -27.5t-50 -10t-50.5 10t-41 27.5t-28 41t-10.5 50.5 z" />
<glyph unicode="&#x634;" horiz-adv-x="1475" arabic-form="initial" d="M-42 0v255h338v739h254v-739h155v739h255v-739h75q33 0 56 21.5t23 52.5v665h256v-665q0 -68 -26.5 -128t-72 -104.5t-106.5 -70.5t-130 -26h-1077zM550 1220q0 27 10 50.5t27.5 41t41 28t50.5 10.5t50.5 -10.5t41 -28t27.5 -41t10 -50.5t-10 -50.5t-27.5 -41t-41 -27.5 t-50.5 -10t-50.5 10t-41 27.5t-27.5 41t-10 50.5zM702 1470q0 27 10.5 50.5t28 41t41 28t50.5 10.5t50 -10.5t40.5 -28t27.5 -41t10 -50.5t-10 -50.5t-27.5 -41t-40.5 -27.5t-50 -10t-50.5 10t-41 27.5t-28 41t-10.5 50.5zM857 1220q0 27 10.5 50.5t28 41t41 28t50.5 10.5 t50 -10.5t40.5 -28t27.5 -41t10 -50.5t-10 -50.5t-27.5 -41t-40.5 -27.5t-50 -10t-50.5 10t-41 27.5t-28 41t-10.5 50.5z" />
<glyph unicode="&#x634;" horiz-adv-x="1513" arabic-form="medial" d="M-42 0v255h337v739h254v-739h155v739h255v-739h156v739h255v-739h185v-255h-1597zM544 1220q0 27 10 50.5t27.5 41t41 28t50.5 10.5t50.5 -10.5t41 -28t27.5 -41t10 -50.5t-10 -50.5t-27.5 -41t-41 -27.5t-50.5 -10t-50.5 10t-41 27.5t-27.5 41t-10 50.5zM696 1470 q0 27 10.5 50.5t28 41t41 28t50.5 10.5t50 -10.5t40.5 -28t27.5 -41t10 -50.5t-10 -50.5t-27.5 -41t-40.5 -27.5t-50 -10t-50.5 10t-41 27.5t-28 41t-10.5 50.5zM851 1220q0 27 10.5 50.5t28 41t41 28t50.5 10.5t50 -10.5t40.5 -28t27.5 -41t10 -50.5t-10 -50.5t-27.5 -41 t-40.5 -27.5t-50 -10t-50.5 10t-41 27.5t-28 41t-10.5 50.5z" />
<glyph unicode="&#x635;" horiz-adv-x="2045" arabic-form="isolated" d="M105 97v729h256v-729q0 -49 21.5 -86t57 -61.5t81 -37t93.5 -12.5q47 0 92.5 12.5t81 37t57.5 61.5t22 86v897h256v-126q89 57 191 91.5t200 34.5q87 0 164.5 -25t135.5 -80.5t92 -144t34 -216.5v-200q0 -68 -26.5 -127.5t-71.5 -104t-106 -70.5t-130 -26h-493 q-18 -89 -66.5 -155.5t-116.5 -111t-149.5 -66.5t-166.5 -22q-96 0 -187.5 28t-163 84.5t-115 141t-43.5 198.5zM1123 255h483q33 0 56 21.5t23 51.5v200q0 58 -14 98t-37 65t-54.5 36t-65.5 11q-66 0 -135 -21t-126 -55.5t-93.5 -78t-36.5 -88.5v-240z" />
<glyph unicode="&#x635;" horiz-adv-x="2082" arabic-form="final" d="M105 97v729h256v-729q0 -49 22 -86t57.5 -61.5t81 -37t92.5 -12.5t92.5 12.5t81 37t57 61.5t21.5 86v897h256v-126q44 28 92.5 51.5t99 40t101 25.5t99.5 9q87 0 164 -25t135 -80.5t92 -144t34 -216.5v-273h185v-255h-1012q-18 -89 -66.5 -155.5t-116 -111t-149 -66.5 t-166.5 -22q-95 0 -186.5 28t-163 84.5t-115.5 141t-44 198.5zM1122 255h562v273q0 58 -14 98t-37 65t-54 36t-65 11q-66 0 -135.5 -21t-126.5 -55.5t-93.5 -78t-36.5 -88.5v-240z" />
<glyph unicode="&#x635;" horiz-adv-x="1322" arabic-form="initial" d="M-42 0v255h185v739h256v-126q88 57 190.5 91.5t201.5 34.5q87 0 164.5 -25t135.5 -80.5t92 -144t34 -216.5v-200q0 -68 -26.5 -127.5t-72 -104t-106 -70.5t-129.5 -26h-925zM399 255h484q32 0 55 21.5t23 51.5v200q0 58 -13.5 98t-37 65t-54.5 36t-65 11 q-66 0 -135.5 -21t-126.5 -55.5t-93.5 -78t-36.5 -88.5v-240z" />
<glyph unicode="&#x635;" horiz-adv-x="1360" arabic-form="medial" d="M-42 0v255h186v739h256v-126q88 57 190.5 91.5t201.5 34.5q87 0 164 -25t135 -80.5t92 -144t34 -216.5v-273h185v-255h-1444zM400 255h561v273q0 58 -13.5 98t-37 65t-54 36t-64.5 11q-66 0 -135.5 -21t-126.5 -55.5t-93.5 -78t-36.5 -88.5v-240z" />
<glyph unicode="&#x636;" horiz-adv-x="2045" arabic-form="isolated" d="M105 97v729h256v-729q0 -49 21.5 -86t57 -61.5t81 -37t93.5 -12.5q47 0 92.5 12.5t81 37t57.5 61.5t22 86v897h256v-126q89 57 191 91.5t200 34.5q87 0 164.5 -25t135.5 -80.5t92 -144t34 -216.5v-200q0 -68 -26.5 -127.5t-71.5 -104t-106 -70.5t-130 -26h-493 q-18 -89 -66.5 -155.5t-116.5 -111t-149.5 -66.5t-166.5 -22q-96 0 -187.5 28t-163 84.5t-115 141t-43.5 198.5zM1123 255h483q33 0 56 21.5t23 51.5v200q0 58 -14 98t-37 65t-54.5 36t-65.5 11q-66 0 -135 -21t-126 -55.5t-93.5 -78t-36.5 -88.5v-240zM1274 1220 q0 27 10 50.5t27.5 41t41 28t50.5 10.5t50.5 -10.5t41 -28t28 -41t10.5 -50.5t-10.5 -50.5t-28 -41t-41 -27.5t-50.5 -10t-50.5 10t-41 27.5t-27.5 41t-10 50.5z" />
<glyph unicode="&#x636;" horiz-adv-x="2082" arabic-form="final" d="M105 97v729h256v-729q0 -49 22 -86t57.5 -61.5t81 -37t92.5 -12.5t92.5 12.5t81 37t57 61.5t21.5 86v897h256v-126q44 28 92.5 51.5t99 40t101 25.5t99.5 9q87 0 164 -25t135 -80.5t92 -144t34 -216.5v-273h185v-255h-1012q-18 -89 -66.5 -155.5t-116 -111t-149 -66.5 t-166.5 -22q-95 0 -186.5 28t-163 84.5t-115.5 141t-44 198.5zM1122 255h562v273q0 58 -14 98t-37 65t-54 36t-65 11q-66 0 -135.5 -21t-126.5 -55.5t-93.5 -78t-36.5 -88.5v-240zM1274 1220q0 27 10 50.5t27.5 41t41 28t50.5 10.5t50.5 -10.5t41 -28t28 -41t10.5 -50.5 t-10.5 -50.5t-28 -41t-41 -27.5t-50.5 -10t-50.5 10t-41 27.5t-27.5 41t-10 50.5z" />
<glyph unicode="&#x636;" horiz-adv-x="1322" arabic-form="initial" d="M-42 0v255h185v739h256v-126q88 57 190.5 91.5t201.5 34.5q87 0 164.5 -25t135.5 -80.5t92 -144t34 -216.5v-200q0 -68 -26.5 -127.5t-72 -104t-106 -70.5t-129.5 -26h-925zM399 255h484q32 0 55 21.5t23 51.5v200q0 58 -13.5 98t-37 65t-54.5 36t-65 11 q-66 0 -135.5 -21t-126.5 -55.5t-93.5 -78t-36.5 -88.5v-240zM549 1220q0 27 10.5 50.5t28 41t41 28t50.5 10.5t50.5 -10.5t41 -28t28 -41t10.5 -50.5t-10.5 -50.5t-28 -41t-41 -27.5t-50.5 -10t-50.5 10t-41 27.5t-28 41t-10.5 50.5z" />
<glyph unicode="&#x636;" horiz-adv-x="1360" arabic-form="medial" d="M-42 0v255h186v739h256v-126q88 57 190.5 91.5t201.5 34.5q87 0 164 -25t135 -80.5t92 -144t34 -216.5v-273h185v-255h-1444zM400 255h561v273q0 58 -13.5 98t-37 65t-54 36t-64.5 11q-66 0 -135.5 -21t-126.5 -55.5t-93.5 -78t-36.5 -88.5v-240zM551 1220q0 27 10 50.5 t27.5 41t41 28t50.5 10.5t50.5 -10.5t41 -28t28 -41t10.5 -50.5t-10.5 -50.5t-28 -41t-41 -27.5t-50.5 -10t-50.5 10t-41 27.5t-27.5 41t-10 50.5z" />
<glyph unicode="&#x637;" horiz-adv-x="1427" arabic-form="isolated" d="M105 0v255h144v1095h255v-481q88 57 190 91t202 34q86 0 163.5 -25t136 -80.5t92.5 -144t34 -216.5v-199q0 -68 -26.5 -128t-71.5 -104.5t-106 -70.5t-130 -26h-883zM504 255h484q33 0 56 21.5t23 52.5v199q0 58 -14 98t-37 65t-54.5 36.5t-65.5 11.5q-44 0 -90.5 -9.5 t-90 -27t-82 -40.5t-67.5 -50t-45.5 -56.5t-16.5 -59.5v-241z" />
<glyph unicode="&#x637;" horiz-adv-x="1465" arabic-form="final" d="M105 0v255h144v1095h255v-481q88 57 190 91t202 34q87 0 164 -25t135.5 -80.5t92.5 -144t34 -216.5v-273h185v-255h-1402zM504 255h564v273q0 58 -14 98t-37.5 65t-55 36.5t-65.5 11.5q-44 0 -90.5 -9.5t-90 -27t-82 -40.5t-67.5 -50t-45.5 -56.5t-16.5 -59.5v-241z" />
<glyph unicode="&#x637;" horiz-adv-x="1321" arabic-form="initial" d="M-42 0v255h185v1095h256v-482q44 28 92 51.5t98.5 40t101.5 25.5t100 9q87 0 164.5 -25t135 -80.5t91.5 -144t34 -216.5v-199q0 -68 -26.5 -128t-71.5 -104.5t-105.5 -70.5t-129.5 -26h-925zM399 255h484q32 0 54.5 21.5t22.5 52.5v199q0 58 -13.5 98.5t-36.5 65.5 t-54 36t-65 11q-44 0 -90 -10t-89.5 -27t-82 -40.5t-67.5 -50.5t-46 -56.5t-17 -59.5v-240z" />
<glyph unicode="&#x637;" horiz-adv-x="1360" arabic-form="medial" d="M-42 0v255h186v1095h255v-481q88 57 190 91t202 34q86 0 163.5 -25t136 -80.5t92.5 -144t34 -216.5v-273h185v-255h-1444zM399 255h562v273q0 58 -13.5 98t-37 65t-54.5 36.5t-65 11.5q-44 0 -90.5 -9.5t-90 -27t-82 -40.5t-67.5 -50t-45.5 -56.5t-16.5 -59.5v-241z" />
<glyph unicode="&#x638;" horiz-adv-x="1427" arabic-form="isolated" d="M105 0v255h144v1095h255v-481q88 57 190 91t202 34q86 0 163.5 -25t136 -80.5t92.5 -144t34 -216.5v-199q0 -68 -26.5 -128t-71.5 -104.5t-106 -70.5t-130 -26h-883zM504 255h484q33 0 56 21.5t23 52.5v199q0 58 -14 98t-37 65t-54.5 36.5t-65.5 11.5q-44 0 -90.5 -9.5 t-90 -27t-82 -40.5t-67.5 -50t-45.5 -56.5t-16.5 -59.5v-241zM656 1220q0 27 10 50.5t27.5 41t41 28t50.5 10.5t50.5 -10.5t41 -28t28 -41t10.5 -50.5t-10.5 -50.5t-28 -41t-41 -27.5t-50.5 -10t-50.5 10t-41 27.5t-27.5 41t-10 50.5z" />
<glyph unicode="&#x638;" horiz-adv-x="1465" arabic-form="final" d="M105 0v255h144v1095h255v-481q88 57 190 91t202 34q87 0 164 -25t135.5 -80.5t92.5 -144t34 -216.5v-273h185v-255h-1402zM504 255h564v273q0 58 -14 98t-37.5 65t-55 36.5t-65.5 11.5q-44 0 -90.5 -9.5t-90 -27t-82 -40.5t-67.5 -50t-45.5 -56.5t-16.5 -59.5v-241z M657 1220q0 27 10 50.5t27.5 41t41 28t50.5 10.5t50.5 -10.5t41 -28t28 -41t10.5 -50.5t-10.5 -50.5t-28 -41t-41 -27.5t-50.5 -10t-50.5 10t-41 27.5t-27.5 41t-10 50.5z" />
<glyph unicode="&#x638;" horiz-adv-x="1321" arabic-form="initial" d="M-42 0v255h185v1095h256v-482q44 28 92 51.5t98.5 40t101.5 25.5t100 9q87 0 164.5 -25t135 -80.5t91.5 -144t34 -216.5v-199q0 -68 -26.5 -128t-71.5 -104.5t-105.5 -70.5t-129.5 -26h-925zM399 255h484q32 0 54.5 21.5t22.5 52.5v199q0 58 -13.5 98.5t-36.5 65.5 t-54 36t-65 11q-44 0 -90 -10t-89.5 -27t-82 -40.5t-67.5 -50.5t-46 -56.5t-17 -59.5v-240zM549 1220q0 27 10.5 50.5t28 41t41 28t50.5 10.5t50.5 -10.5t41 -28t28 -41t10.5 -50.5t-10.5 -50.5t-28 -41t-41 -27.5t-50.5 -10t-50.5 10t-41 27.5t-28 41t-10.5 50.5z" />
<glyph unicode="&#x638;" horiz-adv-x="1360" arabic-form="medial" d="M-42 0v255h186v1095h255v-481q88 57 190 91t202 34q86 0 163.5 -25t136 -80.5t92.5 -144t34 -216.5v-273h185v-255h-1444zM399 255h562v273q0 58 -13.5 98t-37 65t-54.5 36.5t-65 11.5q-44 0 -90.5 -9.5t-90 -27t-82 -40.5t-67.5 -50t-45.5 -56.5t-16.5 -59.5v-241z M551 1220q0 27 10 50.5t27.5 41t41 28t50.5 10.5t50.5 -10.5t41 -28t28 -41t10.5 -50.5t-10.5 -50.5t-28 -41t-41 -27.5t-50.5 -10t-50.5 10t-41 27.5t-27.5 41t-10 50.5z" />
<glyph unicode="&#x639;" horiz-adv-x="1230" arabic-form="isolated" d="M105 -49q0 50 14 98t42.5 88t72 69.5t102.5 41.5v295q-1 90 29.5 166t83 134t122.5 95.5t148.5 49.5t160 -3.5t158.5 -63.5l-105 -231q-57 39 -116 45.5t-108.5 -14t-82 -66t-36.5 -112.5v-288h535v-255h-727q-19 0 -28.5 -15t-9.5 -34t9.5 -35t28.5 -16h533v-255h-533 q-74 0 -128.5 26.5t-91.5 69.5t-55 98t-18 112z" />
<glyph unicode="&#x639;" horiz-adv-x="1165" arabic-form="final" d="M105 -49q0 42 11 83.5t32.5 78.5t54 67t76.5 49q-34 45 -64.5 96.5t-50.5 108.5q-17 45 -26.5 94.5t-9.5 98.5q0 75 22.5 142t75 117t137.5 79t210 29q126 0 211.5 -29.5t138 -80t75 -118t22.5 -143.5q0 -47 -8.5 -93.5t-23.5 -91.5q-17 -51 -41.5 -96.5t-53.5 -86.5h314 v-255h-808q-20 0 -29.5 -15t-9.5 -34t9.5 -35t29.5 -16h530v-255h-530q-74 0 -129 26.5t-91.5 69.5t-55 98t-18.5 112zM384 627q0 -55 22 -112q12 -34 33 -68t45 -65t49.5 -58t46.5 -48q20 18 43 42.5t45.5 54.5t42.5 66t34 78q9 26 14.5 54.5t5.5 51.5q0 24 -10 45 t-32.5 36.5t-59 25t-90.5 9.5q-53 0 -89.5 -9t-58.5 -24t-31.5 -35.5t-9.5 -43.5z" />
<glyph unicode="&#x639;" horiz-adv-x="1036" arabic-form="initial" d="M-42 0v255h185v291q-1 89 29.5 165t83 134t123 95.5t148.5 49.5t160 -3.5t158 -63.5l-101 -232q-57 39 -116.5 46t-109 -13t-82.5 -66t-37 -112v-291h532v-255h-973z" />
<glyph unicode="&#x639;" horiz-adv-x="1181" arabic-form="medial" d="M-52 0v255h331q-29 40 -53 84t-43 95v-1q-17 46 -26.5 95t-9.5 98q0 75 22.5 142t75 117.5t137.5 79.5t210 29q126 0 212 -29.5t138.5 -80.5t75 -118.5t22.5 -143.5q0 -47 -9 -94t-24 -92q-17 -51 -41.5 -96.5t-52.5 -84.5h310v-255h-1275zM402 626q0 -25 5.5 -54.5 t16.5 -56.5q14 -38 34.5 -72t44 -64.5t48 -56t45.5 -44.5q21 19 45.5 45t47.5 57t43 65.5t33 72.5q20 57 20 104q0 24 -10 45t-32.5 36.5t-59.5 25t-91 9.5q-53 0 -89.5 -9t-59 -24t-32 -35.5t-9.5 -43.5z" />
<glyph unicode="&#x63a;" horiz-adv-x="1230" arabic-form="isolated" d="M105 -49q0 50 14 98t42.5 88t72 69.5t102.5 41.5v295q-1 90 29.5 166t83 134t122.5 95.5t148.5 49.5t160 -3.5t158.5 -63.5l-105 -231q-57 39 -116 45.5t-108.5 -14t-82 -66t-36.5 -112.5v-288h535v-255h-727q-19 0 -28.5 -15t-9.5 -34t9.5 -35t28.5 -16h536v-255h-536 q-74 0 -128.5 26.5t-91.5 69.5t-55 98t-18 112zM654 1220q0 27 10 50.5t27.5 41t41 28t50.5 10.5t50.5 -10.5t41 -28t27.5 -41t10 -50.5t-10 -50.5t-27.5 -41t-41 -27.5t-50.5 -10t-50.5 10t-41 27.5t-27.5 41t-10 50.5z" />
<glyph unicode="&#x63a;" horiz-adv-x="1165" arabic-form="final" d="M105 -49q0 42 11 83.5t32.5 78.5t54 67t76.5 49q-34 45 -64.5 96.5t-50.5 108.5q-17 45 -26.5 94.5t-9.5 98.5q0 75 22.5 142t75 117t137.5 79t210 29q126 0 211.5 -29.5t138 -80t75 -118t22.5 -143.5q0 -47 -8.5 -93.5t-23.5 -91.5q-17 -51 -41.5 -96.5t-53.5 -86.5h314 v-255h-808q-20 0 -29.5 -15t-9.5 -34t9.5 -35t29.5 -16h530v-255h-530q-74 0 -129 26.5t-91.5 69.5t-55 98t-18.5 112zM384 627q0 -55 22 -112q12 -34 33 -68t45 -65t49.5 -58t46.5 -48q20 18 43 42.5t45.5 54.5t42.5 66t34 78q9 26 14.5 54.5t5.5 51.5q0 24 -10 45 t-32.5 36.5t-59 25t-90.5 9.5q-53 0 -89.5 -9t-58.5 -24t-31.5 -35.5t-9.5 -43.5zM444 1220q0 27 10 50.5t27.5 41t41 28t50.5 10.5t50.5 -10.5t41 -28t28 -41t10.5 -50.5t-10.5 -50.5t-28 -41t-41 -27.5t-50.5 -10t-50.5 10t-41 27.5t-27.5 41t-10 50.5z" />
<glyph unicode="&#x63a;" horiz-adv-x="1036" arabic-form="initial" d="M-42 0v255h185v291q-1 89 29.5 165t83 134t123 95.5t148.5 49.5t160 -3.5t158 -63.5l-101 -232q-57 39 -116.5 46t-109 -13t-82.5 -66t-37 -112v-291h532v-255h-973zM462 1220q0 27 10.5 50.5t28 41t41 28t50.5 10.5t50.5 -10.5t41 -28t28 -41t10.5 -50.5t-10.5 -50.5 t-28 -41t-41 -27.5t-50.5 -10t-50.5 10t-41 27.5t-28 41t-10.5 50.5z" />
<glyph unicode="&#x63a;" horiz-adv-x="1181" arabic-form="medial" d="M-42 0v255h321q-29 40 -53 84t-43 95v-1q-17 46 -26.5 95t-9.5 98q0 75 22.5 142t75 117.5t137.5 79.5t210 29q126 0 212 -29.5t138.5 -80.5t75 -118.5t22.5 -143.5q0 -47 -9 -94t-24 -92q-17 -51 -41.5 -96.5t-52.5 -84.5h310v-255h-1265zM402 626q0 -25 5.5 -54.5 t16.5 -56.5q14 -38 34.5 -72t44 -64.5t48 -56t45.5 -44.5q21 19 45.5 45t47.5 57t43 65.5t33 72.5q20 57 20 104q0 24 -10 45t-32.5 36.5t-59.5 25t-91 9.5q-53 0 -89.5 -9t-59 -24t-32 -35.5t-9.5 -43.5zM463 1220q0 27 10 50.5t27.5 41t41 28t50.5 10.5t50.5 -10.5t41 -28 t27.5 -41t10 -50.5t-10 -50.5t-27.5 -41t-41 -27.5t-50.5 -10t-50.5 10t-41 27.5t-27.5 41t-10 50.5z" />
<glyph unicode="&#x641;" horiz-adv-x="1862" arabic-form="isolated" d="M105 457v369h256v-369q0 -42 16 -78.5t43.5 -64t64.5 -43.5t79 -16h295v291q0 96 35.5 178t96 142t142 94t174.5 34t174.5 -34.5t143 -94.5t96.5 -141t35 -173v-217q0 -75 -26 -137t-71.5 -105.5t-106.5 -67.5t-130 -24h-858q-95 0 -178.5 36t-146 98.5t-98.5 145.5 t-36 177zM1115 255h307q33 0 55.5 21.5t22.5 57.5v217q0 39 -15 73.5t-41.5 60t-61.5 40t-75 14.5t-75 -15t-61 -41t-41 -61t-15 -76v-291zM1177 1220q0 27 10.5 50.5t28 41t41 28t50.5 10.5t50.5 -10.5t41 -28t28 -41t10.5 -50.5t-10.5 -50.5t-28 -41t-41 -27.5t-50.5 -10 t-50.5 10t-41 27.5t-28 41t-10.5 50.5z" />
<glyph unicode="&#x641;" horiz-adv-x="1897" arabic-form="final" d="M105 457v369h255v-369q0 -42 16 -78.5t43.5 -64t64.5 -43.5t79 -16h295v291q0 96 35 178t96 142t142.5 94t173.5 34q93 0 175 -34.5t143 -94.5t96 -141t35 -173v-296h185v-255h-1376q-95 0 -178.5 36t-145.5 98.5t-98 145.5t-36 177zM1114 255h385v296q0 39 -15.5 73.5 t-41.5 60t-61.5 40t-75.5 14.5q-39 0 -74 -15t-61 -41t-41 -61t-15 -76v-291zM1176 1220q0 27 10 50.5t27.5 41t41 28t50.5 10.5t50.5 -10.5t41 -28t28 -41t10.5 -50.5t-10.5 -50.5t-28 -41t-41 -27.5t-50.5 -10t-50.5 10t-41 27.5t-27.5 41t-10 50.5z" />
<glyph unicode="&#x641;" horiz-adv-x="1145" arabic-form="initial" d="M-42 0v255h186v291q0 96 35 178t96 142t142 94t174 34t174.5 -34.5t142.5 -94.5t96 -141t35 -173v-217q0 -75 -26 -137t-71.5 -105.5t-106 -67.5t-129.5 -24h-748zM398 255h308q33 0 55.5 21.5t22.5 57.5v217q1 39 -14 73.5t-41.5 60t-62 40t-75.5 14.5t-75 -15 t-61.5 -41t-41.5 -61t-15 -76v-291zM461 1220q0 27 10.5 50.5t28 41t41 28t50.5 10.5t50 -10.5t40.5 -28t27.5 -41t10 -50.5t-10 -50.5t-27.5 -41t-40.5 -27.5t-50 -10t-50.5 10t-41 27.5t-28 41t-10.5 50.5z" />
<glyph unicode="&#x641;" horiz-adv-x="1183" arabic-form="medial" d="M-42 0v255h186v291q0 96 35 178t96 142t142 94t174 34t174.5 -34.5t142.5 -94.5t96.5 -141t35.5 -173v-296h185v-255h-1267zM398 255h387v296q0 39 -15.5 73.5t-41.5 60t-61.5 40t-75.5 14.5t-75 -15t-61.5 -41t-41.5 -61t-15 -76v-291zM461 1220q0 27 10.5 50.5t28 41 t41 28t50.5 10.5t50 -10.5t40.5 -28t27.5 -41t10 -50.5t-10 -50.5t-27.5 -41t-40.5 -27.5t-50 -10t-50.5 10t-41 27.5t-28 41t-10.5 50.5z" />
<glyph unicode="&#x642;" horiz-adv-x="1480" arabic-form="isolated" d="M105 107v718h256v-718q0 -43 16 -81t44.5 -66t66 -44t81.5 -16h354q54 0 99.5 28t71.5 72h-295q-68 0 -128 26t-105 71t-71 105t-26 128v201q0 96 35.5 180t97 147t143.5 99.5t176 36.5q93 0 176 -37t144.5 -99.5t97 -145.5t35.5 -176v-439q0 -93 -35.5 -175.5t-97 -144 t-143.5 -97t-175 -35.5h-354q-96 0 -180.5 36.5t-147.5 99t-99.5 146.5t-36.5 180zM636 1220q0 27 10.5 50.5t28 41t41 28t50.5 10.5t50.5 -10.5t41 -28t27.5 -41t10 -50.5t-10 -50.5t-27.5 -41t-41 -27.5t-50.5 -10t-50.5 10t-41 27.5t-28 41t-10.5 50.5zM725 330 q0 -32 21.5 -53.5t52.5 -21.5h320v281q0 41 -15.5 77.5t-42.5 64.5t-63 44t-77 16t-77 -16t-62.5 -44t-41.5 -66t-15 -81v-201zM944 1220q0 27 10.5 50.5t28 41t41 28t50.5 10.5t50.5 -10.5t41 -28t27.5 -41t10 -50.5t-10 -50.5t-27.5 -41t-41 -27.5t-50.5 -10t-50.5 10 t-41 27.5t-28 41t-10.5 50.5z" />
<glyph unicode="&#x642;" horiz-adv-x="1517" arabic-form="final" d="M105 107v718h256v-718q0 -43 16 -81t44 -66t65.5 -44t80.5 -16h355q57 0 101.5 26.5t70.5 73.5h-296q-68 0 -128.5 26t-105.5 71t-71 105t-26 128v201q0 96 35.5 180t97 147t144 99.5t176.5 36.5q93 0 176 -37t144.5 -99.5t97.5 -145.5t36 -176v-281h185v-255h-196 q-18 -75 -59 -139.5t-99.5 -112.5t-130.5 -75.5t-152 -27.5h-355q-96 0 -180 36.5t-146.5 99t-99 146.5t-36.5 180zM636 1220q0 27 10.5 50.5t28 41t41 28t50.5 10.5t50.5 -10.5t41 -28t27.5 -41t10 -50.5t-10 -50.5t-27.5 -41t-41 -27.5t-50.5 -10t-50.5 10t-41 27.5 t-28 41t-10.5 50.5zM723 330q0 -32 21.5 -53.5t53.5 -21.5h320v281q0 41 -15.5 77.5t-42.5 64.5t-63.5 44t-76.5 16q-41 0 -77 -16t-62.5 -44t-42 -66t-15.5 -81v-201zM944 1220q0 27 10.5 50.5t28 41t41 28t50.5 10.5t50.5 -10.5t41 -28t27.5 -41t10 -50.5t-10 -50.5 t-27.5 -41t-41 -27.5t-50.5 -10t-50.5 10t-41 27.5t-28 41t-10.5 50.5z" />
<glyph unicode="&#x642;" horiz-adv-x="1145" arabic-form="initial" d="M-42 0v255h186v291q0 96 35 178t96 142t142 94t174 34t174.5 -34.5t142.5 -94.5t96 -141t35 -173v-217q0 -75 -26 -137t-71.5 -105.5t-106 -67.5t-129.5 -24h-748zM309 1220q0 27 10.5 50.5t28 41t41 28t50.5 10.5t50.5 -10.5t41 -28t27.5 -41t10 -50.5t-10 -50.5 t-27.5 -41t-41 -27.5t-50.5 -10t-50.5 10t-41 27.5t-28 41t-10.5 50.5zM398 255h308q33 0 55.5 21.5t22.5 57.5v217q1 39 -14 73.5t-41.5 60t-62 40t-75.5 14.5t-75 -15t-61.5 -41t-41.5 -61t-15 -76v-291zM617 1220q0 27 10.5 50.5t28 41t41 28t50.5 10.5t50.5 -10.5 t41 -28t27.5 -41t10 -50.5t-10 -50.5t-27.5 -41t-41 -27.5t-50.5 -10t-50.5 10t-41 27.5t-28 41t-10.5 50.5z" />
<glyph unicode="&#x642;" horiz-adv-x="1183" arabic-form="medial" d="M-42 0v255h186v291q0 96 35 178t96 142t142 94t174 34t174.5 -34.5t142.5 -94.5t96.5 -141t35.5 -173v-296h185v-255h-1267zM309 1220q0 27 10.5 50.5t28 41t41 28t50.5 10.5t50.5 -10.5t41 -28t27.5 -41t10 -50.5t-10 -50.5t-27.5 -41t-41 -27.5t-50.5 -10t-50.5 10 t-41 27.5t-28 41t-10.5 50.5zM398 255h386v296q0 39 -15 73.5t-41.5 60t-61.5 40t-75 14.5t-75 -15t-61.5 -41t-41.5 -61t-15 -76v-291zM617 1220q0 27 10.5 50.5t28 41t41 28t50.5 10.5t50.5 -10.5t41 -28t27.5 -41t10 -50.5t-10 -50.5t-27.5 -41t-41 -27.5t-50.5 -10 t-50.5 10t-41 27.5t-28 41t-10.5 50.5z" />
<glyph unicode="&#x643;" horiz-adv-x="1436" arabic-form="isolated" d="M105 454v372h256v-372q0 -41 15.5 -77.5t42.5 -63.5t63 -42.5t78 -15.5h439q32 0 54.5 22.5t22.5 54.5v1018h255v-1018q0 -69 -26 -129.5t-71 -105.5t-105.5 -71t-129.5 -26h-439q-94 0 -177 36t-144.5 97.5t-97.5 144t-36 176.5zM550 943v94h49q-16 40 -16 80 q0 30 8.5 58t27 50t48.5 35.5t73 14.5h81v-95h-80h1q-34 -1 -49.5 -20.5t-15.5 -42.5q0 -15 3 -29t8 -25.5t12.5 -18.5t15.5 -7h142v-94h-308z" />
<glyph unicode="&#x643;" horiz-adv-x="1474" arabic-form="final" d="M105 454v372h256v-372q0 -41 15.5 -77.5t42.5 -63.5t63.5 -42.5t78.5 -15.5h514v1095h256v-1095h185v-255h-955q-95 0 -178 36t-144.5 97.5t-97.5 144t-36 176.5zM550 943v94h49q-16 40 -16 80q0 30 8.5 58t27 50t48.5 35.5t73 14.5h81v-95h-80h1q-34 -1 -49.5 -20.5 t-15.5 -42.5q0 -15 3 -29t8 -25.5t12.5 -18.5t15.5 -7h142v-94h-308z" />
<glyph unicode="&#x643;" horiz-adv-x="1270" arabic-form="initial" d="M-42 0v255h873q33 0 56 21.5t23 52.5v200q0 62 -25.5 102.5t-67.5 64.5t-94.5 33.5t-106.5 9.5q-53 0 -110 -9t-109 -21.5t-94.5 -27t-66.5 -25.5l-113 206l556 515l184 -179l-229 -204q100 -2 195.5 -24t170 -75t120 -142t45.5 -224v-200q0 -68 -26 -128t-71.5 -104.5 t-106.5 -70.5t-130 -26h-873z" />
<glyph unicode="&#x643;" horiz-adv-x="1314" arabic-form="medial" d="M-42 0v255h957v274q0 62 -25.5 102.5t-67 64.5t-94 33.5t-106.5 9.5q-53 0 -110.5 -9t-109.5 -21.5t-94 -27t-66 -25.5l-113 206l557 515l184 -179l-229 -204q66 -1 131 -11t124 -31.5t109.5 -56.5t87 -86t57.5 -120.5t21 -159.5v-274h185v-255h-1398z" />
<glyph unicode="&#x644;" horiz-adv-x="1229" arabic-form="isolated" d="M105 99v727h256v-727q0 -50 21.5 -87.5t57 -63t81 -38t93.5 -12.5t93.5 12.5t81 38t57.5 63t22 87.5v1251h256v-1251q0 -114 -44 -199.5t-115.5 -142.5t-163 -85.5t-187.5 -28.5t-187.5 28.5t-163 85.5t-115 142.5t-43.5 199.5z" />
<glyph unicode="&#x644;" horiz-adv-x="1265" arabic-form="final" d="M105 99v727h256v-727q0 -50 21.5 -88t57 -63t81 -37.5t93.5 -12.5q47 0 92.5 12.5t81 37.5t57 63t21.5 88v1251h256v-1095h185v-255h-195q-18 -89 -67 -156t-116.5 -112t-149 -67.5t-165.5 -22.5q-96 0 -187.5 28.5t-163 85.5t-115 143t-43.5 200z" />
<glyph unicode="&#x644;" horiz-adv-x="520" arabic-form="initial" d="M-42 0v255h124q33 0 55.5 22t22.5 54v1019h255v-1019q0 -68 -26 -128.5t-71.5 -105.5t-106 -71t-129.5 -26h-124z" />
<glyph unicode="&#x644;" horiz-adv-x="541" arabic-form="medial" d="M-42 0v255h185v1095h255v-1095h185v-255h-625z" />
<glyph unicode="&#x645;" horiz-adv-x="1442" arabic-form="isolated" d="M105 183q0 72 18.5 137t59 115.5t104.5 84t155 44.5q5 87 42 165t97.5 137t139.5 93.5t168 34.5q93 0 174.5 -36t142 -98.5t96 -145.5t35.5 -177v-205q0 -95 -35.5 -178.5t-96 -145.5t-142 -98t-174.5 -36q-89 0 -167.5 34t-139 92.5t-98 136.5t-42.5 165 q-45 -15 -63 -47t-18 -72v-538h-256v538zM696 331q0 -41 15 -77t41.5 -64t62 -44t74.5 -16q40 0 75 16t61.5 43t41.5 64t15 79v205q0 42 -15 78.5t-41.5 63.5t-61.5 43t-75 16q-39 0 -74.5 -16t-62 -44t-41.5 -64.5t-15 -76.5v-206z" />
<glyph unicode="&#x645;" horiz-adv-x="1480" arabic-form="final" d="M105 183q0 72 18.5 137t59 115.5t104 84t154.5 44.5q5 87 42 165t97.5 137t139.5 93.5t169 34.5q92 0 173.5 -36t142 -98.5t96 -145.5t35.5 -177v-205q0 -40 -6 -77h192v-255h-325q-60 -61 -138.5 -93.5t-169.5 -32.5q-89 0 -168.5 34t-139.5 92.5t-97.5 136.5t-42.5 165 q-45 -15 -63 -47t-18 -72v-538h-255v538zM695 331q0 -41 15 -77t41.5 -64t62 -44t75.5 -16t75 16t61 43t41 64t15 79v205q0 42 -15 78.5t-41 63.5t-61 43t-75 16t-75.5 -16t-62 -44t-41.5 -64.5t-15 -76.5v-206z" />
<glyph unicode="&#x645;" horiz-adv-x="1145" arabic-form="initial" d="M-42 0v255h191q-4 20 -4.5 38.5t-0.5 38.5v205q0 94 35 177t96 145.5t142 98.5t174 36t174.5 -37.5t142.5 -100.5t96 -145.5t35 -173.5v-206q0 -92 -35 -174.5t-96 -145.5t-142.5 -100t-174.5 -37q-187 0 -308 126h-325zM398 332q0 -42 15 -79t41.5 -64t61.5 -43t75 -16 t75.5 16t62 44t41.5 64t15 77v206q0 40 -15 76.5t-41.5 64.5t-62 44t-75.5 16t-75 -16t-61.5 -43t-41.5 -63.5t-15 -78.5v-205z" />
<glyph unicode="&#x645;" horiz-adv-x="1182" arabic-form="medial" d="M-42 0v255h191q-3 19 -4 38t-1 39v205q0 94 35 177t96 145.5t142 98.5t174 36q92 0 174 -37.5t143 -100.5t96 -145.5t35 -173.5v-206q1 -21 0 -39t-5 -37h190v-255h-325q-61 -60 -139 -93t-169 -33q-185 0 -308 126h-325zM398 332q0 -42 15 -79t41.5 -64t61.5 -43t75 -16 t75 16t61.5 44t41.5 64t15 77v206q0 40 -15 76.5t-41.5 64.5t-61.5 44t-75 16t-75 -16t-61.5 -43t-41.5 -63.5t-15 -78.5v-205z" />
<glyph unicode="&#x646;" horiz-adv-x="1229" arabic-form="isolated" d="M105 101v725h256v-725q0 -50 21.5 -88t57 -63.5t81 -38t93.5 -12.5t93.5 12.5t81 38t57.5 63.5t22 88v893h256v-893q0 -114 -44 -200t-115.5 -143t-163 -85.5t-187.5 -28.5t-187.5 28.5t-163 85.5t-115 143t-43.5 200zM485 1220q0 27 10 50.5t27.5 41t41 28t50.5 10.5 t50.5 -10.5t41 -28t28 -41t10.5 -50.5t-10.5 -50.5t-28 -41t-41 -27.5t-50.5 -10t-50.5 10t-41 27.5t-27.5 41t-10 50.5z" />
<glyph unicode="&#x646;" horiz-adv-x="1266" arabic-form="final" d="M105 101v725h255v-725q0 -50 21.5 -88t57.5 -63.5t81.5 -38t93.5 -12.5q47 0 92.5 12.5t81 38t57.5 63.5t22 88v893h256v-738h185v-256h-196q-18 -90 -66.5 -157t-116.5 -111t-149.5 -66t-165.5 -22q-96 0 -187.5 28.5t-163 85.5t-115 143t-43.5 200zM484 1220 q0 27 10.5 50.5t28 41t41 28t50.5 10.5t50.5 -10.5t41 -28t27.5 -41t10 -50.5t-10 -50.5t-27.5 -41t-41 -27.5t-50.5 -10t-50.5 10t-41 27.5t-28 41t-10.5 50.5z" />
<glyph unicode="&#x646;" horiz-adv-x="627" arabic-form="initial" d="M-42 0v255h233q31 0 53.5 22.5t22.5 54.5v662h255v-662q0 -69 -26 -129.5t-71 -105.5t-105.5 -71t-128.5 -26h-233zM264 1220q0 27 10 50.5t27.5 41t41 28t50.5 10.5t50.5 -10.5t41 -28t27.5 -41t10 -50.5t-10 -50.5t-27.5 -41t-41 -27.5t-50.5 -10t-50.5 10t-41 27.5 t-27.5 41t-10 50.5z" />
<glyph unicode="&#x646;" horiz-adv-x="666" arabic-form="medial" d="M-42 0v255h309v739h255v-739h186v-255h-750zM196 1220q0 27 10 50.5t27.5 41t41 28t50.5 10.5t50.5 -10.5t41 -28t27.5 -41t10 -50.5t-10 -50.5t-27.5 -41t-41 -27.5t-50.5 -10t-50.5 10t-41 27.5t-27.5 41t-10 50.5z" />
<glyph unicode="&#x647;" horiz-adv-x="1107" arabic-form="isolated" d="M105 331v205q0 95 35.5 178.5t96 145.5t142 98t174.5 36q92 0 174 -36.5t143 -98.5t96.5 -144.5t35.5 -174.5v-206q0 -75 -26 -136.5t-71.5 -105.5t-106 -68t-129.5 -24h-232q-71 0 -131.5 23.5t-105 67t-70 104.5t-25.5 136zM361 331q0 -34 22 -54.5t54 -20.5h232 q32 0 54.5 21.5t22.5 56.5v206q0 40 -15 76t-41.5 63t-61.5 43t-75 16t-75 -16t-61 -43.5t-41 -64t-15 -78.5v-205z" />
<glyph unicode="&#x647;" horiz-adv-x="1152" arabic-form="final" d="M105 329v202q0 96 35.5 180t97 146.5t144 99t175.5 36.5t176 -37t144.5 -99.5t97 -145.5t34.5 -175v-281h186v-255h-440v537q0 41 -15.5 77.5t-42.5 64t-63 43.5t-77 16t-77 -16t-62.5 -44t-42 -66t-15.5 -81v-202q0 -31 21.5 -52.5t53.5 -21.5h150v-255h-150 q-68 0 -128 26t-105 70.5t-71 104.5t-26 128z" />
<glyph unicode="&#x647;" horiz-adv-x="1446" arabic-form="initial" d="M-42 0v255h185v155q0 60 18 113.5t49.5 97t75 74.5t95.5 46q33 58 87 105t119.5 80t139 50.5t146.5 17.5q91 0 175.5 -26t149.5 -82t104 -144.5t39 -213.5v-199q0 -68 -26.5 -128t-71.5 -104.5t-106 -70.5t-130 -26h-1049zM398 256h152v157q0 18 -5.5 33.5t-16 27 t-24.5 18t-30 6.5q-32 0 -54 -25.5t-22 -62.5v-154zM674 685q60 -48 96.5 -118t35.5 -154v-158h201q33 0 56 21.5t23 52.5v199q0 56 -18 96t-47.5 65.5t-68 37.5t-79.5 12q-53 0 -105.5 -14.5t-93.5 -39.5z" />
<glyph unicode="&#x647;" horiz-adv-x="1487" arabic-form="medial" d="M-42 0v255h185v154q0 60 18 113.5t50 96.5t75.5 74.5t95.5 46.5q33 58 86.5 105t118.5 80t138.5 51t147.5 18q91 0 175.5 -26t149.5 -82t104 -144.5t39 -213.5v-273h188v-255h-1571zM399 255h151v158q0 18 -5.5 33.5t-16 27t-24.5 18t-30 6.5q-32 0 -53.5 -25.5 t-21.5 -63.5v-154zM674 685q62 -47 97.5 -117t34.5 -155v-158h280v273q0 56 -18 96t-47.5 65.5t-68 37.5t-79.5 12q-54 0 -105.5 -14t-93.5 -40z" />
<glyph unicode="&#x648;" horiz-adv-x="1116" arabic-form="isolated" d="M105 329v202q0 96 35.5 180t97 147t144 99.5t175.5 36.5q94 0 176.5 -37.5t144 -100.5t97 -146t35.5 -174v-440q0 -93 -35.5 -175.5t-96.5 -144t-143.5 -97t-175.5 -35.5h-321v255h321q57 0 102 26t69 75h-295q-68 0 -128 26t-105 70.5t-71 104.5t-26 128zM361 329 q0 -31 21.5 -52.5t52.5 -21.5h320v281q0 40 -15.5 77t-42.5 64.5t-63 44t-77 16.5t-76.5 -16t-62 -44t-42 -66t-15.5 -81v-202z" />
<glyph unicode="&#x648;" horiz-adv-x="1152" arabic-form="final" d="M105 329v202q0 96 35.5 180t97 147t143.5 99.5t175 36.5q94 0 176.5 -37.5t144 -100.5t97 -146t35.5 -174v-281h185v-255h-194q-17 -75 -58.5 -140t-100 -113t-131 -75.5t-152.5 -27.5h-320v255h320q57 0 102 26t69 75h-295q-68 0 -128 26t-104.5 70.5t-70.5 104.5 t-26 128zM360 329q0 -31 21.5 -52.5t52.5 -21.5h320v281q0 40 -15 77t-42 64.5t-63.5 44t-77.5 16.5t-76.5 -16t-62 -44t-42 -66t-15.5 -81v-202z" />
<glyph unicode="&#x649;" horiz-adv-x="1229" arabic-form="isolated" d="M105 103v723h256v-723q0 -51 21.5 -89t57 -63.5t81 -38.5t93.5 -13t93.5 13t81 39t57.5 64.5t22 89.5q0 47 -18.5 75.5t-54.5 28.5h-330v450q0 69 26.5 130t71.5 106.5t106 72t130 26.5h271v-256h-271q-32 0 -55 -22.5t-23 -56.5v-195h74q81 0 143 -26t103 -73.5 t62 -113.5t21 -146q0 -115 -44 -201.5t-115.5 -144t-163 -86.5t-187.5 -29q-95 0 -186.5 28.5t-163 86t-115.5 143.5t-44 201z" />
<glyph unicode="&#x649;" horiz-adv-x="1165" arabic-form="final" d="M105 102v724h255v-724q0 -51 22 -89t57.5 -63.5t81 -38.5t92.5 -13q33 0 65.5 7t62 20t54.5 32t42 43h-298v255h668v-255h-95q-18 -91 -67 -158t-117 -111.5t-149.5 -66t-165.5 -21.5q-95 0 -186.5 28.5t-163 86t-115 143.5t-43.5 201z" />
<glyph unicode="&#x64a;" horiz-adv-x="1229" arabic-form="isolated" d="M105 103v723h256v-723q0 -51 21.5 -89t57 -63.5t81 -38.5t92.5 -13q48 0 94 13t81.5 39t57.5 64.5t22 89.5q0 47 -18.5 75.5t-54.5 28.5h-330v450q0 69 26.5 130t71.5 106.5t106 72t130 26.5h271v-256h-271q-33 0 -56 -22.5t-23 -56.5v-195h75q81 0 142.5 -26t103 -73.5 t62.5 -113.5t21 -146q0 -115 -44 -201.5t-115.5 -144t-163.5 -86.5t-188 -29q-95 0 -186.5 28.5t-163 86t-115 143.5t-43.5 201zM327 -584q0 27 10.5 50.5t28 41t41 27.5t50.5 10t50.5 -10t41 -27.5t28 -41t10.5 -50.5t-10.5 -50.5t-28 -41t-41 -27.5t-50.5 -10t-50.5 10 t-41 27.5t-28 41t-10.5 50.5zM635 -584q0 27 10.5 50.5t28 41t41 27.5t50.5 10t50.5 -10t41 -27.5t27.5 -41t10 -50.5t-10 -50.5t-27.5 -41t-41 -27.5t-50.5 -10t-50.5 10t-41 27.5t-28 41t-10.5 50.5z" />
<glyph unicode="&#x64a;" horiz-adv-x="1165" arabic-form="final" d="M105 102v724h255v-724q0 -51 22 -89t57.5 -63.5t81 -38.5t92.5 -13q33 0 65.5 7t62 20t54.5 32t42 43h-298v255h668v-255h-95q-18 -91 -67 -158t-117 -111.5t-149.5 -66t-165.5 -21.5q-95 0 -186.5 28.5t-163 86t-115 143.5t-43.5 201zM328 -584q0 27 10 50.5t27.5 41 t41 27.5t50.5 10t50.5 -10t41 -27.5t28 -41t10.5 -50.5t-10.5 -50.5t-28 -41t-41 -27.5t-50.5 -10t-50.5 10t-41 27.5t-27.5 41t-10 50.5zM636 -584q0 27 10 50.5t27.5 41t41 27.5t50.5 10t50.5 -10t41 -27.5t27.5 -41t10 -50.5t-10 -50.5t-27.5 -41t-41 -27.5t-50.5 -10 t-50.5 10t-41 27.5t-27.5 41t-10 50.5z" />
<glyph unicode="&#x64a;" horiz-adv-x="629" arabic-form="initial" d="M-42 -228q0 27 10 50.5t27.5 41t41 27.5t50.5 10t50.5 -10t41 -27.5t28 -41t10.5 -50.5t-10.5 -50.5t-28 -41t-41 -27.5t-50.5 -10t-50.5 10t-41 27.5t-27.5 41t-10 50.5zM-40 0v255h233q31 0 53.5 22.5t22.5 54.5v662h255v-662q0 -69 -26.5 -129.5t-71.5 -105.5 t-105 -71t-128 -26h-233zM266 -228q0 27 10 50.5t27.5 41t41 27.5t50.5 10t50.5 -10t41 -27.5t27.5 -41t10 -50.5t-10 -50.5t-27.5 -41t-41 -27.5t-50.5 -10t-50.5 10t-41 27.5t-27.5 41t-10 50.5z" />
<glyph unicode="&#x64a;" horiz-adv-x="670" arabic-form="medial" d="M-42 -228q0 27 10 50.5t27.5 41t41 27.5t50.5 10t50.5 -10t41 -27.5t28 -41t10.5 -50.5t-10.5 -50.5t-28 -41t-41 -27.5t-50.5 -10t-50.5 10t-41 27.5t-27.5 41t-10 50.5zM-38 0v255h309v739h255v-739h186v-255h-750zM266 -228q0 27 10 50.5t27.5 41t41 27.5t50.5 10 t50.5 -10t41 -27.5t27.5 -41t10 -50.5t-10 -50.5t-27.5 -41t-41 -27.5t-50.5 -10t-50.5 10t-41 27.5t-27.5 41t-10 50.5z" />
<glyph unicode=" "  horiz-adv-x="325" />
<glyph unicode="&#x09;" horiz-adv-x="325" />
<glyph unicode="&#xa0;" horiz-adv-x="325" />
<glyph unicode="!" horiz-adv-x="419" d="M67 67q0 29 11 54t29.5 43t43 28.5t52.5 10.5t53.5 -10.5t44 -28.5t29.5 -43t11 -54q0 -28 -11 -53t-29.5 -43.5t-44 -29t-53.5 -10.5t-52.5 10.5t-43 29t-29.5 43.5t-11 53zM72 303v1047h255v-1047h-255z" />
<glyph unicode="&#x22;" horiz-adv-x="799" d="M84 1409h248l-51 -566h-146zM466 1409h248l-52 -566h-146z" />
<glyph unicode="#" horiz-adv-x="1167" d="M51 442l24 172h220l25 174h-220l24 172h220l46 326h175l-46 -326h186l46 326h176l-46 -326h236l-24 -172h-236l-24 -174h236l-24 -172h-237l-50 -357h-175l50 357h-186l-51 -357h-175l50 357h-220zM471 614h186l24 174h-186z" />
<glyph unicode="$" horiz-adv-x="1167" d="M44 444h273q2 -109 42 -166q49 -70 165 -86v408q-196 55 -267 96q-110 64 -149 152q-31 68 -31 154q0 168 119 276q94 84 228 107q37 7 100 11v174h117v-174q175 -7 287 -90q139 -102 142 -313h-261q-4 99 -53 147q-40 38 -115 50v-360l15 -4q205 -53 290 -101 q170 -95 170 -311q0 -171 -109 -286q-105 -112 -262 -139q-43 -7 -104 -10v-196h-117v196q-205 13 -318 104q-160 127 -162 361zM339 1024q0 -79 62 -121q38 -25 123 -46v336q-185 -18 -185 -169zM641 193q202 24 202 188q0 98 -78 145q-30 17 -85 33q-33 10 -39 12v-378z " />
<glyph unicode="%" horiz-adv-x="1768" d="M70 1015q0 194 97 293q88 90 241 90q168 0 255 -116q69 -93 69 -259q0 -193 -87 -296q-84 -100 -241 -100q-169 0 -257 112q-77 97 -77 276zM271 1002q0 -104 20 -157q29 -76 106 -76q84 0 114 85q20 58 20 170t-28 171t-100 59q-74 0 -106 -70q-26 -57 -26 -182z M392 -54l781 1479h174l-779 -1479h-176zM1035 349q0 187 82 286q89 108 256 108q181 0 267 -132q58 -89 58 -241q0 -188 -82 -291q-87 -107 -251 -107q-169 0 -255 110q-75 96 -75 267zM1237 352q0 -107 21 -161q29 -75 107 -75q79 0 110 85q20 56 20 161q0 106 -20 160 q-29 79 -106 79q-78 0 -109 -75q-23 -55 -23 -174z" />
<glyph unicode="&#x26;" horiz-adv-x="1402" d="M75 387q0 193 159 319q81 64 159 99q-131 155 -131 291q0 161 130 255q103 76 248 76q151 0 252 -87q114 -97 114 -248q0 -226 -244 -355l182 -221q34 60 51 165h242q-24 -205 -135 -346l286 -335h-342l-115 139q-44 -47 -111 -89q-128 -80 -283 -80q-211 0 -337 122 q-125 119 -125 295zM348 395q0 -74 54 -131q58 -60 147 -60q123 0 233 124l-244 294q-190 -97 -190 -227zM510 1106q0 -54 45 -118q24 -35 43 -56q25 -30 26 -29q61 37 95 73q52 54 52 122q0 56 -40 96q-35 34 -90 34q-57 0 -92 -34q-39 -37 -39 -88z" />
<glyph unicode="'" horiz-adv-x="417" d="M85 1409h248l-52 -566h-145z" />
<glyph unicode="(" horiz-adv-x="664" d="M76 534q0 258 92 523q63 184 171 352h234q-90 -164 -147 -358q-75 -252 -75 -511q0 -277 65 -521q42 -153 97 -264q49 -101 57 -117h-234q-15 21 -84 151q-81 150 -132 362q-44 182 -44 383z" />
<glyph unicode=")" horiz-adv-x="664" d="M90 -362q90 164 147 358q75 252 75 511q0 277 -65 521q-42 156 -96 265q-50 100 -57 116h233q14 -20 85 -151q80 -150 131 -362q44 -182 44 -383q0 -259 -92 -524q-63 -183 -171 -351h-234z" />
<glyph unicode="*" horiz-adv-x="2943" d="M105 743v587q0 11 8 18.5t19 7.5t18.5 -7.5t7.5 -18.5v-383q30 48 75 86q19 16 43 31.5t53.5 28t64.5 20t76 7.5q82 0 149.5 -30.5t115.5 -81.5t74 -116.5t26 -134.5q0 -70 -27 -137t-75 -119t-115 -83.5t-148 -31.5q-80 0 -147 30t-115.5 80t-75.5 114t-27 133zM159 757 q0 -65 24.5 -122.5t66.5 -100t98.5 -67t121.5 -24.5q64 0 120.5 24.5t98.5 67t66.5 100t24.5 122.5q0 64 -24.5 120.5t-66.5 99t-98.5 67t-120.5 24.5q-65 0 -121.5 -24.5t-98.5 -67t-66.5 -99t-24.5 -120.5zM870 754q0 76 28.5 143t78 116.5t116.5 78.5t143 29t143 -29 t117 -78.5t78.5 -116.5t28.5 -143q0 -8 -6 -16.5t-22 -8.5h-391q-11 0 -19.5 7.5t-8.5 20.5q0 11 8.5 19t19.5 8h362q-6 59 -32 110.5t-67.5 90t-95.5 60.5t-115 22q-65 0 -121.5 -24.5t-98.5 -67t-66 -99.5t-24 -122q0 -64 24 -120.5t66 -99t98.5 -67t121.5 -24.5 q42 0 81 11t73.5 30.5t63 47t48.5 60.5q6 11 17.5 13t21.5 -5q8 -6 11 -17t-5 -21q-24 -39 -56.5 -71t-72.5 -55.5t-86 -36t-96 -12.5q-76 0 -143 29t-116.5 79t-78 117t-28.5 142zM1222 111q0 18 19 18q7 0 12.5 -5t5.5 -13q0 -6 2 -18t10 -24t24 -21t44 -9q33 0 50.5 10 t24.5 23t7.5 23.5t0.5 11.5l-0.5 9t-8 19t-25 18.5t-50.5 8.5t-55 8t-35.5 20.5t-19.5 27t-6 28.5q0 13 4.5 31t17.5 34t35.5 27.5t58.5 11.5q32 -1 58 -13q22 -11 40.5 -33.5t18.5 -65.5q0 -7 -5.5 -12t-13.5 -5q-7 0 -12 5t-5 12q0 21 -9 38q-8 14 -24 26.5t-48 12.5 t-48.5 -11t-23.5 -24q-8 -16 -8 -35q1 -13 10 -23q8 -9 24 -16t46 -7q62 0 91.5 -27.5t29.5 -65.5q0 -19 -6.5 -37.5t-20.5 -33.5t-37.5 -24t-56.5 -9q-26 0 -47.5 8.5t-37 23.5t-23.5 34.5t-8 42.5zM1490 231q0 52 32.5 85.5t86.5 33.5q25 0 47.5 -9.5t38.5 -25.5t25.5 -38 t9.5 -46q0 -25 -9.5 -47t-25.5 -38.5t-38.5 -26t-47.5 -9.5h-81v-94q0 -19 -19 -19q-8 0 -13 5.5t-5 13.5zM1528 147h81q17 0 32.5 6.5t27 18t18 26.5t6.5 33q0 34 -24.5 59t-59.5 25q-38 0 -59.5 -24.5t-21.5 -59.5v-84zM1639 440v630q2 20 20 37t44 17t44 -17t19 -37v-630 q-1 -20 -19 -37t-44 -18q-26 1 -44 18t-20 37zM1737 174q0 37 14 69.5t38 56.5t56.5 38t68.5 14q37 0 69.5 -14t56.5 -38t38 -56.5t14 -69.5q0 -36 -14 -68.5t-38 -57t-56.5 -38.5t-69.5 -14q-36 0 -68.5 14t-56.5 38.5t-38 57t-14 68.5zM1777 174q0 -29 11 -54t29.5 -43.5 t43.5 -29.5t53 -11q29 0 54 11t44 29.5t29.5 43.5t10.5 54q0 28 -10.5 53t-29.5 44t-44 29.5t-54 10.5q-28 0 -53 -10.5t-43.5 -29.5t-29.5 -44t-11 -53zM1826 436v474q3 40 18 77q13 32 40.5 65t78.5 54q52 19 97 16t81 -19t61.5 -40t37.5 -46l289 -455q14 -22 33 -35 q17 -11 41.5 -15t56.5 13q15 7 24.5 17.5t15.5 22t8.5 21.5t2.5 17v466q2 20 19.5 37t42.5 17q27 0 45 -17t19 -37v-466q0 -41 -13 -78q-12 -32 -39 -65.5t-81 -55.5q-52 -21 -98 -17.5t-82 19t-61 37.5t-35 37q-5 8 -20 31.5t-36 57.5t-46.5 74t-51.5 81q-61 96 -135 212 q-9 18 -22 31q-11 11 -28 20.5t-39 7.5q-38 -4 -58.5 -19.5t-28.5 -32.5q-11 -20 -10 -46v-454q0 -22 -18 -39.5t-44 -18.5q-27 1 -45 17t-20 34zM2111 15v216q0 52 32.5 86.5t88.5 34.5q25 0 47 -9.5t38.5 -26t26 -38.5t9.5 -47q0 -39 -22.5 -70t-59.5 -44l56 -92 q4 -6 2.5 -13.5t-8.5 -10.5q-8 -5 -15.5 -3.5t-11.5 9.5l-64 103h-82v-95q0 -8 -5 -13.5t-13 -5.5q-19 0 -19 19zM2148 147h84q35 0 59.5 24.5t24.5 59.5q0 18 -6.5 33t-18 26.5t-27 18t-32.5 6.5q-38 0 -61 -23.5t-23 -60.5v-84zM2343 331q0 8 6 13.5t15 5.5h204 q8 0 13.5 -5.5t5.5 -13.5t-5.5 -14t-13.5 -6h-82v-294q0 -8 -5.5 -14t-13.5 -6q-9 0 -14.5 6t-5.5 14v294h-83q-9 0 -15 6t-6 14zM2599 108q0 19 16 19q8 0 13 -5.5t5 -13.5q0 -6 2.5 -18.5t11 -25t25 -21.5t44.5 -9q34 0 51 10.5t24.5 23.5t8 24t0.5 12t-0.5 9.5t-8 18.5 t-25 18.5t-50.5 8.5q-34 0 -56.5 8t-36 21t-19 28t-5.5 29q0 13 4.5 31t17 34.5t35 28t58.5 11.5q33 -1 59 -13q22 -11 40.5 -33.5t18.5 -66.5q0 -7 -5 -13t-13 -6q-9 0 -14 6t-5 13q0 21 -8 38q-7 14 -23 26t-48 12q-33 0 -49.5 -11t-24.5 -24q-9 -15 -9 -34q1 -13 10 -24 q8 -9 24 -16.5t47 -7.5q63 0 93 -27t30 -65q0 -19 -7 -38t-21.5 -34.5t-38 -25t-56.5 -9.5q-26 0 -48 9t-37.5 24t-23.5 35t-6 43z" />
<glyph unicode="+" horiz-adv-x="1167" d="M97 596v189h392v392h189v-392h391v-189h-391v-392h-189v392h-392z" />
<glyph unicode="," horiz-adv-x="456" d="M105 121q0 46 31 70q31 23 66 23q70 0 109.5 -44t39.5 -114q0 -98 -64.5 -157t-161.5 -58l-10 59q88 5 131 60q20 25 20 54q0 20 -21 20q-23 -2 -38 -3q-102 0 -102 90z" />
<glyph unicode="-" horiz-adv-x="625" d="M45 400v251h535v-251h-535z" />
<glyph unicode="." horiz-adv-x="462" d="M105 129q0 27 10 50t27 40t40 26.5t49 9.5q27 0 50 -9.5t40 -26.5t26.5 -40t9.5 -50q0 -26 -9.5 -49t-26.5 -40t-40 -27t-50 -10q-26 0 -49 10t-40 27t-27 40t-10 49z" />
<glyph unicode="/" horiz-adv-x="909" d="M-68 -362l655 1771h254l-653 -1771h-256z" />
<glyph unicode="0" horiz-adv-x="1112" d="M105 450v453q0 94 35 176.5t96 143.5t143 96t176 35q93 0 175.5 -35.5t144 -97t97 -143.5t35.5 -175v-453q0 -93 -35.5 -174.5t-97 -143t-144 -97t-175.5 -35.5q-94 0 -176 35.5t-143 96.5t-96 143t-35 175zM350 450q0 -42 16 -79.5t44 -65t65.5 -44t79.5 -16.5 q43 0 80 16.5t64.5 44t43.5 65t16 79.5v453q0 42 -16 79t-43.5 64.5t-64.5 43.5t-80 16q-42 0 -79.5 -16t-65.5 -43.5t-44 -64.5t-16 -79v-453z" />
<glyph unicode="1" horiz-adv-x="768" d="M105 1081l103 270h268q50 0 85.5 -19t58 -50.5t33 -72.5t10.5 -84v-1125h-261v1081h-297z" />
<glyph unicode="2" horiz-adv-x="1151" d="M105 174q0 31 8.5 55t23.5 43.5t34.5 36t41.5 32.5l20 15h-1l440 346q24 19 45.5 43.5t38.5 52t27 57.5t10 61q0 43 -16 79.5t-44 63t-65 41t-80 14.5q-51 0 -90.5 -16t-66.5 -45.5t-41.5 -70.5t-14.5 -91q0 -31 12.5 -60t34.5 -53.5t51.5 -43.5t63.5 -31l-219 -158 q-102 64 -149.5 160t-47.5 209q0 101 40 182t106.5 137.5t154 87t182.5 30.5q92 0 172.5 -33t140.5 -91t94.5 -137.5t34.5 -171.5q0 -85 -24.5 -152.5t-66.5 -123.5t-96.5 -104.5t-114.5 -95.5l-259 -202h555v-240h-727q-41 0 -78.5 9.5t-66 30.5t-46 54t-17.5 80z" />
<glyph unicode="3" horiz-adv-x="1117" d="M105 425h247q7 -39 26.5 -72t47.5 -57t62 -37.5t70 -13.5q43 0 81.5 16.5t66.5 45t44.5 66.5t16.5 82q0 53 -17 87.5t-43.5 56.5t-59.5 35t-65 22q-28 9 -55 19t-48 25t-34 36.5t-13 54.5q0 23 17.5 56t44 70t57 74.5t57.5 69.5q9 10 14 15.5t9 10t7 8.5t8 10h-403 l-61 247h615q39 0 76.5 -9.5t66.5 -29.5t46.5 -52t17.5 -78q0 -31 -17.5 -68t-44 -75.5t-57.5 -75.5t-59 -68q-12 -14 -20 -23.5t-19 -23.5q52 -31 93.5 -73.5t71 -93.5t45 -108.5t15.5 -118.5q0 -94 -36 -176.5t-98 -144.5t-144.5 -98t-175.5 -36q-87 0 -165.5 32.5 t-139.5 89.5t-100 134.5t-48 168.5z" />
<glyph unicode="4" horiz-adv-x="1268" d="M105 379q0 20 6 42t15 40l550 890h328l-551 -889h249v147h278v-147h183v-251h-183v-211h-278v211h-421q-34 0 -65.5 12.5t-56 35t-39.5 53.5t-15 67z" />
<glyph unicode="5" horiz-adv-x="1071" d="M105 383h237q10 -32 29 -59t44.5 -46.5t56 -30.5t62.5 -11q42 0 78.5 16.5t63.5 44t42.5 64.5t15.5 79t-16 79t-43 64t-63.5 43t-77.5 16q-21 0 -43.5 -0.5t-43.5 -1.5q-22 -1 -43 -1.5t-42 -0.5q-52 0 -98 7.5t-80.5 31t-54.5 67.5t-20 117v308q0 48 17.5 82.5 t47.5 56.5t69 32.5t81 10.5h592l-69 -246h-481v-226h168q90 0 169 -35t137.5 -94.5t92 -139.5t33.5 -170t-33.5 -170t-91.5 -140t-137 -95t-170 -35q-80 0 -152 29t-129.5 80.5t-96 121.5t-51.5 152z" />
<glyph unicode="6" horiz-adv-x="1225" d="M105 472q0 57 15.5 113.5t43.5 105.5l388 662h319l-246 -409q97 -4 186.5 -39.5t158 -97.5t109.5 -147t41 -188q0 -104 -42.5 -190.5t-113 -149t-162 -97.5t-188.5 -35q-99 0 -191 35t-162.5 97.5t-113 149t-42.5 190.5zM378 472q0 -49 20 -90.5t53 -72t76.5 -47.5 t90.5 -17t90.5 17t77 47.5t53.5 72t20 90.5q0 48 -20 89t-53.5 71.5t-77 47.5t-90.5 17t-90.5 -17t-76.5 -47.5t-53 -71.5t-20 -89z" />
<glyph unicode="7" horiz-adv-x="1081" d="M105 1351h675q40 0 75.5 -15t62.5 -40.5t42.5 -60.5t15.5 -75q0 -18 -14 -71t-37.5 -129t-54 -168.5t-63.5 -190t-66 -193t-61.5 -177t-50 -142.5t-31.5 -89h-305l388 1080h-513z" />
<glyph unicode="8" horiz-adv-x="1102" d="M105 418q0 96 42 178.5t117 142.5q-50 51 -75.5 114.5t-25.5 134.5q0 79 32 146t85.5 115.5t123.5 75.5t146 27t146 -27t124 -75.5t86.5 -115.5t32.5 -146q0 -71 -26.5 -134.5t-74.5 -114.5q75 -60 117 -142.5t42 -178.5q0 -92 -37 -168.5t-99.5 -132t-143 -86.5 t-167.5 -31q-88 0 -168.5 31t-142 86.5t-98 132.5t-36.5 168zM359 425q0 -39 15.5 -73t41.5 -59t61 -39.5t73 -14.5q39 0 74 14t61.5 39t42 59t15.5 74q0 39 -15.5 73t-42 59t-61.5 39.5t-74 14.5t-73.5 -14.5t-60.5 -39.5t-41.5 -59t-15.5 -73zM412 978q0 -29 11 -54.5 t29.5 -44.5t43.5 -30t54 -11t54.5 11t44.5 30t30 44.5t11 54.5q0 28 -11 53t-30 43.5t-44.5 29t-54.5 10.5t-54 -10.5t-43.5 -29t-29.5 -43.5t-11 -53z" />
<glyph unicode="9" horiz-adv-x="1151" d="M105 881q0 97 37 182.5t101 149.5t149.5 101t183.5 37q97 0 182.5 -37t149.5 -101t101 -149.5t37 -182.5q0 -58 -13.5 -114t-39.5 -106q-87 -161 -180 -330.5t-180 -330.5h-297l229 410q-96 4 -180 41t-146 99.5t-98 147t-36 183.5zM350 881q0 -47 17 -89t46.5 -73 t70 -49t87.5 -18q46 0 86.5 18.5t70.5 50t47.5 73t17.5 87.5q0 45 -17.5 86t-47.5 72t-70.5 49t-86.5 18t-86.5 -18t-70.5 -48.5t-47 -71.5t-17 -87z" />
<glyph unicode=":" horiz-adv-x="462" d="M105 124q0 27 10 50t27 40t40 26.5t49 9.5q27 0 50 -9.5t40 -26.5t26.5 -40t9.5 -50q0 -26 -9.5 -49t-26.5 -40t-40 -27t-50 -10q-26 0 -49 10t-40 27t-27 40t-10 49zM105 756q0 27 10 50t27 40t40 26.5t49 9.5q27 0 50 -9.5t40 -26.5t26.5 -40t9.5 -50q0 -26 -9.5 -49 t-26.5 -40t-40 -27t-50 -10q-26 0 -49 10t-40 27t-27 40t-10 49z" />
<glyph unicode=";" horiz-adv-x="462" d="M105 118q0 46 31 70q31 23 66 23q70 0 109.5 -44t39.5 -114q0 -98 -64.5 -157t-161.5 -58l-10 59q88 5 131 60q20 25 20 54q0 20 -21 20q-23 -2 -38 -3q-102 0 -102 90zM105 758q0 27 10 50t27 40t40 26.5t49 9.5q27 0 50 -9.5t40 -26.5t26.5 -40t9.5 -50q0 -26 -9.5 -49 t-26.5 -40t-40 -27t-50 -10q-26 0 -49 10t-40 27t-27 40t-10 49z" />
<glyph unicode="&#x3c;" horiz-adv-x="1167" d="M126 585v255l916 476v-302l-595 -302l594 -304v-300z" />
<glyph unicode="=" horiz-adv-x="1167" d="M97 424v185h972v-185h-972zM97 772v185h972v-185h-972z" />
<glyph unicode="&#x3e;" horiz-adv-x="1167" d="M126 108v302l594 303l-593 303v300l914 -477v-255z" />
<glyph unicode="?" horiz-adv-x="1119" d="M105 782q3 125 22 215.5t51 144.5q35 55 85.5 99.5t114.5 70.5h-1q91 37 195 37q204 0 329 -122q113 -110 113 -280q0 -72 -22 -138t-63 -120q-20 -25 -57 -63t-91 -91q-26 -26 -43 -44t-23 -29q-6 -10 -10.5 -16.5t-7.5 -21.5t-5 -43.5t-2 -81.5h-253q0 61 2 97t6 58.5 t9.5 37.5t12.5 33q13 32 38 68.5t57 71.5l99 99q91 88 91 176q0 33 -10 61.5t-31 50.5v-1q-50 51 -141 51q-121 0 -173 -91q-16 -26 -25.5 -83.5t-14.5 -145.5h-252zM427 63q0 29 10.5 54t29 43t43.5 28.5t53 10.5t53 -10.5t44 -28.5t29.5 -43t10.5 -54q0 -28 -10.5 -53 t-29.5 -43.5t-44 -29t-53 -10.5t-53 10.5t-43.5 29t-29 43.5t-10.5 53z" />
<glyph unicode="@" horiz-adv-x="1957" d="M141 657q0 382 267 601q126 103 298 153q165 48 340 48q359 0 574 -183q196 -166 196 -427q0 -209 -125 -354q-90 -103 -253 -152q-99 -30 -195 -30q-89 0 -141 41q-18 15 -40 46q-106 -87 -212 -87q-77 0 -145 42q-123 75 -123 245q0 164 113 309q135 174 319 174 q108 0 176 -77l19 45h202l-164 -475q-18 -51 -18 -74q0 -37 66 -37q120 0 204 81q101 98 101 285q0 184 -114 296q-152 149 -438 149q-311 0 -497 -161q-91 -79 -137 -188q-53 -128 -53 -274q0 -238 135 -364q96 -90 229 -122q138 -33 299 -33q371 0 605 108l63 -170 q-234 -122 -666 -122q-333 0 -534 101q-351 178 -351 606zM796 559q0 -94 83 -94q118 0 176 162l46 129q22 60 22 91q0 32 -22 56q-23 25 -58 25q-77 0 -153 -101q-44 -59 -72 -148q-22 -70 -22 -120z" />
<glyph unicode="A" horiz-adv-x="1388" d="M-1 0l537 1412h318l535 -1412h-323l-112 316h-524l-114 -316h-317zM504 541h375l-91 254q-63 176 -94 306q-35 -125 -99 -306z" />
<glyph unicode="B" horiz-adv-x="1400" d="M136 0v1409h634q203 0 304 -52q94 -48 142 -139q41 -77 41 -163q0 -120 -78 -209q-43 -50 -113 -82q80 -28 121 -57q137 -100 137 -292q0 -167 -106 -278q-129 -137 -391 -137h-691zM443 242h312q133 0 187 38q72 51 72 155q0 124 -97 169q-53 24 -178 24h-296v-386z M443 838h282q98 0 144 23q86 42 86 143q0 103 -84 142q-45 21 -147 21h-281v-329z" />
<glyph unicode="C" horiz-adv-x="1442" d="M74 706q0 315 189 527q188 210 502 210q292 0 471 -193q126 -136 140 -313h-304q-19 93 -75 154q-87 95 -238 95q-202 0 -300 -169q-75 -127 -75 -314q0 -190 78 -317q100 -163 294 -163q170 0 255 123q53 76 68 198h307q-17 -219 -147 -374q-171 -204 -486 -204 q-333 0 -520 236q-159 202 -159 504z" />
<glyph unicode="D" horiz-adv-x="1464" d="M136 0v1409h569q180 0 294 -43q199 -77 305 -276q84 -158 84 -368q0 -361 -199 -560q-114 -113 -259 -142q-97 -20 -218 -20h-576zM443 261h237q120 0 185 25q113 44 170 179q43 101 43 246q0 246 -137 356q-101 81 -272 81h-226v-887z" />
<glyph unicode="E" horiz-adv-x="1290" d="M136 0v1409h1057v-261h-750v-300h688v-242h-688v-345h764v-261h-1071z" />
<glyph unicode="F" horiz-adv-x="1169" d="M136 0v1409h992v-261h-685v-326h596v-242h-596v-580h-307z" />
<glyph unicode="G" horiz-adv-x="1504" d="M75 698q0 331 202 545q191 200 491 200q277 0 451 -180q130 -133 150 -318h-298q-17 85 -67 142q-87 99 -240 99q-187 0 -290 -145q-89 -126 -89 -341q0 -210 84 -333q103 -152 304 -152q198 0 289 152q44 74 47 167h-313v225h592v-759h-197l-30 161q-159 -195 -421 -195 q-323 0 -509 239q-156 200 -156 493z" />
<glyph unicode="H" horiz-adv-x="1465" d="M137 0v1409h307v-535h577v535h307v-1409h-307v613h-577v-613h-307z" />
<glyph unicode="I" horiz-adv-x="582" d="M137 0v1409h307v-1409h-307z" />
<glyph unicode="J" horiz-adv-x="1065" d="M17 469q0 28 1 58h285q0 -152 12 -198q27 -114 163 -114q96 0 135 61q30 49 30 174v959h307v-948q0 -139 -25 -219q-43 -138 -167 -212q-107 -64 -271 -64q-300 0 -412 203q-58 105 -58 300z" />
<glyph unicode="K" horiz-adv-x="1409" d="M136 0v1409h307v-420q0 -29 -3 -177q92 108 119 136l436 461h390l-553 -557l605 -852h-389l-427 633l-178 -178v-455h-307z" />
<glyph unicode="L" horiz-adv-x="1186" d="M137 0v1409h307v-1148h689v-261h-996z" />
<glyph unicode="M" horiz-adv-x="1797" d="M136 0v1409h438l211 -612q68 -200 117 -446q43 214 121 449l201 609h434v-1409h-292v422q0 340 19 714q-68 -273 -144 -493l-220 -643h-242l-226 630q-75 208 -143 500q18 -414 18 -675v-455h-292z" />
<glyph unicode="N" horiz-adv-x="1465" d="M137 0v1409h314l409 -665q126 -205 185 -325q-13 219 -13 403v587h296v-1409h-310l-420 680q-98 162 -109 181q-33 58 -69 135q13 -159 13 -396v-600h-296z" />
<glyph unicode="O" horiz-adv-x="1537" d="M75 703q0 350 201 546q199 194 505 194q281 0 472 -185q210 -205 210 -554q0 -300 -159 -497q-194 -241 -532 -241q-345 0 -542 246q-155 194 -155 491zM385 705q0 -224 104 -354q55 -68 144 -102q67 -26 141 -26q169 0 267 118q112 135 112 368q0 218 -103 348 q-102 129 -274 129q-181 0 -285 -129q-106 -130 -106 -352z" />
<glyph unicode="P" horiz-adv-x="1320" d="M136 0v1409h568q162 0 255 -25q138 -37 223 -156q81 -112 81 -272q0 -221 -152 -346q-80 -67 -189 -88q-71 -14 -163 -14h-316v-508h-307zM443 750h275q121 0 175 44q67 54 67 157q0 107 -77 159q-56 38 -182 38h-258v-398z" />
<glyph unicode="Q" horiz-adv-x="1527" d="M74 704q0 333 201 538q197 201 497 201q320 0 510 -221q178 -207 178 -509q0 -216 -81 -378q-45 -89 -109 -151l182 -165l-145 -155l-207 187q-138 -85 -342 -85q-217 0 -383 109q-153 100 -234 285q-67 151 -67 344zM384 706q0 -223 104 -352q105 -131 280 -131 q69 0 130 21l-140 123l144 154l153 -138q95 128 95 325q0 212 -97 342q-103 136 -286 136q-179 0 -283 -134q-100 -129 -100 -346z" />
<glyph unicode="R" horiz-adv-x="1456" d="M135 0v1409h682q202 0 310 -64q184 -108 184 -335q0 -160 -98 -263q-52 -55 -126 -82q93 -23 146 -104q40 -61 55 -165q5 -30 20 -197q13 -147 42 -183l13 -16h-321q-12 23 -21 63q-7 32 -21 227q-14 174 -99 228q-57 36 -182 36h-277v-554h-307zM442 779h293 q142 0 200 40q73 51 73 155q0 124 -99 169q-54 24 -160 24h-307v-388z" />
<glyph unicode="S" horiz-adv-x="1296" d="M37 471h306q7 -117 61 -175q85 -90 256 -90q116 0 182 46q77 52 77 141q0 90 -107 132q-58 22 -277 83q-157 43 -247 85q-99 45 -150 132q-49 82 -49 195q0 203 169 322q143 101 373 101q200 0 337 -80q196 -115 206 -371h-293q-20 212 -266 212q-93 0 -150 -31 q-80 -43 -80 -131q0 -70 58 -101q56 -31 283 -87q239 -59 332 -120q171 -112 171 -311q0 -220 -171 -346q-152 -111 -409 -111q-362 0 -518 207q-89 117 -94 298z" />
<glyph unicode="T" horiz-adv-x="1227" d="M33 1148v261h1161v-261h-428v-1148h-307v1148h-426z" />
<glyph unicode="U" horiz-adv-x="1437" d="M115 580v829h307v-849q0 -161 47 -231q72 -107 257 -107q173 0 239 101q48 73 48 237v849h307v-833q0 -180 -33 -278q-111 -332 -567 -332q-246 0 -386 90q-148 94 -194 268q-25 92 -25 256z" />
<glyph unicode="V" horiz-adv-x="1278" d="M-1 1409h322l184 -569q39 -124 94 -350q23 -92 40 -196q18 102 44 203q62 245 93 341l183 571h320l-469 -1409h-349z" />
<glyph unicode="W" horiz-adv-x="1865" d="M4 1409h309l139 -592q66 -280 90 -514q12 115 31 215q39 208 62 297l153 594h291l149 -580q5 -19 61 -298q18 -87 34 -228q28 256 96 538l136 568h307l-382 -1409h-308l-153 603q-49 197 -89 471q-32 -235 -88 -463l-150 -611h-312z" />
<glyph unicode="X" horiz-adv-x="1313" d="M-15 0l498 737l-459 672h360l171 -277q69 -111 107 -199q46 94 105 188l180 288h341l-453 -672l494 -737h-370l-210 334q-55 87 -96 177q-39 -79 -103 -178l-213 -333h-352z" />
<glyph unicode="Y" horiz-adv-x="1281" d="M-40 1409h351l220 -375q56 -97 112 -231q68 159 118 244l213 362h344l-525 -866v-543h-307v547z" />
<glyph unicode="Z" horiz-adv-x="1287" d="M47 0v247l650 773q33 39 127 134q-152 -6 -254 -6h-471v261h1115v-235l-630 -752q-22 -26 -157 -168q188 7 283 7h529v-261h-1192z" />
<glyph unicode="[" horiz-adv-x="664" d="M86 -362v1771h511v-203h-252v-1365h252v-203h-511z" />
<glyph unicode="\" horiz-adv-x="909" d="M67 1409h254l655 -1771h-256z" />
<glyph unicode="]" horiz-adv-x="664" d="M65 -159h252v1365h-252v203h511v-1771h-511v203z" />
<glyph unicode="^" horiz-adv-x="1024" d="M19 745l325 672h337l325 -672h-270l-224 467l-224 -467h-269z" />
<glyph unicode="_" horiz-adv-x="1024" d="M-16 -211h1057v-184h-1057v184z" />
<glyph unicode="`" horiz-adv-x="1024" d="M191 1461h295l178 -284h-188z" />
<glyph unicode="a" horiz-adv-x="1114" d="M60 281q0 192 178 267q73 30 266 55q175 22 216 47q32 19 32 76q0 135 -183 135q-116 0 -162 -53q-28 -33 -39 -101h-265q13 160 123 248q118 95 350 95q242 0 360 -97q71 -59 84 -154q5 -34 5 -106q0 -21 -3 -206q-2 -178 -2 -211q0 -132 12 -197q7 -38 25 -79h-285 q-18 56 -18 99q-131 -127 -337 -127q-163 0 -253 73q-104 85 -104 236zM347 291q0 -67 46 -105q39 -33 111 -33q122 0 199 85q34 37 42 80q5 28 5 64v115q-31 -18 -61 -27q-37 -11 -135 -26q-101 -15 -144 -38q-63 -34 -63 -115z" />
<glyph unicode="b" horiz-adv-x="1242" d="M128 0v1409h279v-512q115 154 323 154q132 0 242 -78q195 -139 195 -451q0 -221 -105 -370q-127 -180 -349 -180q-214 0 -319 158v-130h-266zM397 512q0 -130 54 -215q65 -102 193 -102q123 0 186 103q55 90 55 215q0 151 -71 236q-65 78 -169 78q-114 0 -181 -84 q-67 -83 -67 -231z" />
<glyph unicode="c" horiz-adv-x="1135" d="M70 502q0 263 161 415q141 133 363 133q260 0 391 -162q76 -93 89 -224h-275q-13 67 -48 108q-57 67 -155 67q-130 0 -194 -108q-50 -86 -50 -222q0 -138 51 -223q63 -103 187 -103q186 0 218 209h273q-22 -154 -105 -255q-137 -165 -386 -165q-257 0 -399 171 q-121 144 -121 359z" />
<glyph unicode="d" horiz-adv-x="1242" d="M74 515q0 230 109 371q126 164 339 164q211 0 311 -154v513h279v-1409h-266v131q-102 -159 -309 -159q-213 0 -340 152q-123 147 -123 391zM356 511q0 -146 65 -233q63 -83 178 -83q117 0 180 83q64 84 64 232q0 153 -69 236q-65 80 -173 80q-114 0 -178 -80 q-67 -82 -67 -235z" />
<glyph unicode="e" horiz-adv-x="1155" d="M70 505q0 223 132 376q148 169 382 169q242 0 382 -175q122 -151 122 -395v-42h-733q2 -76 24 -127q56 -138 216 -138q105 0 163 68q25 29 45 76h268q-21 -85 -80 -162q-138 -183 -398 -183q-236 0 -377 144q-70 70 -107 170q-39 105 -39 219zM356 617h447q-8 76 -35 125 q-31 55 -89 84q-44 22 -96 22q-118 0 -183 -98q-35 -53 -44 -133z" />
<glyph unicode="f" horiz-adv-x="692" d="M2 833v189h166v53q0 96 13 145q53 195 335 195q42 0 148 -6v-206q-53 5 -96 5q-85 0 -108 -31q-16 -23 -16 -74v-81h203v-189h-200v-833h-279v833h-166z" />
<glyph unicode="g" horiz-adv-x="1221" d="M72 533q0 232 120 372q125 145 326 145q129 0 216 -64q44 -32 89 -100v136h266v-895q0 -126 -18 -203q-32 -138 -147 -218q-125 -87 -340 -87q-437 0 -478 320h281q30 -131 203 -131q135 0 187 75q42 61 42 189v117q-106 -158 -311 -158q-197 0 -316 134 q-120 135 -120 368zM354 540q0 -154 71 -233q62 -69 161 -69q125 0 188 103q47 78 47 198q0 150 -74 228q-60 65 -157 65q-126 0 -187 -96q-49 -78 -49 -196z" />
<glyph unicode="h" horiz-adv-x="1212" d="M128 0v1409h279v-401q0 -10 -2 -125q48 65 93 97q100 70 231 70q214 0 305 -144q54 -85 54 -257v-649h-279v601q0 114 -32 157q-48 64 -149 64q-134 0 -192 -113q-21 -42 -26 -100q-3 -40 -3 -109v-500h-279z" />
<glyph unicode="i" horiz-adv-x="538" d="M117 1281q0 30 11.5 56.5t32 47t47.5 32t57 11.5t56.5 -11.5t46.5 -32t31.5 -47t11.5 -56.5t-11.5 -57t-31.5 -47t-46.5 -31.5t-56.5 -11.5t-57 11.5t-47.5 31.5t-32 47t-11.5 57zM129 0v1022h279v-1022h-279z" />
<glyph unicode="j" horiz-adv-x="540" d="M-43 -140q31 -2 52 -2q56 0 80 13q33 17 38 85q2 25 2 130v936h279v-1023l2 -78q0 -111 -54 -186q-76 -106 -288 -106q-45 0 -111 6v225zM117 1281q0 30 11.5 56.5t32 47t47.5 32t57 11.5t56.5 -11.5t46.5 -32t31.5 -47t11.5 -56.5t-11.5 -57t-31.5 -47t-46.5 -31.5 t-56.5 -11.5t-57 11.5t-47.5 31.5t-32 47t-11.5 57z" />
<glyph unicode="k" horiz-adv-x="1142" d="M128 0v1409h279v-609q0 -38 -3 -160q47 60 72 86l290 296h332l-385 -379l429 -643h-339l-282 454l-114 -106v-348h-279z" />
<glyph unicode="l" horiz-adv-x="538" d="M129 0v1409h279v-1409h-279z" />
<glyph unicode="m" horiz-adv-x="1809" d="M128 0v1022h266v-140q52 70 104 105q95 63 221 63q205 0 286 -169q125 169 336 169q194 0 285 -133q59 -86 59 -229v-688h-279v610q0 99 -22 139q-39 73 -142 73q-125 0 -175 -103q-22 -46 -22 -164v-555h-279v623q0 91 -22 132q-37 67 -133 67q-76 0 -130 -45 q-55 -44 -67 -124q-7 -41 -7 -98v-555h-279z" />
<glyph unicode="n" horiz-adv-x="1212" d="M129 0v1022h266v-143q48 64 91 95q104 77 250 77q131 0 222 -63q98 -69 121 -204q9 -49 9 -141v-643h-279v587q0 100 -18 145q-16 41 -57 64q-46 26 -104 26q-95 0 -156 -60q-45 -43 -58 -115q-8 -43 -8 -118v-529h-279z" />
<glyph unicode="o" horiz-adv-x="1197" d="M70 511q0 232 135 377q150 162 404 162q229 0 374 -148q144 -146 144 -390q0 -251 -153 -400q-144 -140 -374 -140q-246 0 -391 155q-139 148 -139 384zM352 509q0 -159 66 -244q67 -86 182 -86q109 0 173 79q72 87 72 254q0 155 -63 241q-67 90 -181 90q-118 0 -183 -88 q-66 -89 -66 -246z" />
<glyph unicode="p" horiz-adv-x="1242" d="M128 -362v1384h266v-128q112 156 318 156q203 0 330 -150q125 -148 125 -395q0 -228 -111 -372q-123 -161 -334 -161q-201 0 -315 154v-488h-279zM397 511q0 -153 68 -236q65 -80 179 -80q112 0 175 80q66 85 66 233q0 152 -67 238q-63 81 -173 81q-118 0 -183 -83 q-65 -82 -65 -233z" />
<glyph unicode="q" horiz-adv-x="1242" d="M74 505q0 249 128 399q124 146 328 146q214 0 316 -154v126h266v-1384h-279v490q-113 -156 -315 -156q-213 0 -336 162q-108 143 -108 371zM356 504q0 -143 64 -228q62 -81 178 -81q112 0 176 81q68 86 68 239q0 150 -65 231q-67 81 -179 81q-116 0 -177 -84 q-65 -89 -65 -239z" />
<glyph unicode="r" horiz-adv-x="794" d="M128 0v1022h266v-189q112 210 330 210q26 0 63 -4v-259q-71 12 -109 12q-155 0 -230 -127q-41 -71 -41 -238v-427h-279z" />
<glyph unicode="s" horiz-adv-x="1060" d="M39 333h267q8 -71 38 -107q54 -65 179 -65q112 0 161 56q27 31 27 71q0 44 -29 68q-28 23 -74 37q-55 15 -126 31q-167 38 -219 56q-202 72 -202 258q0 160 136 244q111 68 308 68q261 0 375 -129q62 -70 71 -197h-261q-9 54 -31 82q-44 55 -160 55q-93 0 -134 -42 q-22 -22 -22 -59q0 -36 21 -57q24 -23 63 -34q62 -17 166 -38q203 -41 293 -101q107 -70 107 -214q0 -164 -132 -255q-128 -89 -342 -89q-456 0 -480 361z" />
<glyph unicode="t" horiz-adv-x="695" d="M-10 833v189h171v308h279v-308h208v-189h-208v-482q0 -89 16 -113q24 -34 108 -34q37 0 84 6v-214q-94 -10 -172 -10q-120 0 -182 26q-98 42 -123 153q-10 47 -10 196v472h-171z" />
<glyph unicode="u" horiz-adv-x="1183" d="M123 375v647h279v-564q0 -146 25 -189q41 -69 139 -69q124 0 179 115q27 56 27 200v507h279v-1022h-266v145q-120 -173 -323 -173q-181 0 -273 122q-66 88 -66 281z" />
<glyph unicode="v" horiz-adv-x="1007" d="M-4 1022h294l130 -409q59 -187 90 -357q26 141 91 350l129 416h280l-347 -1022h-314z" />
<glyph unicode="w" horiz-adv-x="1590" d="M1 1022h296l108 -388q39 -141 83 -375q35 207 79 386l94 377h272l107 -421q37 -148 69 -340q40 216 72 335l118 426h290l-324 -1022h-289l-119 446q-32 120 -63 311q-32 -188 -63 -310l-114 -447h-291z" />
<glyph unicode="x" horiz-adv-x="1033" d="M-18 0l371 539l-338 483h321l109 -163q19 -28 71 -124q54 92 79 131l102 156h312l-337 -476l379 -546h-322l-148 222q-21 33 -67 125q-43 -83 -71 -127l-143 -220h-318z" />
<glyph unicode="y" horiz-adv-x="1046" d="M-4 1022h302l169 -501q27 -77 64 -238q43 169 70 251l158 488h290l-375 -1017q-71 -194 -119 -254q-85 -107 -224 -114q-49 -2 -92 -2h-28l-115 3v231h32h81q92 0 128 37q32 32 32 92q0 40 -9 63z" />
<glyph unicode="z" horiz-adv-x="1023" d="M56 0v212l409 458q39 44 143 137q-63 -3 -104 -3h-407v218h864v-205l-419 -475q-37 -42 -131 -129q97 5 143 5h442v-218h-940z" />
<glyph unicode="{" horiz-adv-x="664" d="M-32 409v242q60 14 88 52q30 41 30 125v287q0 174 95 242q58 42 139 47q45 3 220 5h11v-203h-27q-104 0 -139 -45q-32 -38 -36 -107q-3 -43 -3 -92v-186q0 -117 -37 -177q-24 -39 -85 -76q78 -48 103 -118q19 -51 19 -138v-192q3 -122 13 -148q21 -56 69 -72 q44 -14 96 -14h27v-203h-11q-224 2 -265 11q-123 28 -165 134q-24 61 -24 162v273q0 100 -31 140q-30 38 -87 51z" />
<glyph unicode="|" horiz-adv-x="1024" d="M359 -352v1761h305v-1761h-305z" />
<glyph unicode="}" horiz-adv-x="664" d="M113 -159h28q103 0 139 44q31 38 36 108q3 42 3 92v186q0 117 37 177q23 38 84 76q-53 33 -75 65q-46 67 -46 191v192q-3 122 -13 148q-21 56 -70 72q-43 14 -96 14h-27v203h12q224 -2 265 -11q122 -28 164 -135q24 -61 24 -161v-273q0 -100 31 -140q30 -38 87 -51v-242 q-60 -14 -88 -52q-30 -41 -30 -125v-288q0 -172 -94 -241q-58 -42 -139 -47q-45 -3 -221 -5h-11v203z" />
<glyph unicode="~" horiz-adv-x="1167" d="M108 634q105 246 278 246q64 0 227 -70q97 -42 117 -49q32 -9 59 -9q90 0 165 118l106 -88q-48 -108 -95 -158q-83 -87 -193 -87q-33 0 -78 14q-41 12 -153 62q-111 50 -168 50q-84 0 -159 -117z" />
<glyph unicode="&#xa9;" horiz-adv-x="1641" d="M83 705q0 208 108 386q107 174 295 271q156 80 333 80q306 0 523 -216q216 -215 216 -531q0 -199 -109 -377q-108 -178 -293 -272q-158 -81 -335 -81q-208 0 -386 109q-177 109 -272 295q-80 158 -80 336zM228 706q0 -250 174 -426t418 -176q246 0 420 178q82 83 128 193 q45 110 45 223q0 259 -172 429q-178 176 -421 176q-245 0 -421 -176q-171 -173 -171 -421zM426 717q0 187 115 301q111 111 282 111q168 0 264 -102q62 -66 86 -181h-175q-13 57 -43 89q-50 52 -131 52q-98 0 -160 -69q-67 -74 -67 -200q0 -143 87 -226q61 -59 144 -59 q77 0 128 53q34 36 41 96h175q-14 -121 -96 -198q-99 -93 -248 -93q-174 0 -283 112q-119 122 -119 314z" />
<glyph unicode="&#xab;" horiz-adv-x="908" d="M90 392v261l313 250v-241l-179 -142l179 -137v-235zM480 395v260l310 245v-240l-177 -138l177 -138v-232z" />
<glyph unicode="&#xad;" horiz-adv-x="625" d="M45 400v251h535v-251h-535z" />
<glyph unicode="&#xae;" horiz-adv-x="1110" d="M91 1180q0 201 154 341q130 119 317 119q197 0 337 -154q119 -131 119 -309q0 -207 -153 -345q-133 -119 -311 -119q-206 0 -344 153q-119 132 -119 314zM188 1180q0 -166 121 -276q105 -94 246 -94q163 0 272 121q94 105 94 246q0 161 -122 272q-103 94 -238 94 q-169 0 -279 -121q-94 -105 -94 -242zM353 944v465h238q71 0 110 -21q66 -37 66 -113q0 -75 -64 -110q38 -22 50 -59q6 -18 12 -91q5 -44 13 -54l14 -17h-128q-12 21 -15 68q-5 69 -22 90q-16 20 -69 20h-87v-178h-118zM471 1208h93q86 0 86 54q0 55 -82 55h-97v-109z" />
<glyph unicode="&#xb6;" horiz-adv-x="1183" d="M70 1038q0 125 63 216q71 104 217 139q68 16 199 16h524v-130h-90v-1641h-169v1641h-166v-1641h-169v1038q-22 -1 -29 -1q-148 0 -255 82q-125 98 -125 281z" />
<glyph unicode="&#xd7;" horiz-adv-x="1167" d="M143 384l307 306l-307 307l134 134l306 -307l307 307l134 -134l-307 -307l307 -306l-134 -134l-307 307l-306 -307z" />
<glyph unicode="&#xe0;" horiz-adv-x="1114" d="M60 281q0 192 178 267q73 30 266 55q175 22 216 47q32 19 32 76q0 135 -183 135q-116 0 -162 -53q-28 -33 -39 -101h-265q13 160 123 248q118 95 350 95q242 0 360 -97q71 -59 84 -154q5 -34 5 -106q0 -21 -3 -206q-2 -178 -2 -211q0 -132 12 -197q7 -38 25 -79h-285 q-18 56 -18 99q-131 -127 -337 -127q-163 0 -253 73q-104 85 -104 236zM250 1461h295l178 -284h-188zM347 291q0 -67 46 -105q39 -33 111 -33q122 0 199 85q34 37 42 80q5 28 5 64v115q-31 -18 -61 -27q-37 -11 -135 -26q-101 -15 -144 -38q-63 -34 -63 -115z" />
<glyph unicode="&#xe1;" horiz-adv-x="1114" d="M60 281q0 192 178 267q73 30 266 55q175 22 216 47q32 19 32 76q0 135 -183 135q-116 0 -162 -53q-28 -33 -39 -101h-265q13 160 123 248q118 95 350 95q242 0 360 -97q71 -59 84 -154q5 -34 5 -106q0 -21 -3 -206q-2 -178 -2 -211q0 -132 12 -197q7 -38 25 -79h-285 q-18 56 -18 99q-131 -127 -337 -127q-163 0 -253 73q-104 85 -104 236zM347 291q0 -67 46 -105q39 -33 111 -33q122 0 199 85q34 37 42 80q5 28 5 64v115q-31 -18 -61 -27q-37 -11 -135 -26q-101 -15 -144 -38q-63 -34 -63 -115zM419 1177l178 284h295l-285 -284h-188z" />
<glyph unicode="&#xe7;" horiz-adv-x="1135" d="M70 508q0 157 72 287q74 136 208 201q110 54 250 54q244 0 380 -153q78 -88 98 -235h-279q-34 176 -203 176q-129 0 -192 -107q-51 -88 -51 -219q0 -139 51 -224q63 -104 193 -104q180 0 213 208h271q-22 -188 -153 -304q-92 -81 -211 -103q-48 -9 -139 -14l-64 -95 q49 9 78 9q77 0 125 -39t48 -101q0 -64 -39 -110q-64 -75 -203 -75q-107 0 -224 46l38 83q86 -33 153 -33q60 0 90 33q15 17 15 42q0 40 -37 60q-24 13 -59 13q-32 0 -72 -16l-41 39l102 151q-73 16 -107 28q-140 52 -225 182q-86 135 -86 320z" />
<glyph unicode="&#xe8;" horiz-adv-x="1155" d="M70 505q0 223 132 376q148 169 382 169q242 0 382 -175q122 -151 122 -395v-42h-733q2 -76 24 -127q56 -138 216 -138q105 0 163 68q25 29 45 76h268q-21 -85 -80 -162q-138 -183 -398 -183q-236 0 -377 144q-70 70 -107 170q-39 105 -39 219zM270 1461h295l178 -284 h-188zM356 617h447q-8 76 -35 125q-31 55 -89 84q-44 22 -96 22q-118 0 -183 -98q-35 -53 -44 -133z" />
<glyph unicode="&#xe9;" horiz-adv-x="1155" d="M70 505q0 223 132 376q148 169 382 169q242 0 382 -175q122 -151 122 -395v-42h-733q2 -76 24 -127q56 -138 216 -138q105 0 163 68q25 29 45 76h268q-21 -85 -80 -162q-138 -183 -398 -183q-236 0 -377 144q-70 70 -107 170q-39 105 -39 219zM356 617h447q-8 76 -35 125 q-31 55 -89 84q-44 22 -96 22q-118 0 -183 -98q-35 -53 -44 -133zM425 1177l178 284h295l-285 -284h-188z" />
<glyph unicode="&#xea;" horiz-adv-x="1155" d="M70 505q0 223 132 376q148 169 382 169q242 0 382 -175q122 -151 122 -395v-42h-733q2 -76 24 -127q56 -138 216 -138q105 0 163 68q25 29 45 76h268q-21 -85 -80 -162q-138 -183 -398 -183q-236 0 -377 144q-70 70 -107 170q-39 105 -39 219zM244 1177l220 284h256 l219 -284h-227l-125 169l-127 -169h-216zM356 617h447q-8 76 -35 125q-31 55 -89 84q-44 22 -96 22q-118 0 -183 -98q-35 -53 -44 -133z" />
<glyph unicode="&#xf4;" horiz-adv-x="1197" d="M70 511q0 232 135 377q150 162 404 162q229 0 374 -148q144 -146 144 -390q0 -251 -153 -400q-144 -140 -374 -140q-246 0 -391 155q-139 148 -139 384zM251 1177l220 284h256l219 -284h-227l-125 169l-127 -169h-216zM352 509q0 -159 66 -244q67 -86 182 -86 q109 0 173 79q72 87 72 254q0 155 -63 241q-67 90 -181 90q-118 0 -183 -88q-66 -89 -66 -246z" />
<glyph unicode="&#xf7;" horiz-adv-x="1167" d="M97 596v189h972v-189h-972zM441 332q0 62 47 105q40 37 98 37q61 0 103 -47q37 -41 37 -96q0 -63 -47 -105q-40 -37 -95 -37q-64 0 -106 47q-37 41 -37 96zM441 1050q0 62 47 105q40 37 98 37q61 0 103 -47q37 -41 37 -95q0 -64 -47 -106q-40 -37 -95 -37q-64 0 -106 47 q-37 41 -37 96z" />
<glyph unicode="&#x153;" horiz-adv-x="1845" d="M70 509q0 247 151 402q137 139 363 139q238 0 348 -160q127 160 352 160q161 0 284 -84q212 -146 210 -519h-735q2 -86 34 -149q64 -125 213 -125q103 0 164 72q22 27 46 78h269q-39 -130 -123 -213q-141 -138 -358 -138q-178 0 -291 85q-36 28 -76 85q-43 -63 -88 -94 q-108 -76 -266 -76q-239 0 -378 165q-119 142 -119 372zM352 512q0 -151 54 -240q57 -93 173 -93q118 0 171 97q51 93 51 246q0 143 -50 227q-56 94 -165 94q-113 0 -174 -91q-60 -90 -60 -240zM1041 612h459q-7 90 -43 142q-64 94 -183 94q-130 0 -194 -105 q-30 -50 -39 -131z" />
<glyph unicode="&#x60c;" horiz-adv-x="456" d="M105 158q0 98 64.5 157t161.5 58l10 -59q-88 -5 -131 -60q-20 -25 -20 -54q0 -20 21 -20q23 2 38 3q102 0 102 -90q0 -46 -31 -70q-31 -23 -66 -23q-70 0 -109.5 44t-39.5 114z" />
<glyph unicode="&#x61b;" horiz-adv-x="462" d="M105 120q0 -27 9.5 -50t26.5 -40t40 -26.5t50 -9.5q26 0 49 9.5t40 26.5t27 40t10 50q0 26 -10 49t-27 40t-40 27t-49 10q-27 0 -50 -10t-40 -27t-26.5 -40t-9.5 -49zM111 790q0 98 64.5 157t161.5 58l10 -59q-88 -5 -131 -60q-20 -25 -20 -54q0 -20 21 -20q23 2 38 3 q102 0 102 -90q0 -46 -31 -70q-31 -23 -66 -23q-70 0 -109.5 44t-39.5 114z" />
<glyph unicode="&#x61f;" horiz-adv-x="1119" d="M105 947q0 170 113 280q125 122 329 122q104 0 195 -37h-1q64 -26 114.5 -70.5t85.5 -99.5q32 -54 51 -144.5t22 -215.5h-252q-5 88 -14.5 145.5t-25.5 83.5q-52 91 -173 91q-92 0 -141 -51v1q-21 -22 -31 -50.5t-10 -61.5q0 -88 91 -176l99 -99q32 -35 57 -71.5 t38 -68.5q7 -18 12.5 -33t9.5 -37.5t6 -58.5t2 -97h-253q0 53 -2 81.5t-5 43.5t-7.5 21.5t-10.5 16.5q-6 11 -23 29t-43 44q-54 53 -91 91t-57 63q-41 54 -63 120t-22 138zM419 63q0 29 10.5 54t29.5 43t43.5 28.5t53.5 10.5q28 0 53 -10.5t43.5 -28.5t29 -43t10.5 -54 q0 -28 -10.5 -53t-29 -43.5t-43.5 -29t-53 -10.5q-29 0 -53.5 10.5t-43.5 29t-29.5 43.5t-10.5 53z" />
<glyph unicode="&#x621;" horiz-adv-x="1173" d="M105 0v255h183q-49 112 -49 235q0 83 23.5 162t75.5 140.5t135 99.5t201 41h230v-255h-222q-46 -4 -81 -21t-58.5 -43t-35.5 -58.5t-12 -65.5q0 -43 8.5 -85t24 -75.5t36.5 -54t45 -20.5h459v-255h-963z" />
<glyph unicode="&#x622;" horiz-adv-x="465" d="M42 1511q26 42 54 60.5t58 18.5q16 0 35 -6t50 -21q19 -9 34 -13t29 -1.5t28.5 13.5t32.5 33l50 -69q-21 -23 -37 -38t-29 -23.5t-25.5 -12t-25.5 -3.5q-28 0 -83 26q-20 10 -33.5 16t-24 5.5t-21 -8t-24.5 -25.5l-18 -21zM105 0h255v1350h-255v-1350z" />
<glyph unicode="&#x623;" horiz-adv-x="518" d="M105 1449v94h49q-16 40 -16 80q0 30 8.5 58t27 50t48.5 35.5t73 14.5h81v-95h-80h1q-34 -1 -49.5 -20.5t-15.5 -42.5q0 -15 3 -29t8 -25.5t12.5 -18.5t15.5 -7h142v-94h-308zM133 0v1350h255v-1350h-255z" />
<glyph unicode="&#x624;" horiz-adv-x="1116" d="M105 329v202q0 96 35.5 180t97 147t144 99.5t175.5 36.5q94 0 176.5 -37.5t144 -100.5t97 -146t35.5 -174v-440q0 -93 -35.5 -175.5t-96.5 -144t-143.5 -97t-175.5 -35.5h-321v255h321q57 0 102 26t69 75h-295q-68 0 -128 26t-105 70.5t-71 104.5t-26 128zM361 329 q0 -31 21.5 -52.5t52.5 -21.5h320v281q0 40 -15.5 77t-42.5 64.5t-63 44t-77 16.5t-76.5 -16t-62 -44t-42 -66t-15.5 -81v-202zM385 1145v94h49q-16 40 -16 80q0 30 8.5 58t27 50t48.5 35.5t73 14.5h81v-95h-80h1q-34 -1 -49.5 -20.5t-15.5 -42.5q0 -15 3 -29t8 -25.5 t12.5 -18.5t15.5 -7h142v-94h-308z" />
<glyph unicode="&#x625;" horiz-adv-x="518" d="M105 -337h49q-16 40 -16 80q0 30 8.5 58t27 50t48.5 35.5t73 14.5h81v-95h-80h1q-34 -1 -49.5 -20.5t-15.5 -42.5q0 -15 3 -29t8 -25.5t12.5 -18.5t15.5 -7h142v-94h-308v94zM122 0v1350h255v-1350h-255z" />
<glyph unicode="&#x626;" horiz-adv-x="1257" d="M105 926v94h49q-16 40 -16 80q0 30 8.5 58t27 50t48.5 35.5t73 14.5h81v-95h-80h1q-34 -1 -49.5 -20.5t-15.5 -42.5q0 -15 3 -29t8 -25.5t12.5 -18.5t15.5 -7h142v-94h-308zM135 103v723h254v-723q0 -51 21.5 -89t57 -63.5t81 -38.5t93.5 -13t93.5 13t81.5 39t58 64.5 t22 89.5q0 47 -18.5 75.5t-55.5 28.5h-329v450q0 69 26 130t71.5 106.5t106 72t129.5 26.5h271v-256h-271q-32 0 -55 -22.5t-23 -56.5v-195h74q81 0 143 -26t103 -73.5t62 -113.5t21 -146q0 -115 -44 -201.5t-115.5 -144t-163 -86.5t-187.5 -29q-95 0 -186.5 28.5t-162.5 86 t-114.5 143.5t-43.5 201z" />
<glyph unicode="&#x627;" horiz-adv-x="465" d="M105 0v1350h255v-1350h-255z" />
<glyph unicode="&#x628;" horiz-adv-x="1435" d="M105 454v372h256v-372q0 -41 15.5 -77.5t42.5 -63.5t63.5 -42.5t78.5 -15.5h438q32 0 54 22.5t22 54.5v662h255v-662q0 -69 -26 -129.5t-71 -105.5t-105 -71t-129 -26h-438q-95 0 -178 36t-144.5 97.5t-97.5 144t-36 176.5zM589 -225q0 27 10 50t27.5 40.5t41 27.5 t50.5 10t50.5 -10t41 -27.5t28 -40.5t10.5 -50t-10.5 -50.5t-28 -41t-41 -28t-50.5 -10.5t-50.5 10.5t-41 28t-27.5 41t-10 50.5z" />
<glyph unicode="&#x629;" horiz-adv-x="1108" d="M105 331v205q0 95 35.5 178.5t96 145.5t142 98t174.5 36q92 0 174 -36.5t143 -98.5t96.5 -144.5t35.5 -174.5v-206q0 -75 -26 -136.5t-71.5 -105.5t-106 -68t-129.5 -24h-232q-71 0 -131.5 23.5t-105 67t-70 104.5t-25.5 136zM270 1220q0 27 10 50.5t27.5 41t41 28 t50.5 10.5t50.5 -10.5t41 -28t27.5 -41t10 -50.5t-10 -50.5t-27.5 -41t-41 -27.5t-50.5 -10t-50.5 10t-41 27.5t-27.5 41t-10 50.5zM361 331q0 -34 22 -54.5t54 -20.5h232q32 0 54.5 21.5t22.5 56.5v206q0 40 -15 76t-41.5 63t-61.5 43t-75 16t-75 -16t-61 -43.5t-41 -64 t-15 -78.5v-205zM577 1220q0 27 10.5 50.5t28 41t41 28t50.5 10.5t50 -10.5t40.5 -28t27.5 -41t10 -50.5t-10 -50.5t-27.5 -41t-40.5 -27.5t-50 -10t-50.5 10t-41 27.5t-28 41t-10.5 50.5z" />
<glyph unicode="&#x62a;" horiz-adv-x="1435" d="M105 454v372h256v-372q0 -41 15.5 -77.5t42.5 -63.5t63.5 -42.5t78.5 -15.5h438q32 0 54 22.5t22 54.5v662h255v-662q0 -69 -26 -129.5t-71 -105.5t-105 -71t-129 -26h-438q-95 0 -178 36t-144.5 97.5t-97.5 144t-36 176.5zM435 1220q0 27 10.5 50.5t28 41t41 28 t50.5 10.5t50.5 -10.5t41 -28t27.5 -41t10 -50.5t-10 -50.5t-27.5 -41t-41 -27.5t-50.5 -10t-50.5 10t-41 27.5t-28 41t-10.5 50.5zM743 1220q0 27 10.5 50.5t28 41t41 28t50.5 10.5t50 -10.5t40.5 -28t27.5 -41t10 -50.5t-10 -50.5t-27.5 -41t-40.5 -27.5t-50 -10t-50.5 10 t-41 27.5t-28 41t-10.5 50.5z" />
<glyph unicode="&#x62b;" horiz-adv-x="1435" d="M105 454v372h256v-372q0 -41 15.5 -77.5t42.5 -63.5t63.5 -42.5t78.5 -15.5h438q32 0 54 22.5t22 54.5v662h255v-662q0 -69 -26 -129.5t-71 -105.5t-105 -71t-129 -26h-438q-95 0 -178 36t-144.5 97.5t-97.5 144t-36 176.5zM436 1220q0 27 10 50.5t27.5 41t41 28 t50.5 10.5t50.5 -10.5t41 -28t27.5 -41t10 -50.5t-10 -50.5t-27.5 -41t-41 -27.5t-50.5 -10t-50.5 10t-41 27.5t-27.5 41t-10 50.5zM588 1470q0 27 10.5 50.5t28 41t41 28t50.5 10.5t50 -10.5t40.5 -28t27.5 -41t10 -50.5t-10 -50.5t-27.5 -41t-40.5 -27.5t-50 -10t-50.5 10 t-41 27.5t-28 41t-10.5 50.5zM743 1220q0 27 10.5 50.5t28 41t41 28t50.5 10.5t50 -10.5t40.5 -28t27.5 -41t10 -50.5t-10 -50.5t-27.5 -41t-40.5 -27.5t-50 -10t-50.5 10t-41 27.5t-28 41t-10.5 50.5z" />
<glyph unicode="&#x62c;" horiz-adv-x="1095" d="M105 -49q0 57 18 111.5t55 97.5t91.5 69t128.5 26h260q32 0 54.5 21.5t22.5 52.5v200q0 62 -17 103t-44.5 65t-63 33.5t-72.5 9.5q-39 0 -84 -9t-88 -21.5t-80.5 -27.5t-61.5 -27l-109 230q31 15 80.5 34t107 36t118.5 28.5t117 11.5q57 0 112.5 -9t105.5 -29.5t93 -55.5 t74.5 -86.5t49 -122t17.5 -163.5v-200q0 -68 -26 -128t-71 -104.5t-105.5 -70.5t-129.5 -26h-260q-19 0 -28.5 -15t-9.5 -34t9.5 -35t28.5 -16h239v-255h-239q-74 0 -128.5 26.5t-91.5 69.5t-55 98t-18 112zM732 -225q0 27 10 50t27.5 40.5t41 27.5t50.5 10t50.5 -10 t41 -27.5t27.5 -40.5t10 -50t-10 -50.5t-27.5 -41t-41 -28t-50.5 -10.5t-50.5 10.5t-41 28t-27.5 41t-10 50.5z" />
<glyph unicode="&#x62d;" horiz-adv-x="1095" d="M105 -49q0 57 18 111.5t55 97.5t91.5 69t128.5 26h260q32 0 54.5 21.5t22.5 52.5v200q0 62 -17 103t-44.5 65t-63 33.5t-72.5 9.5q-39 0 -84 -9t-88 -21.5t-80.5 -27.5t-61.5 -27l-109 230q31 15 80.5 34t107 36t118.5 28.5t117 11.5q57 0 112.5 -9t105.5 -29.5t93 -55.5 t74.5 -86.5t49 -122t17.5 -163.5v-200q0 -68 -26 -128t-71 -104.5t-105.5 -70.5t-129.5 -26h-260q-19 0 -28.5 -15t-9.5 -34t9.5 -35t28.5 -16h337v-255h-337q-74 0 -128.5 26.5t-91.5 69.5t-55 98t-18 112z" />
<glyph unicode="&#x62e;" horiz-adv-x="1095" d="M105 -49q0 57 18 111.5t55 97.5t91.5 69t128.5 26h260q32 0 54.5 21.5t22.5 52.5v200q0 62 -17 103t-44.5 65t-63 33.5t-72.5 9.5q-39 0 -84 -9t-88 -21.5t-80.5 -27.5t-61.5 -27l-109 230q31 15 80.5 34t107 36t118.5 28.5t117 11.5q57 0 112.5 -9t105.5 -29.5t93 -55.5 t74.5 -86.5t49 -122t17.5 -163.5v-200q0 -68 -26 -128t-71 -104.5t-105.5 -70.5t-129.5 -26h-260q-19 0 -28.5 -15t-9.5 -34t9.5 -35t28.5 -16h337v-255h-337q-74 0 -128.5 26.5t-91.5 69.5t-55 98t-18 112zM410 1220q0 27 10 50.5t27.5 41t41 28t50.5 10.5t50.5 -10.5 t41 -28t27.5 -41t10 -50.5t-10 -50.5t-27.5 -41t-41 -27.5t-50.5 -10t-50.5 10t-41 27.5t-27.5 41t-10 50.5z" />
<glyph unicode="&#x62f;" horiz-adv-x="951" d="M105 0v255h407q32 0 55 21.5t23 52.5v200q0 51 -24.5 90t-77 65.5t-134.5 40.5t-198 14v255q184 0 315 -30.5t214 -89.5t122 -145.5t39 -199.5v-200q0 -68 -26 -128t-71.5 -104.5t-106.5 -70.5t-130 -26h-407z" />
<glyph unicode="&#x630;" horiz-adv-x="951" d="M105 0v255h407q32 0 55 21.5t23 52.5v200q0 51 -24.5 90t-77 65.5t-134.5 40.5t-198 14v255q184 0 315 -30.5t214 -89.5t122 -145.5t39 -199.5v-200q0 -68 -26 -128t-71.5 -104.5t-106.5 -70.5t-130 -26h-407zM376 1220q0 27 10.5 50.5t28 41t41 28t50.5 10.5t50.5 -10.5 t41 -28t27.5 -41t10 -50.5t-10 -50.5t-27.5 -41t-41 -27.5t-50.5 -10t-50.5 10t-41 27.5t-28 41t-10.5 50.5z" />
<glyph unicode="&#x631;" horiz-adv-x="592" d="M13 -143q49 21 86.5 43.5t65 46t45.5 46t30 42.5q27 48 29 94v865h255v-857q0 -2 -1 -29t-11.5 -69t-34.5 -96t-69.5 -110.5t-118 -111.5t-178.5 -100z" />
<glyph unicode="&#x632;" horiz-adv-x="592" d="M13 -143q49 21 86.5 43.5t65 46t45.5 46t30 42.5q27 48 29 94v865h255v-857q0 -2 -1 -29t-11.5 -69t-34.5 -96t-69.5 -110.5t-118 -111.5t-178.5 -100zM266 1220q0 27 10 50.5t27.5 41t41 28t50.5 10.5t50.5 -10.5t41 -28t27.5 -41t10 -50.5t-10 -50.5t-27.5 -41 t-41 -27.5t-50.5 -10t-50.5 10t-41 27.5t-27.5 41t-10 50.5z" />
<glyph unicode="&#x633;" horiz-adv-x="2045" d="M105 97v729h256v-729q0 -49 22 -86t57.5 -61.5t81 -37t92.5 -12.5t92.5 12.5t81 37t57 61.5t21.5 86v897h257v-739h153v739h256v-739h75q33 0 56 21.5t23 51.5v666h254v-666q0 -68 -26 -127.5t-71.5 -104t-106 -70.5t-129.5 -26h-495q-18 -89 -66.5 -155.5t-116.5 -111 t-149.5 -66.5t-165.5 -22q-95 0 -186.5 28t-163 84.5t-115.5 141t-44 198.5z" />
<glyph unicode="&#x634;" horiz-adv-x="2045" d="M105 97v729h256v-729q0 -49 22 -86t57.5 -61.5t81 -37t92.5 -12.5t92.5 12.5t81 37t57 61.5t21.5 86v897h257v-739h153v739h256v-739h75q33 0 56 21.5t23 51.5v666h254v-666q0 -68 -26 -127.5t-71.5 -104t-106 -70.5t-129.5 -26h-495q-18 -89 -66.5 -155.5t-116.5 -111 t-149.5 -66.5t-165.5 -22q-95 0 -186.5 28t-163 84.5t-115.5 141t-44 198.5zM1127 1220q0 27 10 50.5t27.5 41t41 28t50.5 10.5t50.5 -10.5t41 -28t27.5 -41t10 -50.5t-10 -50.5t-27.5 -41t-41 -27.5t-50.5 -10t-50.5 10t-41 27.5t-27.5 41t-10 50.5zM1279 1470 q0 27 10.5 50.5t28 41t41 28t50.5 10.5t50 -10.5t40.5 -28t27.5 -41t10 -50.5t-10 -50.5t-27.5 -41t-40.5 -27.5t-50 -10t-50.5 10t-41 27.5t-28 41t-10.5 50.5zM1434 1220q0 27 10.5 50.5t28 41t41 28t50.5 10.5t50 -10.5t40.5 -28t27.5 -41t10 -50.5t-10 -50.5t-27.5 -41 t-40.5 -27.5t-50 -10t-50.5 10t-41 27.5t-28 41t-10.5 50.5z" />
<glyph unicode="&#x635;" horiz-adv-x="2045" d="M105 97v729h256v-729q0 -49 21.5 -86t57 -61.5t81 -37t93.5 -12.5q47 0 92.5 12.5t81 37t57.5 61.5t22 86v897h256v-126q89 57 191 91.5t200 34.5q87 0 164.5 -25t135.5 -80.5t92 -144t34 -216.5v-200q0 -68 -26.5 -127.5t-71.5 -104t-106 -70.5t-130 -26h-493 q-18 -89 -66.5 -155.5t-116.5 -111t-149.5 -66.5t-166.5 -22q-96 0 -187.5 28t-163 84.5t-115 141t-43.5 198.5zM1123 255h483q33 0 56 21.5t23 51.5v200q0 58 -14 98t-37 65t-54.5 36t-65.5 11q-66 0 -135 -21t-126 -55.5t-93.5 -78t-36.5 -88.5v-240z" />
<glyph unicode="&#x636;" horiz-adv-x="2045" d="M105 97v729h256v-729q0 -49 21.5 -86t57 -61.5t81 -37t93.5 -12.5q47 0 92.5 12.5t81 37t57.5 61.5t22 86v897h256v-126q89 57 191 91.5t200 34.5q87 0 164.5 -25t135.5 -80.5t92 -144t34 -216.5v-200q0 -68 -26.5 -127.5t-71.5 -104t-106 -70.5t-130 -26h-493 q-18 -89 -66.5 -155.5t-116.5 -111t-149.5 -66.5t-166.5 -22q-96 0 -187.5 28t-163 84.5t-115 141t-43.5 198.5zM1123 255h483q33 0 56 21.5t23 51.5v200q0 58 -14 98t-37 65t-54.5 36t-65.5 11q-66 0 -135 -21t-126 -55.5t-93.5 -78t-36.5 -88.5v-240zM1274 1220 q0 27 10 50.5t27.5 41t41 28t50.5 10.5t50.5 -10.5t41 -28t28 -41t10.5 -50.5t-10.5 -50.5t-28 -41t-41 -27.5t-50.5 -10t-50.5 10t-41 27.5t-27.5 41t-10 50.5z" />
<glyph unicode="&#x637;" horiz-adv-x="1427" d="M105 0v255h144v1095h255v-481q88 57 190 91t202 34q86 0 163.5 -25t136 -80.5t92.5 -144t34 -216.5v-199q0 -68 -26.5 -128t-71.5 -104.5t-106 -70.5t-130 -26h-883zM504 255h484q33 0 56 21.5t23 52.5v199q0 58 -14 98t-37 65t-54.5 36.5t-65.5 11.5q-44 0 -90.5 -9.5 t-90 -27t-82 -40.5t-67.5 -50t-45.5 -56.5t-16.5 -59.5v-241z" />
<glyph unicode="&#x638;" horiz-adv-x="1427" d="M105 0v255h144v1095h255v-481q88 57 190 91t202 34q86 0 163.5 -25t136 -80.5t92.5 -144t34 -216.5v-199q0 -68 -26.5 -128t-71.5 -104.5t-106 -70.5t-130 -26h-883zM504 255h484q33 0 56 21.5t23 52.5v199q0 58 -14 98t-37 65t-54.5 36.5t-65.5 11.5q-44 0 -90.5 -9.5 t-90 -27t-82 -40.5t-67.5 -50t-45.5 -56.5t-16.5 -59.5v-241zM656 1220q0 27 10 50.5t27.5 41t41 28t50.5 10.5t50.5 -10.5t41 -28t28 -41t10.5 -50.5t-10.5 -50.5t-28 -41t-41 -27.5t-50.5 -10t-50.5 10t-41 27.5t-27.5 41t-10 50.5z" />
<glyph unicode="&#x639;" horiz-adv-x="1230" d="M105 -49q0 50 14 98t42.5 88t72 69.5t102.5 41.5v295q-1 90 29.5 166t83 134t122.5 95.5t148.5 49.5t160 -3.5t158.5 -63.5l-105 -231q-57 39 -116 45.5t-108.5 -14t-82 -66t-36.5 -112.5v-288h535v-255h-727q-19 0 -28.5 -15t-9.5 -34t9.5 -35t28.5 -16h536v-255h-536 q-74 0 -128.5 26.5t-91.5 69.5t-55 98t-18 112z" />
<glyph unicode="&#x63a;" horiz-adv-x="1230" d="M105 -49q0 50 14 98t42.5 88t72 69.5t102.5 41.5v295q-1 90 29.5 166t83 134t122.5 95.5t148.5 49.5t160 -3.5t158.5 -63.5l-105 -231q-57 39 -116 45.5t-108.5 -14t-82 -66t-36.5 -112.5v-288h535v-255h-727q-19 0 -28.5 -15t-9.5 -34t9.5 -35t28.5 -16h536v-255h-536 q-74 0 -128.5 26.5t-91.5 69.5t-55 98t-18 112zM654 1220q0 27 10 50.5t27.5 41t41 28t50.5 10.5t50.5 -10.5t41 -28t27.5 -41t10 -50.5t-10 -50.5t-27.5 -41t-41 -27.5t-50.5 -10t-50.5 10t-41 27.5t-27.5 41t-10 50.5z" />
<glyph unicode="&#x640;" horiz-adv-x="402" d="M-42 0v255h486v-255h-486z" />
<glyph unicode="&#x641;" horiz-adv-x="1862" d="M105 457v369h256v-369q0 -42 16 -78.5t43.5 -64t64.5 -43.5t79 -16h295v291q0 96 35.5 178t96 142t142 94t174.5 34t174.5 -34.5t143 -94.5t96.5 -141t35 -173v-217q0 -75 -26 -137t-71.5 -105.5t-106.5 -67.5t-130 -24h-858q-95 0 -178.5 36t-146 98.5t-98.5 145.5 t-36 177zM1115 255h307q33 0 55.5 21.5t22.5 57.5v217q0 39 -15 73.5t-41.5 60t-61.5 40t-75 14.5t-75 -15t-61 -41t-41 -61t-15 -76v-291zM1177 1220q0 27 10.5 50.5t28 41t41 28t50.5 10.5t50.5 -10.5t41 -28t28 -41t10.5 -50.5t-10.5 -50.5t-28 -41t-41 -27.5t-50.5 -10 t-50.5 10t-41 27.5t-28 41t-10.5 50.5z" />
<glyph unicode="&#x642;" horiz-adv-x="1480" d="M105 107v718h256v-718q0 -43 16 -81t44.5 -66t66 -44t81.5 -16h354q54 0 99.5 28t71.5 72h-295q-68 0 -128 26t-105 71t-71 105t-26 128v201q0 96 35.5 180t97 147t143.5 99.5t176 36.5q93 0 176 -37t144.5 -99.5t97 -145.5t35.5 -176v-439q0 -93 -35.5 -175.5t-97 -144 t-143.5 -97t-175 -35.5h-354q-96 0 -180.5 36.5t-147.5 99t-99.5 146.5t-36.5 180zM636 1220q0 27 10.5 50.5t28 41t41 28t50.5 10.5t50.5 -10.5t41 -28t27.5 -41t10 -50.5t-10 -50.5t-27.5 -41t-41 -27.5t-50.5 -10t-50.5 10t-41 27.5t-28 41t-10.5 50.5zM725 330 q0 -32 21.5 -53.5t52.5 -21.5h320v281q0 41 -15.5 77.5t-42.5 64.5t-63 44t-77 16t-77 -16t-62.5 -44t-41.5 -66t-15 -81v-201zM944 1220q0 27 10.5 50.5t28 41t41 28t50.5 10.5t50.5 -10.5t41 -28t27.5 -41t10 -50.5t-10 -50.5t-27.5 -41t-41 -27.5t-50.5 -10t-50.5 10 t-41 27.5t-28 41t-10.5 50.5z" />
<glyph unicode="&#x643;" horiz-adv-x="1436" d="M105 454v372h256v-372q0 -41 15.5 -77.5t42.5 -63.5t63 -42.5t78 -15.5h439q32 0 54.5 22.5t22.5 54.5v1018h255v-1018q0 -69 -26 -129.5t-71 -105.5t-105.5 -71t-129.5 -26h-439q-94 0 -177 36t-144.5 97.5t-97.5 144t-36 176.5zM550 943v94h49q-16 40 -16 80 q0 30 8.5 58t27 50t48.5 35.5t73 14.5h81v-95h-80h1q-34 -1 -49.5 -20.5t-15.5 -42.5q0 -15 3 -29t8 -25.5t12.5 -18.5t15.5 -7h142v-94h-308z" />
<glyph unicode="&#x644;" horiz-adv-x="1229" d="M105 99v727h256v-727q0 -50 21.5 -87.5t57 -63t81 -38t93.5 -12.5t93.5 12.5t81 38t57.5 63t22 87.5v1251h256v-1251q0 -114 -44 -199.5t-115.5 -142.5t-163 -85.5t-187.5 -28.5t-187.5 28.5t-163 85.5t-115 142.5t-43.5 199.5z" />
<glyph unicode="&#x645;" horiz-adv-x="1442" d="M105 183q0 72 18.5 137t59 115.5t104.5 84t155 44.5q5 87 42 165t97.5 137t139.5 93.5t168 34.5q93 0 174.5 -36t142 -98.5t96 -145.5t35.5 -177v-205q0 -95 -35.5 -178.5t-96 -145.5t-142 -98t-174.5 -36q-89 0 -167.5 34t-139 92.5t-98 136.5t-42.5 165 q-45 -15 -63 -47t-18 -72v-538h-256v538zM696 331q0 -41 15 -77t41.5 -64t62 -44t74.5 -16q40 0 75 16t61.5 43t41.5 64t15 79v205q0 42 -15 78.5t-41.5 63.5t-61.5 43t-75 16q-39 0 -74.5 -16t-62 -44t-41.5 -64.5t-15 -76.5v-206z" />
<glyph unicode="&#x646;" horiz-adv-x="1229" d="M105 101v725h256v-725q0 -50 21.5 -88t57 -63.5t81 -38t93.5 -12.5t93.5 12.5t81 38t57.5 63.5t22 88v893h256v-893q0 -114 -44 -200t-115.5 -143t-163 -85.5t-187.5 -28.5t-187.5 28.5t-163 85.5t-115 143t-43.5 200zM485 1220q0 27 10 50.5t27.5 41t41 28t50.5 10.5 t50.5 -10.5t41 -28t28 -41t10.5 -50.5t-10.5 -50.5t-28 -41t-41 -27.5t-50.5 -10t-50.5 10t-41 27.5t-27.5 41t-10 50.5z" />
<glyph unicode="&#x647;" horiz-adv-x="1108" d="M105 331v205q0 95 35.5 178.5t96 145.5t142 98t174.5 36q92 0 174 -36.5t143 -98.5t96.5 -144.5t35.5 -174.5v-206q0 -75 -26 -136.5t-71.5 -105.5t-106 -68t-129.5 -24h-232q-71 0 -131.5 23.5t-105 67t-70 104.5t-25.5 136zM361 331q0 -34 22 -54.5t54 -20.5h232 q32 0 54.5 21.5t22.5 56.5v206q0 40 -15 76t-41.5 63t-61.5 43t-75 16t-75 -16t-61 -43.5t-41 -64t-15 -78.5v-205z" />
<glyph unicode="&#x648;" horiz-adv-x="1116" d="M105 329v202q0 96 35.5 180t97 147t144 99.5t175.5 36.5q94 0 176.5 -37.5t144 -100.5t97 -146t35.5 -174v-440q0 -93 -35.5 -175.5t-96.5 -144t-143.5 -97t-175.5 -35.5h-321v255h321q57 0 102 26t69 75h-295q-68 0 -128 26t-105 70.5t-71 104.5t-26 128zM361 329 q0 -31 21.5 -52.5t52.5 -21.5h320v281q0 40 -15.5 77t-42.5 64.5t-63 44t-77 16.5t-76.5 -16t-62 -44t-42 -66t-15.5 -81v-202z" />
<glyph unicode="&#x649;" horiz-adv-x="1229" d="M105 103v723h256v-723q0 -51 21.5 -89t57 -63.5t81 -38.5t92.5 -13q48 0 94 13t81.5 39t57.5 64.5t22 89.5q0 47 -18.5 75.5t-54.5 28.5h-330v450q0 69 26.5 130t71.5 106.5t106 72t130 26.5h271v-256h-271q-33 0 -56 -22.5t-23 -56.5v-195h75q81 0 142.5 -26t103 -73.5 t62.5 -113.5t21 -146q0 -115 -44 -201.5t-115.5 -144t-163.5 -86.5t-188 -29q-95 0 -186.5 28.5t-163 86t-115 143.5t-43.5 201z" />
<glyph unicode="&#x64a;" horiz-adv-x="1229" d="M105 103v723h256v-723q0 -51 21.5 -89t57 -63.5t81 -38.5t92.5 -13q48 0 94 13t81.5 39t57.5 64.5t22 89.5q0 47 -18.5 75.5t-54.5 28.5h-330v450q0 69 26.5 130t71.5 106.5t106 72t130 26.5h271v-256h-271q-33 0 -56 -22.5t-23 -56.5v-195h75q81 0 142.5 -26t103 -73.5 t62.5 -113.5t21 -146q0 -115 -44 -201.5t-115.5 -144t-163.5 -86.5t-188 -29q-95 0 -186.5 28.5t-163 86t-115 143.5t-43.5 201zM327 -584q0 27 10.5 50.5t28 41t41 27.5t50.5 10t50.5 -10t41 -27.5t28 -41t10.5 -50.5t-10.5 -50.5t-28 -41t-41 -27.5t-50.5 -10t-50.5 10 t-41 27.5t-28 41t-10.5 50.5zM635 -584q0 27 10.5 50.5t28 41t41 27.5t50.5 10t50.5 -10t41 -27.5t27.5 -41t10 -50.5t-10 -50.5t-27.5 -41t-41 -27.5t-50.5 -10t-50.5 10t-41 27.5t-28 41t-10.5 50.5z" />
<glyph unicode="&#x64b;" d="M-231 0v72h462v-72h-462zM-231 144v72h462v-72h-462z" />
<glyph unicode="&#x64c;" d="M-234 87l68 94q4 6 16.5 18t33.5 9q27 -3 43 -37v-1l36 -92q54 19 97 59q-46 11 -73 47q-17 21 -24 47.5t-4 52.5q5 26 20 47.5t40 34.5q26 13 54 13.5t51 -11.5q53 -28 62 -85q6 -33 -4 -70l18 4t17 4l18 -70q-21 -5 -42 -9.5t-44 -6.5q-7 -11 -14.5 -20.5t-13.5 -16.5 q-61 -65 -150 -93q-5 -2 -11.5 -3.5t-13.5 -1.5q-9 0 -17 4q-12 5 -17.5 14.5t-11.5 21.5l-27 73l-49 -69zM30.5 254q1.5 -14 12.5 -26q11 -15 27.5 -19t33.5 -4q8 17 11 34t1 33q-3 14 -13.5 25t-27.5 11q-15 0 -26 -8t-15.5 -20t-3 -26z" />
<glyph unicode="&#x64d;" d="M-231 0h462v-72h-462v72zM-231 -144h462v-72h-462v72z" />
<glyph unicode="&#x64e;" d="M-231 0v72h462v-72h-462z" />
<glyph unicode="&#x64f;" d="M-159 71q38 10 75.5 25t68.5 44q-45 11 -73 47q-17 21 -24 47.5t-3 52.5q5 26 20 47.5t39 34.5q26 13 54 13.5t52 -11.5q53 -28 62 -85q6 -33 -4 -70q9 2 17.5 4t17.5 4l17 -70q-20 -5 -41.5 -9.5t-44.5 -6.5q-7 -11 -14 -20.5t-13 -16.5q-43 -46 -92.5 -67t-96.5 -32z M-43.5 257q1.5 -14 11.5 -26q5 -7 15 -13.5t27 -8.5q5 -1 10 -1h10q7 17 10.5 34t0.5 33q-2 14 -13 25t-27 11q-15 0 -26 -8t-15.5 -20t-3 -26z" />
<glyph unicode="&#x650;" d="M-231 0h462v-72h-462v72z" />
<glyph unicode="&#x651;" d="M-230 103v126h72v-116q0 -17 12 -29t29 -12h84v157h72v-157h80q17 0 29 12t12 29v116h71v-126q0 -21 -8 -40t-21.5 -33t-32.5 -22t-40 -8h-257q-21 0 -39.5 8t-32.5 22t-22 33t-8 40z" />
<glyph unicode="&#x652;" d="M-158 159q0 33 12.5 62t34 50.5t50.5 34t62 12.5t61.5 -12.5t50 -34t34 -50.5t12.5 -62t-12.5 -61.5t-34 -50.5t-50 -34.5t-61.5 -12.5t-62 12.5t-50.5 34.5t-34 50.5t-12.5 61.5zM-87 159q0 -36 25.5 -61.5t62.5 -25.5q18 0 33.5 7t27 18.5t18.5 27.5t7 34t-7 34 t-18.5 27.5t-27 18.5t-33.5 7q-37 0 -62.5 -25.5t-25.5 -61.5z" />
<glyph unicode="&#x660;" horiz-adv-x="1112" d="M105 450v453q0 94 35 176.5t96 143.5t143 96t176 35q93 0 175.5 -35.5t144 -97t97 -143.5t35.5 -175v-453q0 -93 -35.5 -174.5t-97 -143t-144 -97t-175.5 -35.5q-94 0 -176 35.5t-143 96.5t-96 143t-35 175zM350 450q0 -42 16 -79.5t44 -65t65.5 -44t79.5 -16.5 q43 0 80 16.5t64.5 44t43.5 65t16 79.5v453q0 42 -16 79t-43.5 64.5t-64.5 43.5t-80 16q-42 0 -79.5 -16t-65.5 -43.5t-44 -64.5t-16 -79v-453z" />
<glyph unicode="&#x661;" horiz-adv-x="768" d="M105 1081l103 270h268q50 0 85.5 -19t58 -50.5t33 -72.5t10.5 -84v-1125h-261v1081h-297z" />
<glyph unicode="&#x662;" horiz-adv-x="1151" d="M105 174q0 31 8.5 55t23.5 43.5t34.5 36t41.5 32.5l20 15h-1l440 346q24 19 45.5 43.5t38.5 52t27 57.5t10 61q0 43 -16 79.5t-44 63t-65 41t-80 14.5q-51 0 -90.5 -16t-66.5 -45.5t-41.5 -70.5t-14.5 -91q0 -31 12.5 -60t34.5 -53.5t51.5 -43.5t63.5 -31l-219 -158 q-102 64 -149.5 160t-47.5 209q0 101 40 182t106.5 137.5t154 87t182.5 30.5q92 0 172.5 -33t140.5 -91t94.5 -137.5t34.5 -171.5q0 -85 -24.5 -152.5t-66.5 -123.5t-96.5 -104.5t-114.5 -95.5l-259 -202h555v-240h-727q-41 0 -78.5 9.5t-66 30.5t-46 54t-17.5 80z" />
<glyph unicode="&#x663;" horiz-adv-x="1117" d="M105 425h247q7 -39 26.5 -72t47.5 -57t62 -37.5t70 -13.5q43 0 81.5 16.5t66.5 45t44.5 66.5t16.5 82q0 53 -17 87.5t-43.5 56.5t-59.5 35t-65 22q-28 9 -55 19t-48 25t-34 36.5t-13 54.5q0 23 17.5 56t44 70t57 74.5t57.5 69.5q9 10 14 15.5t9 10t7 8.5t8 10h-403 l-61 247h615q39 0 76.5 -9.5t66.5 -29.5t46.5 -52t17.5 -78q0 -31 -17.5 -68t-44 -75.5t-57.5 -75.5t-59 -68q-12 -14 -20 -23.5t-19 -23.5q52 -31 93.5 -73.5t71 -93.5t45 -108.5t15.5 -118.5q0 -94 -36 -176.5t-98 -144.5t-144.5 -98t-175.5 -36q-87 0 -165.5 32.5 t-139.5 89.5t-100 134.5t-48 168.5z" />
<glyph unicode="&#x664;" horiz-adv-x="1268" d="M105 379q0 20 6 42t15 40l550 890h328l-551 -889h249v147h278v-147h183v-251h-183v-211h-278v211h-421q-34 0 -65.5 12.5t-56 35t-39.5 53.5t-15 67z" />
<glyph unicode="&#x665;" horiz-adv-x="1071" d="M105 383h237q10 -32 29 -59t44.5 -46.5t56 -30.5t62.5 -11q42 0 78.5 16.5t63.5 44t42.5 64.5t15.5 79t-16 79t-43 64t-63.5 43t-77.5 16q-21 0 -43.5 -0.5t-43.5 -1.5q-22 -1 -43 -1.5t-42 -0.5q-52 0 -98 7.5t-80.5 31t-54.5 67.5t-20 117v308q0 48 17.5 82.5 t47.5 56.5t69 32.5t81 10.5h592l-69 -246h-481v-226h168q90 0 169 -35t137.5 -94.5t92 -139.5t33.5 -170t-33.5 -170t-91.5 -140t-137 -95t-170 -35q-80 0 -152 29t-129.5 80.5t-96 121.5t-51.5 152z" />
<glyph unicode="&#x666;" horiz-adv-x="1225" d="M105 472q0 57 15.5 113.5t43.5 105.5l388 662h319l-246 -409q97 -4 186.5 -39.5t158 -97.5t109.5 -147t41 -188q0 -104 -42.5 -190.5t-113 -149t-162 -97.5t-188.5 -35q-99 0 -191 35t-162.5 97.5t-113 149t-42.5 190.5zM378 472q0 -49 20 -90.5t53 -72t76.5 -47.5 t90.5 -17t90.5 17t77 47.5t53.5 72t20 90.5q0 48 -20 89t-53.5 71.5t-77 47.5t-90.5 17t-90.5 -17t-76.5 -47.5t-53 -71.5t-20 -89z" />
<glyph unicode="&#x667;" horiz-adv-x="1081" d="M105 1351h675q40 0 75.5 -15t62.5 -40.5t42.5 -60.5t15.5 -75q0 -18 -14 -71t-37.5 -129t-54 -168.5t-63.5 -190t-66 -193t-61.5 -177t-50 -142.5t-31.5 -89h-305l388 1080h-513z" />
<glyph unicode="&#x668;" horiz-adv-x="1102" d="M105 418q0 96 42 178.5t117 142.5q-50 51 -75.5 114.5t-25.5 134.5q0 79 32 146t85.5 115.5t123.5 75.5t146 27t146 -27t124 -75.5t86.5 -115.5t32.5 -146q0 -71 -26.5 -134.5t-74.5 -114.5q75 -60 117 -142.5t42 -178.5q0 -92 -37 -168.5t-99.5 -132t-143 -86.5 t-167.5 -31q-88 0 -168.5 31t-142 86.5t-98 132.5t-36.5 168zM359 425q0 -39 15.5 -73t41.5 -59t61 -39.5t73 -14.5q39 0 74 14t61.5 39t42 59t15.5 74q0 39 -15.5 73t-42 59t-61.5 39.5t-74 14.5t-73.5 -14.5t-60.5 -39.5t-41.5 -59t-15.5 -73zM412 978q0 -29 11 -54.5 t29.5 -44.5t43.5 -30t54 -11t54.5 11t44.5 30t30 44.5t11 54.5q0 28 -11 53t-30 43.5t-44.5 29t-54.5 10.5t-54 -10.5t-43.5 -29t-29.5 -43.5t-11 -53z" />
<glyph unicode="&#x669;" horiz-adv-x="1151" d="M105 881q0 97 37 182.5t101 149.5t149.5 101t183.5 37q97 0 182.5 -37t149.5 -101t101 -149.5t37 -182.5q0 -58 -13.5 -114t-39.5 -106q-87 -161 -180 -330.5t-180 -330.5h-297l229 410q-96 4 -180 41t-146 99.5t-98 147t-36 183.5zM350 881q0 -47 17 -89t46.5 -73 t70 -49t87.5 -18q46 0 86.5 18.5t70.5 50t47.5 73t17.5 87.5q0 45 -17.5 86t-47.5 72t-70.5 49t-86.5 18t-86.5 -18t-70.5 -48.5t-47 -71.5t-17 -87z" />
<glyph unicode="&#x66a;" horiz-adv-x="1838" d="M105 1015q0 194 97 293q88 90 241 90q168 0 255 -116q69 -93 69 -259q0 -193 -87 -296q-84 -100 -241 -100q-169 0 -257 112q-77 97 -77 276zM306 1002q0 -104 20 -157q29 -76 106 -76q84 0 114 85q20 58 20 170t-28 171t-100 59q-74 0 -106 -70q-26 -57 -26 -182z M427 -54l781 1479h174l-779 -1479h-176zM1070 349q0 187 82 286q89 108 256 108q181 0 267 -132q58 -89 58 -241q0 -188 -82 -291q-87 -107 -251 -107q-169 0 -255 110q-75 96 -75 267zM1272 352q0 -107 21 -161q29 -75 107 -75q79 0 110 85q20 56 20 161q0 106 -20 160 q-29 79 -106 79q-78 0 -109 -75q-23 -55 -23 -174z" />
<glyph unicode="&#x66d;" horiz-adv-x="2943" d="M105 743v587q0 11 8 18.5t19 7.5t18.5 -7.5t7.5 -18.5v-383q30 48 75 86q19 16 43 31.5t53.5 28t64.5 20t76 7.5q82 0 149.5 -30.5t115.5 -81.5t74 -116.5t26 -134.5q0 -70 -27 -137t-75 -119t-115 -83.5t-148 -31.5q-80 0 -147 30t-115.5 80t-75.5 114t-27 133zM159 757 q0 -65 24.5 -122.5t66.5 -100t98.5 -67t121.5 -24.5q64 0 120.5 24.5t98.5 67t66.5 100t24.5 122.5q0 64 -24.5 120.5t-66.5 99t-98.5 67t-120.5 24.5q-65 0 -121.5 -24.5t-98.5 -67t-66.5 -99t-24.5 -120.5zM870 754q0 76 28.5 143t78 116.5t116.5 78.5t143 29t143 -29 t117 -78.5t78.5 -116.5t28.5 -143q0 -8 -6 -16.5t-22 -8.5h-391q-11 0 -19.5 7.5t-8.5 20.5q0 11 8.5 19t19.5 8h362q-6 59 -32 110.5t-67.5 90t-95.5 60.5t-115 22q-65 0 -121.5 -24.5t-98.5 -67t-66 -99.5t-24 -122q0 -64 24 -120.5t66 -99t98.5 -67t121.5 -24.5 q42 0 81 11t73.5 30.5t63 47t48.5 60.5q6 11 17.5 13t21.5 -5q8 -6 11 -17t-5 -21q-24 -39 -56.5 -71t-72.5 -55.5t-86 -36t-96 -12.5q-76 0 -143 29t-116.5 79t-78 117t-28.5 142zM1222 111q0 18 19 18q7 0 12.5 -5t5.5 -13q0 -6 2 -18t10 -24t24 -21t44 -9q33 0 50.5 10 t24.5 23t7.5 23.5t0.5 11.5l-0.5 9t-8 19t-25 18.5t-50.5 8.5t-55 8t-35.5 20.5t-19.5 27t-6 28.5q0 13 4.5 31t17.5 34t35.5 27.5t58.5 11.5q32 -1 58 -13q22 -11 40.5 -33.5t18.5 -65.5q0 -7 -5.5 -12t-13.5 -5q-7 0 -12 5t-5 12q0 21 -9 38q-8 14 -24 26.5t-48 12.5 t-48.5 -11t-23.5 -24q-8 -16 -8 -35q1 -13 10 -23q8 -9 24 -16t46 -7q62 0 91.5 -27.5t29.5 -65.5q0 -19 -6.5 -37.5t-20.5 -33.5t-37.5 -24t-56.5 -9q-26 0 -47.5 8.5t-37 23.5t-23.5 34.5t-8 42.5zM1490 231q0 52 32.5 85.5t86.5 33.5q25 0 47.5 -9.5t38.5 -25.5t25.5 -38 t9.5 -46q0 -25 -9.5 -47t-25.5 -38.5t-38.5 -26t-47.5 -9.5h-81v-94q0 -19 -19 -19q-8 0 -13 5.5t-5 13.5zM1528 147h81q17 0 32.5 6.5t27 18t18 26.5t6.5 33q0 34 -24.5 59t-59.5 25q-38 0 -59.5 -24.5t-21.5 -59.5v-84zM1639 440v630q2 20 20 37t44 17t44 -17t19 -37v-630 q-1 -20 -19 -37t-44 -18q-26 1 -44 18t-20 37zM1737 174q0 37 14 69.5t38 56.5t56.5 38t68.5 14q37 0 69.5 -14t56.5 -38t38 -56.5t14 -69.5q0 -36 -14 -68.5t-38 -57t-56.5 -38.5t-69.5 -14q-36 0 -68.5 14t-56.5 38.5t-38 57t-14 68.5zM1777 174q0 -29 11 -54t29.5 -43.5 t43.5 -29.5t53 -11q29 0 54 11t44 29.5t29.5 43.5t10.5 54q0 28 -10.5 53t-29.5 44t-44 29.5t-54 10.5q-28 0 -53 -10.5t-43.5 -29.5t-29.5 -44t-11 -53zM1826 436v474q3 40 18 77q13 32 40.5 65t78.5 54q52 19 97 16t81 -19t61.5 -40t37.5 -46l289 -455q14 -22 33 -35 q17 -11 41.5 -15t56.5 13q15 7 24.5 17.5t15.5 22t8.5 21.5t2.5 17v466q2 20 19.5 37t42.5 17q27 0 45 -17t19 -37v-466q0 -41 -13 -78q-12 -32 -39 -65.5t-81 -55.5q-52 -21 -98 -17.5t-82 19t-61 37.5t-35 37q-5 8 -20 31.5t-36 57.5t-46.5 74t-51.5 81q-61 96 -135 212 q-9 18 -22 31q-11 11 -28 20.5t-39 7.5q-38 -4 -58.5 -19.5t-28.5 -32.5q-11 -20 -10 -46v-454q0 -22 -18 -39.5t-44 -18.5q-27 1 -45 17t-20 34zM2111 15v216q0 52 32.5 86.5t88.5 34.5q25 0 47 -9.5t38.5 -26t26 -38.5t9.5 -47q0 -39 -22.5 -70t-59.5 -44l56 -92 q4 -6 2.5 -13.5t-8.5 -10.5q-8 -5 -15.5 -3.5t-11.5 9.5l-64 103h-82v-95q0 -8 -5 -13.5t-13 -5.5q-19 0 -19 19zM2148 147h84q35 0 59.5 24.5t24.5 59.5q0 18 -6.5 33t-18 26.5t-27 18t-32.5 6.5q-38 0 -61 -23.5t-23 -60.5v-84zM2343 331q0 8 6 13.5t15 5.5h204 q8 0 13.5 -5.5t5.5 -13.5t-5.5 -14t-13.5 -6h-82v-294q0 -8 -5.5 -14t-13.5 -6q-9 0 -14.5 6t-5.5 14v294h-83q-9 0 -15 6t-6 14zM2599 108q0 19 16 19q8 0 13 -5.5t5 -13.5q0 -6 2.5 -18.5t11 -25t25 -21.5t44.5 -9q34 0 51 10.5t24.5 23.5t8 24t0.5 12t-0.5 9.5t-8 18.5 t-25 18.5t-50.5 8.5q-34 0 -56.5 8t-36 21t-19 28t-5.5 29q0 13 4.5 31t17 34.5t35 28t58.5 11.5q33 -1 59 -13q22 -11 40.5 -33.5t18.5 -66.5q0 -7 -5 -13t-13 -6q-9 0 -14 6t-5 13q0 21 -8 38q-7 14 -23 26t-48 12q-33 0 -49.5 -11t-24.5 -24q-9 -15 -9 -34q1 -13 10 -24 q8 -9 24 -16.5t47 -7.5q63 0 93 -27t30 -65q0 -19 -7 -38t-21.5 -34.5t-38 -25t-56.5 -9.5q-26 0 -48 9t-37.5 24t-23.5 35t-6 43z" />
<glyph unicode="&#x6de;" horiz-adv-x="1072" d="M105 409l37 117l18 4l-11 14l38 120l98 72l17 -8v19l101 74h124l9 -18l10 18h122l104 -74l-2 -19l16 8l98 -72l39 -120l-11 -14l17 -4l38 -117l-38 -116l-17 -3l11 -16l-39 -119l-98 -72l-16 9l2 -20l-104 -73h-122l-10 18l-9 -18h-124l-101 73v20l-17 -9l-98 72l-38 119 l11 16l-18 3zM123 409l33 -101l38 -7l-26 -30l34 -104l85 -64l35 17l-4 -40l92 -63h105l21 35l20 -35h107l89 63l-3 40l35 -17l86 64l34 104l-25 30l37 7l33 101l-33 103l-37 6l25 30l-34 105l-86 63l-35 -17l3 40l-89 64h-107l-20 -36l-21 36h-105l-92 -64l4 -40l-35 17 l-85 -63l-34 -105l26 -30l-38 -6zM144 409l26 84l39 10l22 -25l-14 -44l55 -25l-55 -23l14 -44l-22 -26l-39 10zM189 268l25 26l34 -6l17 -48l58 17l-31 -54l37 -26l-4 -35l-36 -14l-72 51zM189 552l28 88l72 52l36 -15l4 -34l-37 -26l31 -54l-58 16l-17 -47l-34 -7z M229 311l23 27l-12 39l58 23l90 -37l-50 -86l-62 -12l-12 37zM229 507l35 10l12 38l62 -14l50 -84l-90 -38l-58 25l12 38zM316 209l33 53l96 23l8 -96l-41 -48l-34 21l-32 -11l3 35zM316 611l33 22l-3 36l32 -13l34 22l41 -47l-8 -97l-96 24zM326 409l71 31l20 -31l-20 -29z M339 91l4 38l33 13l39 -28l40 47l4 -62h48l19 -30l-20 -33h-89zM339 729l78 55h89l20 -33l-19 -30h-48l-4 -63l-40 47l-39 -27l-33 13zM362 286l43 69l35 -14l4 -36zM362 534l82 -20l-4 -35l-35 -15zM372 409l19 -7l4 7l-4 8zM400 311l25 8l-1 11l-11 3zM400 507l13 -20 l11 3l1 11zM416 374l23 35l-23 37l42 19l3 46l43 -10l32 33l32 -33l42 10l4 -46l43 -19l-25 -37l25 -35l-43 -21l-4 -44l-42 10l-32 -34l-32 34l-43 -10l-3 44zM442 381l33 -14l2 -37l33 8l26 -27l25 27l34 -8l1 37l34 14l-18 28l18 29l-34 14l-1 37l-34 -7l-25 27l-26 -27 l-33 7l-2 -37l-33 -14l19 -29zM462 290l36 7l25 -27l-53 -62zM462 530l8 81l53 -62l-25 -26zM471 180l65 77l63 -77l-6 -63h-40l-17 -28l-18 28h-40zM471 639l7 63h40l18 28l17 -28h40l6 -63l-63 -77zM481 276l2 -24l16 18l-7 7zM481 543l11 -2l7 8l-16 20zM547 69l18 30h48 l5 62l39 -47l39 28l34 -13l3 -38l-78 -55h-88zM547 751l20 33h88l78 -55l-3 -38l-34 -13l-39 27l-39 -47l-5 63h-48zM550 270l24 27l36 -7l-7 -82zM550 549l53 62l7 -81l-36 -7zM573 270l15 -18l3 24l-11 1zM573 549l7 -8l11 2l-3 26zM619 189l8 96l98 -23l31 -53l-32 -23 l3 -35l-33 11l-33 -21zM619 631l42 47l33 -22l33 13l-3 -36l32 -22l-31 -53l-98 -24zM627 305l5 36l35 14l43 -69zM627 514l83 20l-43 -70l-35 15zM647 319l25 -8l-12 22l-12 -3zM647 501l1 -11l12 -3l12 20zM655 409l19 31l71 -31l-71 -29zM676 409l6 -7l18 7l-18 8z M685 363l89 37l58 -23l-12 -39l23 -27l-35 -9l-12 -37l-62 12zM685 457l49 84l62 14l12 -38l35 -10l-23 -25l12 -38l-58 -25zM744 177l36 26l-32 54l59 -17l17 48l33 6l26 -26l-29 -89l-71 -51l-37 14zM744 643l2 34l37 15l71 -52l29 -88l-26 -27l-33 7l-17 47l-59 -16 l32 54zM801 409l55 25l-14 44l21 25l39 -10l27 -84l-27 -83l-39 -10l-21 26l14 44z" />
<glyph unicode="&#x6e9;" horiz-adv-x="1446" d="M105 1v55h171v191h27q15 0 15 14v36q0 18 11 28q13 11 30 11h32v87q-3 0 -31 31q-38 40 -60 82q-31 62 -31 126q0 73 55 153q29 43 67.5 79.5t86.5 68.5q18 11 43.5 25t58.5 30q21 11 47 23t58 26q12 6 21.5 10t16.5 7q8 4 13 6q5 -1 12 -5l15 -7.5t21 -9.5 q64 -28 106 -50q32 -16 58 -30t45 -25q98 -66 154 -148q55 -80 55 -153q0 -64 -31 -125q-21 -43 -60 -83q-28 -31 -31 -31v-87h31q18 0 31 -11q11 -11 11 -28v-36q0 -14 14 -14h27v-191h147v-55h-196v196h-12q-17 0 -23 8q-7 8 -7 33v33q0 8 -3 11q-3 4 -12 4h-57v164 q6 0 32 26q19 17 34 35t27 38q32 55 32 111q0 50 -38 110q-43 73 -125 136q-20 14 -46.5 30t-59.5 33q-25 13 -51 25.5t-53 23.5q-44 19 -47 19t-48 -19q-29 -12 -54.5 -24.5t-48.5 -23.5q-33 -17 -60 -33t-48 -31q-83 -63 -124 -136q-38 -61 -38 -110q0 -58 31 -111 q12 -20 27 -38t34 -35q26 -26 33 -26v-164h-57q-9 0 -12 -4q-4 -3 -4 -11v-33q0 -24 -6 -33q-6 -8 -23 -8h-12v-196h-221z" />
<glyph unicode="&#x2000;" horiz-adv-x="890" />
<glyph unicode="&#x2001;" horiz-adv-x="1781" />
<glyph unicode="&#x2002;" horiz-adv-x="890" />
<glyph unicode="&#x2003;" horiz-adv-x="1781" />
<glyph unicode="&#x2004;" horiz-adv-x="593" />
<glyph unicode="&#x2005;" horiz-adv-x="445" />
<glyph unicode="&#x2006;" horiz-adv-x="296" />
<glyph unicode="&#x2007;" horiz-adv-x="296" />
<glyph unicode="&#x2008;" horiz-adv-x="222" />
<glyph unicode="&#x2009;" horiz-adv-x="356" />
<glyph unicode="&#x200a;" horiz-adv-x="98" />
<glyph unicode="&#x2010;" horiz-adv-x="625" d="M45 400v251h535v-251h-535z" />
<glyph unicode="&#x2011;" horiz-adv-x="625" d="M45 400v251h535v-251h-535z" />
<glyph unicode="&#x2012;" horiz-adv-x="625" d="M45 400v251h535v-251h-535z" />
<glyph unicode="&#x2013;" horiz-adv-x="1167" d="M104 400v251h958v-251h-958z" />
<glyph unicode="&#x2014;" horiz-adv-x="2138" d="M45 400v251h2048v-251h-2048z" />
<glyph unicode="&#x2015;" horiz-adv-x="2048" d="M242 400v251h1564v-251h-1564z" />
<glyph unicode="&#x2018;" horiz-adv-x="582" d="M134 793v241q0 204 101 301q83 80 213 95v-139q-134 -33 -142 -189h142v-309h-314z" />
<glyph unicode="&#x2019;" horiz-adv-x="582" d="M134 772v139q134 33 142 189h-142v309h314v-241q0 -204 -101 -301q-83 -81 -213 -95z" />
<glyph unicode="&#x201a;" horiz-adv-x="582" d="M134 0v309h314v-241q0 -204 -101 -301q-83 -81 -213 -96v140q134 33 142 189h-142z" />
<glyph unicode="&#x201c;" horiz-adv-x="965" d="M134 802v247q0 173 81 268q77 91 202 114v-132q-69 -21 -101 -71q-29 -45 -32 -122h133v-304h-283zM548 802v247q0 174 81 268q77 91 202 114v-132q-69 -21 -101 -71q-29 -45 -32 -122h133v-304h-283z" />
<glyph unicode="&#x201d;" horiz-adv-x="965" d="M134 781v132q70 21 101 71q29 44 32 122h-133v303h283v-246q0 -174 -81 -268q-78 -92 -202 -114zM548 781v132q69 21 101 71q29 44 32 122h-133v303h283v-246q0 -174 -81 -268q-78 -92 -202 -114z" />
<glyph unicode="&#x2022;" horiz-adv-x="1409" d="M414 716q0 125 87 209q88 85 210 85q117 0 203 -85q86 -86 86 -208q0 -121 -86 -207q-85 -86 -207 -86q-120 0 -206 85q-87 86 -87 207z" />
<glyph unicode="&#x202f;" horiz-adv-x="356" />
<glyph unicode="&#x205f;" horiz-adv-x="445" />
<glyph unicode="&#x2122;" horiz-adv-x="1871" d="M21 1250v159h721v-159h-260v-644h-202v644h-259zM810 606v803h279l130 -347q39 -105 65 -220q23 101 66 222l125 345h276v-803h-192v243q0 170 8 336q-32 -112 -70 -215l-136 -364h-157l-140 357q-36 94 -70 216q8 -175 8 -311v-262h-192z" />
<glyph unicode="&#x25fc;" horiz-adv-x="1020" d="M0 0v1020h1020v-1020h-1020z" />
<glyph unicode="&#xfd3e;" horiz-adv-x="644" d="M105 -339v1750h434v-236h-182v-1277h182v-237h-434z" />
<glyph unicode="&#xfd3f;" horiz-adv-x="644" d="M105 -102h182v1277h-182v236h434v-1750h-434v237z" />
</font>
</defs>
</svg>
