<?xml version="1.0" standalone="no"?>
<!DOCTYPE svg PUBLIC "-//W3C//DTD SVG 1.1//EN" "http://www.w3.org/Graphics/SVG/1.1/DTD/svg11.dtd" >
<svg xmlns="http://www.w3.org/2000/svg">
<metadata></metadata>
<defs>
<font id="bein-arabic_thinthin" horiz-adv-x="0" >
<font-face units-per-em="2048" ascent="1638" descent="-410" />
<missing-glyph horiz-adv-x="325" />
<glyph unicode="&#x64c;&#x651;" arabic-form="isolated" d="M-234 448l101 56q6 5 22.5 9.5t34.5 -6.5q23 -15 23 -52v-1l-7 -98q29 -4 57 -0.5t55 11.5q-18 14 -29.5 33.5t-15.5 40.5q-7 26 -2 53t19 49q32 46 90 49q29 1 54.5 -11t40.5 -33q36 -47 20 -103q-10 -34 -34 -61q9 -2 17.5 -4t17.5 -4l-14 -72q-21 5 -42 10.5t-42 13.5 q-11 -8 -22 -13t-19 -9q-83 -33 -176 -20q-5 2 -11.5 3t-13.5 4q-8 3 -13 11q-9 10 -10 20.5t-1 24.5l7 77l-73 -41zM-230 103q0 -43 30 -73t72 -30h257q43 0 73 30t30 73v126h-72v-116q0 -17 -12 -29t-29 -12h-80v157h-72v-157h-84q-17 0 -29 12t-12 29v116h-72v-126z M75.5 485.5q-4.5 -13.5 0.5 -28.5q4 -19 16.5 -29t28.5 -18q14 11 24.5 25.5t14.5 29.5q4 14 -1 28.5t-20 22.5q-14 6 -27 3.5t-22.5 -11.5t-14 -22.5z" />
<glyph unicode="&#x64d;&#x651;" arabic-form="isolated" d="M-231 0v72h462v-72h-462zM-231 144v72h462v-72h-462zM-231 394v127h72v-117q0 -17 12 -29t29 -12h85v158h71v-158h80q17 0 29 12t12 29v117h72v-127q0 -43 -30 -73t-72 -30h-257q-43 0 -73 30t-30 73z" />
<glyph unicode="&#x64e;&#x651;" arabic-form="isolated" d="M-230 103v126h72v-116q0 -17 12 -29t29 -12h84v157h72v-157h80q17 0 29 12t12 29v116h71v-126q0 -21 -7.5 -40t-21.5 -33t-33 -22t-40 -8h-257q-42 0 -72 30t-30 73zM-230 318v71h461v-71h-461z" />
<glyph unicode="&#x64f;&#x651;" arabic-form="isolated" d="M-230 103q0 -21 8 -40t22 -33q28 -30 72 -30h257q42 0 72 30t30 73v126h-72v-116q0 -17 -12 -29t-29 -12h-79v157h-72v-157h-85q-17 0 -29 12t-12 29v116h-71v-126zM-190 322l22 68q37 -12 77 -19.5t82 1.5q-32 32 -37 78q-3 27 5 53t25 46q18 20 42 30t52 8 q29 -3 52.5 -17t37.5 -37q30 -51 8 -105q-7 -17 -17.5 -31t-23.5 -26q8 -4 16.5 -6.5t17.5 -5.5l-23 -69q-20 7 -40.5 14.5t-40.5 18.5q-25 -13 -43 -17q-30 -8 -58.5 -9.5t-55 1.5t-51.5 9.5t-47 14.5zM25 458q1 -9 5.5 -20t17.5 -21q5 -4 8.5 -6.5t8.5 -5.5 q14 11 26.5 23.5t18.5 27.5q5 14 2 29t-17 23q-13 8 -26.5 7t-23.5 -8.5t-16 -20.5t-4 -28z" />
<glyph unicode="&#x650;&#x651;" arabic-form="isolated" d="M-231 0v72h462v-72h-462zM-231 250v127h72v-117q0 -17 12 -29t29 -12h85v158h71v-158h80q17 0 29 12t12 29v117h72v-127q0 -43 -30 -73t-72 -30h-257q-43 0 -73 30t-30 73z" />
<glyph unicode="&#x64b;&#x651;" arabic-form="isolated" d="M-230 103v126h72v-116q0 -17 12 -29t29 -12h84v157h72v-157h80q17 0 29 12t12 29v116h71v-126q0 -21 -7.5 -40t-21.5 -33t-33 -22t-40 -8h-257q-42 0 -72 30t-30 73zM-230 318v71h461v-71h-461zM-230 462v71h461v-71h-461z" />
<glyph unicode="&#xfedf;&#xfe82;" horiz-adv-x="1160" arabic-form="isolated" d="M105 0v120h190v823h120v-823h352q35 0 65.5 13t53.5 36t36 53.5t13 65.5v1052h120v-1052q0 -60 -22.5 -112.5t-61.5 -91.5t-91.5 -61.5t-112.5 -22.5h-662zM157 1105q26 42 54 60.5t58 18.5q16 0 35 -6t50 -21q19 -9 34 -13t29 -1.5t28.5 13.5t32.5 33l50 -69 q-21 -23 -37 -38t-29 -23.5t-25.5 -12t-25.5 -3.5q-28 0 -83 26q-20 10 -33.5 16t-24 5.5t-21 -8t-24.5 -25.5l-18 -21z" />
<glyph unicode="&#xfee0;&#xfe82;" horiz-adv-x="1216" arabic-form="final" d="M105 0v120h190v823h120v-823h521v1220h120v-1220h202v-120h-1153zM157 1105q26 42 54 60.5t58 18.5q16 0 35 -6t50 -21q19 -9 34 -13t29 -1.5t28.5 13.5t32.5 33l50 -69q-21 -23 -37 -38t-29 -23.5t-25.5 -12t-25.5 -3.5q-28 0 -83 26q-20 10 -33.5 16t-24 5.5t-21 -8 t-24.5 -25.5l-18 -21z" />
<glyph unicode="&#xfedf;&#xfe84;" horiz-adv-x="1160" arabic-form="isolated" d="M105 0v120h190v823h120v-823h352q35 0 65.5 13t53.5 36t36 53.5t13 65.5v1052h120v-1052q0 -60 -22.5 -112.5t-61.5 -91.5t-91.5 -61.5t-112.5 -22.5h-662zM182 1043v94h49q-16 40 -16 80q0 30 8.5 58t27 50t48.5 35.5t73 14.5h81v-95h-80h1q-34 -1 -49.5 -20.5 t-15.5 -42.5q0 -15 3 -29t8 -25.5t12.5 -18.5t15.5 -7h142v-94h-308z" />
<glyph unicode="&#xfee0;&#xfe84;" horiz-adv-x="1216" arabic-form="final" d="M105 0v120h190v823h120v-823h521v1220h120v-1220h202v-120h-1153zM182 1043v94h49q-16 40 -16 80q0 30 8.5 58t27 50t48.5 35.5t73 14.5h81v-95h-80h1q-34 -1 -49.5 -20.5t-15.5 -42.5q0 -15 3 -29t8 -25.5t12.5 -18.5t15.5 -7h142v-94h-308z" />
<glyph unicode="&#xfedf;&#xfe88;" horiz-adv-x="1160" arabic-form="isolated" d="M105 0v120h190v823h120v-823h352q35 0 65.5 13t53.5 36t36 53.5t13 65.5v1052h120v-1052q0 -60 -22.5 -112.5t-61.5 -91.5t-91.5 -61.5t-112.5 -22.5h-662zM182 -338h49q-16 40 -16 80q0 30 8.5 58t27 50t48.5 35.5t73 14.5h81v-95h-80h1q-34 -1 -49.5 -20.5t-15.5 -42.5 q0 -15 3 -29t8 -25.5t12.5 -18.5t15.5 -7h142v-94h-308v94z" />
<glyph unicode="&#xfee0;&#xfe88;" horiz-adv-x="1216" arabic-form="final" d="M105 0v120h190v823h120v-823h521v1220h120v-1220h202v-120h-1153zM182 -338h49q-16 40 -16 80q0 30 8.5 58t27 50t48.5 35.5t73 14.5h81v-95h-80h1q-34 -1 -49.5 -20.5t-15.5 -42.5q0 -15 3 -29t8 -25.5t12.5 -18.5t15.5 -7h142v-94h-308v94z" />
<glyph unicode="&#xfedf;&#xfe8e;" horiz-adv-x="1160" arabic-form="isolated" d="M105 0v120h190v823h120v-823h352q35 0 65.5 13t53.5 36t36 53.5t13 65.5v1052h120v-1052q0 -60 -22.5 -112.5t-61.5 -91.5t-91.5 -61.5t-112.5 -22.5h-662z" />
<glyph unicode="&#xfee0;&#xfe8e;" horiz-adv-x="1216" arabic-form="final" d="M105 0v120h190v823h120v-823h521v1220h120v-1220h202v-120h-1153z" />
<glyph unicode="&#x67e;" horiz-adv-x="1411" arabic-form="isolated" d="M105 424v332h120v-332q0 -63 24 -118.5t65 -96.5t97 -65t119 -24h489q35 0 65.5 13t53 36t35.5 53.5t13 65.5v655h120v-655q0 -60 -22.5 -112.5t-61.5 -91.5t-91 -61.5t-112 -22.5h-489q-88 0 -165.5 33.5t-135 91t-91 134.5t-33.5 165zM567 -322q0 32 22 54t54 22 q31 0 53 -22t22 -54q0 -31 -22 -53t-53 -22q-32 0 -54 22t-22 53zM702 -537q0 32 22 54t54 22q31 0 53 -22t22 -54q0 -31 -22 -53t-53 -22q-32 0 -54 22t-22 53zM836 -322q0 32 22 54t54 22q31 0 53 -22t22 -54q0 -31 -22 -53t-53 -22q-32 0 -54 22t-22 53z" />
<glyph unicode="&#x67e;" horiz-adv-x="1466" arabic-form="final" d="M105 424v332h120v-332q0 -63 24 -118.5t65 -96.5t96.5 -65t118.5 -24h657v823h120v-823h202v-120h-979q-88 0 -165 33.5t-134.5 91t-91 134.5t-33.5 165zM567 -322q0 32 22 54t54 22q31 0 53 -22t22 -54q0 -31 -22 -53t-53 -22q-32 0 -54 22t-22 53zM702 -537q0 32 22 54 t54 22q31 0 53 -22t22 -54q0 -31 -22 -53t-53 -22q-32 0 -54 22t-22 53zM836 -322q0 32 22 54t54 22q31 0 53 -22t22 -54q0 -31 -22 -53t-53 -22q-32 0 -54 22t-22 53z" />
<glyph unicode="&#x67e;" horiz-adv-x="523" arabic-form="initial" d="M-42 0v120h172q34 0 65 13t53.5 36t36 53.5t13.5 65.5v655h120v-655q0 -60 -23 -112.5t-62 -91.5t-91.5 -61.5t-111.5 -22.5h-172zM-1 -322q0 32 22 54t54 22q31 0 53 -22t22 -54q0 -31 -22 -53t-53 -22q-32 0 -54 22t-22 53zM134 -537q0 32 22 54t54 22q31 0 53 -22 t22 -54q0 -31 -22 -53t-53 -22q-32 0 -54 22t-22 53zM268 -322q0 32 22 54t54 22q31 0 53 -22t22 -54q0 -31 -22 -53t-53 -22q-32 0 -54 22t-22 53z" />
<glyph unicode="&#x67e;" horiz-adv-x="578" arabic-form="medial" d="M-42 0v120h340v823h120v-823h202v-120h-662zM-1 -322q0 32 22 54t54 22q31 0 53 -22t22 -54q0 -31 -22 -53t-53 -22q-32 0 -54 22t-22 53zM134 -537q0 32 22 54t54 22q31 0 53 -22t22 -54q0 -31 -22 -53t-53 -22q-32 0 -54 22t-22 53zM268 -322q0 32 22 54t54 22 q31 0 53 -22t22 -54q0 -31 -22 -53t-53 -22q-32 0 -54 22t-22 53z" />
<glyph unicode="&#x6a4;" horiz-adv-x="1886" arabic-form="isolated" d="M105 428v328h120v-328q0 -64 24 -120t66 -98t98 -66t120 -24h412v406q0 89 33 165.5t89.5 132.5t132.5 88t162 32t162.5 -32t133.5 -88t89.5 -131t32.5 -161v-242q0 -66 -22.5 -119.5t-62 -91.5t-92.5 -58.5t-113 -20.5h-957q-89 0 -166.5 33.5t-136 92t-92 136 t-33.5 166.5zM1065 120h425q36 0 67 12t54 34.5t36 53.5t13 70v242q0 61 -23.5 114.5t-64 93t-95 62t-115.5 22.5q-62 0 -116 -22.5t-94 -62.5t-63.5 -94.5t-23.5 -118.5v-406zM1150 1264q0 31 22 53t54 22q31 0 53 -22t22 -53q0 -32 -22 -54t-53 -22q-32 0 -54 22t-22 54z M1285 1479q0 31 22 53t54 22q31 0 53 -22t22 -53q0 -32 -22 -54t-53 -22q-32 0 -54 22t-22 54zM1419 1264q0 31 22 53t54 22q31 0 53 -22t22 -53q0 -32 -22 -54t-53 -22q-32 0 -54 22t-22 54z" />
<glyph unicode="&#x6a4;" horiz-adv-x="1939" arabic-form="final" d="M105 428v328h120v-328q0 -64 24 -120t66 -98t98 -66t120 -24h412v406q0 89 33 165.5t89.5 132.5t132 88t161.5 32q87 0 163 -32t133 -88t89.5 -131t32.5 -161v-412h202v-120h-1448q-89 0 -167 33.5t-136 92t-91.5 136t-33.5 166.5zM1065 120h594v412q0 61 -23.5 114.5 t-64 93t-95 62t-115.5 22.5t-115 -22.5t-94 -62.5t-63.5 -94.5t-23.5 -118.5v-406zM1150 1264q0 31 22 53t54 22q31 0 53 -22t22 -53q0 -32 -22 -54t-53 -22q-32 0 -54 22t-22 54zM1285 1479q0 31 22 53t54 22q31 0 53 -22t22 -53q0 -32 -22 -54t-53 -22q-32 0 -54 22 t-22 54zM1419 1264q0 31 22 53t54 22q31 0 53 -22t22 -53q0 -32 -22 -54t-53 -22q-32 0 -54 22t-22 54z" />
<glyph unicode="&#x6a4;" horiz-adv-x="1100" arabic-form="initial" d="M-42 0v120h202v406q0 89 33 165.5t89.5 132.5t132 88t161.5 32q87 0 163 -32t133 -88t90 -131t32 -161v-242q0 -66 -22.5 -119.5t-62 -91.5t-92 -58.5t-112.5 -20.5h-747zM280 120h425q35 0 66 12t54 34.5t36 53.5t13 70v242q1 61 -22.5 114.5t-64 93t-95 62t-116.5 22.5 q-61 0 -115 -22.5t-94 -62.5t-63.5 -94.5t-23.5 -118.5v-406zM365 1264q0 31 22 53t54 22q31 0 53 -22t22 -53q0 -32 -22 -54t-53 -22q-32 0 -54 22t-22 54zM500 1479q0 31 22 53t54 22q31 0 53 -22t22 -53q0 -32 -22 -54t-53 -22q-32 0 -54 22t-22 54zM634 1264q0 31 22 53 t54 22q31 0 53 -22t22 -53q0 -32 -22 -54t-53 -22q-32 0 -54 22t-22 54z" />
<glyph unicode="&#x6a4;" horiz-adv-x="1155" arabic-form="medial" d="M-42 0v120h202v406q0 89 33 165.5t89.5 132.5t132 88t161.5 32q87 0 163 -32t133 -88t90 -131t33 -161v-412h202v-120h-1239zM280 120h595v412q0 61 -23.5 114.5t-64 93t-95 62t-116.5 22.5q-61 0 -115 -22.5t-94 -62.5t-63.5 -94.5t-23.5 -118.5v-406zM365 1264 q0 31 22 53t54 22q31 0 53 -22t22 -53q0 -32 -22 -54t-53 -22q-32 0 -54 22t-22 54zM500 1479q0 31 22 53t54 22q31 0 53 -22t22 -53q0 -32 -22 -54t-53 -22q-32 0 -54 22t-22 54zM634 1264q0 31 22 53t54 22q31 0 53 -22t22 -53q0 -32 -22 -54t-53 -22q-32 0 -54 22t-22 54 z" />
<glyph unicode="&#x686;" horiz-adv-x="1033" arabic-form="isolated" d="M105 -137q0 48 15.5 94.5t46 82.5t76.5 58t107 22h289q35 0 66 13t54 35.5t36 52t13 63.5v224q0 94 -26 155.5t-68.5 97.5t-96.5 50t-111 14q-49 0 -96.5 -7t-88.5 -17.5t-74 -22.5t-52 -21l-52 108q23 11 61.5 25t86.5 26t103 20.5t112 8.5q53 0 104.5 -8.5t98.5 -28 t87 -52t69.5 -81t46 -114.5t16.5 -153v-224q0 -59 -22.5 -110.5t-62 -90t-92 -61t-112.5 -22.5h-289q-31 0 -54.5 -11.5t-39 -31t-23.5 -44t-8 -50.5t8 -51t23.5 -44.5t39 -31.5t54.5 -12h240v-120h-240q-61 0 -107 22.5t-76.5 59t-46 83t-15.5 94.5zM655 -334q0 26 18 44 t44 18t44 -18t18 -44t-18 -44t-44 -18t-44 18t-18 44zM782 -529q0 26 18 44t44 18t44 -18t18 -44t-18 -44t-44 -18t-44 18t-18 44zM909 -334q0 26 18 44t44 18t44 -18t18 -44t-18 -44t-44 -18t-44 18t-18 44z" />
<glyph unicode="&#x686;" horiz-adv-x="1089" arabic-form="final" d="M105 -137q0 48 15.5 94.5t46 82.5t76.5 58t107 22h459v388q0 94 -26 155.5t-68.5 97.5t-96.5 50t-111 14q-49 0 -96.5 -7t-89 -17.5t-74.5 -22.5t-52 -21l-52 108q23 11 61.5 25t87 26t103.5 20.5t112 8.5q53 0 104.5 -8.5t98.5 -28t87 -52t69.5 -81t46 -114.5t16.5 -153 v-388h202v-120h-781q-31 0 -54.5 -11.5t-39 -31t-23.5 -44t-8 -50.5t8 -51t23.5 -44.5t39 -31.5t54.5 -12h240v-120h-240q-61 0 -107 22.5t-76.5 59t-46 83t-15.5 94.5zM655 -334q0 26 18 44t44 18t44 -18t18 -44t-18 -44t-44 -18t-44 18t-18 44zM782 -529q0 26 18 44t44 18 t44 -18t18 -44t-18 -44t-44 -18t-44 18t-18 44zM909 -334q0 26 18 44t44 18t44 -18t18 -44t-18 -44t-44 -18t-44 18t-18 44z" />
<glyph unicode="&#x686;" horiz-adv-x="1050" arabic-form="initial" d="M-42 0v120h697q35 0 66 13t54 35.5t36.5 52t13.5 63.5v224q0 94 -26 155.5t-68.5 97.5t-96.5 50t-111 14q-49 0 -96.5 -7t-89 -17.5t-74.5 -22.5t-52 -21l-52 108q23 11 61.5 25t87 26t103.5 20.5t112 8.5q53 0 104.5 -8.5t98.5 -28t87 -52t69.5 -81t46 -114.5t16.5 -153 v-224q0 -59 -23 -110.5t-62 -90t-92 -61t-113 -22.5h-697zM318 -322q0 32 22 54t54 22q31 0 53 -22t22 -54q0 -31 -22 -53t-53 -22q-32 0 -54 22t-22 53zM453 -537q0 32 22 54t54 22q31 0 53 -22t22 -54q0 -31 -22 -53t-53 -22q-32 0 -54 22t-22 53zM587 -322q0 32 22 54 t54 22q31 0 53 -22t22 -54q0 -31 -22 -53t-53 -22q-32 0 -54 22t-22 53z" />
<glyph unicode="&#x686;" horiz-adv-x="1108" arabic-form="medial" d="M-42 0v120h870v388q0 94 -26 155.5t-68.5 97.5t-96.5 50t-111 14q-49 0 -96.5 -7t-89 -17.5t-74.5 -22.5t-52 -21l-52 108q23 11 61.5 25t87 26t103.5 20.5t112 8.5q53 0 104.5 -8.5t98.5 -28t87 -52t69.5 -81t46 -114.5t16.5 -153v-388h202v-120h-1192zM314 -322 q0 32 22 54t54 22q31 0 53 -22t22 -54q0 -31 -22 -53t-53 -22q-32 0 -54 22t-22 53zM449 -537q0 32 22 54t54 22q31 0 53 -22t22 -54q0 -31 -22 -53t-53 -22q-32 0 -54 22t-22 53zM583 -322q0 32 22 54t54 22q31 0 53 -22t22 -54q0 -31 -22 -53t-53 -22q-32 0 -54 22t-22 53 z" />
<glyph unicode="&#xfdf2;" horiz-adv-x="1956" arabic-form="isolated" d="M105 285v225q0 90 33 168.5t90.5 137.5t134.5 93t164 34t164 -34.5t134.5 -93t91 -136t32.5 -163.5v-396h322v1220h120v-1220h172q35 0 65.5 13t53.5 36t36 53t13 65v1053h120v-1053q0 -59 -22.5 -111.5t-61.5 -91.5t-91.5 -61.5t-112.5 -22.5h-734v516q1 62 -23 118 t-65 98t-96.5 66.5t-117.5 24.5q-63 0 -118 -24.5t-96 -67t-64.5 -99.5t-23.5 -122v-225q0 -34 13 -64t35.5 -52.5t52.5 -35.5t65 -13h268v-120h-268q-59 0 -111 22.5t-91 61t-61.5 90.5t-22.5 111z" />
<glyph unicode="&#xfdfa;" horiz-adv-x="1320" arabic-form="isolated" d="M105 420q0 54 47 89q-7 -12 -13.5 -21t-8.5 -12q-4 -9 -7 -18.5t-3 -19.5q-1 -16 13 -16q9 0 17 8q5 8 2 21l7 -7q2 -23 -9 -38q-5 -7 -10 -10t-14 -3q-21 0 -21 27zM110 870q2 30 16.5 57.5t45.5 50.5q-6 -10 -11 -19t-11 -20q-16 -24 -19 -45q0 -11 5.5 -17.5 t13.5 -6.5q10 0 17 11q5 6 6 12.5t0 15.5l5 -9q3 -31 -6 -47q-15 -18 -28 -14q-19 0 -26.5 7t-7.5 24zM120 650q-6 59 0 159h18q-5 -53 -5 -85t5 -40q18 -93 56 -93q26 0 52 50q11 28 22 53.5t24 54.5q22 45 48 66t59 20q17 0 51 -59q8 -21 25.5 -32t48.5 -11q15 -2 32.5 5 t32.5 21l-12 122q-30 19 -50 77q-5 -50 -30.5 -75t-72.5 -22q-34 1 -51 29t-14 84q0 2 1.5 11.5t7.5 28.5q2 17 3 31.5t-1 25.5q-11 -15 -18.5 -35t-12.5 -46q-4 -16 -7 -33.5t-6 -35.5q-18 -48 -46 -48q-20 0 -34 36q-6 17 -9.5 36t-1.5 39q0 32 2 50.5t4 26.5l14 -3 q-2 -13 -3 -27t-1 -29q0 -86 38 -87q13 0 40 89q14 51 33.5 81t42.5 41l-6 -39q-4 -22 -7.5 -46.5t-5.5 -57.5q-4 -69 50 -69q15 -2 28 4t27 17q12 14 19 28.5t7 30.5l-16 128l19 42q7 -18 9 -29.5t2 -19.5l7 -56t11 -75q5 -12 10.5 -22.5t11.5 -20.5q0 13 -1 17l8 54 q18 -7 30 -91q1 -1 7 -1q29 0 43 23q-11 26 -17 44t-11 27q-10 29 -16 52t-6 40l-10 23l14 42l45 -72l-1 -16q-9 4 -14 10t-8 13l-2 -11q20 -51 32 -86t12 -54q-2 -40 -18.5 -60t-45.5 -22l10 -88q19 18 32 28.5t24 14.5q-2 -35 9.5 -53.5t37.5 -18.5q51 -3 78 37 q12 18 18.5 40t3.5 49l-34 274q-1 6 -1.5 21t-0.5 36l4 54q11 -3 18 -25.5t13 -63.5l28 -276q13 -139 74 -142q-21 27 -30.5 60.5t-9.5 73.5q2 49 40 79q16 12 33.5 17t37.5 5q75 -2 126 -60v-5q-11 7 -29.5 14t-48.5 14q-37 3 -91 -15q-20 -6 -33.5 -11t-16.5 -10 q0 -17 27 -75q17 -32 38 -50t44 -18q15 -1 36.5 3.5t47.5 16.5q29 10 49 21t36 22l-22 -49q-26 -28 -97 -54q-82 -34 -139 -31q-28 0 -46 59q-23 60 -45 60q0 -20 -9 -40.5t-21 -41.5q-35 -47 -73 -44q-5 0 -9 0.5t-9 2.5q3 -8 4.5 -16.5t3.5 -16.5l19 -158q24 9 46 26 q15 15 32 31t33 31q2 -8 4.5 -15.5t3.5 -15.5q8 -28 21 -39q94 154 175 153q44 -2 66 -22t20 -61q-2 -36 -17.5 -63t-44.5 -47q-29 -19 -61 -27t-70 -7q-32 3 -69 15l-28 -54h-11q4 3 9 19.5t13 46.5q-7 5 -16 20t-20 40q-32 -67 -76 -82l7 -64q6 -38 22 -59.5t46 -23.5 q42 0 93 39q32 24 49 37t19 13l5 -3q-2 -4 -2 -23q-2 -11 0.5 -18.5t6.5 -15.5q5 -5 12 -9t17 -4q31 0 54 35q7 11 12 19.5t9 14.5t8 11h5q0 -16 1 -26.5t6 -18.5q22 -22 29 -22q16 0 34 15q0 8 -2.5 14.5t-11.5 14.5l22 50q8 -8 12 -21t4 -34q-2 -15 -7 -29.5t-10 -28.5 q-21 -30 -49 -30q-16 2 -27.5 11.5t-16.5 31.5q-31 -63 -82 -63q-11 2 -20 7t-17 15q-16 19 -16 45q-15 -11 -28 -20.5t-27 -20.5q-27 -17 -47 -27t-35 -10q-19 0 -44 30q-25 25 -44 25l-45 -25q-43 -29 -43 -58q0 -3 2 -10.5t7 -19.5q46 15 73 15q22 0 40 -26 q14 -28 14 -64q-1 -69 -47 -66q-13 0 -27.5 6t-31.5 17q-18 14 -29.5 27.5t-18.5 31.5q-11 -5 -32.5 -18t-48.5 -36q-19 -20 -40 -39.5t-41 -41.5q-29 -23 -49.5 -34.5t-35.5 -11.5q-43 4 -63.5 24t-18.5 62q5 107 59 178q-8 -1 -15 -1h-15q-147 5 -142 154q0 45 11.5 87 t33.5 83l12 -3q-9 -20 -17.5 -51t-19.5 -69q-1 -53 27 -93q35 -55 110 -58q32 0 71.5 9.5t87.5 29.5q111 52 111 66q0 9 -152 47l18 54l5 -1q29 -3 51.5 8.5t39.5 34.5q19 23 26 48.5t5 51.5l-11 87q-47 -34 -80 -34q-27 1 -47.5 13.5t-32.5 39.5q-3 8 -8.5 16t-10.5 16 q-9 17 -24 17q-56 4 -99 -90q-11 -23 -21.5 -47.5t-20.5 -46.5q-22 -59 -54 -59q-11 3 -23.5 11.5t-23.5 26.5q-11 16 -19.5 33.5t-12.5 39.5zM217 131q0 53 45 85q-8 -14 -13 -20.5t-7 -8.5q-10 -20 -10 -37q-1 -19 14 -19q7 0 12 6q3 5 4.5 11t-0.5 11l4 -5 q1 -13 -0.5 -22.5t-7.5 -14.5q-4 -6 -9 -10.5t-10 -4.5q-22 5 -22 29zM224 1105q5 53 49 85q-5 -6 -9 -14t-9 -16q-7 -8 -10 -17.5t-3 -20.5q0 -16 13 -19q7 0 15 8q5 10 5 25l3 -7q3 -21 -6 -38q-12 -15 -21 -14q-27 0 -27 28zM304 446q0 11 11 11q13 0 22.5 -12t17.5 -41 q0 11 3 21.5t8 24.5q10 22 22 22q5 0 15 -10v-18q-2 -4 -10 -4q0 3 -2.5 5t-4.5 6q-11 0 -31 -69h-7q-3 41 -19 44q-25 0 -25 20zM311 549q1 26 12 48t35 40q-10 -12 -15.5 -19.5t-7.5 -11.5q-10 -17 -10 -36q0 -20 16 -20q4 -1 13 8q6 10 4 23l5 -4q4 -28 -8 -40 q-5 -5 -10.5 -9t-10.5 -3q-23 0 -23 24zM325 99q-3 -37 9 -57.5t36 -20.5q32 -1 86 47q19 18 37.5 36t37.5 33q9 8 30.5 21.5t57.5 32.5q0 8 -0.5 14.5t-0.5 11.5q1 45 59 98q26 27 39.5 46t9.5 32l-8 62h-13q-46 2 -93 82q-2 -20 -13.5 -39t-35.5 -39q15 -5 31.5 -11.5 t34.5 -15.5q2 -5 2.5 -12t0.5 -18q-2 -18 -8 -35t-19 -36q-12 -9 -32 -19.5t-49 -22.5q-80 -50 -145 -57q-12 -19 -18.5 -29.5t-8.5 -15.5q-14 -30 -20.5 -51t-6.5 -37zM409 1229v10l24 37h3q-2 -10 -4 -19.5t-2 -19.5q0 -28 12 -28q11 0 16 4t5 16q-1 6 -1.5 16.5 t-2.5 21.5l12 13q0 -79 20 -68q5 -2 8 2t3 10q0 7 -3 18.5t-6 24.5l11 16q5 -19 8 -34t3 -25q-3 -35 -24 -34q-18 0 -23 20q-1 -23 -31 -23q-18 0 -18 37v19zM414 583l34 38l42 -34l-31 -42zM428 1379l2 26q40 -17 41 -48q3 -48 -14 -57l-4 1q10 18 3 44q-4 22 -28 34z M462 -93q1 26 13.5 48.5t33.5 39.5q-17 -20 -19 -30q-6 -9 -9 -19.5t-3 -19.5q0 -19 15 -19q2 0 6 3t7 7q2 3 3 9.5t0 11.5l4 -7q6 -22 -6 -37q-8 -11 -24 -11q-21 2 -21 24zM490 596l35 36l39 -34l-34 -39zM560 -5q1 36 4.5 63.5t12.5 47.5h11q-3 -14 -5.5 -32.5 t-5.5 -43.5q0 -53 40 -89q14 -11 31 -17.5t38 -6.5q77 -5 163 61q35 28 56.5 48.5t25.5 33.5q0 5 -1 10t-4 10q-9 19 -30 22l-44 4q-42 3 -41 50q2 45 16 67t37 22q31 -2 62 -49q26 -47 25 -103q0 -29 -6.5 -50.5t-17.5 -37.5q-15 -23 -32 -40t-36 -31q-51 -37 -93 -56 t-74 -18q-32 2 -57 13t-45 29q-15 19 -24 42.5t-6 50.5zM624 740l12 -90q6 -72 24.5 -106.5t47.5 -34.5h3l-21 141q-2 6 -3.5 16t-4.5 26l6 22q-5 4 -7.5 6.5t-4.5 5.5q-14 12 -18 22.5t-2 19.5q-9 -7 -16 -14.5t-16 -13.5zM662 1385l22 54l53 -113v-23l-27 28q-2 0 -2 -5 v-12l49 -319q6 -29 2 -61t-16 -68h-7q1 34 -1 67t-9 64l-49 338q-1 5 -3.5 13.5t-7.5 17.5q-4 11 -4 19zM678 159q27 -39 82 -40q-14 48 -37 48q-27 2 -45 -8zM833 159h69q-1 5 -6 9.5t-13 9.5q-8 9 -14 12t-11 3q-18 0 -25 -34zM896 1269q0 17 10 17q18 0 41 -56 q10 70 30 70q4 -2 9 -5t9 -8l-1 -20q-3 -1 -8 -1q-1 2 -4 6t-10 6q-10 0 -25 -71h-7q-3 31 -16 39q-7 0 -12 2.5t-8 4.5q-8 5 -8 16zM904 523q5 -3 17 -4.5t31 -4.5q32 0 61.5 6t60.5 17q22 10 36.5 19.5t21.5 16.5q-14 29 -38 41.5t-59 12.5q-17 2 -36.5 -7t-41.5 -28 q-19 -17 -31 -34t-22 -35zM990 75q4 2 19 23t45 59q20 38 38 41q10 -3 29 -3q0 12 17 34q3 -17 10 -13q4 1 5.5 4t1.5 5q0 12 1 16q5 -1 6 4q15 -46 -5 -49q3 2 -2 2.5t-19 2.5q7 -23 -20 -29h-20q-4 0 -7 1q-9 -1 -26 -31q-11 -17 -27 -33.5t-41 -31.5zM1002 1069 q15 5 39 19t56 34l-62 3q4 0 -2 -2.5t-20 -7.5q0 11 11 22q5 6 9 10t11 4l77 -1q3 -40 -34 -63q-33 -18 -71 -18h-14zM1160 688q0 2 2 8.5t10 17.5q43 -33 42 -90q0 -32 -20 -52v16q5 11 6 18t1 12q0 11 -4.5 23t-14.5 20q-22 25 -22 27z" />
<glyph unicode="&#xfdfb;" horiz-adv-x="4918" arabic-form="isolated" d="M105 191q0 38 12.5 76t41.5 80q5 7 27 36t60 77l10 -8q-113 -142 -113 -215q0 -84 70 -84q71 0 227 138q72 63 136 98t123 41q-6 27 -9 51.5t-3 44.5q0 33 7 67t20 72q39 90 92 90q28 0 66 -64q20 -32 39.5 -49t39.5 -17q38 0 136 40q29 12 57 24l56 24q-9 2 -22 6 q-11 3 -27.5 8t-39.5 12q-30 11 -52 15.5t-36 4.5q-18 0 -26 -8h-129v12q0 23 9.5 41.5t30.5 31.5q29 26 67 26q27 0 58.5 -7t67.5 -19q54 -20 86.5 -31t46.5 -16q68 -17 137 -24.5t142 -7.5q0 -5 -18 -50q-24 -42 -28 -42q-32 6 -64 8t-61 2q-24 0 -56.5 -7.5t-77.5 -24.5 q-42 -17 -72.5 -32t-48.5 -29q-14 -14 -37 -52.5t-53 -101.5q-77 -162 -77 -261q0 -37 22 -57q20 -22 55 -22q18 0 47 17.5t71 51.5q30 26 58 51t57 51q36 27 92.5 63t134.5 82q54 32 83.5 56.5t34.5 39.5q-2 21 -3.5 44t-4.5 46l-104 659q-3 13 -12 38q-5 12 -6.5 21 t-1.5 16l28 110l100 -203v-30l-46 46l86 -560q6 -42 6 -95q0 -72 -11 -124.5t-35 -85.5q-46 -63 -46 -145q0 -27 8.5 -48.5t23.5 -39.5q17 -20 35.5 -28.5t42.5 -8.5q97 0 324 189q261 223 365 265q-2 3 -25 19.5t-67 47.5q-32 24 -49 49.5t-17 52.5q0 64 46 92 q31 17 104 17q30 0 87.5 -7.5t143.5 -25.5q97 -18 162.5 -29t100.5 -13q0 -5 -4 -16t-12 -32q-8 -20 -12.5 -31.5t-7.5 -14.5q-74 -27 -151 -60t-162 -73q32 -47 32 -94q0 -15 -10 -38q-13 -26 -18 -26t-16.5 8.5t-31.5 23.5q-18 15 -31 28t-22 24q-11 -11 -25.5 -36.5 t-32.5 -67.5q-21 -54 -31.5 -100.5t-10.5 -90.5q0 -77 70 -77q57 0 203 149q35 33 92.5 71t140.5 80q66 30 100 57t37 47q-3 21 -5 44t-7 46l-99 659q-3 8 -6 17t-8 21t-6.5 21t-1.5 16l26 110l101 -203v-30l-45 46l85 -560q2 -17 3 -37.5t1 -44.5q0 -215 -76 -251 q-37 -19 -73 -37l-72 -36q-41 -21 -78.5 -50.5t-76.5 -67.5q-159 -161 -247 -161q-46 0 -72 38q-26 40 -26 95q0 42 11 91.5t35 106.5q18 43 36.5 79t41.5 68q-51 -26 -113 -69t-138 -106q-100 -85 -158.5 -132.5t-76.5 -60.5q-65 -44 -119 -67t-100 -23q-33 0 -59 13.5 t-43 40.5q-36 51 -36 125q0 80 36 157q-55 -29 -106 -59q-43 -27 -81.5 -53t-71.5 -53q-38 -32 -73.5 -62.5t-73.5 -60.5q-42 -36 -77 -53t-61 -17q-24 0 -42 9t-33 27q-18 21 -28 47.5t-10 61.5q0 56 20.5 123t58.5 146q23 39 45 79t45 81q-30 -18 -56.5 -26t-49.5 -8 q-22 0 -43 12.5t-38 39.5q-33 47 -60 47q-29 0 -58 -32q-34 -33 -34 -55q0 -21 17 -43.5t49 -46.5q29 -18 56 -35t54 -35q0 -18 -4 -41t-12 -52q-28 14 -58 32q-49 23 -84 23q-45 0 -93.5 -18t-99.5 -57l-82 -70t-85 -70q-89 -73 -165 -73q-40 0 -70 30q-32 31 -32 95z M207 510q0 29 11.5 61t31.5 66q23 36 44.5 58.5t41.5 33.5l2 -8q-42 -42 -62 -77.5t-20 -63.5q0 -40 26 -40q8 0 12 4q3 2 6.5 3t5.5 3l4 -6q-17 -41 -32 -62.5t-32 -21.5q-39 0 -39 50zM223 295v4q156 61 262 165q35 38 74 98q27 45 36 45q16 0 28 -31q5 -11 6.5 -20 t1.5 -14q0 -38 -16 -38q-21 0 -56 26q-9 -18 -22.5 -40t-33.5 -48q-46 -62 -116 -97.5t-164 -49.5zM414 835q0 49 38 49q48 0 81 -103q30 183 80 183q26 0 26 -54q0 -26 -18 -50q-15 18 -26 18q-14 0 -23.5 -18t-18.5 -53q-3 -24 -7 -49.5t-9 -52.5q-6 21 -18 47.5t-32 62.5 q-2 -17 -9 -23.5t-20 -6.5q-16 0 -30 14t-14 36zM533 123q8 21 15.5 43.5t18.5 48.5q26 -6 49 -17.5t47 -26.5q6 17 12 35.5t12 36.5q28 -8 52.5 -18.5t42.5 -25.5q0 -10 -12 -46q-12 -35 -20 -45q-29 14 -50 25.5t-39 17.5q-8 -26 -16 -43t-14 -28q-71 37 -98 43zM579 560 q6 -9 17 -13.5t25 -6.5q-5 9 -11.5 16.5t-12.5 13.5l-10.5 -3.5t-7.5 -6.5zM663 1046q49 14 80.5 29t48.5 32q-33 12 -74 12q-8 0 -12 -2t-5.5 -3t-3.5 -1q0 47 19.5 66.5t61.5 13.5q23 -3 47.5 -10.5t48.5 -19.5q-3 -15 -15.5 -33t-32.5 -41q-6 -6 -22 -13t-40 -18 t-43 -15.5t-30 -4.5q-12 0 -28 8zM842 928l4 50q214 217 528 265l-10 -42q-159 -30 -289.5 -98t-232.5 -175zM1131 484l10 38q36 30 59 30q15 0 32 -1.5t32 -6.5l-22 -38q-11 -6 -21.5 -15.5t-24.5 -26.5q-11 -14 -18 -25.5t-7 -20.5q0 -26 47 -26q62 0 100 52 q-5 -20 -14 -37.5t-26 -34.5q-15 -14 -33.5 -21.5t-36.5 -7.5q-61 0 -61 59q0 14 15.5 39.5t43.5 64.5q-5 0 -10 1t-10 1q-14 0 -29 -6t-26 -18zM1135 1004v24q6 18 18 36q6 13 14.5 22t18.5 15q-5 -61 0 -91t24 -30q14 0 22 10t8 30q0 9 -4 27t-10 46l22 30q8 -12 13 -32.5 t7 -48.5q3 -40 30 -40q18 0 18 24q-2 8 -5 19l-5 22.5t-8 31.5l20 42q14 -38 21 -70t7 -61q0 -72 -50 -72q-20 0 -46 26q-6 -23 -20 -34.5t-32 -11.5q-33 0 -39 48q0 20 -1 38t-1 38q-6 -8 -11 -17.5t-11 -20.5zM1352 64q0 55 44 125q45 71 83 92l2 -6q-39 -42 -60 -78.5 t-21 -63.5q0 -41 27 -41q4 0 12 4q3 3 5 4q1 1 3 2l8 -4q-32 -88 -63 -88q-40 0 -40 54zM1603 293q0 55 44 125q22 35 43 58t42 34l2 -6q-83 -86 -83 -144q0 -39 27 -39q8 0 14 6t8 6l4 -6q-15 -44 -30 -65t-33 -21q-38 0 -38 52zM1651 1324l29 110l100 -203v-30l-48 46 l104 -653q2 -11 2 -30v-46q0 -32 -8.5 -67.5t-23.5 -74.5h-16q3 44 0 97.5t-14 116.5l-104 659q0 8 -2.5 17t-6.5 21q-8 12 -10 21t-2 16zM1937 554q8 21 15.5 43t16.5 48q30 -8 54 -19t42 -25q0 -9 -12 -45q-12 -35 -20 -46q-35 18 -58.5 28.5t-37.5 15.5zM1939 1233 q40 -26 74 -84q30 -54 30 -103q0 -27 -4 -49.5t-10 -42.5q68 -19 68 -94q0 -18 -5 -34t-17 -33q-20 -32 -54 -32q-52 0 -52 58q0 6 5.5 26t16.5 53q24 66 24 110q0 39 -17.5 71t-50.5 58q0 2 -2.5 25.5t-5.5 70.5zM1993 850q0 -35 32 -35q29 0 56 35q-9 18 -25 30.5 t-39 21.5q-11 -14 -17.5 -26t-6.5 -26zM2063 88q0 52 48 127q21 35 40.5 57t42.5 33v-6q-81 -89 -81 -144q0 -40 28 -40q3 0 5.5 1t5.5 3q2 1 2.5 2t2.5 2q1 1 3 2l6 -6q-29 -85 -61 -85q-42 0 -42 54zM2145 934l31 70q47 50 110.5 93t144.5 84q81 39 158.5 65t154.5 37 l-36 -60q-79 -15 -157 -42t-156 -68q-76 -38 -138.5 -82t-111.5 -97zM2174 1223q94 30 126 62q-17 5 -34.5 7.5t-37.5 2.5h-5.5t-6.5 -2q-3 0 -5.5 -1t-4.5 -1q0 86 82 77q47 -9 94 -30q-5 -15 -17 -31.5t-35 -39.5q-8 -11 -56 -32q-49 -20 -74 -20q-5 0 -11.5 1.5 t-14.5 6.5zM2204 739q44 -27 73.5 -47t46.5 -35q12 -11 29 -25.5t36 -32.5l236 102q-101 24 -180 35t-141 11q-33 0 -58 -1.5t-42 -6.5zM2457 976v24q5 8 8 16.5t8 17.5q8 14 16.5 23t19.5 17q-15 -122 26 -122q28 0 28 40q0 18 -12 72l18 31q9 -12 14 -32t8 -49 q2 -20 9 -31t21 -11q19 0 19 26q0 2 -4.5 20t-12.5 54l19 41q24 -74 24 -133q0 -68 -47 -68q-9 0 -21.5 6t-24.5 18q-6 -21 -19 -33.5t-33 -12.5q-18 0 -27.5 12.5t-12.5 35.5q-2 18 -2 37v39q-5 -8 -10.5 -17t-11.5 -21zM2545 492l12 36q32 32 60 32q14 0 29 -2.5t32 -5.5 l-22 -40q-11 -5 -21.5 -14.5t-23.5 -23.5q-14 -17 -21 -28t-7 -20q0 -14 14 -21t37 -7q29 0 54.5 13t45.5 39q-5 -20 -15 -36.5t-27 -33.5q-31 -31 -67 -31q-62 0 -62 61q0 27 60 102q-5 2 -10.5 2h-11.5q-31 0 -56 -22zM2873 92q0 54 44 127q44 67 84 92l2 -10 q-82 -85 -82 -142q0 -40 28 -40q8 0 12 4q9 6 10 6l4 -4q-15 -42 -31 -64.5t-33 -22.5q-20 0 -29 14t-9 40zM2967 1324l26 110l102 -203v-30l-46 46l99 -653q2 -11 3 -30t1 -46q0 -32 -7.5 -67.5t-24.5 -74.5h-15q4 44 -0.5 97.5t-15.5 116.5l-100 659q-3 8 -6 17t-8 21 t-6.5 21t-1.5 16zM3019 522q0 35 3 55.5t9 31.5q2 -2 8 -14q-6 -57 12 -141q11 -65 30 -95t47 -30q24 0 42 41q14 34 14 62q3 23 8 56.5t10 77.5q3 17 10.5 41.5t21.5 57.5q15 32 28.5 54t27.5 34q10 0 22 -30q5 -14 7.5 -24t2.5 -18q0 2 -3 -14.5t-11 -51.5 q-8 -31 -12 -61.5t-4 -57.5q0 -26 4.5 -48t15.5 -40q12 -26 29.5 -37t41.5 -11q29 0 53.5 9t44.5 29q40 37 40 90q0 23 -7.5 58t-24.5 83q-30 96 -30 118q0 -4 18 68q2 0 5 -0.5t9 -3.5q24 -32 47.5 -108t44.5 -197q6 -40 43 -68q18 -15 36 -21.5t36 -6.5q43 0 64 24 q-15 60 -74 209q-27 69 -39.5 105t-12.5 39q0 4 18 75q8 -8 31.5 -34t64.5 -73v-16q-6 0 -16.5 3.5t-25.5 12.5q45 -113 69.5 -182.5t24.5 -96.5q0 -30 -6.5 -55t-21.5 -49q-31 -55 -86 -55q-32 0 -56.5 11.5t-41.5 31.5q-14 -14 -30 -35t-33 -48q-20 -33 -29 -61t-9 -51 q0 -32 18 -57q18 -24 52 -24q21 0 66.5 24t114.5 77q88 66 136.5 101.5t54.5 40.5q15 8 28 13.5t24 10.5q15 5 31 9t33 4q0 8 -1.5 20.5t-6.5 29.5q-6 33 -6 38q0 30 11 62t30 68q42 77 90 77q8 0 20.5 -16t33.5 -46q35 -63 95 -63q55 0 88 36q54 59 68 67v-7.5t-2 -16.5 q-6 -18 -6 -29q0 -23 11 -33.5t31 -10.5q42 0 63 36q15 32 25.5 52.5t16.5 26.5q6 -48 34 -71q25 -28 54 -28q18 0 40 16v14q-20 37 -44 96.5t-54 142.5q-5 10 -9.5 21.5t-10.5 25.5q-2 5 -4.5 10.5t-5.5 11.5q-3 9 -5.5 14t-2.5 10q0 3 4 13t10 27q8 15 11 26t5 14 q9 -8 33 -39t65 -87q-5 -5 -5.5 -7.5t-0.5 -4.5l-38 16q-2 -2 -2 -8q5 -9 12 -22q13 -24 38 -67q24 -47 36 -85t12 -73q0 -25 -5.5 -50.5t-14.5 -48.5q-14 -29 -32.5 -44.5t-41.5 -15.5q-20 0 -56 24q-18 9 -29 20t-17 22q-3 -12 -24 -42q-33 -34 -73 -34q-15 0 -26.5 3 t-17.5 11q-11 25 -26 46q-70 -70 -119 -70q-27 0 -47 8t-35 26q-11 11 -36 58q-12 34 -34 34q-18 0 -31 -11t-25 -31q-18 -33 -18 -50q0 -58 166 -141q6 -3 0 -50q-9 -41 -14 -44q-17 8 -32 14l-30 12q-17 9 -33.5 12.5t-30.5 3.5q-45 0 -93 -17t-102 -55 q-42 -32 -83.5 -65.5t-85.5 -65.5q-93 -72 -155 -72q-38 0 -76 38q-40 43 -40 103q0 104 110 227q0 1 -12 22q-8 8 -11 15t-5 15h-4q-17 -45 -30.5 -73.5t-27.5 -43.5q-17 -23 -40 -33.5t-52 -10.5q-135 0 -135 221q0 18 1 38t3 46q1 8 1.5 15t1.5 12t1 10 q-12 -14 -20.5 -44t-13.5 -71q-5 -35 -8 -68l-6 -66q-11 -55 -29 -82t-41 -27q-63 0 -99 111q-14 42 -21 81.5t-7 78.5zM3144 74q0 8 12.5 19.5t39.5 25.5q48 33 54 52q-37 9 -40 26q-2 8 0.5 18t7.5 24q12 25 22 28l-10 16l4 10q6 0 16 -3t24 -11l4 -6q12 -8 24.5 -22.5 t29.5 -35.5q9 -46 -22 -52q-8 -2 -19 -1.5t-25 5.5q-3 -20 -12 -36.5t-24 -26.5q-15 -9 -33.5 -21t-38.5 -27q5 -5 15.5 -8.5t30.5 -3.5q23 0 46 13t50 37q33 32 51 67l8 -4q-64 -151 -165 -151q-50 0 -50 68zM3154 944q0 61 52 145q26 38 49.5 64t46.5 38l2 -8 q-92 -98 -92 -163q0 -46 30 -46q8 0 14 6q5 8 10 8l6 -4q-36 -100 -70 -100q-48 0 -48 60zM3226 221q8 -9 16.5 -12.5t17.5 -3.5q9 16 6 26q0 13 -14 10q-17 -3 -26 -20zM3280 199q5 -5 10.5 -5.5t13.5 1.5q8 0 12 4q-5 5 -13.5 11.5t-20.5 18.5zM3332 950v24q5 11 8 20 t8 18q8 12 18 21t19 15q-15 -118 24 -118q28 0 28 36q0 9 -2.5 28t-7.5 46l20 32q8 -14 12.5 -34.5t7.5 -47.5q3 -40 28 -40q20 0 20 22q0 4 -18 76l20 43q14 -38 21 -71.5t7 -63.5q0 -35 -13 -53.5t-37 -18.5q-11 0 -21.5 7t-24.5 21q-14 -46 -52 -46q-18 0 -28.5 11 t-13.5 37q-2 18 -2 37v39q-4 -9 -8.5 -18.5t-12.5 -21.5zM3363 1316l6 72q38 -24 60 -87q22 -53 22 -94q0 -35 -8 -73.5t-22 -81.5q3 25 4.5 49.5t1.5 53.5q0 102 -64 161zM3589 976q46 15 76.5 30t48.5 30q-33 12 -70 12h-5.5t-6.5 -2t-5.5 -2h-4.5q0 87 80 75 q41 -6 92 -30q-5 -11 -17.5 -29.5t-32.5 -39.5q-5 -5 -18.5 -12t-37.5 -16q-24 -12 -42 -17t-32 -5q-5 0 -11.5 1.5t-13.5 4.5zM3762 1324l30 110l99 -203v-30l-48 46l102 -653q0 -11 1 -30t1 -46q0 -42 -5.5 -77t-16.5 -65h-24q3 44 -1 97.5t-13 116.5l-103 659 q-2 8 -5.5 17t-8.5 21q-3 12 -5.5 21t-2.5 16zM3935 46q0 29 11.5 59t34.5 66t43 59.5t41 34.5l2 -8q-41 -44 -61.5 -79t-20.5 -64q0 -40 28 -40q2 0 5.5 1.5t6.5 4.5t5 4q1 1 3 2l6 -4q-29 -88 -62 -88q-42 0 -42 52zM3997 918q0 30 12 65.5t38 74.5q46 81 97 105l2 -6 q-95 -98 -95 -163q0 -46 29 -46q5 0 8 1t8 3q5 3 6.5 4.5l3.5 3.5l6 -6q-33 -98 -69 -98q-46 0 -46 62zM4088 72v2q65 27 121 61.5t104 75.5q39 35 62.5 51.5t29.5 16.5q7 0 18 -8q15 -6 18 -6q21 0 46 34l4 -2q-9 -22 10 -22q18 0 24 32l6 4q6 -29 -6 -50q-9 -22 -26 -22 q-9 0 -15.5 4t-12.5 10q-24 -30 -38 -30q-5 0 -11.5 2.5t-14.5 5.5q-16 8 -30 8q-8 0 -46 -44q-41 -54 -103 -87q-29 -14 -62.5 -22.5t-77.5 -13.5zM4248 1097q0 50 36 50q44 0 77 -99q17 88 35.5 131.5t42.5 43.5t24 -52q0 -22 -16 -48q-16 16 -26 16q-23 0 -38 -64 q-5 -25 -9 -49t-7 -50q-6 20 -18 44.5t-30 58.5q-6 -29 -29 -29q-8 0 -14 4t-14 10q-6 8 -10 16t-4 17zM4311 777q92 30 126 59q-30 12 -70 12q-3 0 -6 -1t-6 -1q-5 -2 -8 -2h-6q0 86 82 74q46 -3 94 -30q-5 -12 -16.5 -29.5t-31.5 -37.5q-8 -5 -22 -13t-38 -19 q-48 -18 -70 -18q-10 0 -28 6zM4461 32l14 56q138 144 338 171l-18 -52q-102 -20 -185.5 -64t-148.5 -111zM4608 317q8 20 15.5 42t18.5 49q29 -8 52.5 -19.5t43.5 -26.5q0 -6 -3 -16.5t-9 -28.5q-8 -18 -13.5 -29l-8.5 -17q-33 18 -57.5 29.5t-38.5 16.5z" />
<glyph unicode="&#x621;" horiz-adv-x="1119" arabic-form="isolated" d="M105 0v120h264q-27 34 -48 74.5t-35.5 84.5t-22.5 91t-8 94q0 78 22 151t70 130.5t125 93t187 37.5h172v-120h-170q-74 -4 -127.5 -30t-89 -66.5t-52.5 -91t-17 -104.5q0 -63 16 -124.5t44 -110.5t66.5 -79t82.5 -30h430v-120h-909z" />
<glyph unicode="&#x622;" horiz-adv-x="330" arabic-form="isolated" d="M-19 1502q26 42 54 60.5t58 18.5q16 0 35 -6t50 -21q19 -9 34 -13t29 -1.5t28.5 13.5t32.5 33l50 -69q-21 -23 -37 -38t-29 -23.5t-25.5 -12t-25.5 -3.5q-28 0 -83 26q-20 10 -33.5 16t-24 5.5t-21 -8t-24.5 -25.5l-18 -21zM105 0h120v1340h-120v-1340z" />
<glyph unicode="&#x622;" horiz-adv-x="403" arabic-form="final" d="M-19 1502q26 42 54 60.5t58 18.5q16 0 35 -6t50 -21q19 -9 34 -13t29 -1.5t28.5 13.5t32.5 33l50 -69q-21 -23 -37 -38t-29 -23.5t-25.5 -12t-25.5 -3.5q-28 0 -83 26q-20 10 -33.5 16t-24 5.5t-21 -8t-24.5 -25.5l-18 -21zM105 287v1053h120v-1053q0 -35 13 -65t36 -53 t53.5 -36t65.5 -13h52v-120h-52q-60 0 -112.5 22.5t-91.5 61.5t-61.5 91.5t-22.5 111.5z" />
<glyph unicode="&#x623;" horiz-adv-x="330" arabic-form="isolated" d="M12 1440v94h49q-16 40 -16 80q0 30 8.5 58t27 50t48.5 35.5t73 14.5h81v-95h-80h1q-34 -1 -49.5 -20.5t-15.5 -42.5q0 -15 3 -29t8 -25.5t12.5 -18.5t15.5 -7h142v-94h-308zM105 0v1340h120v-1340h-120z" />
<glyph unicode="&#x623;" horiz-adv-x="403" arabic-form="final" d="M12 1440v94h49q-16 40 -16 80q0 30 8.5 58t27 50t48.5 35.5t73 14.5h81v-95h-80h1q-34 -1 -49.5 -20.5t-15.5 -42.5q0 -15 3 -29t8 -25.5t12.5 -18.5t15.5 -7h142v-94h-308zM105 287v1053h120v-1053q0 -35 13 -65t36 -53t53.5 -36t65.5 -13h52v-120h-52 q-60 0 -112.5 22.5t-91.5 61.5t-61.5 91.5t-22.5 111.5z" />
<glyph unicode="&#x624;" horiz-adv-x="1055" arabic-form="isolated" d="M105 284v226q0 90 33 168.5t90 137.5t134 93t164 34t164.5 -34.5t135 -93t90.5 -136.5t33 -164v-491q0 -87 -33 -163.5t-90.5 -134t-134 -90.5t-163.5 -33h-275v120h275q59 0 111.5 21.5t93 59t65.5 88t30 108.5h-438q-59 0 -111 22.5t-90.5 61t-61 90t-22.5 110.5z M225 284q0 -34 13 -64t35.5 -52t52.5 -35t64 -13h439v395q0 62 -23.5 118t-65 98t-96.5 67t-118 25t-117.5 -24.5t-95.5 -67t-64.5 -99.5t-23.5 -122v-226zM355 1093v94h49q-16 40 -16 80q0 30 8.5 58t27 50t48.5 35.5t73 14.5h81v-95h-80h1q-34 -1 -49.5 -20.5t-15.5 -42.5 q0 -15 3 -29t8 -25.5t12.5 -18.5t15.5 -7h142v-94h-308z" />
<glyph unicode="&#x624;" horiz-adv-x="1109" arabic-form="final" d="M105 284v226q0 90 33 168.5t90.5 137.5t134 93t163.5 34t164.5 -34.5t135 -93t90.5 -136.5t33 -164v-395h202v-120h-203q-5 -83 -39.5 -155.5t-91 -126t-131 -84.5t-158.5 -31h-275v120h275q60 0 112.5 21.5t92.5 59t65 88t30 108.5h-438q-59 0 -111 22.5t-90.5 61 t-61 90t-22.5 110.5zM225 284q0 -34 13 -64t35.5 -52t52.5 -35t64 -13h439v395q0 62 -23.5 118t-65 98t-96.5 67t-118 25q-62 0 -117 -24.5t-96 -67t-64.5 -99.5t-23.5 -122v-226zM355 1093v94h49q-16 40 -16 80q0 30 8.5 58t27 50t48.5 35.5t73 14.5h81v-95h-80h1 q-34 -1 -49.5 -20.5t-15.5 -42.5q0 -15 3 -29t8 -25.5t12.5 -18.5t15.5 -7h142v-94h-308z" />
<glyph unicode="&#x625;" horiz-adv-x="330" arabic-form="isolated" d="M12 -338h49q-16 40 -16 80q0 30 8.5 58t27 50t48.5 35.5t73 14.5h81v-95h-80h1q-34 -1 -49.5 -20.5t-15.5 -42.5q0 -15 3 -29t8 -25.5t12.5 -18.5t15.5 -7h142v-94h-308v94zM105 0v1340h120v-1340h-120z" />
<glyph unicode="&#x625;" horiz-adv-x="403" arabic-form="final" d="M12 -338v-94h308v94h-142q-8 0 -15.5 7t-12.5 18.5t-8 25.5t-3 29q0 23 15.5 42.5t49.5 20.5h-1h80v95h-81q-43 -1 -73 -14.5t-48.5 -35.5t-27 -50t-8.5 -58q0 -40 16 -80h-49zM105 287v1053h120v-1053q0 -35 13 -65t36 -53t53.5 -36t65.5 -13h52v-120h-52 q-60 0 -112.5 22.5t-91.5 61.5t-61.5 91.5t-22.5 111.5z" />
<glyph unicode="&#x626;" horiz-adv-x="1299" arabic-form="isolated" d="M110 856v94h49q-16 40 -16 80q0 30 8.5 58t27 50t48.5 35.5t73 14.5h81v-95h-80h1q-34 -1 -49.5 -20.5t-15.5 -42.5q0 -15 3 -29t8 -25.5t12.5 -18.5t15.5 -7h142v-94h-308zM224 33v723h120v-723q0 -78 31.5 -136t82.5 -96.5t116.5 -58t133.5 -19.5q69 0 134.5 19.5 t117 58.5t83 97.5t31.5 136.5q0 44 -10.5 80.5t-31 62.5t-51.5 40.5t-71 14.5h-285v420q0 60 23 113t62 92t91.5 62t112.5 23h220v-120h-220q-35 0 -65.5 -13.5t-53.5 -36.5t-36.5 -54t-13.5 -66v-300h165q70 0 123.5 -23t89 -65t53.5 -100.5t18 -129.5q0 -108 -42 -189 t-110 -135t-155.5 -81t-178.5 -27t-178 27t-155 80.5t-109.5 134t-41.5 188.5z" />
<glyph unicode="&#x626;" horiz-adv-x="1241" arabic-form="final" d="M110 856v94h49q-16 40 -16 80q0 30 8.5 58t27 50t48.5 35.5t73 14.5h81v-95h-80h1q-34 -1 -49.5 -20.5t-15.5 -42.5q0 -15 3 -29t8 -25.5t12.5 -18.5t15.5 -7h142v-94h-308zM224 32v724h120v-724q0 -78 31.5 -136t82.5 -96.5t116.5 -58t133.5 -19.5q64 0 126.5 17.5 t113 52t84 87t40.5 121.5h-364v120h575v-120h-91q-7 -99 -50.5 -174t-111 -124.5t-151.5 -74.5t-171 -25q-91 0 -178 27t-155 80.5t-109.5 134t-41.5 188.5z" />
<glyph unicode="&#x626;" horiz-adv-x="523" arabic-form="initial" d="M-42 0v120h172q34 0 65 13t53.5 36t36 53.5t13.5 65.5v655h120v-655q0 -60 -23 -112.5t-62 -91.5t-91.5 -61.5t-111.5 -22.5h-172zM170 1093v94h49q-16 40 -16 80q0 30 8.5 58t27 50t48.5 35.5t73 14.5h81v-95h-80h1q-34 -1 -49.5 -20.5t-15.5 -42.5q0 -15 3 -29t8 -25.5 t12.5 -18.5t15.5 -7h142v-94h-308z" />
<glyph unicode="&#x626;" horiz-adv-x="578" arabic-form="medial" d="M-42 0v120h340v823h120v-823h202v-120h-662zM170 1093v94h49q-16 40 -16 80q0 30 8.5 58t27 50t48.5 35.5t73 14.5h81v-95h-80h1q-34 -1 -49.5 -20.5t-15.5 -42.5q0 -15 3 -29t8 -25.5t12.5 -18.5t15.5 -7h142v-94h-308z" />
<glyph unicode="&#x627;" horiz-adv-x="330" arabic-form="isolated" d="M105 0v1340h120v-1340h-120z" />
<glyph unicode="&#x627;" horiz-adv-x="403" arabic-form="final" d="M105 287v1053h120v-1053q0 -35 13 -65t36 -53t53.5 -36t65.5 -13h52v-120h-52q-60 0 -112.5 22.5t-91.5 61.5t-61.5 91.5t-22.5 111.5z" />
<glyph unicode="&#x628;" horiz-adv-x="1456" arabic-form="isolated" d="M105 424v332h120v-332q0 -63 24 -118.5t65 -96.5t97 -65t119 -24h489q35 0 65.5 13t53 36t35.5 53.5t13 65.5v655h120v-655q0 -60 -22.5 -112.5t-61.5 -91.5t-91 -61.5t-112 -22.5h-489q-88 0 -165.5 33.5t-135 91t-91 134.5t-33.5 165zM630 -320q0 31 22 53t54 22 q31 0 53 -22t22 -53q0 -32 -22 -54t-53 -22q-32 0 -54 22t-22 54z" />
<glyph unicode="&#x628;" horiz-adv-x="1466" arabic-form="final" d="M105 424v332h120v-332q0 -63 24 -118.5t65 -96.5t96.5 -65t118.5 -24h657v823h120v-823h202v-120h-979q-88 0 -165 33.5t-134.5 91t-91 134.5t-33.5 165zM630 -320q0 31 22 53t54 22q31 0 53 -22t22 -53q0 -32 -22 -54t-53 -22q-32 0 -54 22t-22 54z" />
<glyph unicode="&#x628;" horiz-adv-x="523" arabic-form="initial" d="M-42 0v120h172q34 0 65 13t53.5 36t36 53.5t13.5 65.5v655h120v-655q0 -60 -23 -112.5t-62 -91.5t-91.5 -61.5t-111.5 -22.5h-172zM267 -320q0 31 22 53t54 22q31 0 53 -22t22 -53q0 -32 -22 -54t-53 -22q-32 0 -54 22t-22 54z" />
<glyph unicode="&#x628;" horiz-adv-x="578" arabic-form="medial" d="M-42 0v120h340v823h120v-823h202v-120h-662zM197 -320q0 31 22 53t54 22q31 0 53 -22t22 -53q0 -32 -22 -54t-53 -22q-32 0 -54 22t-22 54z" />
<glyph unicode="&#x629;" horiz-adv-x="1046" arabic-form="isolated" d="M105 286v229q0 88 33 166t89.5 136.5t132.5 92t162 33.5t162.5 -34t133.5 -92t89.5 -135t32.5 -162v-230q0 -65 -22.5 -118.5t-62 -91.5t-92 -59t-112.5 -21h-258q-61 0 -113.5 20.5t-91.5 58t-61 90t-22 117.5zM225 286q0 -38 13 -68.5t35.5 -52t53 -33.5t66.5 -12h258 q35 0 66 12t54 34.5t36 54t13 69.5v230q0 61 -23.5 116.5t-64 96.5t-95 65.5t-115.5 24.5q-62 0 -116 -24t-94 -66t-63.5 -98t-23.5 -120v-229zM306 1264q0 31 22 53t54 22q31 0 53 -22t22 -53q0 -32 -22 -54t-53 -22q-32 0 -54 22t-22 54zM575 1264q0 31 22 53t54 22 q31 0 53 -22t22 -53q0 -32 -22 -54t-53 -22q-32 0 -54 22t-22 54z" />
<glyph unicode="&#x629;" horiz-adv-x="1109" arabic-form="final" d="M105 285v225q0 90 33 168.5t90.5 137.5t134.5 93t164 34t164 -34.5t134.5 -93t91 -136t32.5 -163.5v-396h202v-120h-322v516q1 62 -23 118t-65 98t-96.5 66.5t-117.5 24.5q-63 0 -118 -24.5t-96 -67t-64.5 -99.5t-23.5 -122v-225q0 -34 13 -64t35.5 -52.5t52.5 -35.5 t65 -13h268v-120h-268q-59 0 -111 22.5t-91 61t-61.5 90.5t-22.5 111zM316 1264q0 31 22 53t54 22q31 0 53 -22t22 -53q0 -32 -22 -54t-53 -22q-32 0 -54 22t-22 54zM585 1264q0 31 22 53t54 22q31 0 53 -22t22 -53q0 -32 -22 -54t-53 -22q-32 0 -54 22t-22 54z" />
<glyph unicode="&#x62a;" horiz-adv-x="1411" arabic-form="isolated" d="M105 424v332h120v-332q0 -63 24 -118.5t65 -96.5t97 -65t119 -24h489q35 0 65.5 13t53 36t35.5 53.5t13 65.5v655h120v-655q0 -60 -22.5 -112.5t-61.5 -91.5t-91 -61.5t-112 -22.5h-489q-88 0 -165.5 33.5t-135 91t-91 134.5t-33.5 165zM496 1264q0 31 22 53t54 22 q31 0 53 -22t22 -53q0 -32 -22 -54t-53 -22q-32 0 -54 22t-22 54zM765 1264q0 31 22 53t54 22q31 0 53 -22t22 -53q0 -32 -22 -54t-53 -22q-32 0 -54 22t-22 54z" />
<glyph unicode="&#x62a;" horiz-adv-x="1466" arabic-form="final" d="M105 424v332h120v-332q0 -63 24 -118.5t65 -96.5t96.5 -65t118.5 -24h657v823h120v-823h202v-120h-979q-88 0 -165 33.5t-134.5 91t-91 134.5t-33.5 165zM496 1264q0 31 22 53t54 22q31 0 53 -22t22 -53q0 -32 -22 -54t-53 -22q-32 0 -54 22t-22 54zM765 1264q0 31 22 53 t54 22q31 0 53 -22t22 -53q0 -32 -22 -54t-53 -22q-32 0 -54 22t-22 54z" />
<glyph unicode="&#x62a;" horiz-adv-x="523" arabic-form="initial" d="M-42 0v120h172q34 0 65 13t53.5 36t36 53.5t13.5 65.5v655h120v-655q0 -60 -23 -112.5t-62 -91.5t-91.5 -61.5t-111.5 -22.5h-172zM-3 1264q0 31 22 53t54 22q31 0 53 -22t22 -53q0 -32 -22 -54t-53 -22q-32 0 -54 22t-22 54zM266 1264q0 31 22 53t54 22q31 0 53 -22 t22 -53q0 -32 -22 -54t-53 -22q-32 0 -54 22t-22 54z" />
<glyph unicode="&#x62a;" horiz-adv-x="578" arabic-form="medial" d="M-42 0v120h340v823h120v-823h202v-120h-662zM-1 1264q0 31 22 53t54 22q31 0 53 -22t22 -53q0 -32 -22 -54t-53 -22q-32 0 -54 22t-22 54zM268 1264q0 31 22 53t54 22q31 0 53 -22t22 -53q0 -32 -22 -54t-53 -22q-32 0 -54 22t-22 54z" />
<glyph unicode="&#x62b;" horiz-adv-x="1411" arabic-form="isolated" d="M105 424v332h120v-332q0 -63 24 -118.5t65 -96.5t97 -65t119 -24h489q35 0 65.5 13t53 36t35.5 53.5t13 65.5v655h120v-655q0 -60 -22.5 -112.5t-61.5 -91.5t-91 -61.5t-112 -22.5h-489q-88 0 -165.5 33.5t-135 91t-91 134.5t-33.5 165zM498 1265q0 31 22 53t54 22 q31 0 53 -22t22 -53q0 -32 -22 -54t-53 -22q-32 0 -54 22t-22 54zM633 1480q0 31 22 53t54 22q31 0 53 -22t22 -53q0 -32 -22 -54t-53 -22q-32 0 -54 22t-22 54zM767 1265q0 31 22 53t54 22q31 0 53 -22t22 -53q0 -32 -22 -54t-53 -22q-32 0 -54 22t-22 54z" />
<glyph unicode="&#x62b;" horiz-adv-x="1466" arabic-form="final" d="M105 424v332h120v-332q0 -63 24 -118.5t65 -96.5t96.5 -65t118.5 -24h657v823h120v-823h202v-120h-979q-88 0 -165 33.5t-134.5 91t-91 134.5t-33.5 165zM498 1265q0 31 22 53t54 22q31 0 53 -22t22 -53q0 -32 -22 -54t-53 -22q-32 0 -54 22t-22 54zM633 1480q0 31 22 53 t54 22q31 0 53 -22t22 -53q0 -32 -22 -54t-53 -22q-32 0 -54 22t-22 54zM767 1265q0 31 22 53t54 22q31 0 53 -22t22 -53q0 -32 -22 -54t-53 -22q-32 0 -54 22t-22 54z" />
<glyph unicode="&#x62b;" horiz-adv-x="523" arabic-form="initial" d="M-42 0v120h172q34 0 65 13t53.5 36t36 53.5t13.5 65.5v655h120v-655q0 -60 -23 -112.5t-62 -91.5t-91.5 -61.5t-111.5 -22.5h-172zM-1 1264q0 31 22 53t54 22q31 0 53 -22t22 -53q0 -32 -22 -54t-53 -22q-32 0 -54 22t-22 54zM134 1479q0 31 22 53t54 22q31 0 53 -22 t22 -53q0 -32 -22 -54t-53 -22q-32 0 -54 22t-22 54zM268 1264q0 31 22 53t54 22q31 0 53 -22t22 -53q0 -32 -22 -54t-53 -22q-32 0 -54 22t-22 54z" />
<glyph unicode="&#x62b;" horiz-adv-x="578" arabic-form="medial" d="M-42 0v120h340v823h120v-823h202v-120h-662zM-1 1264q0 31 22 53t54 22q31 0 53 -22t22 -53q0 -32 -22 -54t-53 -22q-32 0 -54 22t-22 54zM134 1479q0 31 22 53t54 22q31 0 53 -22t22 -53q0 -32 -22 -54t-53 -22q-32 0 -54 22t-22 54zM268 1264q0 31 22 53t54 22 q31 0 53 -22t22 -53q0 -32 -22 -54t-53 -22q-32 0 -54 22t-22 54z" />
<glyph unicode="&#x62c;" horiz-adv-x="1033" arabic-form="isolated" d="M105 -137q0 48 15.5 94.5t46 82.5t76.5 58t107 22h289q35 0 66 13t54 35.5t36 52t13 63.5v224q0 94 -26 155.5t-68.5 97.5t-96.5 50t-111 14q-49 0 -96.5 -7t-88.5 -17.5t-74 -22.5t-52 -21l-52 108q23 11 61.5 25t86.5 26t103 20.5t112 8.5q53 0 104.5 -8.5t98.5 -28 t87 -52t69.5 -81t46 -114.5t16.5 -153v-224q0 -59 -22.5 -110.5t-62 -90t-92 -61t-112.5 -22.5h-289q-31 0 -54.5 -11.5t-39 -31t-23.5 -44t-8 -50.5t8 -51t23.5 -44.5t39 -31.5t54.5 -12h240v-120h-240q-61 0 -107 22.5t-76.5 59t-46 83t-15.5 94.5zM778 -320q0 31 22 53 t54 22q31 0 53 -22t22 -53q0 -32 -22 -54t-53 -22q-32 0 -54 22t-22 54z" />
<glyph unicode="&#x62c;" horiz-adv-x="1089" arabic-form="final" d="M105 -137q0 48 15.5 94.5t46 82.5t76.5 58t107 22h459v388q0 94 -26 155.5t-68.5 97.5t-96.5 50t-111 14q-49 0 -96.5 -7t-89 -17.5t-74.5 -22.5t-52 -21l-52 108q23 11 61.5 25t87 26t103.5 20.5t112 8.5q53 0 104.5 -8.5t98.5 -28t87 -52t69.5 -81t46 -114.5t16.5 -153 v-388h202v-120h-781q-31 0 -54.5 -11.5t-39 -31t-23.5 -44t-8 -50.5t8 -51t23.5 -44.5t39 -31.5t54.5 -12h240v-120h-240q-61 0 -107 22.5t-76.5 59t-46 83t-15.5 94.5zM778 -320q0 31 22 53t54 22q31 0 53 -22t22 -53q0 -32 -22 -54t-53 -22q-32 0 -54 22t-22 54z" />
<glyph unicode="&#x62c;" horiz-adv-x="1050" arabic-form="initial" d="M-42 0v120h697q35 0 66 13t54 35.5t36.5 52t13.5 63.5v224q0 94 -26 155.5t-68.5 97.5t-96.5 50t-111 14q-49 0 -96.5 -7t-89 -17.5t-74.5 -22.5t-52 -21l-52 108q23 11 61.5 25t87 26t103.5 20.5t112 8.5q53 0 104.5 -8.5t98.5 -28t87 -52t69.5 -81t46 -114.5t16.5 -153 v-224q0 -59 -23 -110.5t-62 -90t-92 -61t-113 -22.5h-697zM450 -320q0 31 22 53t54 22q31 0 53 -22t22 -53q0 -32 -22 -54t-53 -22q-32 0 -54 22t-22 54z" />
<glyph unicode="&#x62c;" horiz-adv-x="1108" arabic-form="medial" d="M-42 0v120h870v388q0 94 -26 155.5t-68.5 97.5t-96.5 50t-111 14q-49 0 -96.5 -7t-89 -17.5t-74.5 -22.5t-52 -21l-52 108q23 11 61.5 25t87 26t103.5 20.5t112 8.5q53 0 104.5 -8.5t98.5 -28t87 -52t69.5 -81t46 -114.5t16.5 -153v-388h202v-120h-1192zM450 -320 q0 31 22 53t54 22q31 0 53 -22t22 -53q0 -32 -22 -54t-53 -22q-32 0 -54 22t-22 54z" />
<glyph unicode="&#x62d;" horiz-adv-x="1033" arabic-form="isolated" d="M105 -137q0 48 15.5 94.5t46 82.5t76.5 58t107 22h289q35 0 66 13t54 35.5t36 52t13 63.5v224q0 94 -26 155.5t-68.5 97.5t-96.5 50t-111 14q-49 0 -96.5 -7t-88.5 -17.5t-74 -22.5t-52 -21l-52 108q23 11 61.5 25t86.5 26t103 20.5t112 8.5q53 0 104.5 -8.5t98.5 -28 t87 -52t69.5 -81t46 -114.5t16.5 -153v-224q0 -59 -22.5 -110.5t-62 -90t-92 -61t-112.5 -22.5h-289q-31 0 -54.5 -11.5t-39 -31t-23.5 -44t-8 -50.5t8 -51t23.5 -44.5t39 -31.5t54.5 -12h458v-120h-458q-61 0 -107 22.5t-76.5 59t-46 83t-15.5 94.5z" />
<glyph unicode="&#x62d;" horiz-adv-x="1089" arabic-form="final" d="M105 -137q0 48 15.5 94.5t46 82.5t76.5 58t107 22h459v388q0 94 -26 155.5t-68.5 97.5t-96.5 50t-111 14q-49 0 -96.5 -7t-89 -17.5t-74.5 -22.5t-52 -21l-52 108q23 11 61.5 25t87 26t103.5 20.5t112 8.5q53 0 104.5 -8.5t98.5 -28t87 -52t69.5 -81t46 -114.5t16.5 -153 v-388h202v-120h-781q-31 0 -54.5 -11.5t-39 -31t-23.5 -44t-8 -50.5t8 -51t23.5 -44.5t39 -31.5t54.5 -12h459v-120h-459q-61 0 -107 22.5t-76.5 59t-46 83t-15.5 94.5z" />
<glyph unicode="&#x62d;" horiz-adv-x="1050" arabic-form="initial" d="M-42 0v120h697q35 0 66 13t54 35.5t36.5 52t13.5 63.5v224q0 94 -26 155.5t-68.5 97.5t-96.5 50t-111 14q-49 0 -96.5 -7t-89 -17.5t-74.5 -22.5t-52 -21l-52 108q23 11 61.5 25t87 26t103.5 20.5t112 8.5q53 0 104.5 -8.5t98.5 -28t87 -52t69.5 -81t46 -114.5t16.5 -153 v-224q0 -59 -23 -110.5t-62 -90t-92 -61t-113 -22.5h-697z" />
<glyph unicode="&#x62d;" horiz-adv-x="1108" arabic-form="medial" d="M-42 0v120h870v388q0 94 -26 155.5t-68.5 97.5t-96.5 50t-111 14q-49 0 -96.5 -7t-89 -17.5t-74.5 -22.5t-52 -21l-52 108q23 11 61.5 25t87 26t103.5 20.5t112 8.5q53 0 104.5 -8.5t98.5 -28t87 -52t69.5 -81t46 -114.5t16.5 -153v-388h202v-120h-1192z" />
<glyph unicode="&#x62e;" horiz-adv-x="1033" arabic-form="isolated" d="M105 -137q0 48 15.5 94.5t46 82.5t76.5 58t107 22h289q35 0 66 13t54 35.5t36 52t13 63.5v224q0 94 -26 155.5t-68.5 97.5t-96.5 50t-111 14q-49 0 -96.5 -7t-88.5 -17.5t-74 -22.5t-52 -21l-52 108q23 11 61.5 25t86.5 26t103 20.5t112 8.5q53 0 104.5 -8.5t98.5 -28 t87 -52t69.5 -81t46 -114.5t16.5 -153v-224q0 -59 -22.5 -110.5t-62 -90t-92 -61t-112.5 -22.5h-289q-31 0 -54.5 -11.5t-39 -31t-23.5 -44t-8 -50.5t8 -51t23.5 -44.5t39 -31.5t54.5 -12h458v-120h-458q-61 0 -107 22.5t-76.5 59t-46 83t-15.5 94.5zM430 1264q0 31 22 53 t54 22q31 0 53 -22t22 -53q0 -32 -22 -54t-53 -22q-32 0 -54 22t-22 54z" />
<glyph unicode="&#x62e;" horiz-adv-x="1089" arabic-form="final" d="M105 -137q0 48 15.5 94.5t46 82.5t76.5 58t107 22h459v388q0 94 -26 155.5t-68.5 97.5t-96.5 50t-111 14q-49 0 -96.5 -7t-89 -17.5t-74.5 -22.5t-52 -21l-52 108q23 11 61.5 25t87 26t103.5 20.5t112 8.5q53 0 104.5 -8.5t98.5 -28t87 -52t69.5 -81t46 -114.5t16.5 -153 v-388h202v-120h-781q-31 0 -54.5 -11.5t-39 -31t-23.5 -44t-8 -50.5t8 -51t23.5 -44.5t39 -31.5t54.5 -12h459v-120h-459q-61 0 -107 22.5t-76.5 59t-46 83t-15.5 94.5zM430 1264q0 31 22 53t54 22q31 0 53 -22t22 -53q0 -32 -22 -54t-53 -22q-32 0 -54 22t-22 54z" />
<glyph unicode="&#x62e;" horiz-adv-x="1050" arabic-form="initial" d="M-42 0v120h697q35 0 66 13t54 35.5t36.5 52t13.5 63.5v224q0 94 -26 155.5t-68.5 97.5t-96.5 50t-111 14q-49 0 -96.5 -7t-89 -17.5t-74.5 -22.5t-52 -21l-52 108q23 11 61.5 25t87 26t103.5 20.5t112 8.5q53 0 104.5 -8.5t98.5 -28t87 -52t69.5 -81t46 -114.5t16.5 -153 v-224q0 -59 -23 -110.5t-62 -90t-92 -61t-113 -22.5h-697zM446 1264q0 31 22 53t54 22q31 0 53 -22t22 -53q0 -32 -22 -54t-53 -22q-32 0 -54 22t-22 54z" />
<glyph unicode="&#x62e;" horiz-adv-x="1108" arabic-form="medial" d="M-42 0v120h870v388q0 94 -26 155.5t-68.5 97.5t-96.5 50t-111 14q-49 0 -96.5 -7t-89 -17.5t-74.5 -22.5t-52 -21l-52 108q23 11 61.5 25t87 26t103.5 20.5t112 8.5q53 0 104.5 -8.5t98.5 -28t87 -52t69.5 -81t46 -114.5t16.5 -153v-388h202v-120h-1192zM448 1264 q0 31 22 53t54 22q31 0 53 -22t22 -53q0 -32 -22 -54t-53 -22q-32 0 -54 22t-22 54z" />
<glyph unicode="&#x62f;" horiz-adv-x="872" arabic-form="isolated" d="M105 0v120h372q35 0 66 13t54 35t36.5 52t13.5 64v224q0 76 -27.5 135t-86 99t-150.5 61t-221 21v120q162 0 276.5 -28.5t187.5 -84t107 -137t34 -186.5v-224q0 -59 -23 -110.5t-62 -90t-92 -61t-113 -22.5h-372z" />
<glyph unicode="&#x62f;" horiz-adv-x="927" arabic-form="final" d="M105 0v120h542v388q0 76 -27 135t-85.5 99t-150.5 61t-222 21v120q162 0 277 -28.5t187.5 -84t106.5 -137t34 -186.5v-388h202v-120h-864z" />
<glyph unicode="&#x630;" horiz-adv-x="872" arabic-form="isolated" d="M105 0v120h372q35 0 66 13t54 35t36.5 52t13.5 64v224q0 76 -27.5 135t-86 99t-150.5 61t-221 21v120q162 0 276.5 -28.5t187.5 -84t107 -137t34 -186.5v-224q0 -59 -23 -110.5t-62 -90t-92 -61t-113 -22.5h-372zM393 1264q0 31 22 53t54 22q31 0 53 -22t22 -53 q0 -32 -22 -54t-53 -22q-32 0 -54 22t-22 54z" />
<glyph unicode="&#x630;" horiz-adv-x="927" arabic-form="final" d="M105 0v120h542v388q0 76 -27 135t-85.5 99t-150.5 61t-222 21v120q162 0 277 -28.5t187.5 -84t106.5 -137t34 -186.5v-388h202v-120h-864zM393 1264q0 31 22 53t54 22q31 0 53 -22t22 -53q0 -32 -22 -54t-53 -22q-32 0 -54 22t-22 54z" />
<glyph unicode="&#x631;" horiz-adv-x="487" arabic-form="isolated" d="M0 -286q51 22 90 48.5t67 55t46.5 58t30.5 56.5q27 64 27 131v880h120v-874q0 -91 -35 -176q-15 -37 -39 -76t-60 -77t-85.5 -73t-115.5 -63z" />
<glyph unicode="&#x631;" horiz-adv-x="540" arabic-form="final" d="M0 -286q51 22 89.5 48t66.5 54t46.5 56.5t30.5 55.5q27 62 27 128v887h120v-823h202v-120h-206q-6 -37 -22.5 -88.5t-53.5 -106.5t-98 -108t-156 -93z" />
<glyph unicode="&#x632;" horiz-adv-x="487" arabic-form="isolated" d="M0 -286q51 22 90 48.5t67 55t46.5 58t30.5 56.5q27 64 27 131v880h120v-874q0 -91 -35 -176q-15 -37 -39 -76t-60 -77t-85.5 -73t-115.5 -63zM243 1264q0 31 22 53t54 22q31 0 53 -22t22 -53q0 -32 -22 -54t-53 -22q-32 0 -54 22t-22 54z" />
<glyph unicode="&#x632;" horiz-adv-x="540" arabic-form="final" d="M0 -286q51 22 89.5 48t66.5 54t46.5 56.5t30.5 55.5q27 62 27 128v887h120v-823h202v-120h-206q-6 -37 -22.5 -88.5t-53.5 -106.5t-98 -108t-156 -93zM243 1264q0 31 22 53t54 22q31 0 53 -22t22 -53q0 -32 -22 -54t-53 -22q-32 0 -54 22t-22 54z" />
<glyph unicode="&#x633;" horiz-adv-x="2092" arabic-form="isolated" d="M105 25v731h120v-731q0 -75 31.5 -131.5t83 -94t117 -56.5t133.5 -19t133.5 19t116.5 56.5t82.5 94t31.5 131.5v918h121v-823h336v823h120v-823h166q35 0 66 13t54 35t36.5 51.5t13.5 63.5v660h120v-660q0 -59 -23 -110.5t-62 -89.5t-92 -60.5t-113 -22.5h-624 q-5 -99 -48.5 -173.5t-110.5 -124t-151.5 -74t-172.5 -24.5q-91 0 -178 26.5t-155.5 79t-110 131.5t-41.5 184z" />
<glyph unicode="&#x633;" horiz-adv-x="2146" arabic-form="final" d="M105 25v731h120v-731q0 -75 31.5 -131.5t82.5 -94t116.5 -56.5t134.5 -19q68 0 133.5 19t117 56.5t83 94t31.5 131.5v918h120v-823h336v823h120v-823h336v823h119v-823h202v-120h-1114q-5 -99 -48.5 -173.5t-111 -124t-152 -74t-172.5 -24.5q-91 0 -178 26.5t-155.5 79 t-110 131.5t-41.5 184z" />
<glyph unicode="&#x633;" horiz-adv-x="1467" arabic-form="initial" d="M-42 0v120h371v823h120v-823h336v823h120v-823h167q35 0 66 13t54 35t36.5 52t13.5 64v659h120v-659q0 -59 -23 -110.5t-62 -90t-92 -61t-113 -22.5h-1114z" />
<glyph unicode="&#x633;" horiz-adv-x="1522" arabic-form="medial" d="M-42 0v120h370v823h120v-823h336v823h120v-823h338v823h120v-823h202v-120h-1606z" />
<glyph unicode="&#x634;" horiz-adv-x="2092" arabic-form="isolated" d="M105 25v731h120v-731q0 -75 31.5 -131.5t83 -94t117 -56.5t133.5 -19t133.5 19t116.5 56.5t82.5 94t31.5 131.5v918h121v-823h336v823h120v-823h166q35 0 66 13t54 35t36.5 51.5t13.5 63.5v660h120v-660q0 -59 -23 -110.5t-62 -89.5t-92 -60.5t-113 -22.5h-624 q-5 -99 -48.5 -173.5t-110.5 -124t-151.5 -74t-172.5 -24.5q-91 0 -178 26.5t-155.5 79t-110 131.5t-41.5 184zM1261 1265q0 31 22 53t54 22q31 0 53 -22t22 -53q0 -32 -22 -54t-53 -22q-32 0 -54 22t-22 54zM1396 1480q0 31 22 53t54 22q31 0 53 -22t22 -53q0 -32 -22 -54 t-53 -22q-32 0 -54 22t-22 54zM1530 1265q0 31 22 53t54 22q31 0 53 -22t22 -53q0 -32 -22 -54t-53 -22q-32 0 -54 22t-22 54z" />
<glyph unicode="&#x634;" horiz-adv-x="2146" arabic-form="final" d="M105 25v731h120v-731q0 -75 31.5 -131.5t82.5 -94t116.5 -56.5t134.5 -19q68 0 133.5 19t116.5 56.5t82.5 94t31.5 131.5v918h121v-823h336v823h120v-823h336v823h119v-823h202v-120h-1114q-5 -99 -48.5 -173.5t-111 -124t-152 -74t-172.5 -24.5q-91 0 -178 26.5 t-155.5 79t-110 131.5t-41.5 184zM1261 1265q0 31 22 53t54 22q31 0 53 -22t22 -53q0 -32 -22 -54t-53 -22q-32 0 -54 22t-22 54zM1396 1480q0 31 22 53t54 22q31 0 53 -22t22 -53q0 -32 -22 -54t-53 -22q-32 0 -54 22t-22 54zM1530 1265q0 31 22 53t54 22q31 0 53 -22 t22 -53q0 -32 -22 -54t-53 -22q-32 0 -54 22t-22 54z" />
<glyph unicode="&#x634;" horiz-adv-x="1467" arabic-form="initial" d="M-42 0v120h371v823h120v-823h336v823h120v-823h167q35 0 66 13t54 35t36.5 52t13.5 64v659h120v-659q0 -59 -23 -110.5t-62 -90t-92 -61t-113 -22.5h-1114zM635 1265q0 31 22 53t54 22q31 0 53 -22t22 -53q0 -32 -22 -54t-53 -22q-32 0 -54 22t-22 54zM770 1480 q0 31 22 53t54 22q31 0 53 -22t22 -53q0 -32 -22 -54t-53 -22q-32 0 -54 22t-22 54zM904 1265q0 31 22 53t54 22q31 0 53 -22t22 -53q0 -32 -22 -54t-53 -22q-32 0 -54 22t-22 54z" />
<glyph unicode="&#x634;" horiz-adv-x="1522" arabic-form="medial" d="M-42 0v120h370v823h120v-823h336v823h120v-823h338v823h120v-823h202v-120h-1606zM634 1265q0 31 22 53t54 22q31 0 53 -22t22 -53q0 -32 -22 -54t-53 -22q-32 0 -54 22t-22 54zM769 1480q0 31 22 53t54 22q31 0 53 -22t22 -53q0 -32 -22 -54t-53 -22q-32 0 -54 22 t-22 54zM903 1265q0 31 22 53t54 22q31 0 53 -22t22 -53q0 -32 -22 -54t-53 -22q-32 0 -54 22t-22 54z" />
<glyph unicode="&#x635;" horiz-adv-x="2091" arabic-form="isolated" d="M105 25v731h120v-731q0 -75 31.5 -131.5t82.5 -94t116.5 -56.5t134.5 -19q68 0 133.5 19t117 56.5t83 94t31.5 131.5v918h120v-229q48 49 109.5 90.5t129.5 72.5t140 48.5t140 17.5q80 0 151 -23.5t124.5 -75t85 -134.5t31.5 -203v-224q0 -59 -23 -110.5t-62 -89.5 t-92 -60.5t-113 -22.5h-622q-5 -99 -48.5 -173.5t-111 -124t-152 -74t-172.5 -24.5q-91 0 -178 26.5t-155.5 79t-110 131.5t-41.5 184zM1075 120h621q35 0 66 13t54 35t36.5 51.5t13.5 63.5v224q0 87 -22 147t-59 97.5t-86.5 54.5t-104.5 17q-58 0 -119 -14t-119 -39 t-109 -59t-89 -73t-60.5 -82t-22.5 -86v-350z" />
<glyph unicode="&#x635;" horiz-adv-x="2145" arabic-form="final" d="M105 25v731h120v-731q0 -75 31.5 -131.5t83 -94t117 -56.5t133.5 -19t133.5 19t116.5 56.5t82.5 94t31.5 131.5v918h120v-229q48 49 109.5 90.5t129.5 72.5t140 48.5t140 17.5q80 0 151 -23.5t124.5 -75t85 -134.5t31.5 -203v-387h202v-120h-1114q-5 -99 -48 -173.5 t-110.5 -124t-152 -74t-172.5 -24.5q-91 0 -178 26.5t-155.5 79t-110 131.5t-41.5 184zM1074 120h791v387q0 87 -22 147t-59 97.5t-86.5 54.5t-104.5 17q-58 0 -119 -14t-119 -39t-109 -59t-89 -73t-60.5 -82t-22.5 -86v-350z" />
<glyph unicode="&#x635;" horiz-adv-x="1297" arabic-form="initial" d="M-42 0v120h202v823h120v-229q48 49 109.5 90.5t130 72.5t140 48.5t140.5 17.5q80 0 151 -23.5t124.5 -75t85 -134.5t31.5 -203v-224q0 -59 -23 -110.5t-62 -89.5t-92 -60.5t-113 -22.5h-944zM280 120h622q35 0 66 13t54 35t36.5 51.5t13.5 63.5v224q0 87 -22 147 t-59 97.5t-86.5 54.5t-104.5 17q-59 0 -120 -14t-119 -39t-109 -59t-89 -73t-60.5 -82t-22.5 -86v-350z" />
<glyph unicode="&#x635;" horiz-adv-x="1352" arabic-form="medial" d="M-42 0v120h203v823h120v-229q48 49 109.5 90.5t129.5 72.5t140 48.5t140 17.5q80 0 151 -23.5t124.5 -75t85 -134.5t31.5 -203v-387h202v-120h-1436zM281 120h791v387q0 87 -22 147t-59 97.5t-86.5 54.5t-104.5 17q-58 0 -119 -14t-119 -39t-109 -59t-89 -73t-60.5 -82 t-22.5 -86v-350z" />
<glyph unicode="&#x636;" horiz-adv-x="2091" arabic-form="isolated" d="M105 25v731h120v-731q0 -75 31.5 -131.5t82.5 -94t116.5 -56.5t134.5 -19q68 0 133.5 19t117 56.5t83 94t31.5 131.5v918h120v-229q48 49 109.5 90.5t129.5 72.5t140 48.5t140 17.5q80 0 151 -23.5t124.5 -75t85 -134.5t31.5 -203v-224q0 -59 -23 -110.5t-62 -89.5 t-92 -60.5t-113 -22.5h-622q-5 -99 -48.5 -173.5t-111 -124t-152 -74t-172.5 -24.5q-91 0 -178 26.5t-155.5 79t-110 131.5t-41.5 184zM1075 120h621q35 0 66 13t54 35t36.5 51.5t13.5 63.5v224q0 87 -22 147t-59 97.5t-86.5 54.5t-104.5 17q-58 0 -119 -14t-119 -39 t-109 -59t-89 -73t-60.5 -82t-22.5 -86v-350zM1395 1264q0 31 22 53t54 22q31 0 53 -22t22 -53q0 -32 -22 -54t-53 -22q-32 0 -54 22t-22 54z" />
<glyph unicode="&#x636;" horiz-adv-x="2145" arabic-form="final" d="M105 25v731h120v-731q0 -75 31.5 -131.5t83 -94t117 -56.5t133.5 -19t133.5 19t116.5 56.5t82.5 94t31.5 131.5v918h120v-229q48 49 109.5 90.5t129.5 72.5t140 48.5t140 17.5q80 0 151 -23.5t124.5 -75t85 -134.5t31.5 -203v-387h202v-120h-1114q-5 -99 -48 -173.5 t-110.5 -124t-152 -74t-172.5 -24.5q-91 0 -178 26.5t-155.5 79t-110 131.5t-41.5 184zM1074 120h791v387q0 87 -22 147t-59 97.5t-86.5 54.5t-104.5 17q-58 0 -119 -14t-119 -39t-109 -59t-89 -73t-60.5 -82t-22.5 -86v-350zM1395 1264q0 31 22 53t54 22q31 0 53 -22 t22 -53q0 -32 -22 -54t-53 -22q-32 0 -54 22t-22 54z" />
<glyph unicode="&#x636;" horiz-adv-x="1297" arabic-form="initial" d="M-42 0v120h202v823h120v-229q48 49 109.5 90.5t130 72.5t140 48.5t140.5 17.5q80 0 151 -23.5t124.5 -75t85 -134.5t31.5 -203v-224q0 -59 -23 -110.5t-62 -89.5t-92 -60.5t-113 -22.5h-944zM280 120h622q35 0 66 13t54 35t36.5 51.5t13.5 63.5v224q0 87 -22 147 t-59 97.5t-86.5 54.5t-104.5 17q-59 0 -120 -14t-119 -39t-109 -59t-89 -73t-60.5 -82t-22.5 -86v-350zM597 1264q0 31 22 53t54 22q31 0 53 -22t22 -53q0 -32 -22 -54t-53 -22q-32 0 -54 22t-22 54z" />
<glyph unicode="&#x636;" horiz-adv-x="1352" arabic-form="medial" d="M-42 0v120h203v823h120v-229q48 49 109.5 90.5t129.5 72.5t140 48.5t140 17.5q80 0 151 -23.5t124.5 -75t85 -134.5t31.5 -203v-387h202v-120h-1436zM281 120h791v387q0 87 -22 147t-59 97.5t-86.5 54.5t-104.5 17q-58 0 -119 -14t-119 -39t-109 -59t-89 -73t-60.5 -82 t-22.5 -86v-350zM597 1264q0 31 22 53t54 22q31 0 53 -22t22 -53q0 -32 -22 -54t-53 -22q-32 0 -54 22t-22 54z" />
<glyph unicode="&#x637;" horiz-adv-x="1402" arabic-form="isolated" d="M105 0v120h160v1220h120v-625q48 49 109 91t129.5 72.5t140 48t140.5 17.5q79 0 150.5 -23.5t125.5 -75.5t85.5 -135t31.5 -203v-223q0 -59 -23 -110.5t-62.5 -90t-92 -61t-112.5 -22.5h-902zM385 120h622q35 0 66 13t54 35t36.5 52t13.5 64v223q0 87 -22 147t-59 98 t-87 55t-105 17q-58 0 -119.5 -14t-119 -39t-108.5 -59t-89.5 -73t-60.5 -82t-22 -86v-351z" />
<glyph unicode="&#x637;" horiz-adv-x="1457" arabic-form="final" d="M105 0v120h160v1220h120v-625q48 49 109 91t129.5 72.5t140 48t140.5 17.5q79 0 150.5 -23.5t125.5 -75.5t85.5 -135t31.5 -203v-387h202v-120h-1394zM385 120h792v387q0 87 -22 147t-59 98t-87 55t-105 17q-58 0 -119.5 -14t-119 -39t-108.5 -59t-89.5 -73t-60.5 -82 t-22 -86v-351z" />
<glyph unicode="&#x637;" horiz-adv-x="1296" arabic-form="initial" d="M-42 0v120h202v1220h120v-626q48 49 109.5 91t130 73t140.5 48.5t140 17.5q80 0 151 -23.5t124.5 -75t84.5 -135t31 -203.5v-223q0 -59 -22.5 -110.5t-62 -90t-92 -61t-112.5 -22.5h-944zM280 120h622q35 0 66 13t54 35t36 52t13 64v223q0 87 -21.5 147.5t-58.5 98 t-86.5 54.5t-104.5 17q-58 0 -119.5 -14.5t-119 -39.5t-109 -58.5t-89.5 -73t-60.5 -82.5t-22.5 -86v-350z" />
<glyph unicode="&#x637;" horiz-adv-x="1352" arabic-form="medial" d="M-42 0v120h202v1220h120v-625q48 49 109 91t129.5 72.5t140 48t140.5 17.5q79 0 150.5 -23.5t125.5 -75.5t85.5 -135t31.5 -203v-387h202v-120h-1436zM280 120h792v387q0 87 -22 147t-59 98t-87 55t-105 17q-58 0 -119.5 -14t-119 -39t-108.5 -59t-89.5 -73t-60.5 -82 t-22 -86v-351z" />
<glyph unicode="&#x638;" horiz-adv-x="1402" arabic-form="isolated" d="M105 0v120h160v1220h120v-625q48 49 109 91t129.5 72.5t140 48t140.5 17.5q79 0 150.5 -23.5t125.5 -75.5t85.5 -135t31.5 -203v-223q0 -59 -23 -110.5t-62.5 -90t-92 -61t-112.5 -22.5h-902zM385 120h622q35 0 66 13t54 35t36.5 52t13.5 64v223q0 87 -22 147t-59 98 t-87 55t-105 17q-58 0 -119.5 -14t-119 -39t-108.5 -59t-89.5 -73t-60.5 -82t-22 -86v-351zM705 1264q0 31 22 53t54 22q31 0 53 -22t22 -53q0 -32 -22 -54t-53 -22q-32 0 -54 22t-22 54z" />
<glyph unicode="&#x638;" horiz-adv-x="1457" arabic-form="final" d="M105 0v120h160v1220h120v-625q48 49 109 91t129.5 72.5t140 48t140.5 17.5q79 0 150.5 -23.5t125.5 -75.5t85.5 -135t31.5 -203v-387h202v-120h-1394zM385 120h792v387q0 87 -22 147t-59 98t-87 55t-105 17q-58 0 -119.5 -14t-119 -39t-108.5 -59t-89.5 -73t-60.5 -82 t-22 -86v-351zM705 1264q0 31 22 53t54 22q31 0 53 -22t22 -53q0 -32 -22 -54t-53 -22q-32 0 -54 22t-22 54z" />
<glyph unicode="&#x638;" horiz-adv-x="1296" arabic-form="initial" d="M-42 0v120h202v1220h120v-626q48 49 109.5 91t130 73t140.5 48.5t140 17.5q80 0 151 -23.5t124.5 -75t84.5 -135t31 -203.5v-223q0 -59 -22.5 -110.5t-62 -90t-92 -61t-112.5 -22.5h-944zM280 120h622q35 0 66 13t54 35t36 52t13 64v223q0 87 -21.5 147.5t-58.5 98 t-86.5 54.5t-104.5 17q-58 0 -119.5 -14.5t-119 -39.5t-109 -58.5t-89.5 -73t-60.5 -82.5t-22.5 -86v-350zM599 1264q0 31 22 53t54 22q31 0 53 -22t22 -53q0 -32 -22 -54t-53 -22q-32 0 -54 22t-22 54z" />
<glyph unicode="&#x638;" horiz-adv-x="1352" arabic-form="medial" d="M-42 0v120h202v1220h120v-625q48 49 109 91t129.5 72.5t140 48t140.5 17.5q79 0 150.5 -23.5t125.5 -75.5t85.5 -135t31.5 -203v-387h202v-120h-1436zM280 120h792v387q0 87 -22 147t-59 98t-87 55t-105 17q-58 0 -119.5 -14t-119 -39t-108.5 -59t-89.5 -73t-60.5 -82 t-22 -86v-351zM599 1264q0 31 22 53t54 22q31 0 53 -22t22 -53q0 -32 -22 -54t-53 -22q-32 0 -54 22t-22 54z" />
<glyph unicode="&#x639;" horiz-adv-x="1182" arabic-form="isolated" d="M105 -137q0 48 15.5 94.5t47.5 82.5t80 58t114 22v403q0 75 24.5 141.5t67.5 119t100.5 90t123.5 55t136.5 12.5t140.5 -36l-50 -110q-70 31 -144.5 24t-136.5 -44.5t-102 -102t-40 -149.5v-403h595v-120h-727q-31 0 -54.5 -11.5t-39 -31t-23.5 -44t-8 -50.5t8 -51 t23.5 -44.5t39 -31.5t54.5 -12h555v-120h-555q-61 0 -107 22.5t-76.5 59t-46 83t-15.5 94.5z" />
<glyph unicode="&#x639;" horiz-adv-x="1122" arabic-form="final" d="M105 -137q0 48 15.5 94.5t48.5 82.5t84 58t122 22q-28 27 -57.5 60.5t-57 72.5t-51.5 83.5t-42 93.5q-17 47 -26.5 94t-9.5 93q0 67 21 126.5t69.5 104t128 70.5t195.5 26q117 0 196.5 -26.5t128.5 -71.5t70 -105.5t21 -128.5q0 -45 -8.5 -90t-23.5 -90 q-17 -50 -40.5 -94.5t-50.5 -83.5t-56.5 -72.5t-57.5 -61.5h440v-120h-814q-31 0 -54.5 -11.5t-39 -31t-23.5 -44t-8 -50.5t8 -51t23.5 -44.5t39 -31.5t54.5 -12h557v-120h-557q-61 0 -107 22.5t-76.5 59t-46 83t-15.5 94.5zM251 617q0 -36 7 -73t21 -73q23 -65 59.5 -121.5 t76 -101.5t76 -78t60.5 -51q24 17 59 47.5t72.5 75t73 101.5t59.5 127q11 35 18.5 72.5t7.5 69.5q0 43 -15 81.5t-49.5 67.5t-91.5 46t-140 17t-139 -16.5t-90.5 -45t-49.5 -66t-15 -79.5z" />
<glyph unicode="&#x639;" horiz-adv-x="979" arabic-form="initial" d="M-42 0v120h202v406q0 76 24.5 142.5t67.5 119.5t100.5 90t123.5 54t136.5 12t139.5 -36l-48 -110q-74 33 -149.5 25.5t-136.5 -46t-99.5 -104t-38.5 -147.5v-406h594v-120h-916z" />
<glyph unicode="&#x639;" horiz-adv-x="1153" arabic-form="medial" d="M-42 0v120h451q-29 27 -58.5 60.5t-57 72.5t-51.5 83t-42 93q-17 47 -26.5 94t-9.5 93q0 67 21 126.5t69.5 104t128 70.5t195.5 26q117 0 197 -26.5t129 -71.5t70 -105.5t21 -128.5q0 -45 -8.5 -90.5t-23.5 -90.5q-17 -49 -40.5 -93t-51 -83t-57 -72.5t-57.5 -61.5h438 v-120h-1237zM284 616q0 -36 7 -73t21 -73q23 -65 59.5 -121t75.5 -101t75.5 -77.5t60.5 -50.5q24 18 60.5 50.5t74.5 77t73.5 100.5t57.5 121q12 36 19 72t7 70q0 43 -15 81.5t-50 67.5t-91.5 46t-140.5 17q-83 0 -139 -16.5t-90.5 -45t-49.5 -66t-15 -79.5z" />
<glyph unicode="&#x63a;" horiz-adv-x="1182" arabic-form="isolated" d="M105 -137q0 48 15.5 94.5t47.5 82.5t80 58t114 22v403q0 75 24.5 141.5t67.5 119t100.5 90t123.5 55t136.5 12.5t140.5 -36l-50 -110q-70 31 -144.5 24t-136.5 -44.5t-102 -102t-40 -149.5v-403h595v-120h-727q-31 0 -54.5 -11.5t-39 -31t-23.5 -44t-8 -50.5t8 -51 t23.5 -44.5t39 -31.5t54.5 -12h555v-120h-555q-61 0 -107 22.5t-76.5 59t-46 83t-15.5 94.5zM702 1264q0 31 22 53t54 22q31 0 53 -22t22 -53q0 -32 -22 -54t-53 -22q-32 0 -54 22t-22 54z" />
<glyph unicode="&#x63a;" horiz-adv-x="1122" arabic-form="final" d="M105 -137q0 48 15.5 94.5t48.5 82.5t84 58t122 22q-28 27 -57.5 60.5t-57 72.5t-51.5 83.5t-42 93.5q-17 47 -26.5 94t-9.5 93q0 67 21 126.5t69.5 104t128 70.5t195.5 26q117 0 196.5 -26.5t128.5 -71.5t70 -105.5t21 -128.5q0 -45 -8.5 -90t-23.5 -90 q-17 -50 -40.5 -94.5t-50.5 -83.5t-56.5 -72.5t-57.5 -61.5h440v-120h-814q-31 0 -54.5 -11.5t-39 -31t-23.5 -44t-8 -50.5t8 -51t23.5 -44.5t39 -31.5t54.5 -12h557v-120h-557q-61 0 -107 22.5t-76.5 59t-46 83t-15.5 94.5zM251 617q0 -36 7 -73t21 -73q23 -65 59.5 -121.5 t76 -101.5t76 -78t60.5 -51q24 17 59 47.5t72.5 75t73 101.5t59.5 127q11 35 18.5 72.5t7.5 69.5q0 43 -15 81.5t-49.5 67.5t-91.5 46t-140 17t-139 -16.5t-90.5 -45t-49.5 -66t-15 -79.5zM470 1264q0 31 22 53t54 22q31 0 53 -22t22 -53q0 -32 -22 -54t-53 -22 q-32 0 -54 22t-22 54z" />
<glyph unicode="&#x63a;" horiz-adv-x="979" arabic-form="initial" d="M-42 0v120h202v406q0 76 24.5 142.5t67.5 119.5t100.5 90t123.5 54t136.5 12t139.5 -36l-48 -110q-74 33 -149.5 25.5t-136.5 -46t-99.5 -104t-38.5 -147.5v-406h594v-120h-916zM500 1264q0 31 22 53t54 22q31 0 53 -22t22 -53q0 -32 -22 -54t-53 -22q-32 0 -54 22 t-22 54z" />
<glyph unicode="&#x63a;" horiz-adv-x="1153" arabic-form="medial" d="M-42 0v120h451q-29 27 -58.5 60.5t-57 72.5t-51.5 83t-42 93q-17 47 -26.5 94t-9.5 93q0 67 21 126.5t69.5 104t128 70.5t195.5 26q117 0 197 -26.5t129 -71.5t70 -105.5t21 -128.5q0 -45 -8.5 -90.5t-23.5 -90.5q-17 -49 -40.5 -93t-51 -83t-57 -72.5t-57.5 -61.5h438 v-120h-1237zM284 616q0 -36 7 -73t21 -73q23 -65 59.5 -121t75.5 -101t75.5 -77.5t60.5 -50.5q24 18 60.5 50.5t74.5 77t73.5 100.5t57.5 121q12 36 19 72t7 70q0 43 -15 81.5t-50 67.5t-91.5 46t-140.5 17q-83 0 -139 -16.5t-90.5 -45t-49.5 -66t-15 -79.5zM502 1264 q0 31 22 53t54 22q31 0 53 -22t22 -53q0 -32 -22 -54t-53 -22q-32 0 -54 22t-22 54z" />
<glyph unicode="&#x641;" horiz-adv-x="1886" arabic-form="isolated" d="M105 428v328h120v-328q0 -64 24 -120t66 -98t98 -66t120 -24h412v406q0 89 33 165.5t89.5 132.5t132.5 88t162 32t162.5 -32t133.5 -88t89.5 -131t32.5 -161v-242q0 -66 -22.5 -119.5t-62 -91.5t-92.5 -58.5t-113 -20.5h-957q-89 0 -166.5 33.5t-136 92t-92 136 t-33.5 166.5zM1065 120h425q36 0 67 12t54 34.5t36 53.5t13 70v242q0 61 -23.5 114.5t-64 93t-95 62t-115.5 22.5q-62 0 -116 -22.5t-94 -62.5t-63.5 -94.5t-23.5 -118.5v-406zM1286 1264q0 31 22 53t54 22q31 0 53 -22t22 -53q0 -32 -22 -54t-53 -22q-32 0 -54 22t-22 54z " />
<glyph unicode="&#x641;" horiz-adv-x="1939" arabic-form="final" d="M105 428v328h120v-328q0 -64 24 -120t66 -98t98 -66t120 -24h412v406q0 89 33 165.5t89.5 132.5t132 88t161.5 32q87 0 163 -32t133 -88t89.5 -131t32.5 -161v-412h202v-120h-1448q-89 0 -167 33.5t-136 92t-91.5 136t-33.5 166.5zM1065 120h594v412q0 61 -23.5 114.5 t-64 93t-95 62t-115.5 22.5t-115 -22.5t-94 -62.5t-63.5 -94.5t-23.5 -118.5v-406zM1286 1264q0 31 22 53t54 22q31 0 53 -22t22 -53q0 -32 -22 -54t-53 -22q-32 0 -54 22t-22 54z" />
<glyph unicode="&#x641;" horiz-adv-x="1100" arabic-form="initial" d="M-42 0v120h202v406q0 89 33 165.5t89.5 132.5t132 88t161.5 32q87 0 163 -32t133 -88t90 -131t32 -161v-242q0 -66 -22.5 -119.5t-62 -91.5t-92 -58.5t-112.5 -20.5h-747zM280 120h425q35 0 66 12t54 34.5t36 53.5t13 70v242q1 61 -22.5 114.5t-64 93t-95 62t-116.5 22.5 q-61 0 -115 -22.5t-94 -62.5t-63.5 -94.5t-23.5 -118.5v-406zM498 1264q0 31 22 53t54 22q31 0 53 -22t22 -53q0 -32 -22 -54t-53 -22q-32 0 -54 22t-22 54z" />
<glyph unicode="&#x641;" horiz-adv-x="1155" arabic-form="medial" d="M-42 0v120h202v406q0 89 33 165.5t89.5 132.5t132 88t161.5 32q87 0 163 -32t133 -88t90 -131t33 -161v-412h202v-120h-1239zM280 120h595v412q0 61 -23.5 114.5t-64 93t-95 62t-116.5 22.5q-61 0 -115 -22.5t-94 -62.5t-63.5 -94.5t-23.5 -118.5v-406zM498 1264 q0 31 22 53t54 22q31 0 53 -22t22 -53q0 -32 -22 -54t-53 -22q-32 0 -54 22t-22 54z" />
<glyph unicode="&#x642;" horiz-adv-x="1416" arabic-form="isolated" d="M105 37v718h120v-718q0 -65 24.5 -122t67 -99.5t100 -67t122.5 -24.5h350q59 0 111.5 21.5t93 58.5t65.5 87.5t30 108.5h-438q-59 0 -111 22.5t-90.5 61t-61 90.5t-22.5 111v225q0 90 33 168.5t90 137.5t134 93t164 34t164.5 -34.5t135 -93t90.5 -136t33 -164.5v-490 q0 -87 -33 -163.5t-90.5 -134t-134 -90.5t-163.5 -33h-350q-90 0 -169 34t-138 93t-93 137.5t-34 168.5zM586 285q0 -34 13 -64t35.5 -52.5t52.5 -35.5t64 -13h439v395q0 63 -23.5 119t-65 98t-96.5 66.5t-118 24.5t-117.5 -24.5t-95.5 -67t-64.5 -99.5t-23.5 -122v-225z M675 1265q0 31 22 53t54 22q31 0 53 -22t22 -53q0 -32 -22 -54t-53 -22q-32 0 -54 22t-22 54zM944 1265q0 31 22 53t54 22q31 0 53 -22t22 -53q0 -32 -22 -54t-53 -22q-32 0 -54 22t-22 54z" />
<glyph unicode="&#x642;" horiz-adv-x="1469" arabic-form="final" d="M105 37v718h120v-718q0 -65 24.5 -122t66.5 -99.5t99 -67t122 -24.5h351q59 0 111.5 21.5t93 58.5t65.5 87.5t30 108.5h-438q-59 0 -111 22.5t-91 61t-61.5 90.5t-22.5 111v225q0 90 33 168.5t90.5 137.5t134.5 93t164 34t164 -34.5t135 -93t91 -136t33 -164.5v-395h202 v-120h-203q-5 -83 -39.5 -155t-91 -125.5t-131 -84.5t-158.5 -31h-351q-90 0 -168.5 34t-137 93t-92.5 137.5t-34 168.5zM584 285q0 -34 13 -64t35.5 -52.5t52.5 -35.5t65 -13h439v395q0 63 -24 119t-65 98t-96.5 66.5t-117.5 24.5q-63 0 -118 -24.5t-96 -67t-64.5 -99.5 t-23.5 -122v-225zM697 1278q0 26 18 44t44 18t44 -18t18 -44t-18 -44t-44 -18t-44 18t-18 44zM951 1278q0 26 18 44t44 18t44 -18t18 -44t-18 -44t-44 -18t-44 18t-18 44z" />
<glyph unicode="&#x642;" horiz-adv-x="1100" arabic-form="initial" d="M-42 0v120h202v406q0 89 33 165.5t89.5 132.5t132 88t161.5 32q87 0 163 -32t133 -88t90 -131t32 -161v-242q0 -66 -22.5 -119.5t-62 -91.5t-92 -58.5t-112.5 -20.5h-747zM280 120h425q35 0 66 12t54 34.5t36 53.5t13 70v242q1 61 -22.5 114.5t-64 93t-95 62t-116.5 22.5 q-61 0 -115 -22.5t-94 -62.5t-63.5 -94.5t-23.5 -118.5v-406zM364 1265q0 31 22 53t54 22q31 0 53 -22t22 -53q0 -32 -22 -54t-53 -22q-32 0 -54 22t-22 54zM633 1265q0 31 22 53t54 22q31 0 53 -22t22 -53q0 -32 -22 -54t-53 -22q-32 0 -54 22t-22 54z" />
<glyph unicode="&#x642;" horiz-adv-x="1155" arabic-form="medial" d="M-42 0v120h202v406q0 89 33 165.5t89.5 132.5t132 88t161.5 32q87 0 163 -32t133 -88t90 -131t33 -161v-412h202v-120h-1239zM280 120h594v412q0 61 -23.5 114.5t-64 93t-94.5 62t-116 22.5q-61 0 -115 -22.5t-94 -62.5t-63.5 -94.5t-23.5 -118.5v-406zM364 1265 q0 31 22 53t54 22q31 0 53 -22t22 -53q0 -32 -22 -54t-53 -22q-32 0 -54 22t-22 54zM633 1265q0 31 22 53t54 22q31 0 53 -22t22 -53q0 -32 -22 -54t-53 -22q-32 0 -54 22t-22 54z" />
<glyph unicode="&#x643;" horiz-adv-x="1412" arabic-form="isolated" d="M105 424v332h120v-332q0 -63 24 -118.5t65 -96.5t96.5 -65t118.5 -24h490q35 0 65.5 13t53.5 36t36 53.5t13 65.5v1052h120v-1052q0 -60 -22.5 -112.5t-61.5 -91.5t-91.5 -61.5t-112.5 -22.5h-490q-88 0 -165 33.5t-134.5 91t-91 134.5t-33.5 165zM550 943v94h49 q-16 40 -16 80q0 30 8.5 58t27 50t48.5 35.5t73 14.5h81v-95h-80h1q-34 -1 -49.5 -20.5t-15.5 -42.5q0 -15 3 -29t8 -25.5t12.5 -18.5t15.5 -7h142v-94h-308z" />
<glyph unicode="&#x643;" horiz-adv-x="1466" arabic-form="final" d="M105 424v332h120v-332q0 -63 24 -118.5t65 -96.5t97 -65t119 -24h656v1220h120v-1220h202v-120h-978q-88 0 -165.5 33.5t-135 91t-91 134.5t-33.5 165zM550 943v94h49q-16 40 -16 80q0 30 8.5 58t27 50t48.5 35.5t73 14.5h81v-95h-80h1q-34 -1 -49.5 -20.5t-15.5 -42.5 q0 -15 3 -29t8 -25.5t12.5 -18.5t15.5 -7h142v-94h-308z" />
<glyph unicode="&#x643;" horiz-adv-x="1239" arabic-form="initial" d="M-42 0v120h886q35 0 66 13t54 35t36.5 52t13.5 64v224q0 94 -35.5 155t-93.5 97t-131.5 50t-149.5 14q-64 0 -125.5 -7t-113 -17.5t-91 -22.5t-58.5 -21l-58 106l515 478l86 -84l-375 -332q51 8 107 14t113 6q65 0 130 -8.5t124 -28t109.5 -52t87.5 -81t58 -114.5 t21 -152v-224q0 -59 -23 -110.5t-62 -90t-92 -61t-113 -22.5h-886z" />
<glyph unicode="&#x643;" horiz-adv-x="1300" arabic-form="medial" d="M-42 0v120h1062v388q0 94 -35.5 155t-93.5 97t-131.5 50t-149.5 14q-64 0 -125.5 -7t-113 -17.5t-91 -22.5t-58.5 -21l-58 106l516 478l86 -84l-375 -332q51 9 106.5 14.5t112.5 5.5q65 0 130 -8.5t124 -28t109.5 -52t87.5 -81t58 -114.5t21 -152v-388h202v-120h-1384z " />
<glyph unicode="&#x644;" horiz-adv-x="1180" arabic-form="isolated" d="M105 29v727h120v-727q0 -77 31.5 -134.5t82.5 -96t116.5 -57.5t134.5 -19q68 0 133.5 19t117 57.5t83 96t31.5 134.5v1311h120v-1311q0 -107 -42 -187t-110 -133.5t-155 -80t-178 -26.5t-178 26.5t-155.5 80t-110 133.5t-41.5 187z" />
<glyph unicode="&#x644;" horiz-adv-x="1233" arabic-form="final" d="M105 28v728h120v-728q0 -77 31.5 -134.5t82.5 -96t116.5 -57.5t133.5 -19t133.5 19t116.5 57.5t82.5 96t31.5 134.5v1312h120v-1220h202v-120h-202q-6 -100 -49 -174.5t-110.5 -124.5t-152 -75t-172.5 -25q-91 0 -178 26.5t-155 80t-109.5 133.5t-41.5 187z" />
<glyph unicode="&#x644;" horiz-adv-x="403" arabic-form="initial" d="M-42 0v120h52q35 0 65.5 13t53.5 36t36 53t13 65v1053h120v-1053q0 -59 -22.5 -111.5t-61.5 -91.5t-91.5 -61.5t-112.5 -22.5h-52z" />
<glyph unicode="&#x644;" horiz-adv-x="440" arabic-form="medial" d="M-42 0v120h202v1220h120v-1220h202v-120h-524z" />
<glyph unicode="&#x645;" horiz-adv-x="1418" arabic-form="isolated" d="M105 122q0 72 20.5 135t65 110t115.5 74t172 27v48q0 85 33 162.5t90 136.5t133 93.5t162 34.5t162 -33.5t132.5 -91.5t89.5 -136t33 -166v-228q0 -89 -33 -167t-89.5 -136t-132.5 -91.5t-162 -33.5t-162 34.5t-133 93t-90 135.5t-33 163v62q-72 0 -120.5 -17.5 t-78 -48.5t-42 -72t-12.5 -88v-518h-120v518zM598 286q0 -62 23.5 -117.5t64 -97.5t95 -66.5t115.5 -24.5t115.5 24t94.5 66t63.5 98t23.5 120v228q0 63 -23.5 119t-63.5 98t-94.5 66t-115.5 24t-115.5 -25t-95 -67t-64 -98t-23.5 -117v-230z" />
<glyph unicode="&#x645;" horiz-adv-x="1473" arabic-form="final" d="M105 122q0 72 20.5 135t65 110t115.5 74t172 27v48q0 85 32.5 162.5t89.5 136.5t133.5 93.5t162.5 34.5t162 -33.5t132.5 -91.5t89.5 -136t33 -166v-228q0 -45 -8.5 -87.5t-24.5 -80.5h235v-120h-310q-58 -65 -137.5 -102.5t-171.5 -37.5q-86 0 -162.5 34.5t-133.5 93 t-89.5 135.5t-32.5 163v62q-72 0 -120.5 -17.5t-78 -48.5t-42 -72t-12.5 -88v-518h-120v518zM598 286q0 -62 23.5 -117.5t64 -97.5t94.5 -66.5t116 -24.5q61 0 115.5 24t94.5 66t63.5 98t23.5 120v228q0 63 -23.5 119t-63.5 98t-94.5 66t-115.5 24q-62 0 -116 -25t-94.5 -67 t-64 -98t-23.5 -117v-230z" />
<glyph unicode="&#x645;" horiz-adv-x="1101" arabic-form="initial" d="M-42 0v120h236q-34 79 -34 168v228q0 88 33 166t89.5 136t132.5 91.5t162 33.5t162.5 -34.5t133.5 -93.5t89.5 -136.5t32.5 -162.5v-230q0 -86 -32.5 -163t-89.5 -135.5t-133.5 -93t-162.5 -34.5q-92 0 -171.5 37.5t-136.5 102.5h-311zM280 288q0 -64 23.5 -120t63.5 -98 t94 -66t116 -24q61 0 115.5 24.5t95 66.5t64 97.5t23.5 117.5v230q0 61 -23.5 117t-64 98t-95 67t-115.5 25q-62 0 -116 -24t-94 -66t-63.5 -98t-23.5 -119v-228z" />
<glyph unicode="&#x645;" horiz-adv-x="1154" arabic-form="medial" d="M-42 0v120h236q-34 79 -34 168v228q0 88 33 166t89.5 136t132 91.5t161.5 33.5t162.5 -34.5t133.5 -93.5t89.5 -136.5t32.5 -162.5v-230q1 -45 -8 -86.5t-26 -79.5h236v-120h-312q-58 -64 -137.5 -102t-170.5 -38t-170.5 37.5t-136.5 102.5h-311zM280 288 q0 -64 23.5 -120t63.5 -98t94 -66t115 -24t115.5 24.5t95 66.5t64 97.5t23.5 117.5v230q0 61 -23.5 117t-64 98t-95 67t-115.5 25t-115 -24t-94 -66t-63.5 -98t-23.5 -119v-228z" />
<glyph unicode="&#x646;" horiz-adv-x="1180" arabic-form="isolated" d="M105 31v725h120v-725q0 -77 31.5 -134.5t82.5 -96t116.5 -58t134.5 -19.5q68 0 133.5 19.5t117 58t83 96t31.5 134.5v912h120v-912q0 -107 -42 -187t-110 -133.5t-155 -80.5t-178 -27t-178 27t-155.5 80.5t-110 133.5t-41.5 187zM515 1264q0 31 22 53t54 22q31 0 53 -22 t22 -53q0 -32 -22 -54t-53 -22q-32 0 -54 22t-22 54z" />
<glyph unicode="&#x646;" horiz-adv-x="1235" arabic-form="final" d="M105 31v725h120v-725q0 -77 31.5 -134.5t82.5 -96t116.5 -58t134.5 -19.5q68 0 133.5 19.5t117 58t83 96t31.5 134.5v912h120v-822h202v-121h-203q-6 -99 -50 -173.5t-111 -124t-151.5 -74.5t-171.5 -25q-91 0 -178 27t-155.5 80.5t-110 133.5t-41.5 187zM514 1264 q0 31 22 53t54 22q31 0 53 -22t22 -53q0 -32 -22 -54t-53 -22q-32 0 -54 22t-22 54z" />
<glyph unicode="&#x646;" horiz-adv-x="523" arabic-form="initial" d="M-42 0v120h172q34 0 65 13t53.5 36t36 53.5t13.5 65.5v655h120v-655q0 -60 -23 -112.5t-62 -91.5t-91.5 -61.5t-111.5 -22.5h-172zM282 1264q0 31 22 53t54 22q31 0 53 -22t22 -53q0 -32 -22 -54t-53 -22q-32 0 -54 22t-22 54z" />
<glyph unicode="&#x646;" horiz-adv-x="578" arabic-form="medial" d="M-42 0v120h340v823h120v-823h202v-120h-662zM212 1264q0 31 22 53t54 22q31 0 53 -22t22 -53q0 -32 -22 -54t-53 -22q-32 0 -54 22t-22 54z" />
<glyph unicode="&#x647;" horiz-adv-x="1046" arabic-form="isolated" d="M105 286v229q0 88 33 166t89.5 136.5t132.5 92t162 33.5t162.5 -34t133.5 -92t89.5 -135t32.5 -162v-230q0 -65 -22.5 -118.5t-62 -91.5t-92 -59t-112.5 -21h-258q-61 0 -113.5 20.5t-91.5 58t-61 90t-22 117.5zM225 286q0 -38 13 -68.5t35.5 -52t53 -33.5t66.5 -12h258 q35 0 66 12t54 34.5t36 54t13 69.5v230q0 61 -23.5 116.5t-64 96.5t-95 65.5t-115.5 24.5q-62 0 -116 -24t-94 -66t-63.5 -98t-23.5 -120v-229z" />
<glyph unicode="&#x647;" horiz-adv-x="1109" arabic-form="final" d="M105 285v225q0 90 33 168.5t90.5 137.5t134.5 93t164 34t164 -34.5t134.5 -93t91 -136t32.5 -163.5v-396h202v-120h-322v516q1 62 -23 118t-65 98t-96.5 66.5t-117.5 24.5q-63 0 -118 -24.5t-96 -67t-64.5 -99.5t-23.5 -122v-225q0 -34 13 -64t35.5 -52.5t52.5 -35.5 t65 -13h268v-120h-268q-59 0 -111 22.5t-91 61t-61.5 90.5t-22.5 111z" />
<glyph unicode="&#x647;" horiz-adv-x="1436" arabic-form="initial" d="M-42 0v120h202v255q0 57 18.5 107.5t50.5 89.5t76 64.5t95 34.5q27 62 79 112.5t118.5 86t142.5 55t152 19.5q85 0 164 -24.5t140 -77t98 -135.5t37 -200v-223q0 -59 -23 -110.5t-62 -90t-92 -61t-113 -22.5h-1083zM280 121h334v257q0 37 -13 69.5t-35.5 56.5t-53.5 37.5 t-65 13.5q-35 0 -65.5 -14t-53 -38t-35.5 -57t-13 -71v-254zM532 662q44 -14 81 -41t64 -64.5t42 -83t15 -95.5v-258h307q35 0 66 13t54 35t36.5 52t13.5 64v223q0 85 -27 145t-71 98t-102 56t-119 18q-54 0 -107 -11.5t-101 -32.5t-87.5 -51t-64.5 -67z" />
<glyph unicode="&#x647;" horiz-adv-x="1493" arabic-form="medial" d="M-42 0v120h202v254q0 57 18.5 107.5t50.5 89.5t76 65t95 35q27 62 78 112.5t117.5 86t142.5 55t153 19.5q85 0 164.5 -24.5t140.5 -77t98 -135.5t37 -200v-387h204v-120h-1577zM280 120h334v258q1 37 -12 69t-36 56t-53.5 38t-65.5 14t-65.5 -14t-53 -38t-35.5 -57 t-13 -72v-254zM531 662q45 -14 82.5 -41t64.5 -64.5t42 -83t14 -95.5v-258h477v387q0 85 -27 145t-71.5 98t-102 56t-119.5 18q-54 0 -107 -11.5t-101 -32.5t-87.5 -51t-64.5 -67z" />
<glyph unicode="&#x648;" horiz-adv-x="1055" arabic-form="isolated" d="M105 284v226q0 90 33 168.5t90 137.5t134 93t164 34t164.5 -34.5t135 -93t90.5 -136.5t33 -164v-491q0 -87 -33 -163.5t-90.5 -134t-134 -90.5t-163.5 -33h-275v120h275q59 0 111.5 21.5t93 59t65.5 88t30 108.5h-438q-59 0 -111 22.5t-90.5 61t-61 90t-22.5 110.5z M225 284q0 -34 13 -64t35.5 -52t52.5 -35t64 -13h439v395q0 62 -23.5 118t-65 98t-96.5 67t-118 25t-117.5 -24.5t-95.5 -67t-64.5 -99.5t-23.5 -122v-226z" />
<glyph unicode="&#x648;" horiz-adv-x="1109" arabic-form="final" d="M105 284v226q0 90 33 168.5t90.5 137.5t134 93t163.5 34t164.5 -34.5t135 -93t90.5 -136.5t33 -164v-395h202v-120h-203q-5 -83 -39.5 -155.5t-91 -126t-131 -84.5t-158.5 -31h-275v120h275q60 0 112.5 21.5t92.5 59t65 88t30 108.5h-438q-59 0 -111 22.5t-90.5 61 t-61 90t-22.5 110.5zM225 284q0 -34 13 -64t35.5 -52t52.5 -35t64 -13h439v395q0 62 -23.5 118t-65 98t-96.5 67t-118 25q-62 0 -117 -24.5t-96 -67t-64.5 -99.5t-23.5 -122v-226z" />
<glyph unicode="&#x649;" horiz-adv-x="1285" arabic-form="isolated" d="M210 33v723h120v-723q0 -78 31.5 -136t82.5 -96.5t116.5 -58t133.5 -19.5q69 0 134.5 19.5t117 58.5t83 97.5t31.5 136.5q0 44 -10.5 80.5t-31 62.5t-51.5 40.5t-71 14.5h-285v420q0 60 23 113t62 92t91.5 62t112.5 23h220v-120h-220q-35 0 -65.5 -13.5t-53.5 -36.5 t-36.5 -54t-13.5 -66v-300h165q70 0 123.5 -23t89 -65t53.5 -100.5t18 -129.5q0 -108 -42 -189t-110 -135t-155.5 -81t-178.5 -27t-178 27t-155 80.5t-109.5 134t-41.5 188.5z" />
<glyph unicode="&#x649;" horiz-adv-x="1122" arabic-form="final" d="M105 32v724h120v-724q0 -78 31.5 -136t82.5 -96.5t116.5 -58t133.5 -19.5q64 0 126.5 17.5t113 52t84 87t40.5 121.5h-364v120h575v-120h-91q-7 -99 -50.5 -174t-111 -124.5t-151.5 -74.5t-171 -25q-91 0 -178 27t-155 80.5t-109.5 134t-41.5 188.5z" />
<glyph unicode="&#x64a;" horiz-adv-x="1180" arabic-form="isolated" d="M105 33v723h120v-723q0 -78 31.5 -136t82.5 -96.5t116.5 -58t133.5 -19.5q69 0 134.5 19.5t117 58.5t83 97.5t31.5 136.5q0 44 -10.5 80.5t-31 62.5t-51.5 40.5t-71 14.5h-285v420q0 60 23 113t62 92t91.5 62t112.5 23h220v-120h-220q-35 0 -65.5 -13.5t-53.5 -36.5 t-36.5 -54t-13.5 -66v-300h165q70 0 123.5 -23t89 -65t53.5 -100.5t18 -129.5q0 -108 -42 -189t-110 -135t-155.5 -81t-178.5 -27t-178 27t-155 80.5t-109.5 134t-41.5 188.5zM378 -720q0 31 22 53t54 22q31 0 53 -22t22 -53q0 -32 -22 -54t-53 -22q-32 0 -54 22t-22 54z M647 -720q0 31 22 53t54 22q31 0 53 -22t22 -53q0 -32 -22 -54t-53 -22q-32 0 -54 22t-22 54z" />
<glyph unicode="&#x64a;" horiz-adv-x="1122" arabic-form="final" d="M105 32v724h120v-724q0 -78 31.5 -136t82.5 -96.5t116.5 -58t133.5 -19.5q64 0 126.5 17.5t113 52t84 87t40.5 121.5h-364v120h575v-120h-91q-7 -99 -50.5 -174t-111 -124.5t-151.5 -74.5t-171 -25q-91 0 -178 27t-155 80.5t-109.5 134t-41.5 188.5zM378 -720q0 31 22 53 t54 22q31 0 53 -22t22 -53q0 -32 -22 -54t-53 -22q-32 0 -54 22t-22 54zM647 -720q0 31 22 53t54 22q31 0 53 -22t22 -53q0 -32 -22 -54t-53 -22q-32 0 -54 22t-22 54z" />
<glyph unicode="&#x64a;" horiz-adv-x="523" arabic-form="initial" d="M-42 0v120h172q34 0 65 13t53.5 36t36 53.5t13.5 65.5v655h120v-655q0 -60 -23 -112.5t-62 -91.5t-91.5 -61.5t-111.5 -22.5h-172zM0 -324q0 31 22 53t54 22q31 0 53 -22t22 -53q0 -32 -22 -54t-53 -22q-32 0 -54 22t-22 54zM269 -324q0 31 22 53t54 22q31 0 53 -22 t22 -53q0 -32 -22 -54t-53 -22q-32 0 -54 22t-22 54z" />
<glyph unicode="&#x64a;" horiz-adv-x="578" arabic-form="medial" d="M-42 0v120h340v823h120v-823h202v-120h-662zM-1 -320q0 31 22 53t54 22q31 0 53 -22t22 -53q0 -32 -22 -54t-53 -22q-32 0 -54 22t-22 54zM268 -320q0 31 22 53t54 22q31 0 53 -22t22 -53q0 -32 -22 -54t-53 -22q-32 0 -54 22t-22 54z" />
<glyph unicode=" "  horiz-adv-x="325" />
<glyph unicode="&#x09;" horiz-adv-x="325" />
<glyph unicode="&#xa0;" horiz-adv-x="325" />
<glyph unicode="!" horiz-adv-x="350" d="M105 71q0 29 20.5 49t49.5 20t49.5 -20t20.5 -49t-20.5 -49.5t-49.5 -20.5t-49.5 20.5t-20.5 49.5zM110 220v1120h120v-1120h-120z" />
<glyph unicode="&#x22;" horiz-adv-x="602" d="M97 1409h134l-18 -565h-98zM372 1409h134l-19 -565h-97z" />
<glyph unicode="#" horiz-adv-x="1167" d="M75 486l13 90h260l33 234h-261l13 90h261l54 384h91l-54 -384h247l54 384h91l-54 -384h268l-12 -90h-268l-33 -234h268l-13 -90h-268l-58 -416h-92l59 416h-247l-58 -416h-92l59 416h-261zM440 576h246l33 234h-246z" />
<glyph unicode="$" horiz-adv-x="1167" d="M90 417h122q3 -169 74 -245q84 -88 258 -103v594q-177 34 -267 101q-129 96 -129 264q0 124 72 219q104 137 324 149v172h92v-172q172 -10 272 -89q96 -77 120 -199q7 -35 8 -95h-121q-6 78 -22 123q-32 89 -136 132q-50 20 -121 24v-532q132 -25 231 -70 q96 -44 149 -130q51 -81 51 -197q0 -228 -192 -337q-80 -46 -239 -56v-235h-92v234q-203 3 -327 115q-125 113 -127 333zM266 1036q0 -131 116 -201q45 -27 162 -55v514q-114 -4 -183 -57q-95 -73 -95 -201zM636 71q140 11 213 70q98 80 98 215q0 151 -129 223 q-43 25 -182 65v-573z" />
<glyph unicode="%" horiz-adv-x="1667" d="M88 1031q0 180 87 277q86 94 236 94q152 0 237 -108q69 -88 69 -254q0 -181 -84 -285q-80 -100 -232 -100q-169 0 -249 119q-64 95 -64 257zM197 1023q0 -125 45 -198q52 -85 157 -85q119 0 171 103q38 76 38 193q0 280 -203 280q-208 0 -208 -293zM392 0l774 1367h103 l-775 -1367h-102zM952 339q0 181 78 277q86 105 245 105q96 0 171 -48q133 -86 133 -312q0 -196 -88 -294q-82 -92 -226 -92q-163 0 -244 108q-69 91 -69 256zM1062 343q0 -127 45 -200q52 -85 160 -85q111 0 163 97q40 72 40 195q0 122 -40 194q-24 43 -66 66 q-46 25 -96 25q-206 0 -206 -292z" />
<glyph unicode="&#x26;" horiz-adv-x="1273" d="M91 354q0 184 169 313q101 76 181 117q-65 80 -107 146q-66 103 -66 195q0 139 107 219q85 64 210 64q127 0 210 -71q95 -82 95 -208q0 -139 -108 -243q-62 -60 -169 -127l298 -366q43 117 48 230h116q-3 -78 -27 -172q-23 -91 -58 -153l253 -298h-158l-161 195 q-148 -223 -411 -223q-186 0 -305 108q-117 106 -117 274zM218 357q0 -123 96 -206q87 -76 210 -76q197 0 330 205l-347 424q-91 -53 -147 -97q-142 -112 -142 -250zM384 1128q0 -73 71 -170q36 -49 61 -80l31 -38q226 128 226 281q0 80 -63 139q-50 47 -129 47 q-88 0 -144 -54q-53 -52 -53 -125z" />
<glyph unicode="'" horiz-adv-x="327" d="M97 1409h134l-18 -565h-98z" />
<glyph unicode="(" horiz-adv-x="590" d="M92 513q0 279 102 551q75 199 178 345h98q-107 -169 -172 -375q-81 -258 -81 -525q0 -256 81 -510q64 -201 172 -377h-98q-124 204 -183 365q-97 260 -97 526z" />
<glyph unicode=")" horiz-adv-x="590" d="M120 -378q108 173 172 375q81 258 81 525q0 256 -81 510q-63 199 -172 377h98q124 -204 183 -365q97 -260 97 -526q0 -278 -103 -551q-75 -199 -177 -345h-98z" />
<glyph unicode="*" horiz-adv-x="2943" d="M105 743v587q0 11 8 18.5t19 7.5t18.5 -7.5t7.5 -18.5v-383q30 48 75 86q19 16 43 31.5t53.5 28t64.5 20t76 7.5q82 0 149.5 -30.5t115.5 -81.5t74 -116.5t26 -134.5q0 -70 -27 -137t-75 -119t-115 -83.5t-148 -31.5q-80 0 -147 30t-115.5 80t-75.5 114t-27 133zM159 757 q0 -65 24.5 -122.5t66.5 -100t98.5 -67t121.5 -24.5q64 0 120.5 24.5t98.5 67t66.5 100t24.5 122.5q0 64 -24.5 120.5t-66.5 99t-98.5 67t-120.5 24.5q-65 0 -121.5 -24.5t-98.5 -67t-66.5 -99t-24.5 -120.5zM870 754q0 76 28.5 143t78 116.5t116.5 78.5t143 29t143 -29 t117 -78.5t78.5 -116.5t28.5 -143q0 -8 -6 -16.5t-22 -8.5h-391q-11 0 -19.5 7.5t-8.5 20.5q0 11 8.5 19t19.5 8h362q-6 59 -32 110.5t-67.5 90t-95.5 60.5t-115 22q-65 0 -121.5 -24.5t-98.5 -67t-66 -99.5t-24 -122q0 -64 24 -120.5t66 -99t98.5 -67t121.5 -24.5 q42 0 81 11t73.5 30.5t63 47t48.5 60.5q6 11 17.5 13t21.5 -5q8 -6 11 -17t-5 -21q-24 -39 -56.5 -71t-72.5 -55.5t-86 -36t-96 -12.5q-76 0 -143 29t-116.5 79t-78 117t-28.5 142zM1222 111q0 18 19 18q7 0 12.5 -5t5.5 -13q0 -6 2 -18t10 -24t24 -21t44 -9q33 0 50.5 10 t24.5 23t7.5 23.5t0.5 11.5l-0.5 9t-8 19t-25 18.5t-50.5 8.5t-55 8t-35.5 20.5t-19.5 27t-6 28.5q0 13 4.5 31t17.5 34t35.5 27.5t58.5 11.5q32 -1 58 -13q22 -11 40.5 -33.5t18.5 -65.5q0 -7 -5.5 -12t-13.5 -5q-7 0 -12 5t-5 12q0 21 -9 38q-8 14 -24 26.5t-48 12.5 t-48.5 -11t-23.5 -24q-8 -16 -8 -35q1 -13 10 -23q8 -9 24 -16t46 -7q62 0 91.5 -27.5t29.5 -65.5q0 -19 -6.5 -37.5t-20.5 -33.5t-37.5 -24t-56.5 -9q-26 0 -47.5 8.5t-37 23.5t-23.5 34.5t-8 42.5zM1490 231q0 52 32.5 85.5t86.5 33.5q25 0 47.5 -9.5t38.5 -25.5t25.5 -38 t9.5 -46q0 -25 -9.5 -47t-25.5 -38.5t-38.5 -26t-47.5 -9.5h-81v-94q0 -19 -19 -19q-8 0 -13 5.5t-5 13.5zM1528 147h81q17 0 32.5 6.5t27 18t18 26.5t6.5 33q0 34 -24.5 59t-59.5 25q-38 0 -59.5 -24.5t-21.5 -59.5v-84zM1639 440v630q2 20 20 37t44 17t44 -17t19 -37v-630 q-1 -20 -19 -37t-44 -18q-26 1 -44 18t-20 37zM1737 174q0 37 14 69.5t38 56.5t56.5 38t68.5 14q37 0 69.5 -14t56.5 -38t38 -56.5t14 -69.5q0 -36 -14 -68.5t-38 -57t-56.5 -38.5t-69.5 -14q-36 0 -68.5 14t-56.5 38.5t-38 57t-14 68.5zM1777 174q0 -29 11 -54t29.5 -43.5 t43.5 -29.5t53 -11q29 0 54 11t44 29.5t29.5 43.5t10.5 54q0 28 -10.5 53t-29.5 44t-44 29.5t-54 10.5q-28 0 -53 -10.5t-43.5 -29.5t-29.5 -44t-11 -53zM1826 436v474q3 40 18 77q13 32 40.5 65t78.5 54q52 19 97 16t81 -19t61.5 -40t37.5 -46l289 -455q14 -22 33 -35 q17 -11 41.5 -15t56.5 13q15 7 24.5 17.5t15.5 22t8.5 21.5t2.5 17v466q2 20 19.5 37t42.5 17q27 0 45 -17t19 -37v-466q0 -41 -13 -78q-12 -32 -39 -65.5t-81 -55.5q-52 -21 -98 -17.5t-82 19t-61 37.5t-35 37q-5 8 -20 31.5t-36 57.5t-46.5 74t-51.5 81q-61 96 -135 212 q-9 18 -22 31q-11 11 -28 20.5t-39 7.5q-38 -4 -58.5 -19.5t-28.5 -32.5q-11 -20 -10 -46v-454q0 -22 -18 -39.5t-44 -18.5q-27 1 -45 17t-20 34zM2111 15v216q0 52 32.5 86.5t88.5 34.5q25 0 47 -9.5t38.5 -26t26 -38.5t9.5 -47q0 -39 -22.5 -70t-59.5 -44l56 -92 q4 -6 2.5 -13.5t-8.5 -10.5q-8 -5 -15.5 -3.5t-11.5 9.5l-64 103h-82v-95q0 -8 -5 -13.5t-13 -5.5q-19 0 -19 19zM2148 147h84q35 0 59.5 24.5t24.5 59.5q0 18 -6.5 33t-18 26.5t-27 18t-32.5 6.5q-38 0 -61 -23.5t-23 -60.5v-84zM2343 331q0 8 6 13.5t15 5.5h204 q8 0 13.5 -5.5t5.5 -13.5t-5.5 -14t-13.5 -6h-82v-294q0 -8 -5.5 -14t-13.5 -6q-9 0 -14.5 6t-5.5 14v294h-83q-9 0 -15 6t-6 14zM2599 108q0 19 16 19q8 0 13 -5.5t5 -13.5q0 -6 2.5 -18.5t11 -25t25 -21.5t44.5 -9q34 0 51 10.5t24.5 23.5t8 24t0.5 12t-0.5 9.5t-8 18.5 t-25 18.5t-50.5 8.5q-34 0 -56.5 8t-36 21t-19 28t-5.5 29q0 13 4.5 31t17 34.5t35 28t58.5 11.5q33 -1 59 -13q22 -11 40.5 -33.5t18.5 -66.5q0 -7 -5 -13t-13 -6q-9 0 -14 6t-5 13q0 21 -8 38q-7 14 -23 26t-48 12q-33 0 -49.5 -11t-24.5 -24q-9 -15 -9 -34q1 -13 10 -24 q8 -9 24 -16.5t47 -7.5q63 0 93 -27t30 -65q0 -19 -7 -38t-21.5 -34.5t-38 -25t-56.5 -9.5q-26 0 -48 9t-37.5 24t-23.5 35t-6 43z" />
<glyph unicode="+" horiz-adv-x="1167" d="M110 638v92h427v427h92v-427h426v-92h-426v-427h-92v427h-427z" />
<glyph unicode="," horiz-adv-x="396" d="M105 103q0 35 23 52q23 18 51 18q52 0 82 -33t30 -86q0 -74 -49 -119t-122 -44l-8 45q67 4 100 45q15 19 15 41q0 15 -16 15q-18 -2 -29 -3q-77 0 -77 69z" />
<glyph unicode="-" horiz-adv-x="561" d="M46 465v113h469v-113h-469z" />
<glyph unicode="." horiz-adv-x="361" d="M105 76q0 31 22 53t54 22q31 0 53 -22t22 -53q0 -32 -22 -54t-53 -22q-32 0 -54 22t-22 54z" />
<glyph unicode="/" horiz-adv-x="836" d="M-77 -378l732 1787h102l-728 -1787h-106z" />
<glyph unicode="0" horiz-adv-x="1051" d="M105 421v501q0 86 31 162.5t91 136.5t136.5 91t162.5 31q84 0 160.5 -31.5t136.5 -91.5q60 -61 91.5 -137t31.5 -161v-501q0 -85 -31.5 -160.5t-91.5 -135.5t-136.5 -92.5t-160.5 -32.5q-86 0 -162.5 31.5t-136.5 92.5q-60 60 -91 136t-31 161zM217 421q0 -64 24 -120.5 t66 -98.5t98.5 -66t120.5 -24q63 0 119 24t97.5 66t65.5 98.5t24 120.5v501q0 63 -23 119t-66 98q-44 44 -99.5 66.5t-117.5 22.5q-63 0 -118.5 -22.5t-98.5 -66.5q-45 -42 -68.5 -98t-23.5 -119v-501z" />
<glyph unicode="1" horiz-adv-x="634" d="M105 1203l55 141h242q62 0 94 -45q33 -47 33 -127v-1171h-129v1202h-295z" />
<glyph unicode="2" horiz-adv-x="1097" d="M105 114q0 19 5.5 34.5t16.5 29t27.5 27.5t39.5 31q5 5 11 9.5t12 9.5l490 383q71 57 113 128q25 42 38 85t13 87q0 65 -23.5 120t-65 95t-98 62.5t-122.5 22.5q-72 0 -130.5 -22.5t-102.5 -69.5q-42 -45 -63 -104t-21 -130q0 -95 61 -173q11 -14 23 -25.5t25 -22.5 l-92 -67q-43 34 -70 74t-42.5 81.5t-21 81.5t-5.5 75q0 56 12.5 101.5t32 82.5t43 64.5t46.5 47.5q65 54 148 82.5t175 28.5q87 0 162 -31t130.5 -85.5t87.5 -128t32 -157.5q0 -76 -20.5 -139t-63.5 -121q-42 -54 -97.5 -102.5t-124.5 -103.5l-470 -369h769v-106h-729 q-35 0 -64 7.5t-49 21.5q-38 28 -38 85z" />
<glyph unicode="3" horiz-adv-x="1041" d="M105 310h116q18 -44 47 -81t67 -63t83 -40.5t94 -14.5q64 0 121 24.5t99.5 67.5t67 99.5t24.5 121.5q0 143 -93 221q-39 32 -83.5 48.5t-85.5 28.5q-28 8 -51.5 16.5t-38.5 19.5q-10 7 -14.5 14t-4.5 24l1 5.5t6 17t16.5 30t31.5 46.5l260 329h-543l-27 114h579 q71 0 111 -28q39 -26 39 -80l-285 -395l68 -36q104 -57 165 -157q30 -50 45.5 -105.5t15.5 -112.5q0 -85 -32 -162t-93 -138t-138 -93t-161 -32q-78 0 -151 28t-132 82q-92 83 -124 201z" />
<glyph unicode="4" horiz-adv-x="1227" d="M105 341q0 11 4 25t9 25l588 951h176l-613 -989h501v162h148v-162h204v-119h-204v-235h-148v235h-548q-23 0 -44.5 8.5t-38.5 23.5q-34 31 -34 75z" />
<glyph unicode="5" horiz-adv-x="1000" d="M105 876v341q0 61 40 91q42 31 118 31h550l-31 -114h-552v-409h266q80 0 152.5 -30.5t129.5 -88.5t87 -132t30 -155t-30 -155.5t-86 -133.5q-57 -58 -129.5 -89t-153.5 -31q-72 0 -138.5 24.5t-121.5 72.5q-38 35 -68 77.5t-48 91.5h109q18 -37 46 -67t63 -51.5t75 -33 t83 -11.5q62 0 117 24t96 65.5t65 97.5t24 119q0 62 -23 117t-67 98q-43 44 -97.5 66.5t-114.5 22.5q-51 0 -100 -3q-48 -3 -93 -3q-55 0 -90 7t-58 23q-5 3 -13 10t-16.5 22.5t-14.5 41t-6 64.5z" />
<glyph unicode="6" horiz-adv-x="1175" d="M105 443q0 53 14 105t40 100l407 693h165l-269 -455h113q97 0 186.5 -31.5t158.5 -91.5q70 -59 109 -139q41 -81 41 -181q0 -91 -37.5 -172t-107.5 -144q-69 -60 -156.5 -93.5t-179.5 -33.5q-94 0 -181.5 33.5t-156.5 93.5q-71 63 -108.5 144t-37.5 172zM247 443 q0 -68 27.5 -129t79.5 -109q48 -44 111 -68.5t129 -24.5t128 24.5t112 68.5q52 48 79 109t27 129q0 69 -27 130t-79 108q-50 45 -112 69t-128 24t-129 -24t-111 -69q-52 -47 -79.5 -108t-27.5 -130z" />
<glyph unicode="7" horiz-adv-x="996" d="M105 1340h648q28 0 53 -10.5t44 -28.5t30 -42t11 -52q0 -4 -2.5 -15t-9 -36.5t-18.5 -67.5t-32.5 -107t-50 -156t-71.5 -215q-45 -133 -99.5 -289t-112.5 -321h-169l432 1199h-620z" />
<glyph unicode="8" horiz-adv-x="1038" d="M105 384q0 89 41 168t116 133l62 46l-55 53q-48 47 -74 106t-26 124q0 67 27 126.5t78 105.5q49 45 112.5 68.5t131.5 23.5t132 -23.5t113 -68.5q51 -46 78.5 -105.5t27.5 -126.5q0 -65 -26 -124t-75 -106l-54 -53l62 -46q75 -54 116 -133t41 -168q0 -79 -32 -149.5 t-93 -124.5q-59 -53 -134 -81.5t-156 -28.5t-156 28.5t-134 81.5q-60 54 -91.5 124.5t-31.5 149.5zM227 390q0 -57 22.5 -109t65.5 -94q41 -39 93.5 -60.5t109.5 -21.5q60 0 113.5 22.5t93.5 61.5t63 90.5t23 110.5t-23 111.5t-66 93.5q-42 41 -94 61.5t-110 20.5 q-60 0 -113 -22.5t-92.5 -61.5t-62.5 -91t-23 -112zM286 1003q0 -48 18 -91t49.5 -75t74 -50.5t90.5 -18.5t91 18.5t74.5 50.5t50 75t18.5 91t-18.5 90t-50 73.5t-74.5 50t-91 18.5q-47 0 -89 -17t-76 -51q-32 -32 -49.5 -74.5t-17.5 -89.5z" />
<glyph unicode="9" horiz-adv-x="1097" d="M105 900q0 92 35 172.5t95 140.5t141 95t173 35q89 0 169 -33.5t144 -96.5q63 -63 96.5 -143.5t33.5 -169.5q0 -57 -13 -109t-36 -97l-378 -694h-146l252 456h-109q-94 0 -177.5 32.5t-147.5 93.5q-64 62 -98 144t-34 174zM217 900q0 -67 24 -127t69 -108 q46 -48 106 -73.5t127 -25.5q66 0 126 26t107 76q46 48 70 107t24 125t-24.5 125.5t-69.5 107.5q-47 48 -107 73t-126 25q-68 0 -127 -26t-103.5 -71t-70 -105t-25.5 -129z" />
<glyph unicode=":" horiz-adv-x="361" d="M105 77q0 31 22 53t54 22q31 0 53 -22t22 -53q0 -32 -22 -54t-53 -22q-32 0 -54 22t-22 54zM105 758q0 31 22 53t54 22q31 0 53 -22t22 -53q0 -32 -22 -54t-53 -22q-32 0 -54 22t-22 54z" />
<glyph unicode=";" horiz-adv-x="396" d="M105 113q0 35 23 52q23 18 51 18q52 0 82 -33t30 -86q0 -74 -49 -119t-122 -44l-8 45q67 4 100 45q15 19 15 41q0 15 -16 15q-18 -2 -29 -3q-77 0 -77 69zM105 756q0 31 22 53t54 22q31 0 53 -22t22 -53q0 -32 -22 -54t-53 -22q-32 0 -54 22t-22 54z" />
<glyph unicode="&#x3c;" horiz-adv-x="1167" d="M126 649v117l916 422v-133l-773 -348l773 -348v-132z" />
<glyph unicode="=" horiz-adv-x="1167" d="M110 486v92h945v-92h-945zM110 789v92h945v-92h-945z" />
<glyph unicode="&#x3e;" horiz-adv-x="1167" d="M127 227v133l772 348l-772 348v132l915 -423v-116z" />
<glyph unicode="?" horiz-adv-x="1045" d="M105 872q4 175 67 276q64 105 184 156q83 35 186 35q194 0 308 -111q103 -101 103 -254q0 -136 -79 -238q-35 -46 -157 -162q-68 -65 -88 -100q-36 -64 -38 -223h-118q1 153 28 221q22 60 90 131q15 16 108 108q126 124 126 254q0 107 -69 181q-78 83 -216 83 q-184 0 -266 -144q-43 -75 -50 -213h-119zM462 71q0 29 20.5 49t49.5 20t49.5 -20t20.5 -49t-20.5 -49.5t-49.5 -20.5t-49.5 20.5t-20.5 49.5z" />
<glyph unicode="@" horiz-adv-x="1882" d="M161 659q0 262 128 451q117 174 328 263q178 75 391 75q354 0 552 -203q159 -164 159 -401q0 -212 -119 -364q-83 -106 -235 -158q-89 -31 -166 -31q-61 0 -110 35q-40 29 -53 90q-110 -125 -233 -125q-115 0 -186 92q-58 74 -58 196q0 170 105 323q139 203 331 203 q141 0 198 -119l31 85h122l-181 -531q-20 -58 -20 -92q0 -66 78 -66q58 0 121 26t109 69q65 60 101 155q36 97 36 202q0 202 -122 335q-157 173 -456 173q-218 0 -392 -90q-172 -88 -254 -250q-77 -152 -77 -348q0 -261 148 -412q108 -112 250 -146q121 -29 273 -29 q286 0 468 59q73 24 163 70l50 -87q-257 -148 -666 -148q-320 0 -501 104q-174 101 -254 285q-59 136 -59 309zM690 551q0 -75 31 -118q35 -51 98 -51q85 0 152 70q50 52 92 171l51 140q27 76 27 117q0 61 -40 100q-39 38 -93 38q-104 0 -204 -132q-58 -77 -89 -178 q-25 -83 -25 -157z" />
<glyph unicode="A" horiz-adv-x="1319" d="M19 0l569 1413h150l562 -1413h-150l-170 444h-644l-173 -444h-144zM376 552h564l-203 521q-45 116 -76 214q-38 -107 -77 -207z" />
<glyph unicode="B" horiz-adv-x="1364" d="M172 0v1409h569q111 0 187 -14q130 -24 211 -117q80 -94 80 -221q0 -148 -109 -242q-55 -48 -136 -69q91 -18 143 -49q73 -44 116 -121q41 -75 41 -172q0 -166 -108 -275q-90 -91 -222 -116q-71 -13 -168 -13h-604zM306 116h420q205 0 292 54q122 75 122 232 q0 166 -148 235q-89 41 -275 41h-411v-562zM306 785h376q171 0 247 28q81 30 126 106q30 52 30 120q0 159 -139 222q-71 32 -230 32h-410v-508z" />
<glyph unicode="C" horiz-adv-x="1426" d="M98 702q0 325 184 536q178 203 473 203q280 0 446 -179q115 -125 130 -276h-133q-25 119 -105 203q-129 136 -342 136q-264 0 -406 -212q-113 -169 -113 -410q0 -248 111 -410q143 -209 405 -209q233 0 365 170q83 108 104 286h132q-17 -209 -135 -358 q-170 -214 -471 -214q-318 0 -497 236q-148 196 -148 498z" />
<glyph unicode="D" horiz-adv-x="1409" d="M172 0v1409h491q172 0 276 -39q203 -75 297 -275q76 -162 76 -365q0 -374 -198 -573q-109 -110 -255 -141q-77 -16 -186 -16h-501zM306 116h335q156 0 240 30q160 56 241 243q56 131 56 335q0 290 -149 441q-83 82 -197 110q-72 18 -170 18h-356v-1177z" />
<glyph unicode="E" horiz-adv-x="1239" d="M172 0v1409h978v-116h-844v-505h790v-116h-790v-556h852v-116h-986z" />
<glyph unicode="F" horiz-adv-x="1111" d="M172 0v1409h900v-116h-766v-505h682v-116h-682v-672h-134z" />
<glyph unicode="G" horiz-adv-x="1511" d="M97 691q0 334 191 548q180 202 479 202q279 0 446 -177q114 -121 139 -289h-130q-19 109 -94 197q-131 154 -360 154q-263 0 -413 -201q-124 -165 -124 -431q0 -254 125 -416q149 -194 411 -194q210 0 345 131q140 137 141 391h-482v110h601v-716h-89l-28 263 q-40 -90 -114 -158q-148 -137 -381 -137q-207 0 -363 101q-155 100 -235 286q-65 152 -65 336z" />
<glyph unicode="H" horiz-adv-x="1452" d="M170 0v1409h134v-613h844v613h134v-1409h-134v680h-844v-680h-134z" />
<glyph unicode="I" horiz-adv-x="474" d="M170 0v1409h134v-1409h-134z" />
<glyph unicode="J" horiz-adv-x="982" d="M29 407q0 20 1 55h130q-1 -30 -1 -43q0 -143 32 -209q60 -127 244 -127q152 0 218 96q46 69 46 247v983h134v-1000q0 -120 -16 -188q-19 -84 -77 -152q-36 -42 -80 -60q-100 -41 -239 -41q-117 0 -213 48q-126 64 -162 216q-17 71 -17 175z" />
<glyph unicode="K" horiz-adv-x="1327" d="M172 0v1409h134v-758q71 70 92 89l729 669h179l-635 -575l667 -834h-172l-590 742l-270 -245v-497h-134z" />
<glyph unicode="L" horiz-adv-x="1135" d="M170 0v1409h134v-1293h793v-116h-927z" />
<glyph unicode="M" horiz-adv-x="1712" d="M172 0v1409h184l410 -1005q50 -124 96 -265q54 162 94 262l402 1008h185v-1409h-128v852q0 257 16 443l-15 -41l-25 -69q-43 -119 -53 -146l-416 -1039h-120l-424 1026q-41 99 -92 261q14 -276 14 -432v-855h-128z" />
<glyph unicode="N" horiz-adv-x="1451" d="M172 0v1409h148l658 -955q101 -146 185 -295q-9 181 -9 372v878h128v-1409h-149l-655 945q-120 173 -187 303q6 -73 8 -239l1 -98v-911h-128z" />
<glyph unicode="O" horiz-adv-x="1524" d="M98 702q0 335 182 532q190 207 490 207q285 0 471 -207q184 -203 184 -533q0 -292 -148 -487q-187 -246 -518 -246q-326 0 -513 247q-148 196 -148 487zM232 707q0 -262 127 -429q76 -101 195 -153q96 -41 208 -41q231 0 378 164q151 169 151 454q0 278 -146 449 q-147 174 -376 174q-239 0 -389 -169q-148 -167 -148 -449z" />
<glyph unicode="P" horiz-adv-x="1282" d="M172 0v1409h564q129 0 208 -20q131 -32 207 -143q67 -96 67 -234q0 -224 -156 -334q-110 -78 -310 -78h-446v-600h-134zM306 716h408q106 0 168 15q92 23 149 99q53 72 53 175q0 165 -122 240q-55 35 -137 43q-43 5 -118 5h-401v-577z" />
<glyph unicode="Q" horiz-adv-x="1516" d="M98 700q0 329 184 535q185 206 480 206q305 0 488 -215q175 -206 175 -518q0 -224 -89 -395q-52 -98 -120 -166l202 -153l-69 -85l-222 169q-37 -30 -93 -54q-128 -56 -271 -56q-301 0 -489 213q-176 199 -176 519zM232 704q0 -259 118 -418q78 -106 204 -160 q101 -43 215 -43q148 0 256 75l-187 140l70 86l208 -161q175 186 175 485q0 257 -132 426q-148 191 -397 191q-163 0 -290 -87q-123 -84 -185 -234q-55 -131 -55 -300z" />
<glyph unicode="R" horiz-adv-x="1397" d="M164 0v1409h621q187 0 291 -64q165 -101 165 -315q0 -179 -126 -280q-60 -48 -150 -70q120 -20 180 -94q49 -60 62 -163q3 -29 14 -184q10 -138 31 -193q8 -23 27 -46h-151q-28 41 -35 194q-9 175 -26 244q-33 135 -152 169q-77 22 -204 22h-413v-629h-134zM298 738h397 q201 0 289 51q123 70 123 231q0 164 -134 233q-77 40 -232 40h-443v-555z" />
<glyph unicode="S" horiz-adv-x="1242" d="M58 450v16h129q5 -160 79 -248q114 -137 364 -137q199 0 298 85q93 81 93 206q0 154 -165 222q-67 28 -310 86q-166 40 -229 66q-214 87 -214 306q0 186 145 294q128 95 346 95q302 0 435 -186q71 -99 78 -252h-130q-15 163 -106 239q-105 87 -286 87q-154 0 -244 -61 q-107 -72 -107 -209q0 -119 86 -171q72 -44 294 -95q177 -41 238 -61q299 -96 299 -348q0 -199 -160 -318q-133 -98 -370 -98q-265 0 -412 127q-82 71 -122 183q-29 80 -29 172z" />
<glyph unicode="T" horiz-adv-x="1186" d="M31 1293v116h1124v-116h-494v-1293h-134v1293h-496z" />
<glyph unicode="U" horiz-adv-x="1397" d="M151 569v840h134v-845q0 -127 16 -203q60 -280 408 -280q246 0 341 152q47 75 59 195q6 58 6 137v844h134v-844q0 -160 -22 -242q-48 -182 -195 -276q-126 -79 -325 -79q-344 0 -481 227q-55 92 -69 226q-6 57 -6 148z" />
<glyph unicode="V" horiz-adv-x="1246" d="M19 1409h150l369 -1013q33 -92 89 -281q58 189 90 279l368 1015h142l-523 -1409h-157z" />
<glyph unicode="W" horiz-adv-x="1847" d="M30 1409h141l262 -977q42 -158 65 -292q22 117 72 292l278 977h153l286 -991q38 -134 67 -278q25 135 63 276l266 993h134l-390 -1409h-145l-287 992q-47 164 -72 291q-30 -129 -76 -287l-282 -996h-146z" />
<glyph unicode="X" horiz-adv-x="1209" d="M14 0l511 725l-480 684h159l314 -451q24 -35 87 -141q83 130 92 142l321 450h150l-482 -684l509 -725h-162l-353 506q-10 14 -61 97l-15 23q-14 -20 -32 -47q-32 -49 -49 -73l-355 -506h-154z" />
<glyph unicode="Y" horiz-adv-x="1226" d="M-11 1409h161l393 -590q35 -53 76 -124q44 76 73 119l395 595h153l-558 -826v-583h-134v583z" />
<glyph unicode="Z" horiz-adv-x="1215" d="M61 0v121l864 1096q46 54 66 79q-141 -3 -185 -3h-680v116h1017v-118l-858 -1089q-45 -55 -71 -89q51 0 202 3h747v-116h-1102z" />
<glyph unicode="[" horiz-adv-x="590" d="M158 -378v1787h320v-99h-203v-1589h203v-99h-320z" />
<glyph unicode="\" horiz-adv-x="836" d="M79 1409h101l733 -1787h-106z" />
<glyph unicode="]" horiz-adv-x="590" d="M112 -279h204v1589h-204v99h320v-1787h-320v99z" />
<glyph unicode="^" horiz-adv-x="1024" d="M57 801l378 611h153l379 -611h-131l-326 519l-324 -519h-129z" />
<glyph unicode="_" horiz-adv-x="1024" d="M-16 -211h1057v-92h-1057v92z" />
<glyph unicode="`" horiz-adv-x="1024" d="M253 1450h152l198 -280h-100z" />
<glyph unicode="a" horiz-adv-x="1069" d="M75 259q0 200 192 274q64 25 159 38q13 2 199 20q109 11 140 50q21 26 21 80q0 118 -65 169q-67 54 -201 54q-158 0 -228 -91q-40 -51 -50 -150h-119q8 158 107 247q107 97 304 97q208 0 310 -104q47 -49 58 -135q5 -35 5 -119l-1 -297q1 -209 2 -231q3 -66 67 -66 q21 0 48 8v-96q-46 -16 -99 -16q-83 0 -114 63q-18 35 -18 124q-49 -76 -102 -118q-114 -90 -283 -90q-147 0 -233 68q-99 78 -99 221zM201 270q0 -91 64 -144q65 -55 173 -55q107 0 197 52q151 88 151 266v165q-37 -30 -99 -43q-41 -8 -182 -28q-163 -22 -232 -69 q-72 -50 -72 -144z" />
<glyph unicode="b" horiz-adv-x="1197" d="M164 0v1409h124v-582q32 73 88 123q108 97 275 97q207 0 333 -149q121 -141 121 -386q0 -255 -130 -401q-125 -141 -329 -141q-275 0 -365 229v-199h-117zM285 509q0 -207 100 -325q95 -111 250 -111t246 113q99 122 99 324q0 191 -86 307q-94 127 -255 127 q-157 0 -253 -109q-101 -114 -101 -326z" />
<glyph unicode="c" horiz-adv-x="1065" d="M94 500q0 263 142 411q130 136 332 136q220 0 334 -141q68 -84 83 -210h-126q-18 95 -65 151q-81 97 -224 97q-182 0 -275 -145q-76 -117 -76 -290q0 -183 80 -301q92 -135 260 -135q172 0 257 136q39 65 52 155h125q-20 -140 -91 -234q-122 -160 -338 -160 q-243 0 -371 183q-99 142 -99 347z" />
<glyph unicode="d" horiz-adv-x="1199" d="M94 509q0 252 128 395q127 143 328 143q259 0 363 -218v580h124v-1409h-117v202q-31 -76 -81 -124q-113 -108 -284 -108q-218 0 -343 155q-118 147 -118 384zM219 510q0 -186 85 -306q92 -131 262 -131q165 0 260 122q90 116 90 312q0 209 -96 321q-99 116 -251 116 q-158 0 -251 -111q-99 -117 -99 -323z" />
<glyph unicode="e" horiz-adv-x="1091" d="M94 498q0 245 133 399q131 150 331 150q162 0 277 -100q129 -111 161 -306q10 -60 10 -146v-16h-786q2 -103 24 -171q77 -235 320 -235q159 0 247 117q44 57 64 145h120q-20 -98 -61 -166q-121 -199 -372 -199q-229 0 -356 162q-112 145 -112 366zM220 582h661 q-7 129 -60 214q-92 148 -266 148q-116 0 -202 -71q-108 -89 -133 -291z" />
<glyph unicode="f" horiz-adv-x="563" d="M7 914v103h173v87q0 89 6 129q28 186 251 186q44 0 98 -7v-106q-46 8 -82 8q-100 0 -131 -54q-18 -32 -18 -142v-101h206v-103h-206v-914h-124v914h-173z" />
<glyph unicode="g" horiz-adv-x="1172" d="M93 519q0 241 124 383q126 145 329 145q149 0 253 -92q50 -44 94 -128v190h117v-919q0 -119 -15 -195q-28 -144 -140 -221q-119 -81 -303 -81q-221 0 -329 107q-78 79 -88 200h125q30 -207 294 -207q196 0 273 110q60 87 60 257v170q-106 -224 -353 -224q-208 0 -330 148 q-111 135 -111 357zM218 533q0 -211 104 -322q90 -94 226 -94q168 0 263 135q75 107 75 280q0 215 -108 323q-90 89 -221 89q-173 0 -264 -133q-75 -110 -75 -278z" />
<glyph unicode="h" horiz-adv-x="1169" d="M162 0v1409h124v-462q0 -19 -3 -120q107 220 364 220q219 0 314 -151q52 -81 52 -241v-655h-125v639q0 142 -47 203q-73 96 -224 96q-131 0 -219 -79q-70 -63 -96 -166q-16 -64 -16 -195v-498h-124z" />
<glyph unicode="i" horiz-adv-x="447" d="M149 1265q0 31 22 53t54 22q31 0 53 -22t22 -53q0 -32 -22 -54t-53 -22q-32 0 -54 22t-22 54zM162 0v1017h124v-1017h-124z" />
<glyph unicode="j" horiz-adv-x="448" d="M-21 -281q26 -3 48 -3q65 0 90 17q32 22 40 85q5 47 5 110v1089h124v-1085q0 -111 -11 -168q-30 -154 -237 -154q-27 0 -59 5v104zM149 1265q0 31 22 53t54 22q31 0 53 -22t22 -53q0 -32 -22 -54t-53 -22q-32 0 -54 22t-22 54z" />
<glyph unicode="k" horiz-adv-x="1076" d="M164 0v1409h124v-888q67 63 77 72l490 424h166l-435 -374l465 -643h-155l-406 558l-202 -172v-386h-124z" />
<glyph unicode="l" horiz-adv-x="447" d="M162 0v1409h124v-1409h-124z" />
<glyph unicode="m" horiz-adv-x="1729" d="M162 0v1017h117v-177q53 87 108 130q98 77 229 77q221 0 294 -200q46 80 96 120q100 80 242 80q178 0 267 -117q59 -79 59 -230v-700h-124v666q0 121 -31 174q-58 98 -204 98q-173 0 -246 -139q-38 -73 -38 -214v-585h-124v663q0 118 -28 173q-53 103 -196 103 q-105 0 -182 -61q-79 -62 -103 -177q-12 -58 -12 -141v-560h-124z" />
<glyph unicode="n" horiz-adv-x="1169" d="M163 0v1017h117v-191q43 76 85 116q110 105 286 105q140 0 235 -66q94 -65 117 -181q10 -49 10 -146v-654h-124v615q0 170 -46 231q-69 92 -221 92q-143 0 -233 -86q-70 -66 -91 -174q-11 -59 -11 -166v-512h-124z" />
<glyph unicode="o" horiz-adv-x="1151" d="M94 508q0 227 114 371q133 168 377 168q220 0 354 -160q119 -142 119 -382q0 -254 -138 -398q-130 -137 -342 -137q-234 0 -364 159q-120 147 -120 379zM221 508q0 -203 98 -320q97 -115 261 -115q156 0 249 107q104 119 104 327q0 197 -94 316q-49 62 -124 94 q-65 27 -132 27q-162 0 -261 -114q-101 -118 -101 -322z" />
<glyph unicode="p" horiz-adv-x="1196" d="M164 -378v1395h117v-194q106 224 363 224q205 0 331 -145q129 -148 129 -396q0 -231 -116 -377q-126 -159 -339 -159q-181 0 -289 111q-43 44 -72 109v-568h-124zM284 506q0 -202 93 -314q98 -119 258 -119q165 0 259 130q85 118 85 302q0 198 -93 319q-92 120 -251 120 q-171 0 -265 -124q-86 -114 -86 -314z" />
<glyph unicode="q" horiz-adv-x="1196" d="M95 504q0 256 134 404q125 139 330 139q188 0 292 -118q33 -37 67 -107v195h117v-1396h-124v568q-101 -219 -364 -219q-212 0 -336 154q-116 144 -116 380zM220 503q0 -195 91 -311q93 -119 253 -119q162 0 257 120q93 117 93 317q0 198 -90 313q-94 121 -252 121 q-165 0 -257 -117q-95 -122 -95 -324z" />
<glyph unicode="r" horiz-adv-x="668" d="M164 0v1017h117v-244q46 106 103 161q104 99 286 99v-126h-32q-162 0 -261 -113q-64 -75 -81 -198q-8 -58 -8 -180v-416h-124z" />
<glyph unicode="s" horiz-adv-x="963" d="M56 333h120q8 -103 48 -157q76 -103 253 -103q158 0 233 82q46 50 46 116q0 65 -42 103q-42 39 -106 59q-58 19 -132 37q-164 39 -209 55q-182 66 -182 234q0 157 137 236q91 52 234 52q213 0 315 -119q62 -72 72 -205h-122q-9 81 -38 125q-65 96 -236 96 q-105 0 -167 -40q-73 -46 -73 -133q0 -55 30 -87q36 -38 98 -57q65 -20 164 -43q190 -43 272 -97q108 -70 108 -205q0 -103 -68 -184q-108 -128 -337 -128q-233 0 -344 136q-70 87 -74 227z" />
<glyph unicode="t" horiz-adv-x="569" d="M-12 914v103h177v312h124v-312h212v-103h-212v-642q0 -99 16 -127q25 -44 112 -44q35 0 84 6v-106q-59 -8 -112 -8q-153 0 -199 83q-19 34 -23 104q-2 39 -2 153v581h-177z" />
<glyph unicode="u" horiz-adv-x="1124" d="M155 361v656h124v-602q0 -142 24 -206q24 -59 83 -94q63 -37 140 -37q99 0 176 57q82 61 115 173q21 71 21 187v522h124v-1017h-117v190q-42 -85 -98 -133q-105 -87 -248 -87q-101 0 -186 47q-102 56 -137 168q-21 66 -21 176z" />
<glyph unicode="v" horiz-adv-x="927" d="M12 1017h134l236 -618q27 -69 93 -277q57 181 94 285l219 610h126l-375 -1017h-134z" />
<glyph unicode="w" horiz-adv-x="1483" d="M23 1017h136l193 -620q26 -86 72 -263q52 220 66 268l182 615h143l193 -645q20 -68 59 -236q36 152 61 232l203 649h129l-331 -1017h-134l-202 668q-22 74 -51 200q-32 -133 -51 -198l-198 -670h-138z" />
<glyph unicode="x" horiz-adv-x="964" d="M7 0l394 534l-364 483h157l221 -298q4 -5 63 -94q49 73 66 94l225 298h147l-362 -474l403 -543h-158l-271 373q-21 29 -51 77q-46 -68 -52 -76l-270 -374h-148z" />
<glyph unicode="y" horiz-adv-x="937" d="M12 1017h136l276 -700q12 -30 60 -180q41 130 63 192l250 688h127l-399 -1056q-75 -196 -113 -253q-63 -95 -187 -95q-36 0 -83 6l-27 4v109q57 -13 89 -13q55 0 91 30q42 35 74 119q31 81 35 89q19 37 19 44q0 3 -2 6z" />
<glyph unicode="z" horiz-adv-x="936" d="M56 0v101l596 733q3 3 41 47q10 11 30 34q-26 0 -82 -1h-540v103h779v-88l-607 -745q-42 -49 -67 -82l50 1h58h595v-103h-853z" />
<glyph unicode="{" horiz-adv-x="590" d="M37 469v97q58 16 88 55q33 42 33 139v362q0 150 69 218q69 69 224 69h23v-99h-23q-93 0 -135 -46q-41 -44 -41 -153v-357q0 -106 -31 -162q-24 -45 -87 -78q71 -39 98 -104q20 -50 20 -141v-341q0 -88 16 -123q37 -84 160 -84h23v-99h-24q-161 0 -227 74q-65 73 -65 240 v332q0 106 -36 150q-28 34 -85 51z" />
<glyph unicode="|" horiz-adv-x="1024" d="M446 -352v1761h133v-1761h-133z" />
<glyph unicode="}" horiz-adv-x="590" d="M116 -279h23q93 0 135 46q41 44 41 153v357q0 106 31 162q23 44 86 78q-71 39 -97 104q-20 50 -20 141v341q0 88 -16 123q-37 84 -160 84h-23v99h23q162 0 228 -74q65 -73 65 -240v-332q0 -106 35 -150q29 -35 86 -51v-97q-58 -17 -88 -55q-33 -42 -33 -139v-362 q0 -150 -69 -218q-69 -69 -224 -69h-23v99z" />
<glyph unicode="~" horiz-adv-x="1167" d="M89 600q104 216 270 216q77 0 243 -84q106 -54 143 -65q35 -10 65 -10q115 0 207 159l62 -47q-42 -89 -103 -144q-80 -71 -173 -71q-46 0 -115 26q-24 9 -153 74q-115 59 -182 59q-110 0 -202 -160z" />
<glyph unicode="&#xa9;" horiz-adv-x="1667" d="M98 703q0 209 108 387q106 175 295 271q157 80 343 80q197 0 374 -109t271 -293q80 -158 80 -335q0 -207 -108 -384t-293 -271q-157 -81 -334 -81q-206 0 -383 108t-272 294q-81 158 -81 333zM178 703q0 -186 97 -346t262 -245q141 -72 297 -72q185 0 343 98 q157 99 241 265q71 142 71 302q0 187 -96 348q-94 157 -261 244q-138 72 -289 72q-279 0 -472 -193q-92 -93 -143 -217q-50 -122 -50 -256zM457 704q0 185 113 306q109 116 289 116q171 0 273 -103q72 -73 81 -168h-94q-16 71 -63 117q-75 74 -200 74q-154 0 -237 -116 q-66 -92 -66 -224q0 -138 65 -227q84 -114 237 -114q136 0 212 93q49 59 62 163h95q-11 -128 -84 -214q-104 -122 -288 -122q-195 0 -305 135q-90 112 -90 284z" />
<glyph unicode="&#xab;" horiz-adv-x="822" d="M105 463v120l265 248v-130l-186 -178l186 -176v-135zM425 461v120l263 249v-129l-185 -180l185 -177v-130z" />
<glyph unicode="&#xad;" horiz-adv-x="561" d="M46 465v113h469v-113h-469z" />
<glyph unicode="&#xae;" horiz-adv-x="1114" d="M114 1180q0 191 147 325q124 114 303 114q189 0 322 -147q114 -125 114 -295q0 -198 -146 -329q-127 -114 -297 -114q-198 0 -329 146q-114 126 -114 300zM170 1179q0 -175 128 -290q110 -99 259 -99q173 0 288 128q99 110 99 259q0 170 -128 286q-109 100 -253 100 q-178 0 -294 -128q-99 -110 -99 -256zM375 944v465h222q66 0 104 -21q61 -35 61 -109q0 -73 -69 -110q38 -19 51 -54q6 -16 11 -85q3 -40 9 -57q5 -13 23 -29h-79q-14 21 -17 71q-4 85 -26 106t-93 21h-131v-198h-66zM441 1196h125q65 0 94 15q36 19 36 65q0 77 -114 77 h-141v-157z" />
<glyph unicode="&#xb6;" horiz-adv-x="1157" d="M94 1032q0 129 68 228q67 96 192 129q76 20 183 20h491v-94h-91v-1693h-121v1693h-195v-1693h-121v1041q-22 -1 -35 -1q-113 0 -206 55q-76 46 -120 128q-45 84 -45 187z" />
<glyph unicode="&#xd7;" horiz-adv-x="1167" d="M182 347l337 336l-337 337l65 65l337 -337l336 337l65 -65l-337 -337l337 -336l-65 -65l-336 336l-337 -336z" />
<glyph unicode="&#xe0;" horiz-adv-x="1069" d="M75 259q0 200 192 274q64 25 159 38q13 2 199 20q109 11 140 50q21 26 21 80q0 118 -65 169q-67 54 -201 54q-158 0 -228 -91q-40 -51 -50 -150h-119q8 158 107 247q107 97 304 97q208 0 310 -104q47 -49 58 -135q5 -35 5 -119l-1 -297q1 -209 2 -231q3 -66 67 -66 q21 0 48 8v-96q-46 -16 -99 -16q-83 0 -114 63q-18 35 -18 124q-49 -76 -102 -118q-114 -90 -283 -90q-147 0 -233 68q-99 78 -99 221zM201 270q0 -91 64 -144q65 -55 173 -55q107 0 197 52q151 88 151 266v165q-37 -30 -99 -43q-41 -8 -182 -28q-163 -22 -232 -69 q-72 -50 -72 -144zM310 1450h152l198 -280h-100z" />
<glyph unicode="&#xe1;" horiz-adv-x="1069" d="M75 259q0 200 192 274q64 25 159 38q13 2 199 20q109 11 140 50q21 26 21 80q0 118 -65 169q-67 54 -201 54q-158 0 -228 -91q-40 -51 -50 -150h-119q8 158 107 247q107 97 304 97q208 0 310 -104q47 -49 58 -135q5 -35 5 -119l-1 -297q1 -209 2 -231q3 -66 67 -66 q21 0 48 8v-96q-46 -16 -99 -16q-83 0 -114 63q-18 35 -18 124q-49 -76 -102 -118q-114 -90 -283 -90q-147 0 -233 68q-99 78 -99 221zM201 270q0 -91 64 -144q65 -55 173 -55q107 0 197 52q151 88 151 266v165q-37 -30 -99 -43q-41 -8 -182 -28q-163 -22 -232 -69 q-72 -50 -72 -144zM473 1170l198 280h152l-250 -280h-100z" />
<glyph unicode="&#xe7;" horiz-adv-x="1065" d="M94 500q0 264 142 411q130 136 332 136q220 0 334 -141q68 -84 83 -210h-126q-18 95 -65 151q-81 97 -224 97q-182 0 -275 -145q-76 -117 -76 -290q0 -183 80 -301q92 -135 260 -135q172 0 257 136q39 65 52 155h125q-20 -140 -91 -233q-122 -161 -328 -161h-24l-61 -80 q43 7 71 7q67 0 108 -33q47 -36 47 -97q0 -78 -60 -124q-58 -44 -155 -44q-82 0 -183 40l27 60q73 -32 141 -32q54 0 86 23q35 25 35 65q0 42 -37 63q-28 17 -68 17q-35 0 -82 -17l-30 29l98 128q-132 17 -228 103q-165 147 -165 422z" />
<glyph unicode="&#xe8;" horiz-adv-x="1091" d="M94 498q0 245 133 399q131 150 331 150q162 0 277 -100q129 -111 161 -306q11 -66 10 -162h-786q2 -103 24 -171q77 -235 320 -235q159 0 247 117q44 57 64 145h120q-20 -98 -61 -166q-121 -199 -372 -199q-229 0 -356 162q-112 145 -112 366zM220 582h661 q-7 129 -60 214q-92 148 -266 148q-116 0 -202 -71q-108 -89 -133 -291zM337 1450h152l198 -280h-100z" />
<glyph unicode="&#xe9;" horiz-adv-x="1091" d="M94 498q0 245 133 399q131 150 331 150q162 0 277 -100q129 -111 161 -306q11 -66 10 -162h-786q2 -103 24 -171q77 -235 320 -235q159 0 247 117q44 57 64 145h120q-20 -98 -61 -166q-121 -199 -372 -199q-229 0 -356 162q-112 145 -112 366zM220 582h661 q-7 129 -60 214q-92 148 -266 148q-116 0 -202 -71q-108 -89 -133 -291zM518 1170l198 280h152l-250 -280h-100z" />
<glyph unicode="&#xea;" horiz-adv-x="1091" d="M94 498q0 245 133 399q131 150 331 150q162 0 277 -100q129 -111 161 -306q11 -66 10 -162h-786q2 -103 24 -171q77 -235 320 -235q159 0 247 117q44 57 64 145h120q-20 -98 -61 -166q-121 -199 -372 -199q-229 0 -356 162q-112 145 -112 366zM220 582h661 q-7 129 -60 214q-92 148 -266 148q-116 0 -202 -71q-108 -89 -133 -291zM294 1170l209 280h125l212 -280h-124l-154 208l-157 -208h-111z" />
<glyph unicode="&#xf4;" horiz-adv-x="1151" d="M94 508q0 227 114 371q133 168 377 168q220 0 354 -160q119 -142 119 -382q0 -254 -138 -398q-130 -137 -342 -137q-234 0 -364 159q-120 147 -120 379zM221 508q0 -203 98 -320q97 -115 261 -115q156 0 249 107q104 119 104 327q0 197 -94 316q-49 62 -124 94 q-65 27 -132 27q-162 0 -261 -114q-101 -118 -101 -322zM315 1170l209 280h125l212 -280h-124l-154 208l-157 -208h-111z" />
<glyph unicode="&#xf7;" horiz-adv-x="1167" d="M110 638v92h945v-92h-945zM490 377q0 40 31 68q26 24 64 24q39 0 67 -31q24 -27 24 -62q0 -41 -31 -69q-26 -24 -62 -24q-41 0 -69 31q-24 26 -24 63zM490 992q0 40 31 68q26 24 64 24q39 0 67 -31q24 -26 24 -62q0 -42 -31 -69q-26 -24 -62 -24q-41 0 -69 31 q-24 26 -24 63z" />
<glyph unicode="&#x153;" horiz-adv-x="1818" d="M94 506q0 246 120 391q123 150 334 150q276 0 369 -247q42 98 100 150q105 97 273 97q161 0 274 -89q169 -134 169 -448q0 -10 -1 -31h-762q-1 -23 -1 -31q0 -138 64 -235q92 -140 262 -140q233 0 308 258h120q-29 -126 -95 -205q-127 -156 -342 -156q-290 0 -374 260 q-29 -86 -82 -144q-106 -116 -291 -116q-221 0 -345 171q-100 137 -100 365zM219 504q0 -195 82 -310q86 -121 246 -121q167 0 245 134q69 120 69 311q0 204 -82 315q-80 111 -230 111q-158 0 -242 -115q-88 -121 -88 -325zM967 582h641q-9 146 -57 220q-91 142 -264 142 q-115 0 -199 -69q-109 -91 -121 -293z" />
<glyph unicode="&#x60c;" horiz-adv-x="456" d="M105 158q0 98 64.5 157t161.5 58l10 -59q-88 -5 -131 -60q-20 -25 -20 -54q0 -20 21 -20q23 2 38 3q102 0 102 -90q0 -46 -31 -70q-31 -23 -66 -23q-70 0 -109.5 44t-39.5 114z" />
<glyph unicode="&#x61b;" horiz-adv-x="396" d="M105 800q0 74 49 119t122 44l8 -45q-67 -4 -100 -45q-15 -19 -15 -41q0 -15 16 -15q18 2 29 3q77 0 77 -69q0 -35 -23 -52q-23 -18 -51 -18q-52 0 -82 33t-30 86zM140 75q0 -31 22 -53t53 -22q32 0 54 22t22 53q0 32 -22 54t-54 22q-31 0 -53 -22t-22 -54z" />
<glyph unicode="&#x61f;" horiz-adv-x="1058" d="M105 974q0 153 103 254q114 111 308 111q103 0 186 -35q120 -51 184 -156q63 -101 67 -276h-119q-7 138 -50 213q-82 144 -266 144q-138 0 -216 -83q-69 -74 -69 -181q0 -130 126 -254q93 -92 108 -108q68 -71 90 -131q27 -68 28 -221h-118q-2 159 -38 223 q-20 35 -88 100q-122 116 -157 162q-79 102 -79 238zM456 71q0 29 20.5 49t49.5 20t49.5 -20t20.5 -49t-20.5 -49.5t-49.5 -20.5t-49.5 20.5t-20.5 49.5z" />
<glyph unicode="&#x621;" horiz-adv-x="1119" d="M105 0v120h264q-27 34 -48 74.5t-35.5 84.5t-22.5 91t-8 94q0 78 22 151t70 130.5t125 93t187 37.5h172v-120h-170q-74 -4 -127.5 -30t-89 -66.5t-52.5 -91t-17 -104.5q0 -63 16 -124.5t44 -110.5t66.5 -79t82.5 -30h430v-120h-909z" />
<glyph unicode="&#x622;" horiz-adv-x="330" d="M-19 1502q26 42 54 60.5t58 18.5q16 0 35 -6t50 -21q19 -9 34 -13t29 -1.5t28.5 13.5t32.5 33l50 -69q-21 -23 -37 -38t-29 -23.5t-25.5 -12t-25.5 -3.5q-28 0 -83 26q-20 10 -33.5 16t-24 5.5t-21 -8t-24.5 -25.5l-18 -21zM105 0h120v1340h-120v-1340z" />
<glyph unicode="&#x623;" horiz-adv-x="330" d="M12 1440v94h49q-16 40 -16 80q0 30 8.5 58t27 50t48.5 35.5t73 14.5h81v-95h-80h1q-34 -1 -49.5 -20.5t-15.5 -42.5q0 -15 3 -29t8 -25.5t12.5 -18.5t15.5 -7h142v-94h-308zM105 0v1340h120v-1340h-120z" />
<glyph unicode="&#x624;" horiz-adv-x="1055" d="M105 284v226q0 90 33 168.5t90 137.5t134 93t164 34t164.5 -34.5t135 -93t90.5 -136.5t33 -164v-491q0 -87 -33 -163.5t-90.5 -134t-134 -90.5t-163.5 -33h-275v120h275q59 0 111.5 21.5t93 59t65.5 88t30 108.5h-438q-59 0 -111 22.5t-90.5 61t-61 90t-22.5 110.5z M225 284q0 -34 13 -64t35.5 -52t52.5 -35t64 -13h439v395q0 62 -23.5 118t-65 98t-96.5 67t-118 25t-117.5 -24.5t-95.5 -67t-64.5 -99.5t-23.5 -122v-226zM355 1093v94h49q-16 40 -16 80q0 30 8.5 58t27 50t48.5 35.5t73 14.5h81v-95h-80h1q-34 -1 -49.5 -20.5t-15.5 -42.5 q0 -15 3 -29t8 -25.5t12.5 -18.5t15.5 -7h142v-94h-308z" />
<glyph unicode="&#x625;" horiz-adv-x="330" d="M12 -338h49q-16 40 -16 80q0 30 8.5 58t27 50t48.5 35.5t73 14.5h81v-95h-80h1q-34 -1 -49.5 -20.5t-15.5 -42.5q0 -15 3 -29t8 -25.5t12.5 -18.5t15.5 -7h142v-94h-308v94zM105 0v1340h120v-1340h-120z" />
<glyph unicode="&#x626;" horiz-adv-x="1294" d="M105 856v94h49q-16 40 -16 80q0 30 8.5 58t27 50t48.5 35.5t73 14.5h81v-95h-80h1q-34 -1 -49.5 -20.5t-15.5 -42.5q0 -15 3 -29t8 -25.5t12.5 -18.5t15.5 -7h142v-94h-308zM219 33v723h120v-723q0 -78 31.5 -136t82.5 -96.5t116.5 -58t133.5 -19.5q69 0 134.5 19.5 t117 58.5t83 97.5t31.5 136.5q0 44 -10.5 80.5t-31 62.5t-51.5 40.5t-71 14.5h-285v420q0 60 23 113t62 92t91.5 62t112.5 23h220v-120h-220q-35 0 -65.5 -13.5t-53.5 -36.5t-36.5 -54t-13.5 -66v-300h165q70 0 123.5 -23t89 -65t53.5 -100.5t18 -129.5q0 -108 -42 -189 t-110 -135t-155.5 -81t-178.5 -27t-178 27t-155 80.5t-109.5 134t-41.5 188.5z" />
<glyph unicode="&#x627;" horiz-adv-x="330" d="M105 0v1340h120v-1340h-120z" />
<glyph unicode="&#x628;" horiz-adv-x="1411" d="M105 424v332h120v-332q0 -63 24 -118.5t65 -96.5t97 -65t119 -24h489q35 0 65.5 13t53 36t35.5 53.5t13 65.5v655h120v-655q0 -60 -22.5 -112.5t-61.5 -91.5t-91 -61.5t-112 -22.5h-489q-88 0 -165.5 33.5t-135 91t-91 134.5t-33.5 165zM630 -320q0 31 22 53t54 22 q31 0 53 -22t22 -53q0 -32 -22 -54t-53 -22q-32 0 -54 22t-22 54z" />
<glyph unicode="&#x629;" horiz-adv-x="1046" d="M105 286v229q0 88 33 166t89.5 136.5t132.5 92t162 33.5t162.5 -34t133.5 -92t89.5 -135t32.5 -162v-230q0 -65 -22.5 -118.5t-62 -91.5t-92 -59t-112.5 -21h-258q-61 0 -113.5 20.5t-91.5 58t-61 90t-22 117.5zM225 286q0 -38 13 -68.5t35.5 -52t53 -33.5t66.5 -12h258 q35 0 66 12t54 34.5t36 54t13 69.5v230q0 61 -23.5 116.5t-64 96.5t-95 65.5t-115.5 24.5q-62 0 -116 -24t-94 -66t-63.5 -98t-23.5 -120v-229zM306 1264q0 31 22 53t54 22q31 0 53 -22t22 -53q0 -32 -22 -54t-53 -22q-32 0 -54 22t-22 54zM575 1264q0 31 22 53t54 22 q31 0 53 -22t22 -53q0 -32 -22 -54t-53 -22q-32 0 -54 22t-22 54z" />
<glyph unicode="&#x62a;" horiz-adv-x="1411" d="M105 424v332h120v-332q0 -63 24 -118.5t65 -96.5t97 -65t119 -24h489q35 0 65.5 13t53 36t35.5 53.5t13 65.5v655h120v-655q0 -60 -22.5 -112.5t-61.5 -91.5t-91 -61.5t-112 -22.5h-489q-88 0 -165.5 33.5t-135 91t-91 134.5t-33.5 165zM496 1264q0 31 22 53t54 22 q31 0 53 -22t22 -53q0 -32 -22 -54t-53 -22q-32 0 -54 22t-22 54zM765 1264q0 31 22 53t54 22q31 0 53 -22t22 -53q0 -32 -22 -54t-53 -22q-32 0 -54 22t-22 54z" />
<glyph unicode="&#x62b;" horiz-adv-x="1411" d="M105 424v332h120v-332q0 -63 24 -118.5t65 -96.5t97 -65t119 -24h489q35 0 65.5 13t53 36t35.5 53.5t13 65.5v655h120v-655q0 -60 -22.5 -112.5t-61.5 -91.5t-91 -61.5t-112 -22.5h-489q-88 0 -165.5 33.5t-135 91t-91 134.5t-33.5 165zM498 1265q0 31 22 53t54 22 q31 0 53 -22t22 -53q0 -32 -22 -54t-53 -22q-32 0 -54 22t-22 54zM633 1480q0 31 22 53t54 22q31 0 53 -22t22 -53q0 -32 -22 -54t-53 -22q-32 0 -54 22t-22 54zM767 1265q0 31 22 53t54 22q31 0 53 -22t22 -53q0 -32 -22 -54t-53 -22q-32 0 -54 22t-22 54z" />
<glyph unicode="&#x62c;" horiz-adv-x="1033" d="M105 -137q0 48 15.5 94.5t46 82.5t76.5 58t107 22h289q35 0 66 13t54 35.5t36 52t13 63.5v224q0 94 -26 155.5t-68.5 97.5t-96.5 50t-111 14q-49 0 -96.5 -7t-88.5 -17.5t-74 -22.5t-52 -21l-52 108q23 11 61.5 25t86.5 26t103 20.5t112 8.5q53 0 104.5 -8.5t98.5 -28 t87 -52t69.5 -81t46 -114.5t16.5 -153v-224q0 -59 -22.5 -110.5t-62 -90t-92 -61t-112.5 -22.5h-289q-31 0 -54.5 -11.5t-39 -31t-23.5 -44t-8 -50.5t8 -51t23.5 -44.5t39 -31.5t54.5 -12h240v-120h-240q-61 0 -107 22.5t-76.5 59t-46 83t-15.5 94.5zM778 -320q0 31 22 53 t54 22q31 0 53 -22t22 -53q0 -32 -22 -54t-53 -22q-32 0 -54 22t-22 54z" />
<glyph unicode="&#x62d;" horiz-adv-x="1033" d="M105 -137q0 48 15.5 94.5t46 82.5t76.5 58t107 22h289q35 0 66 13t54 35.5t36 52t13 63.5v224q0 94 -26 155.5t-68.5 97.5t-96.5 50t-111 14q-49 0 -96.5 -7t-88.5 -17.5t-74 -22.5t-52 -21l-52 108q23 11 61.5 25t86.5 26t103 20.5t112 8.5q53 0 104.5 -8.5t98.5 -28 t87 -52t69.5 -81t46 -114.5t16.5 -153v-224q0 -59 -22.5 -110.5t-62 -90t-92 -61t-112.5 -22.5h-289q-31 0 -54.5 -11.5t-39 -31t-23.5 -44t-8 -50.5t8 -51t23.5 -44.5t39 -31.5t54.5 -12h458v-120h-458q-61 0 -107 22.5t-76.5 59t-46 83t-15.5 94.5z" />
<glyph unicode="&#x62e;" horiz-adv-x="1033" d="M105 -137q0 48 15.5 94.5t46 82.5t76.5 58t107 22h289q35 0 66 13t54 35.5t36 52t13 63.5v224q0 94 -26 155.5t-68.5 97.5t-96.5 50t-111 14q-49 0 -96.5 -7t-88.5 -17.5t-74 -22.5t-52 -21l-52 108q23 11 61.5 25t86.5 26t103 20.5t112 8.5q53 0 104.5 -8.5t98.5 -28 t87 -52t69.5 -81t46 -114.5t16.5 -153v-224q0 -59 -22.5 -110.5t-62 -90t-92 -61t-112.5 -22.5h-289q-31 0 -54.5 -11.5t-39 -31t-23.5 -44t-8 -50.5t8 -51t23.5 -44.5t39 -31.5t54.5 -12h458v-120h-458q-61 0 -107 22.5t-76.5 59t-46 83t-15.5 94.5zM430 1264q0 31 22 53 t54 22q31 0 53 -22t22 -53q0 -32 -22 -54t-53 -22q-32 0 -54 22t-22 54z" />
<glyph unicode="&#x62f;" horiz-adv-x="872" d="M105 0v120h372q35 0 66 13t54 35t36.5 52t13.5 64v224q0 76 -27.5 135t-86 99t-150.5 61t-221 21v120q162 0 276.5 -28.5t187.5 -84t107 -137t34 -186.5v-224q0 -59 -23 -110.5t-62 -90t-92 -61t-113 -22.5h-372z" />
<glyph unicode="&#x630;" horiz-adv-x="872" d="M105 0v120h372q35 0 66 13t54 35t36.5 52t13.5 64v224q0 76 -27.5 135t-86 99t-150.5 61t-221 21v120q162 0 276.5 -28.5t187.5 -84t107 -137t34 -186.5v-224q0 -59 -23 -110.5t-62 -90t-92 -61t-113 -22.5h-372zM393 1264q0 31 22 53t54 22q31 0 53 -22t22 -53 q0 -32 -22 -54t-53 -22q-32 0 -54 22t-22 54z" />
<glyph unicode="&#x631;" horiz-adv-x="475" d="M0 -286q51 22 90 48.5t67 55t46.5 58t30.5 56.5q27 64 27 131v880h120v-874q0 -91 -35 -176q-15 -37 -39 -76t-60 -77t-85.5 -73t-115.5 -63z" />
<glyph unicode="&#x632;" horiz-adv-x="487" d="M0 -286q51 22 90 48.5t67 55t46.5 58t30.5 56.5q27 64 27 131v880h120v-874q0 -91 -35 -176q-15 -37 -39 -76t-60 -77t-85.5 -73t-115.5 -63zM243 1264q0 31 22 53t54 22q31 0 53 -22t22 -53q0 -32 -22 -54t-53 -22q-32 0 -54 22t-22 54z" />
<glyph unicode="&#x633;" horiz-adv-x="2092" d="M105 25v731h120v-731q0 -75 31.5 -131.5t83 -94t117 -56.5t133.5 -19t133.5 19t116.5 56.5t82.5 94t31.5 131.5v918h121v-823h336v823h120v-823h166q35 0 66 13t54 35t36.5 51.5t13.5 63.5v660h120v-660q0 -59 -23 -110.5t-62 -89.5t-92 -60.5t-113 -22.5h-624 q-5 -99 -48.5 -173.5t-110.5 -124t-151.5 -74t-172.5 -24.5q-91 0 -178 26.5t-155.5 79t-110 131.5t-41.5 184z" />
<glyph unicode="&#x634;" horiz-adv-x="2092" d="M105 25v731h120v-731q0 -75 31.5 -131.5t83 -94t117 -56.5t133.5 -19t133.5 19t116.5 56.5t82.5 94t31.5 131.5v918h121v-823h336v823h120v-823h166q35 0 66 13t54 35t36.5 51.5t13.5 63.5v660h120v-660q0 -59 -23 -110.5t-62 -89.5t-92 -60.5t-113 -22.5h-624 q-5 -99 -48.5 -173.5t-110.5 -124t-151.5 -74t-172.5 -24.5q-91 0 -178 26.5t-155.5 79t-110 131.5t-41.5 184zM1261 1265q0 31 22 53t54 22q31 0 53 -22t22 -53q0 -32 -22 -54t-53 -22q-32 0 -54 22t-22 54zM1396 1480q0 31 22 53t54 22q31 0 53 -22t22 -53q0 -32 -22 -54 t-53 -22q-32 0 -54 22t-22 54zM1530 1265q0 31 22 53t54 22q31 0 53 -22t22 -53q0 -32 -22 -54t-53 -22q-32 0 -54 22t-22 54z" />
<glyph unicode="&#x635;" horiz-adv-x="2091" d="M105 25v731h120v-731q0 -75 31.5 -131.5t82.5 -94t116.5 -56.5t134.5 -19q68 0 133.5 19t117 56.5t83 94t31.5 131.5v918h120v-229q48 49 109.5 90.5t129.5 72.5t140 48.5t140 17.5q80 0 151 -23.5t124.5 -75t85 -134.5t31.5 -203v-224q0 -59 -23 -110.5t-62 -89.5 t-92 -60.5t-113 -22.5h-622q-5 -99 -48.5 -173.5t-111 -124t-152 -74t-172.5 -24.5q-91 0 -178 26.5t-155.5 79t-110 131.5t-41.5 184zM1075 120h621q35 0 66 13t54 35t36.5 51.5t13.5 63.5v224q0 87 -22 147t-59 97.5t-86.5 54.5t-104.5 17q-58 0 -119 -14t-119 -39 t-109 -59t-89 -73t-60.5 -82t-22.5 -86v-350z" />
<glyph unicode="&#x636;" horiz-adv-x="2091" d="M105 25v731h120v-731q0 -75 31.5 -131.5t82.5 -94t116.5 -56.5t134.5 -19q68 0 133.5 19t117 56.5t83 94t31.5 131.5v918h120v-229q48 49 109.5 90.5t129.5 72.5t140 48.5t140 17.5q80 0 151 -23.5t124.5 -75t85 -134.5t31.5 -203v-224q0 -59 -23 -110.5t-62 -89.5 t-92 -60.5t-113 -22.5h-622q-5 -99 -48.5 -173.5t-111 -124t-152 -74t-172.5 -24.5q-91 0 -178 26.5t-155.5 79t-110 131.5t-41.5 184zM1075 120h621q35 0 66 13t54 35t36.5 51.5t13.5 63.5v224q0 87 -22 147t-59 97.5t-86.5 54.5t-104.5 17q-58 0 -119 -14t-119 -39 t-109 -59t-89 -73t-60.5 -82t-22.5 -86v-350zM1395 1264q0 31 22 53t54 22q31 0 53 -22t22 -53q0 -32 -22 -54t-53 -22q-32 0 -54 22t-22 54z" />
<glyph unicode="&#x637;" horiz-adv-x="1402" d="M105 0v120h160v1220h120v-625q48 49 109 91t129.5 72.5t140 48t140.5 17.5q79 0 150.5 -23.5t125.5 -75.5t85.5 -135t31.5 -203v-223q0 -59 -23 -110.5t-62.5 -90t-92 -61t-112.5 -22.5h-902zM385 120h622q35 0 66 13t54 35t36.5 52t13.5 64v223q0 87 -22 147t-59 98 t-87 55t-105 17q-58 0 -119.5 -14t-119 -39t-108.5 -59t-89.5 -73t-60.5 -82t-22 -86v-351z" />
<glyph unicode="&#x638;" horiz-adv-x="1402" d="M105 0v120h160v1220h120v-625q48 49 109 91t129.5 72.5t140 48t140.5 17.5q79 0 150.5 -23.5t125.5 -75.5t85.5 -135t31.5 -203v-223q0 -59 -23 -110.5t-62.5 -90t-92 -61t-112.5 -22.5h-902zM385 120h622q35 0 66 13t54 35t36.5 52t13.5 64v223q0 87 -22 147t-59 98 t-87 55t-105 17q-58 0 -119.5 -14t-119 -39t-108.5 -59t-89.5 -73t-60.5 -82t-22 -86v-351zM705 1264q0 31 22 53t54 22q31 0 53 -22t22 -53q0 -32 -22 -54t-53 -22q-32 0 -54 22t-22 54z" />
<glyph unicode="&#x639;" horiz-adv-x="1182" d="M105 -137q0 48 15.5 94.5t47.5 82.5t80 58t114 22v403q0 75 24.5 141.5t67.5 119t100.5 90t123.5 55t136.5 12.5t140.5 -36l-50 -110q-70 31 -144.5 24t-136.5 -44.5t-102 -102t-40 -149.5v-403h595v-120h-727q-31 0 -54.5 -11.5t-39 -31t-23.5 -44t-8 -50.5t8 -51 t23.5 -44.5t39 -31.5t54.5 -12h555v-120h-555q-61 0 -107 22.5t-76.5 59t-46 83t-15.5 94.5z" />
<glyph unicode="&#x63a;" horiz-adv-x="1182" d="M105 -137q0 48 15.5 94.5t47.5 82.5t80 58t114 22v403q0 75 24.5 141.5t67.5 119t100.5 90t123.5 55t136.5 12.5t140.5 -36l-50 -110q-70 31 -144.5 24t-136.5 -44.5t-102 -102t-40 -149.5v-403h595v-120h-727q-31 0 -54.5 -11.5t-39 -31t-23.5 -44t-8 -50.5t8 -51 t23.5 -44.5t39 -31.5t54.5 -12h555v-120h-555q-61 0 -107 22.5t-76.5 59t-46 83t-15.5 94.5zM702 1264q0 31 22 53t54 22q31 0 53 -22t22 -53q0 -32 -22 -54t-53 -22q-32 0 -54 22t-22 54z" />
<glyph unicode="&#x640;" horiz-adv-x="283" d="M-43 0v120h368v-120h-368z" />
<glyph unicode="&#x641;" horiz-adv-x="1886" d="M105 428v328h120v-328q0 -64 24 -120t66 -98t98 -66t120 -24h412v406q0 89 33 165.5t89.5 132.5t132.5 88t162 32t162.5 -32t133.5 -88t89.5 -131t32.5 -161v-242q0 -66 -22.5 -119.5t-62 -91.5t-92.5 -58.5t-113 -20.5h-957q-89 0 -166.5 33.5t-136 92t-92 136 t-33.5 166.5zM1065 120h425q36 0 67 12t54 34.5t36 53.5t13 70v242q0 61 -23.5 114.5t-64 93t-95 62t-115.5 22.5q-62 0 -116 -22.5t-94 -62.5t-63.5 -94.5t-23.5 -118.5v-406zM1286 1264q0 31 22 53t54 22q31 0 53 -22t22 -53q0 -32 -22 -54t-53 -22q-32 0 -54 22t-22 54z " />
<glyph unicode="&#x642;" horiz-adv-x="1416" d="M105 37v718h120v-718q0 -65 24.5 -122t67 -99.5t100 -67t122.5 -24.5h350q59 0 111.5 21.5t93 58.5t65.5 87.5t30 108.5h-438q-59 0 -111 22.5t-90.5 61t-61 90.5t-22.5 111v225q0 90 33 168.5t90 137.5t134 93t164 34t164.5 -34.5t135 -93t90.5 -136t33 -164.5v-490 q0 -87 -33 -163.5t-90.5 -134t-134 -90.5t-163.5 -33h-350q-90 0 -169 34t-138 93t-93 137.5t-34 168.5zM586 285q0 -34 13 -64t35.5 -52.5t52.5 -35.5t64 -13h439v395q0 63 -23.5 119t-65 98t-96.5 66.5t-118 24.5t-117.5 -24.5t-95.5 -67t-64.5 -99.5t-23.5 -122v-225z M675 1265q0 31 22 53t54 22q31 0 53 -22t22 -53q0 -32 -22 -54t-53 -22q-32 0 -54 22t-22 54zM944 1265q0 31 22 53t54 22q31 0 53 -22t22 -53q0 -32 -22 -54t-53 -22q-32 0 -54 22t-22 54z" />
<glyph unicode="&#x643;" horiz-adv-x="1412" d="M105 424v332h120v-332q0 -63 24 -118.5t65 -96.5t96.5 -65t118.5 -24h490q35 0 65.5 13t53.5 36t36 53.5t13 65.5v1052h120v-1052q0 -60 -22.5 -112.5t-61.5 -91.5t-91.5 -61.5t-112.5 -22.5h-490q-88 0 -165 33.5t-134.5 91t-91 134.5t-33.5 165zM550 943v94h49 q-16 40 -16 80q0 30 8.5 58t27 50t48.5 35.5t73 14.5h81v-95h-80h1q-34 -1 -49.5 -20.5t-15.5 -42.5q0 -15 3 -29t8 -25.5t12.5 -18.5t15.5 -7h142v-94h-308z" />
<glyph unicode="&#x644;" horiz-adv-x="1180" d="M105 29v727h120v-727q0 -77 31.5 -134.5t82.5 -96t116.5 -57.5t134.5 -19q68 0 133.5 19t117 57.5t83 96t31.5 134.5v1311h120v-1311q0 -107 -42 -187t-110 -133.5t-155 -80t-178 -26.5t-178 26.5t-155.5 80t-110 133.5t-41.5 187z" />
<glyph unicode="&#x645;" horiz-adv-x="1418" d="M105 122q0 72 20.5 135t65 110t115.5 74t172 27v48q0 85 33 162.5t90 136.5t133 93.5t162 34.5t162 -33.5t132.5 -91.5t89.5 -136t33 -166v-228q0 -89 -33 -167t-89.5 -136t-132.5 -91.5t-162 -33.5t-162 34.5t-133 93t-90 135.5t-33 163v62q-72 0 -120.5 -17.5 t-78 -48.5t-42 -72t-12.5 -88v-518h-120v518zM598 286q0 -62 23.5 -117.5t64 -97.5t95 -66.5t115.5 -24.5t115.5 24t94.5 66t63.5 98t23.5 120v228q0 63 -23.5 119t-63.5 98t-94.5 66t-115.5 24t-115.5 -25t-95 -67t-64 -98t-23.5 -117v-230z" />
<glyph unicode="&#x646;" horiz-adv-x="1180" d="M105 31v725h120v-725q0 -77 31.5 -134.5t82.5 -96t116.5 -58t134.5 -19.5q68 0 133.5 19.5t117 58t83 96t31.5 134.5v912h120v-912q0 -107 -42 -187t-110 -133.5t-155 -80.5t-178 -27t-178 27t-155.5 80.5t-110 133.5t-41.5 187zM515 1264q0 31 22 53t54 22q31 0 53 -22 t22 -53q0 -32 -22 -54t-53 -22q-32 0 -54 22t-22 54z" />
<glyph unicode="&#x647;" horiz-adv-x="1046" d="M105 286v229q0 88 33 166t89.5 136.5t132.5 92t162 33.5t162.5 -34t133.5 -92t89.5 -135t32.5 -162v-230q0 -65 -22.5 -118.5t-62 -91.5t-92 -59t-112.5 -21h-258q-61 0 -113.5 20.5t-91.5 58t-61 90t-22 117.5zM225 286q0 -38 13 -68.5t35.5 -52t53 -33.5t66.5 -12h258 q35 0 66 12t54 34.5t36 54t13 69.5v230q0 61 -23.5 116.5t-64 96.5t-95 65.5t-115.5 24.5q-62 0 -116 -24t-94 -66t-63.5 -98t-23.5 -120v-229z" />
<glyph unicode="&#x648;" horiz-adv-x="1055" d="M105 284v226q0 90 33 168.5t90 137.5t134 93t164 34t164.5 -34.5t135 -93t90.5 -136.5t33 -164v-491q0 -87 -33 -163.5t-90.5 -134t-134 -90.5t-163.5 -33h-275v120h275q59 0 111.5 21.5t93 59t65.5 88t30 108.5h-438q-59 0 -111 22.5t-90.5 61t-61 90t-22.5 110.5z M225 284q0 -34 13 -64t35.5 -52t52.5 -35t64 -13h439v395q0 62 -23.5 118t-65 98t-96.5 67t-118 25t-117.5 -24.5t-95.5 -67t-64.5 -99.5t-23.5 -122v-226z" />
<glyph unicode="&#x649;" horiz-adv-x="1180" d="M210 33v723h120v-723q0 -78 31.5 -136t82.5 -96.5t116.5 -58t133.5 -19.5q69 0 134.5 19.5t117 58.5t83 97.5t31.5 136.5q0 44 -10.5 80.5t-31 62.5t-51.5 40.5t-71 14.5h-285v420q0 60 23 113t62 92t91.5 62t112.5 23h220v-120h-220q-35 0 -65.5 -13.5t-53.5 -36.5 t-36.5 -54t-13.5 -66v-300h165q70 0 123.5 -23t89 -65t53.5 -100.5t18 -129.5q0 -108 -42 -189t-110 -135t-155.5 -81t-178.5 -27t-178 27t-155 80.5t-109.5 134t-41.5 188.5z" />
<glyph unicode="&#x64a;" horiz-adv-x="1180" d="M105 33v723h120v-723q0 -78 31.5 -136t82.5 -96.5t116.5 -58t133.5 -19.5q69 0 134.5 19.5t117 58.5t83 97.5t31.5 136.5q0 44 -10.5 80.5t-31 62.5t-51.5 40.5t-71 14.5h-285v420q0 60 23 113t62 92t91.5 62t112.5 23h220v-120h-220q-35 0 -65.5 -13.5t-53.5 -36.5 t-36.5 -54t-13.5 -66v-300h165q70 0 123.5 -23t89 -65t53.5 -100.5t18 -129.5q0 -108 -42 -189t-110 -135t-155.5 -81t-178.5 -27t-178 27t-155 80.5t-109.5 134t-41.5 188.5zM378 -720q0 31 22 53t54 22q31 0 53 -22t22 -53q0 -32 -22 -54t-53 -22q-32 0 -54 22t-22 54z M647 -720q0 31 22 53t54 22q31 0 53 -22t22 -53q0 -32 -22 -54t-53 -22q-32 0 -54 22t-22 54z" />
<glyph unicode="&#x64b;" d="M-231 0v72h462v-72h-462zM-231 144v72h462v-72h-462z" />
<glyph unicode="&#x64c;" d="M-234 87l68 94q4 6 16.5 18t33.5 9q27 -3 43 -37v-1l36 -92q54 19 97 59q-46 11 -73 47q-17 21 -24 47.5t-4 52.5q5 26 20 47.5t40 34.5q26 13 54 13.5t51 -11.5q53 -28 62 -85q6 -33 -4 -70l18 4t17 4l18 -70q-21 -5 -42 -9.5t-44 -6.5q-7 -11 -14.5 -20.5t-13.5 -16.5 q-61 -65 -150 -93q-5 -2 -11.5 -3.5t-13.5 -1.5q-9 0 -17 4q-12 5 -17.5 14.5t-11.5 21.5l-27 73l-49 -69zM30.5 254q1.5 -14 12.5 -26q11 -15 27.5 -19t33.5 -4q8 17 11 34t1 33q-3 14 -13.5 25t-27.5 11q-15 0 -26 -8t-15.5 -20t-3 -26z" />
<glyph unicode="&#x64d;" d="M-231 0h462v-72h-462v72zM-231 -144h462v-72h-462v72z" />
<glyph unicode="&#x64e;" d="M-231 0v72h462v-72h-462z" />
<glyph unicode="&#x64f;" d="M-159 71q38 10 75.5 25t68.5 44q-45 11 -73 47q-17 21 -24 47.5t-3 52.5q5 26 20 47.5t39 34.5q26 13 54 13.5t52 -11.5q53 -28 62 -85q6 -33 -4 -70q9 2 17.5 4t17.5 4l17 -70q-20 -5 -41.5 -9.5t-44.5 -6.5q-7 -11 -14 -20.5t-13 -16.5q-43 -46 -92.5 -67t-96.5 -32z M-43.5 257q1.5 -14 11.5 -26q5 -7 15 -13.5t27 -8.5q5 -1 10 -1h10q7 17 10.5 34t0.5 33q-2 14 -13 25t-27 11q-15 0 -26 -8t-15.5 -20t-3 -26z" />
<glyph unicode="&#x650;" d="M-231 0h462v-72h-462v72z" />
<glyph unicode="&#x651;" d="M-230 103v126h72v-116q0 -17 12 -29t29 -12h84v157h72v-157h80q17 0 29 12t12 29v116h71v-126q0 -21 -8 -40t-21.5 -33t-32.5 -22t-40 -8h-257q-21 0 -39.5 8t-32.5 22t-22 33t-8 40z" />
<glyph unicode="&#x652;" d="M-158 159q0 33 12.5 62t34 50.5t50.5 34t62 12.5t61.5 -12.5t50 -34t34 -50.5t12.5 -62t-12.5 -61.5t-34 -50.5t-50 -34.5t-61.5 -12.5t-62 12.5t-50.5 34.5t-34 50.5t-12.5 61.5zM-87 159q0 -36 25.5 -61.5t62.5 -25.5q18 0 33.5 7t27 18.5t18.5 27.5t7 34t-7 34 t-18.5 27.5t-27 18.5t-33.5 7q-37 0 -62.5 -25.5t-25.5 -61.5z" />
<glyph unicode="&#x660;" horiz-adv-x="1051" d="M105 421v501q0 86 31 162.5t91 136.5t136.5 91t162.5 31q84 0 160.5 -31.5t136.5 -91.5q60 -61 91.5 -137t31.5 -161v-501q0 -85 -31.5 -160.5t-91.5 -135.5t-136.5 -92.5t-160.5 -32.5q-86 0 -162.5 31.5t-136.5 92.5q-60 60 -91 136t-31 161zM217 421q0 -64 24 -120.5 t66 -98.5t98.5 -66t120.5 -24q63 0 119 24t97.5 66t65.5 98.5t24 120.5v501q0 63 -23 119t-66 98q-44 44 -99.5 66.5t-117.5 22.5q-63 0 -118.5 -22.5t-98.5 -66.5q-45 -42 -68.5 -98t-23.5 -119v-501z" />
<glyph unicode="&#x661;" horiz-adv-x="634" d="M105 1203l55 141h242q62 0 94 -45q33 -47 33 -127v-1171h-129v1202h-295z" />
<glyph unicode="&#x662;" horiz-adv-x="1097" d="M105 114q0 19 5.5 34.5t16.5 29t27.5 27.5t39.5 31q5 5 11 9.5t12 9.5l490 383q71 57 113 128q25 42 38 85t13 87q0 65 -23.5 120t-65 95t-98 62.5t-122.5 22.5q-72 0 -130.5 -22.5t-102.5 -69.5q-42 -45 -63 -104t-21 -130q0 -95 61 -173q11 -14 23 -25.5t25 -22.5 l-92 -67q-43 34 -70 74t-42.5 81.5t-21 81.5t-5.5 75q0 56 12.5 101.5t32 82.5t43 64.5t46.5 47.5q65 54 148 82.5t175 28.5q87 0 162 -31t130.5 -85.5t87.5 -128t32 -157.5q0 -76 -20.5 -139t-63.5 -121q-42 -54 -97.5 -102.5t-124.5 -103.5l-470 -369h769v-106h-729 q-35 0 -64 7.5t-49 21.5q-38 28 -38 85z" />
<glyph unicode="&#x663;" horiz-adv-x="1041" d="M105 310h116q18 -44 47 -81t67 -63t83 -40.5t94 -14.5q64 0 121 24.5t99.5 67.5t67 99.5t24.5 121.5q0 143 -93 221q-39 32 -83.5 48.5t-85.5 28.5q-28 8 -51.5 16.5t-38.5 19.5q-10 7 -14.5 14t-4.5 24l1 5.5t6 17t16.5 30t31.5 46.5l260 329h-543l-27 114h579 q71 0 111 -28q39 -26 39 -80l-285 -395l68 -36q104 -57 165 -157q30 -50 45.5 -105.5t15.5 -112.5q0 -85 -32 -162t-93 -138t-138 -93t-161 -32q-78 0 -151 28t-132 82q-92 83 -124 201z" />
<glyph unicode="&#x664;" horiz-adv-x="1227" d="M105 341q0 11 4 25t9 25l588 951h176l-613 -989h501v162h148v-162h204v-119h-204v-235h-148v235h-548q-23 0 -44.5 8.5t-38.5 23.5q-34 31 -34 75z" />
<glyph unicode="&#x665;" horiz-adv-x="1000" d="M105 876v341q0 61 40 91q42 31 118 31h550l-31 -114h-552v-409h266q80 0 152.5 -30.5t129.5 -88.5t87 -132t30 -155t-30 -155.5t-86 -133.5q-57 -58 -129.5 -89t-153.5 -31q-72 0 -138.5 24.5t-121.5 72.5q-38 35 -68 77.5t-48 91.5h109q18 -37 46 -67t63 -51.5t75 -33 t83 -11.5q62 0 117 24t96 65.5t65 97.5t24 119q0 62 -23 117t-67 98q-43 44 -97.5 66.5t-114.5 22.5q-51 0 -100 -3q-48 -3 -93 -3q-55 0 -90 7t-58 23q-5 3 -13 10t-16.5 22.5t-14.5 41t-6 64.5z" />
<glyph unicode="&#x666;" horiz-adv-x="1175" d="M105 443q0 53 14 105t40 100l407 693h165l-269 -455h113q97 0 186.5 -31.5t158.5 -91.5q70 -59 109 -139q41 -81 41 -181q0 -91 -37.5 -172t-107.5 -144q-69 -60 -156.5 -93.5t-179.5 -33.5q-94 0 -181.5 33.5t-156.5 93.5q-71 63 -108.5 144t-37.5 172zM247 443 q0 -68 27.5 -129t79.5 -109q48 -44 111 -68.5t129 -24.5t128 24.5t112 68.5q52 48 79 109t27 129q0 69 -27 130t-79 108q-50 45 -112 69t-128 24t-129 -24t-111 -69q-52 -47 -79.5 -108t-27.5 -130z" />
<glyph unicode="&#x667;" horiz-adv-x="996" d="M105 1340h648q28 0 53 -10.5t44 -28.5t30 -42t11 -52q0 -4 -2.5 -15t-9 -36.5t-18.5 -67.5t-32.5 -107t-50 -156t-71.5 -215q-45 -133 -99.5 -289t-112.5 -321h-169l432 1199h-620z" />
<glyph unicode="&#x668;" horiz-adv-x="1038" d="M105 384q0 89 41 168t116 133l62 46l-55 53q-48 47 -74 106t-26 124q0 67 27 126.5t78 105.5q49 45 112.5 68.5t131.5 23.5t132 -23.5t113 -68.5q51 -46 78.5 -105.5t27.5 -126.5q0 -65 -26 -124t-75 -106l-54 -53l62 -46q75 -54 116 -133t41 -168q0 -79 -32 -149.5 t-93 -124.5q-59 -53 -134 -81.5t-156 -28.5t-156 28.5t-134 81.5q-60 54 -91.5 124.5t-31.5 149.5zM227 390q0 -57 22.5 -109t65.5 -94q41 -39 93.5 -60.5t109.5 -21.5q60 0 113.5 22.5t93.5 61.5t63 90.5t23 110.5t-23 111.5t-66 93.5q-42 41 -94 61.5t-110 20.5 q-60 0 -113 -22.5t-92.5 -61.5t-62.5 -91t-23 -112zM286 1003q0 -48 18 -91t49.5 -75t74 -50.5t90.5 -18.5t91 18.5t74.5 50.5t50 75t18.5 91t-18.5 90t-50 73.5t-74.5 50t-91 18.5q-47 0 -89 -17t-76 -51q-32 -32 -49.5 -74.5t-17.5 -89.5z" />
<glyph unicode="&#x669;" horiz-adv-x="1097" d="M105 900q0 92 35 172.5t95 140.5t141 95t173 35q89 0 169 -33.5t144 -96.5q63 -63 96.5 -143.5t33.5 -169.5q0 -57 -13 -109t-36 -97l-378 -694h-146l252 456h-109q-94 0 -177.5 32.5t-147.5 93.5q-64 62 -98 144t-34 174zM217 900q0 -67 24 -127t69 -108 q46 -48 106 -73.5t127 -25.5q66 0 126 26t107 76q46 48 70 107t24 125t-24.5 125.5t-69.5 107.5q-47 48 -107 73t-126 25q-68 0 -127 -26t-103.5 -71t-70 -105t-25.5 -129z" />
<glyph unicode="&#x66a;" horiz-adv-x="1701" d="M105 1031q0 180 87 277q86 94 236 94q152 0 237 -108q69 -88 69 -254q0 -181 -84 -285q-80 -100 -232 -100q-169 0 -249 119q-64 95 -64 257zM214 1023q0 -125 45 -198q52 -85 157 -85q119 0 171 103q38 76 38 193q0 280 -203 280q-208 0 -208 -293zM409 0l774 1367h103 l-775 -1367h-102zM969 339q0 181 78 277q86 105 245 105q96 0 171 -48q133 -86 133 -312q0 -196 -88 -294q-82 -92 -226 -92q-163 0 -244 108q-69 91 -69 256zM1079 343q0 -127 45 -200q52 -85 160 -85q111 0 163 97q40 72 40 195q0 122 -40 194q-24 43 -66 66 q-46 25 -96 25q-206 0 -206 -292z" />
<glyph unicode="&#x66d;" horiz-adv-x="2943" d="M105 743v587q0 11 8 18.5t19 7.5t18.5 -7.5t7.5 -18.5v-383q30 48 75 86q19 16 43 31.5t53.5 28t64.5 20t76 7.5q82 0 149.5 -30.5t115.5 -81.5t74 -116.5t26 -134.5q0 -70 -27 -137t-75 -119t-115 -83.5t-148 -31.5q-80 0 -147 30t-115.5 80t-75.5 114t-27 133zM159 757 q0 -65 24.5 -122.5t66.5 -100t98.5 -67t121.5 -24.5q64 0 120.5 24.5t98.5 67t66.5 100t24.5 122.5q0 64 -24.5 120.5t-66.5 99t-98.5 67t-120.5 24.5q-65 0 -121.5 -24.5t-98.5 -67t-66.5 -99t-24.5 -120.5zM870 754q0 76 28.5 143t78 116.5t116.5 78.5t143 29t143 -29 t117 -78.5t78.5 -116.5t28.5 -143q0 -8 -6 -16.5t-22 -8.5h-391q-11 0 -19.5 7.5t-8.5 20.5q0 11 8.5 19t19.5 8h362q-6 59 -32 110.5t-67.5 90t-95.5 60.5t-115 22q-65 0 -121.5 -24.5t-98.5 -67t-66 -99.5t-24 -122q0 -64 24 -120.5t66 -99t98.5 -67t121.5 -24.5 q42 0 81 11t73.5 30.5t63 47t48.5 60.5q6 11 17.5 13t21.5 -5q8 -6 11 -17t-5 -21q-24 -39 -56.5 -71t-72.5 -55.5t-86 -36t-96 -12.5q-76 0 -143 29t-116.5 79t-78 117t-28.5 142zM1222 111q0 18 19 18q7 0 12.5 -5t5.5 -13q0 -6 2 -18t10 -24t24 -21t44 -9q33 0 50.5 10 t24.5 23t7.5 23.5t0.5 11.5l-0.5 9t-8 19t-25 18.5t-50.5 8.5t-55 8t-35.5 20.5t-19.5 27t-6 28.5q0 13 4.5 31t17.5 34t35.5 27.5t58.5 11.5q32 -1 58 -13q22 -11 40.5 -33.5t18.5 -65.5q0 -7 -5.5 -12t-13.5 -5q-7 0 -12 5t-5 12q0 21 -9 38q-8 14 -24 26.5t-48 12.5 t-48.5 -11t-23.5 -24q-8 -16 -8 -35q1 -13 10 -23q8 -9 24 -16t46 -7q62 0 91.5 -27.5t29.5 -65.5q0 -19 -6.5 -37.5t-20.5 -33.5t-37.5 -24t-56.5 -9q-26 0 -47.5 8.5t-37 23.5t-23.5 34.5t-8 42.5zM1490 231q0 52 32.5 85.5t86.5 33.5q25 0 47.5 -9.5t38.5 -25.5t25.5 -38 t9.5 -46q0 -25 -9.5 -47t-25.5 -38.5t-38.5 -26t-47.5 -9.5h-81v-94q0 -19 -19 -19q-8 0 -13 5.5t-5 13.5zM1528 147h81q17 0 32.5 6.5t27 18t18 26.5t6.5 33q0 34 -24.5 59t-59.5 25q-38 0 -59.5 -24.5t-21.5 -59.5v-84zM1639 440v630q2 20 20 37t44 17t44 -17t19 -37v-630 q-1 -20 -19 -37t-44 -18q-26 1 -44 18t-20 37zM1737 174q0 37 14 69.5t38 56.5t56.5 38t68.5 14q37 0 69.5 -14t56.5 -38t38 -56.5t14 -69.5q0 -36 -14 -68.5t-38 -57t-56.5 -38.5t-69.5 -14q-36 0 -68.5 14t-56.5 38.5t-38 57t-14 68.5zM1777 174q0 -29 11 -54t29.5 -43.5 t43.5 -29.5t53 -11q29 0 54 11t44 29.5t29.5 43.5t10.5 54q0 28 -10.5 53t-29.5 44t-44 29.5t-54 10.5q-28 0 -53 -10.5t-43.5 -29.5t-29.5 -44t-11 -53zM1826 436v474q3 40 18 77q13 32 40.5 65t78.5 54q52 19 97 16t81 -19t61.5 -40t37.5 -46l289 -455q14 -22 33 -35 q17 -11 41.5 -15t56.5 13q15 7 24.5 17.5t15.5 22t8.5 21.5t2.5 17v466q2 20 19.5 37t42.5 17q27 0 45 -17t19 -37v-466q0 -41 -13 -78q-12 -32 -39 -65.5t-81 -55.5q-52 -21 -98 -17.5t-82 19t-61 37.5t-35 37q-5 8 -20 31.5t-36 57.5t-46.5 74t-51.5 81q-61 96 -135 212 q-9 18 -22 31q-11 11 -28 20.5t-39 7.5q-38 -4 -58.5 -19.5t-28.5 -32.5q-11 -20 -10 -46v-454q0 -22 -18 -39.5t-44 -18.5q-27 1 -45 17t-20 34zM2111 15v216q0 52 32.5 86.5t88.5 34.5q25 0 47 -9.5t38.5 -26t26 -38.5t9.5 -47q0 -39 -22.5 -70t-59.5 -44l56 -92 q4 -6 2.5 -13.5t-8.5 -10.5q-8 -5 -15.5 -3.5t-11.5 9.5l-64 103h-82v-95q0 -8 -5 -13.5t-13 -5.5q-19 0 -19 19zM2148 147h84q35 0 59.5 24.5t24.5 59.5q0 18 -6.5 33t-18 26.5t-27 18t-32.5 6.5q-38 0 -61 -23.5t-23 -60.5v-84zM2343 331q0 8 6 13.5t15 5.5h204 q8 0 13.5 -5.5t5.5 -13.5t-5.5 -14t-13.5 -6h-82v-294q0 -8 -5.5 -14t-13.5 -6q-9 0 -14.5 6t-5.5 14v294h-83q-9 0 -15 6t-6 14zM2599 108q0 19 16 19q8 0 13 -5.5t5 -13.5q0 -6 2.5 -18.5t11 -25t25 -21.5t44.5 -9q34 0 51 10.5t24.5 23.5t8 24t0.5 12t-0.5 9.5t-8 18.5 t-25 18.5t-50.5 8.5q-34 0 -56.5 8t-36 21t-19 28t-5.5 29q0 13 4.5 31t17 34.5t35 28t58.5 11.5q33 -1 59 -13q22 -11 40.5 -33.5t18.5 -66.5q0 -7 -5 -13t-13 -6q-9 0 -14 6t-5 13q0 21 -8 38q-7 14 -23 26t-48 12q-33 0 -49.5 -11t-24.5 -24q-9 -15 -9 -34q1 -13 10 -24 q8 -9 24 -16.5t47 -7.5q63 0 93 -27t30 -65q0 -19 -7 -38t-21.5 -34.5t-38 -25t-56.5 -9.5q-26 0 -48 9t-37.5 24t-23.5 35t-6 43z" />
<glyph unicode="&#x6de;" horiz-adv-x="1072" d="M105 409l37 117l18 4l-11 14l38 120l98 72l17 -8v19l101 74h124l9 -18l10 18h122l104 -74l-2 -19l16 8l98 -72l39 -120l-11 -14l17 -4l38 -117l-38 -116l-17 -3l11 -16l-39 -119l-98 -72l-16 9l2 -20l-104 -73h-122l-10 18l-9 -18h-124l-101 73v20l-17 -9l-98 72l-38 119 l11 16l-18 3zM123 409l33 -101l38 -7l-26 -30l34 -104l85 -64l35 17l-4 -40l92 -63h105l21 35l20 -35h107l89 63l-3 40l35 -17l86 64l34 104l-25 30l37 7l33 101l-33 103l-37 6l25 30l-34 105l-86 63l-35 -17l3 40l-89 64h-107l-20 -36l-21 36h-105l-92 -64l4 -40l-35 17 l-85 -63l-34 -105l26 -30l-38 -6zM144 409l26 84l39 10l22 -25l-14 -44l55 -25l-55 -23l14 -44l-22 -26l-39 10zM189 268l25 26l34 -6l17 -48l58 17l-31 -54l37 -26l-4 -35l-36 -14l-72 51zM189 552l28 88l72 52l36 -15l4 -34l-37 -26l31 -54l-58 16l-17 -47l-34 -7z M229 311l23 27l-12 39l58 23l90 -37l-50 -86l-62 -12l-12 37zM229 507l35 10l12 38l62 -14l50 -84l-90 -38l-58 25l12 38zM316 209l33 53l96 23l8 -96l-41 -48l-34 21l-32 -11l3 35zM316 611l33 22l-3 36l32 -13l34 22l41 -47l-8 -97l-96 24zM326 409l71 31l20 -31l-20 -29z M339 91l4 38l33 13l39 -28l40 47l4 -62h48l19 -30l-20 -33h-89zM339 729l78 55h89l20 -33l-19 -30h-48l-4 -63l-40 47l-39 -27l-33 13zM362 286l43 69l35 -14l4 -36zM362 534l82 -20l-4 -35l-35 -15zM372 409l19 -7l4 7l-4 8zM400 311l25 8l-1 11l-11 3zM400 507l13 -20 l11 3l1 11zM416 374l23 35l-23 37l42 19l3 46l43 -10l32 33l32 -33l42 10l4 -46l43 -19l-25 -37l25 -35l-43 -21l-4 -44l-42 10l-32 -34l-32 34l-43 -10l-3 44zM442 381l33 -14l2 -37l33 8l26 -27l25 27l34 -8l1 37l34 14l-18 28l18 29l-34 14l-1 37l-34 -7l-25 27l-26 -27 l-33 7l-2 -37l-33 -14l19 -29zM462 290l36 7l25 -27l-53 -62zM462 530l8 81l53 -62l-25 -26zM471 180l65 77l63 -77l-6 -63h-40l-17 -28l-18 28h-40zM471 639l7 63h40l18 28l17 -28h40l6 -63l-63 -77zM481 276l2 -24l16 18l-7 7zM481 543l11 -2l7 8l-16 20zM547 69l18 30h48 l5 62l39 -47l39 28l34 -13l3 -38l-78 -55h-88zM547 751l20 33h88l78 -55l-3 -38l-34 -13l-39 27l-39 -47l-5 63h-48zM550 270l24 27l36 -7l-7 -82zM550 549l53 62l7 -81l-36 -7zM573 270l15 -18l3 24l-11 1zM573 549l7 -8l11 2l-3 26zM619 189l8 96l98 -23l31 -53l-32 -23 l3 -35l-33 11l-33 -21zM619 631l42 47l33 -22l33 13l-3 -36l32 -22l-31 -53l-98 -24zM627 305l5 36l35 14l43 -69zM627 514l83 20l-43 -70l-35 15zM647 319l25 -8l-12 22l-12 -3zM647 501l1 -11l12 -3l12 20zM655 409l19 31l71 -31l-71 -29zM676 409l6 -7l18 7l-18 8z M685 363l89 37l58 -23l-12 -39l23 -27l-35 -9l-12 -37l-62 12zM685 457l49 84l62 14l12 -38l35 -10l-23 -25l12 -38l-58 -25zM744 177l36 26l-32 54l59 -17l17 48l33 6l26 -26l-29 -89l-71 -51l-37 14zM744 643l2 34l37 15l71 -52l29 -88l-26 -27l-33 7l-17 47l-59 -16 l32 54zM801 409l55 25l-14 44l21 25l39 -10l27 -84l-27 -83l-39 -10l-21 26l14 44z" />
<glyph unicode="&#x6e9;" horiz-adv-x="1446" d="M105 1v55h171v191h27q15 0 15 14v36q0 18 11 28q13 11 30 11h32v87q-3 0 -31 31q-38 40 -60 82q-31 62 -31 126q0 73 55 153q29 43 67.5 79.5t86.5 68.5q18 11 43.5 25t58.5 30q21 11 47 23t58 26q12 6 21.5 10t16.5 7q8 4 13 6q5 -1 12 -5l15 -7.5t21 -9.5 q64 -28 106 -50q32 -16 58 -30t45 -25q98 -66 154 -148q55 -80 55 -153q0 -64 -31 -125q-21 -43 -60 -83q-28 -31 -31 -31v-87h31q18 0 31 -11q11 -11 11 -28v-36q0 -14 14 -14h27v-191h147v-55h-196v196h-12q-17 0 -23 8q-7 8 -7 33v33q0 8 -3 11q-3 4 -12 4h-57v164 q6 0 32 26q19 17 34 35t27 38q32 55 32 111q0 50 -38 110q-43 73 -125 136q-20 14 -46.5 30t-59.5 33q-25 13 -51 25.5t-53 23.5q-44 19 -47 19t-48 -19q-29 -12 -54.5 -24.5t-48.5 -23.5q-33 -17 -60 -33t-48 -31q-83 -63 -124 -136q-38 -61 -38 -110q0 -58 31 -111 q12 -20 27 -38t34 -35q26 -26 33 -26v-164h-57q-9 0 -12 -4q-4 -3 -4 -11v-33q0 -24 -6 -33q-6 -8 -23 -8h-12v-196h-221z" />
<glyph unicode="&#x2000;" horiz-adv-x="886" />
<glyph unicode="&#x2001;" horiz-adv-x="1772" />
<glyph unicode="&#x2002;" horiz-adv-x="886" />
<glyph unicode="&#x2003;" horiz-adv-x="1772" />
<glyph unicode="&#x2004;" horiz-adv-x="590" />
<glyph unicode="&#x2005;" horiz-adv-x="443" />
<glyph unicode="&#x2006;" horiz-adv-x="295" />
<glyph unicode="&#x2007;" horiz-adv-x="295" />
<glyph unicode="&#x2008;" horiz-adv-x="221" />
<glyph unicode="&#x2009;" horiz-adv-x="354" />
<glyph unicode="&#x200a;" horiz-adv-x="98" />
<glyph unicode="&#x2010;" horiz-adv-x="561" d="M46 465v113h469v-113h-469z" />
<glyph unicode="&#x2011;" horiz-adv-x="561" d="M46 465v113h469v-113h-469z" />
<glyph unicode="&#x2012;" horiz-adv-x="561" d="M46 465v113h469v-113h-469z" />
<glyph unicode="&#x2013;" horiz-adv-x="1167" d="M140 465v113h888v-113h-888z" />
<glyph unicode="&#x2014;" horiz-adv-x="2140" d="M46 465v113h2048v-113h-2048z" />
<glyph unicode="&#x2015;" horiz-adv-x="2048" d="M319 465v113h1409v-113h-1409z" />
<glyph unicode="&#x2018;" horiz-adv-x="474" d="M156 951v160q0 107 19 161q44 122 156 158v-84q-52 -30 -70 -76q-18 -45 -20 -113h77v-206h-162z" />
<glyph unicode="&#x2019;" horiz-adv-x="474" d="M143 930v84q53 30 70 76q18 47 19 113h-76v206h162v-160q0 -107 -19 -160q-45 -123 -156 -159z" />
<glyph unicode="&#x201a;" horiz-adv-x="474" d="M143 -189q53 30 70 76q18 46 19 113h-76v206h162v-161q0 -106 -19 -160q-45 -124 -156 -159v85z" />
<glyph unicode="&#x201c;" horiz-adv-x="770" d="M156 960v169q0 106 37 179q45 91 131 122v-81q-49 -31 -69 -76q-17 -40 -18 -115h74v-198h-155zM459 960v169q0 106 37 179q45 91 131 122v-81q-49 -31 -69 -76q-17 -39 -18 -115h74v-198h-155z" />
<glyph unicode="&#x201d;" horiz-adv-x="770" d="M143 937v81q50 33 69 77q16 39 18 115h-74v199h155v-170q0 -106 -37 -180q-45 -90 -131 -122zM446 937v81q50 33 69 77q16 38 18 115h-74v199h155v-170q0 -106 -37 -180q-44 -90 -131 -122z" />
<glyph unicode="&#x2022;" horiz-adv-x="1409" d="M414 716q0 124 87 208q88 85 210 85q117 0 203 -85q86 -86 86 -208q0 -121 -86 -207t-207 -86q-120 0 -205 85q-88 86 -88 208z" />
<glyph unicode="&#x202f;" horiz-adv-x="354" />
<glyph unicode="&#x205f;" horiz-adv-x="443" />
<glyph unicode="&#x2122;" horiz-adv-x="1725" d="M22 1330v79h678v-79h-293v-724h-93v724h-292zM760 606v803h121l243 -567q29 -68 50 -130q31 86 49 128l239 569h121v-803h-90v484q0 74 5 199l-5 -15q-26 -67 -32 -82l-247 -586h-80l-251 579q-22 49 -39 99q6 -143 6 -192v-486h-90z" />
<glyph unicode="&#x25fc;" horiz-adv-x="1014" d="M0 0v1015h1015v-1015h-1015z" />
<glyph unicode="&#xfd3e;" horiz-adv-x="530" d="M105 -378v1787h320v-99h-203v-1589h203v-99h-320z" />
<glyph unicode="&#xfd3f;" horiz-adv-x="530" d="M105 -279h203v1589h-203v99h320v-1787h-320v99z" />
</font>
</defs>
</svg>
