<?xml version="1.0" standalone="no"?>
<!DOCTYPE svg PUBLIC "-//W3C//DTD SVG 1.1//EN" "http://www.w3.org/Graphics/SVG/1.1/DTD/svg11.dtd" >
<svg xmlns="http://www.w3.org/2000/svg">
<metadata></metadata>
<defs>
<font id="bein-arabic_normalnormal" horiz-adv-x="0" >
<font-face units-per-em="2048" ascent="1638" descent="-410" />
<missing-glyph horiz-adv-x="325" />
<glyph unicode="&#x64c;&#x651;" arabic-form="isolated" d="M-234 448l101 56q6 5 22.5 9.5t34.5 -6.5q23 -15 23 -52v-1l-7 -98q29 -4 57 -0.5t55 11.5q-18 14 -29.5 33.5t-15.5 40.5q-7 26 -2 53t19 49q32 46 90 49q29 1 54.5 -11t40.5 -33q36 -47 20 -103q-10 -34 -34 -61q9 -2 17.5 -4t17.5 -4l-14 -72q-21 5 -42 10.5t-42 13.5 q-11 -8 -22 -13t-19 -9q-83 -33 -176 -20q-5 2 -11.5 3t-13.5 4q-8 3 -13 11q-9 10 -10 20.5t-1 24.5l7 77l-73 -41zM-230 103q0 -43 30 -73t72 -30h257q43 0 73 30t30 73v126h-72v-116q0 -17 -12 -29t-29 -12h-80v157h-72v-157h-84q-17 0 -29 12t-12 29v116h-72v-126z M75.5 485.5q-4.5 -13.5 0.5 -28.5q4 -19 16.5 -29t28.5 -18q14 11 24.5 25.5t14.5 29.5q4 14 -1 28.5t-20 22.5q-14 6 -27 3.5t-22.5 -11.5t-14 -22.5z" />
<glyph unicode="&#x64d;&#x651;" arabic-form="isolated" d="M-231 0v72h462v-72h-462zM-231 144v72h462v-72h-462zM-231 394v127h72v-117q0 -17 12 -29t29 -12h85v158h71v-158h80q17 0 29 12t12 29v117h72v-127q0 -43 -30 -73t-72 -30h-257q-43 0 -73 30t-30 73z" />
<glyph unicode="&#x64e;&#x651;" arabic-form="isolated" d="M-230 103v126h72v-116q0 -17 12 -29t29 -12h84v157h72v-157h80q17 0 29 12t12 29v116h71v-126q0 -21 -7.5 -40t-21.5 -33t-33 -22t-40 -8h-257q-42 0 -72 30t-30 73zM-230 318v71h461v-71h-461z" />
<glyph unicode="&#x64f;&#x651;" arabic-form="isolated" d="M-230 103q0 -21 8 -40t22 -33q28 -30 72 -30h257q42 0 72 30t30 73v126h-72v-116q0 -17 -12 -29t-29 -12h-79v157h-72v-157h-85q-17 0 -29 12t-12 29v116h-71v-126zM-190 322l22 68q37 -12 77 -19.5t82 1.5q-32 32 -37 78q-3 27 5 53t25 46q18 20 42 30t52 8 q29 -3 52.5 -17t37.5 -37q30 -51 8 -105q-7 -17 -17.5 -31t-23.5 -26q8 -4 16.5 -6.5t17.5 -5.5l-23 -69q-20 7 -40.5 14.5t-40.5 18.5q-25 -13 -43 -17q-30 -8 -58.5 -9.5t-55 1.5t-51.5 9.5t-47 14.5zM25 458q1 -9 5.5 -20t17.5 -21q5 -4 8.5 -6.5t8.5 -5.5 q14 11 26.5 23.5t18.5 27.5q5 14 2 29t-17 23q-13 8 -26.5 7t-23.5 -8.5t-16 -20.5t-4 -28z" />
<glyph unicode="&#x650;&#x651;" arabic-form="isolated" d="M-231 0v72h462v-72h-462zM-231 250v127h72v-117q0 -17 12 -29t29 -12h85v158h71v-158h80q17 0 29 12t12 29v117h72v-127q0 -43 -30 -73t-72 -30h-257q-43 0 -73 30t-30 73z" />
<glyph unicode="&#x64b;&#x651;" arabic-form="isolated" d="M-230 103v126h72v-116q0 -17 12 -29t29 -12h84v157h72v-157h80q17 0 29 12t12 29v116h71v-126q0 -21 -7.5 -40t-21.5 -33t-33 -22t-40 -8h-257q-42 0 -72 30t-30 73zM-230 318v71h461v-71h-461zM-230 462v71h461v-71h-461z" />
<glyph unicode="&#xfedf;&#xfe82;" horiz-adv-x="1185" arabic-form="isolated" d="M105 0v189h180v780h189v-780h296q25 0 47 9.5t38.5 26t26 38.5t9.5 48v1034h189v-1034q0 -65 -24.5 -121.5t-66.5 -98.5t-98.5 -66.5t-120.5 -24.5h-665zM179 1131q26 42 54 60.5t58 18.5q16 0 35 -6t50 -21q19 -9 34 -13t29 -1.5t28.5 13.5t32.5 33l50 -69 q-21 -23 -37 -38t-29 -23.5t-25.5 -12t-25.5 -3.5q-28 0 -83 26q-20 10 -33.5 16t-24 5.5t-21 -8t-24.5 -25.5l-18 -21z" />
<glyph unicode="&#xfee0;&#xfe82;" horiz-adv-x="1233" arabic-form="final" d="M105 0v189h180v780h189v-780h418v1156h190v-1156h193v-189h-1170zM179 1131q26 42 54 60.5t58 18.5q16 0 35 -6t50 -21q19 -9 34 -13t29 -1.5t28.5 13.5t32.5 33l50 -69q-21 -23 -37 -38t-29 -23.5t-25.5 -12t-25.5 -3.5q-28 0 -83 26q-20 10 -33.5 16t-24 5.5t-21 -8 t-24.5 -25.5l-18 -21z" />
<glyph unicode="&#xfedf;&#xfe84;" horiz-adv-x="1185" arabic-form="isolated" d="M105 0v189h180v780h189v-780h296q25 0 47 9.5t38.5 26t26 38.5t9.5 48v1034h189v-1034q0 -65 -24.5 -121.5t-66.5 -98.5t-98.5 -66.5t-120.5 -24.5h-665zM217 1069v94h49q-16 40 -16 80q0 30 8.5 58t27 50t48.5 35.5t73 14.5h81v-95h-80h1q-34 -1 -49.5 -20.5 t-15.5 -42.5q0 -15 3 -29t8 -25.5t12.5 -18.5t15.5 -7h142v-94h-308z" />
<glyph unicode="&#xfee0;&#xfe84;" horiz-adv-x="1233" arabic-form="final" d="M105 0v189h180v780h189v-780h418v1156h190v-1156h193v-189h-1170zM217 1069v94h49q-16 40 -16 80q0 30 8.5 58t27 50t48.5 35.5t73 14.5h81v-95h-80h1q-34 -1 -49.5 -20.5t-15.5 -42.5q0 -15 3 -29t8 -25.5t12.5 -18.5t15.5 -7h142v-94h-308z" />
<glyph unicode="&#xfedf;&#xfe88;" horiz-adv-x="1185" arabic-form="isolated" d="M105 0v189h180v780h189v-780h296q25 0 47 9.5t38.5 26t26 38.5t9.5 48v1034h189v-1034q0 -65 -24.5 -121.5t-66.5 -98.5t-98.5 -66.5t-120.5 -24.5h-665zM203 -338h49q-16 40 -16 80q0 30 8.5 58t27 50t48.5 35.5t73 14.5h81v-95h-80h1q-34 -1 -49.5 -20.5t-15.5 -42.5 q0 -15 3 -29t8 -25.5t12.5 -18.5t15.5 -7h142v-94h-308v94z" />
<glyph unicode="&#xfee0;&#xfe88;" horiz-adv-x="1233" arabic-form="final" d="M105 0v189h180v780h189v-780h418v1156h190v-1156h193v-189h-1170zM203 -338h49q-16 40 -16 80q0 30 8.5 58t27 50t48.5 35.5t73 14.5h81v-95h-80h1q-34 -1 -49.5 -20.5t-15.5 -42.5q0 -15 3 -29t8 -25.5t12.5 -18.5t15.5 -7h142v-94h-308v94z" />
<glyph unicode="&#xfedf;&#xfe8e;" horiz-adv-x="1185" arabic-form="isolated" d="M105 0v189h180v780h189v-780h296q25 0 47 9.5t38.5 26t26 38.5t9.5 48v1034h189v-1034q0 -65 -24.5 -121.5t-66.5 -98.5t-98.5 -66.5t-120.5 -24.5h-665z" />
<glyph unicode="&#xfee0;&#xfe8e;" horiz-adv-x="1233" arabic-form="final" d="M105 0v189h180v780h189v-780h418v1156h190v-1156h193v-189h-1170z" />
<glyph unicode="&#x67e;" horiz-adv-x="1423" arabic-form="isolated" d="M105 439v353h190v-353q0 -52 19.5 -97.5t53.5 -79.5t79.5 -53.5t98.5 -19.5h463q25 0 47 9.5t38 26t25.5 38.5t9.5 48v658h189v-658q0 -65 -24 -121.5t-66 -98.5t-98.5 -66.5t-120.5 -24.5h-463q-92 0 -172 34.5t-140 94t-94.5 139.5t-34.5 171zM564 -278q0 40 28 68 t68 28q20 0 37.5 -7.5t31 -20.5t21 -30.5t7.5 -37.5t-7.5 -37.5t-21 -31t-31 -21t-37.5 -7.5t-37.5 7.5t-30.5 21t-20.5 31t-7.5 37.5zM684 -463q0 40 28 68t69 28q40 0 68 -28t28 -68q0 -20 -7.5 -37.5t-20.5 -31t-30.5 -21t-37.5 -7.5t-38 7.5t-31 21t-20.5 31t-7.5 37.5z M804 -278q0 20 7.5 37.5t21 30.5t31 20.5t37.5 7.5q40 0 68 -28t28 -68q0 -20 -7.5 -37.5t-20.5 -31t-30.5 -21t-37.5 -7.5t-37.5 7.5t-31 21t-21 31t-7.5 37.5z" />
<glyph unicode="&#x67e;" horiz-adv-x="1470" arabic-form="final" d="M105 439v353h190v-353q0 -52 19.5 -97.5t53.5 -79.5t79.5 -53.5t97.5 -19.5h584v780h190v-780h193v-189h-967q-91 0 -171 34.5t-140 94t-94.5 139.5t-34.5 171zM592 -276q0 40 28 68t68 28q20 0 37.5 -7.5t31 -20.5t21 -30.5t7.5 -37.5t-7.5 -37.5t-21 -31t-31 -21 t-37.5 -7.5t-37.5 7.5t-30.5 21t-20.5 31t-7.5 37.5zM733 -481q0 20 7.5 37.5t21 31t31 21t37.5 7.5t37.5 -7.5t30.5 -21t20.5 -31t7.5 -37.5t-7.5 -37.5t-20.5 -31t-30.5 -21t-37.5 -7.5t-37.5 7.5t-31 21t-21 31t-7.5 37.5zM874 -276q0 20 7.5 37.5t21 30.5t31 20.5 t37.5 7.5t37.5 -7.5t31 -20.5t21 -30.5t7.5 -37.5t-7.5 -37.5t-21 -31t-31 -21t-37.5 -7.5t-37.5 7.5t-31 21t-21 31t-7.5 37.5z" />
<glyph unicode="&#x67e;" horiz-adv-x="579" arabic-form="initial" d="M-41 0v189h203q25 0 47 9.5t38.5 26t26 38.5t9.5 48v658h189v-658q0 -65 -24.5 -121.5t-66.5 -98.5t-98.5 -66.5t-120.5 -24.5h-203zM-2 -276q0 40 28 68t68 28q20 0 37.5 -7.5t31 -20.5t21 -30.5t7.5 -37.5t-7.5 -37.5t-21 -31t-31 -21t-37.5 -7.5t-37.5 7.5t-30.5 21 t-20.5 31t-7.5 37.5zM139 -481q0 20 7.5 37.5t21 31t31 21t37.5 7.5t37.5 -7.5t30.5 -21t20.5 -31t7.5 -37.5t-7.5 -37.5t-20.5 -31t-30.5 -21t-37.5 -7.5t-37.5 7.5t-31 21t-21 31t-7.5 37.5zM280 -276q0 20 7.5 37.5t21 30.5t31 20.5t37.5 7.5t37.5 -7.5t31 -20.5 t21 -30.5t7.5 -37.5t-7.5 -37.5t-21 -31t-31 -21t-37.5 -7.5t-37.5 7.5t-31 21t-21 31t-7.5 37.5z" />
<glyph unicode="&#x67e;" horiz-adv-x="624" arabic-form="medial" d="M-41 0v189h324v780h189v-780h194v-189h-707zM-4 -276q0 40 28 68t68 28q20 0 37.5 -7.5t31 -20.5t21 -30.5t7.5 -37.5t-7.5 -37.5t-21 -31t-31 -21t-37.5 -7.5t-37.5 7.5t-30.5 21t-20.5 31t-7.5 37.5zM137 -481q0 20 7.5 37.5t21 31t31 21t37.5 7.5t37.5 -7.5t30.5 -21 t20.5 -31t7.5 -37.5t-7.5 -37.5t-20.5 -31t-30.5 -21t-37.5 -7.5t-37.5 7.5t-31 21t-21 31t-7.5 37.5zM278 -276q0 20 7.5 37.5t21 30.5t31 20.5t37.5 7.5t37.5 -7.5t31 -20.5t21 -30.5t7.5 -37.5t-7.5 -37.5t-21 -31t-31 -21t-37.5 -7.5t-37.5 7.5t-31 21t-21 31t-7.5 37.5 z" />
<glyph unicode="&#x6a4;" horiz-adv-x="1874" arabic-form="isolated" d="M105 443v349h190v-349q0 -53 20 -99t54.5 -80.5t80.5 -54.5t99 -20h352v347q0 93 34 172t93 137.5t137.5 91.5t168.5 33t169 -33.5t138 -91.5t93 -136t34 -167v-229q0 -71 -24.5 -128.5t-67 -98.5t-99.5 -63.5t-122 -22.5h-906q-92 0 -173 35t-141 95t-95 140.5 t-35 172.5zM1091 189h364q52 0 87.5 33.5t35.5 90.5v229q0 50 -19 93.5t-52.5 75.5t-78 50.5t-94.5 18.5q-51 0 -95 -18.5t-77 -51.5t-52 -77.5t-19 -96.5v-347zM1098 1248q0 20 7.5 37.5t21 31t31 21t37.5 7.5t37.5 -7.5t31 -21t21 -31t7.5 -37.5t-7.5 -37.5t-21 -30.5 t-31 -20.5t-37.5 -7.5t-37.5 7.5t-31 20.5t-21 30.5t-7.5 37.5zM1240 1453q0 20 7.5 37.5t20.5 31t30.5 21t37.5 7.5t37.5 -7.5t31 -21t21 -31t7.5 -37.5t-7.5 -37.5t-21 -31t-31 -21t-37.5 -7.5t-37.5 7.5t-30.5 21t-20.5 31t-7.5 37.5zM1381 1248q0 20 7.5 37.5t21 31 t31 21t37.5 7.5t37.5 -7.5t30.5 -21t20.5 -31t7.5 -37.5q0 -40 -28 -68t-68 -28q-20 0 -37.5 7.5t-31 20.5t-21 30.5t-7.5 37.5z" />
<glyph unicode="&#x6a4;" horiz-adv-x="1917" arabic-form="final" d="M105 443v349h189v-349q0 -53 20 -99t54.5 -80.5t80.5 -54.5t99 -20h352v347q0 93 34 172t92.5 137.5t137.5 91.5t168 33q90 0 169 -33.5t138 -91.5t93 -136t34 -167v-353h193v-189h-1411q-92 0 -172.5 35t-140.5 95t-95 140.5t-35 172.5zM1090 189h486v353q0 50 -19 93.5 t-52 75.5t-77.5 50.5t-95.5 18.5q-50 0 -94 -18.5t-77 -51.5t-52 -77.5t-19 -96.5v-347zM1095 1248q0 20 7.5 37.5t21 31t31 21t37.5 7.5t37.5 -7.5t31 -21t21 -31t7.5 -37.5t-7.5 -37.5t-21 -30.5t-31 -20.5t-37.5 -7.5t-37.5 7.5t-31 20.5t-21 30.5t-7.5 37.5zM1237 1453 q0 20 7.5 37.5t20.5 31t30.5 21t37.5 7.5t37.5 -7.5t31 -21t21 -31t7.5 -37.5t-7.5 -37.5t-21 -31t-31 -21t-37.5 -7.5t-37.5 7.5t-30.5 21t-20.5 31t-7.5 37.5zM1378 1248q0 20 7.5 37.5t21 31t31 21t37.5 7.5t37.5 -7.5t30.5 -21t20.5 -31t7.5 -37.5q0 -40 -28 -68 t-68 -28q-20 0 -37.5 7.5t-31 20.5t-21 30.5t-7.5 37.5z" />
<glyph unicode="&#x6a4;" horiz-adv-x="1123" arabic-form="initial" d="M-42 0v189h194v347q0 93 34 172t92.5 137.5t137.5 91.5t168 33q90 0 169 -33.5t138 -91.5t93 -136t33 -167v-229q0 -71 -24.5 -128.5t-66.5 -98.5t-99 -63.5t-121 -22.5h-748zM341 189h365q25 0 47.5 9t39 25t26 39t9.5 51v229q1 50 -18 93.5t-52.5 75.5t-78 50.5 t-95.5 18.5q-50 0 -94.5 -18.5t-77.5 -51.5t-52 -77.5t-19 -96.5v-347zM345 1248q0 20 7.5 37.5t21 31t31 21t37.5 7.5t37.5 -7.5t31 -21t21 -31t7.5 -37.5t-7.5 -37.5t-21 -30.5t-31 -20.5t-37.5 -7.5t-37.5 7.5t-31 20.5t-21 30.5t-7.5 37.5zM487 1453q0 20 7.5 37.5 t20.5 31t30.5 21t37.5 7.5t37.5 -7.5t31 -21t21 -31t7.5 -37.5t-7.5 -37.5t-21 -31t-31 -21t-37.5 -7.5t-37.5 7.5t-30.5 21t-20.5 31t-7.5 37.5zM628 1248q0 20 7.5 37.5t21 31t31 21t37.5 7.5t37.5 -7.5t30.5 -21t20.5 -31t7.5 -37.5q0 -40 -28 -68t-68 -28 q-20 0 -37.5 7.5t-31 20.5t-21 30.5t-7.5 37.5z" />
<glyph unicode="&#x6a4;" horiz-adv-x="1170" arabic-form="medial" d="M-42 0v189h194v347q0 93 34 172t92.5 137.5t137.5 91.5t168 33q90 0 169 -33.5t138 -91.5t93.5 -136t34.5 -167v-353h193v-189h-1254zM341 189h488v353q0 50 -19.5 93.5t-52.5 75.5t-77.5 50.5t-95.5 18.5q-50 0 -94.5 -18.5t-77.5 -51.5t-52 -77.5t-19 -96.5v-347z M343 1248q0 20 7.5 37.5t21 31t31 21t37.5 7.5t37.5 -7.5t31 -21t21 -31t7.5 -37.5t-7.5 -37.5t-21 -30.5t-31 -20.5t-37.5 -7.5t-37.5 7.5t-31 20.5t-21 30.5t-7.5 37.5zM485 1453q0 20 7.5 37.5t20.5 31t30.5 21t37.5 7.5t37.5 -7.5t31 -21t21 -31t7.5 -37.5t-7.5 -37.5 t-21 -31t-31 -21t-37.5 -7.5t-37.5 7.5t-30.5 21t-20.5 31t-7.5 37.5zM626 1248q0 20 7.5 37.5t21 31t31 21t37.5 7.5t37.5 -7.5t30.5 -21t20.5 -31t7.5 -37.5q0 -40 -28 -68t-68 -28q-20 0 -37.5 7.5t-31 20.5t-21 30.5t-7.5 37.5z" />
<glyph unicode="&#x686;" horiz-adv-x="1068" arabic-form="isolated" d="M105 -92q0 53 17 103.5t50.5 90t84 63.5t118.5 24h273q25 0 47.5 9.5t39 25.5t26 37.5t9.5 45.5v212q0 78 -21.5 128.5t-56 80t-79.5 41.5t-91 12q-44 0 -90 -8t-88 -19.5t-77 -25t-57 -23.5l-82 170q27 13 71 29.5t97.5 31.5t111.5 25t114 10q55 0 108.5 -8.5t102.5 -29 t90.5 -54t72 -83.5t47.5 -118.5t17 -158.5v-212q0 -63 -24.5 -119t-66.5 -98t-99 -66t-122 -24h-273q-20 0 -35.5 -8t-25.5 -20.5t-15 -29t-5 -34.5q0 -17 5 -34t15 -30.5t25.5 -21.5t35.5 -8h265v-189h-265q-68 0 -118.5 24.5t-84 64t-50.5 90.5t-17 104zM738 -232 q0 20 13 33t33 13q19 0 32 -13t13 -33q0 -19 -13 -32t-32 -13q-20 0 -33 13t-13 32zM805 -328q0 19 13 32.5t32 13.5q20 0 33 -13.5t13 -32.5q0 -20 -13 -33t-33 -13q-19 0 -32 13t-13 33zM871 -232q0 20 13.5 33t32.5 13t32.5 -13t13.5 -33q0 -19 -13.5 -32t-32.5 -13 t-32.5 13t-13.5 32z" />
<glyph unicode="&#x686;" horiz-adv-x="1113" arabic-form="final" d="M105 -92q0 53 17 103.5t50.5 90t84 63.5t118.5 24h397v330q0 78 -21.5 128.5t-56 80t-79.5 41.5t-91 12q-44 0 -90 -8t-88.5 -19.5t-77.5 -25t-57 -23.5l-82 170q27 13 71 29.5t97.5 31.5t112 25t114.5 10q55 0 108.5 -8.5t102.5 -29t90.5 -54t72 -83.5t47.5 -118.5 t17 -158.5v-330h193v-189h-780q-20 0 -35 -8t-25 -20.5t-15 -29t-5 -34.5q0 -17 5 -34t15 -30.5t25 -21.5t35 -8h265v-189h-265q-68 0 -118.5 24.5t-84 64t-50.5 90.5t-17 104zM738 -232q0 20 13 33t33 13q19 0 32 -13t13 -33q0 -19 -13 -32t-32 -13q-20 0 -33 13t-13 32z M805 -328q0 19 13 32.5t32 13.5q20 0 33 -13.5t13 -32.5q0 -20 -13 -33t-33 -13q-19 0 -32 13t-13 33zM871 -232q0 20 13.5 33t32.5 13t32.5 -13t13.5 -33q0 -19 -13.5 -32t-32.5 -13t-32.5 13t-13.5 32z" />
<glyph unicode="&#x686;" horiz-adv-x="1075" arabic-form="initial" d="M-42 0v189h700q25 0 47.5 9.5t39.5 25.5t26.5 37.5t9.5 45.5v212q0 78 -21.5 128.5t-56 80t-79.5 41.5t-91 12q-44 0 -90.5 -8t-88.5 -19.5t-77.5 -25t-57.5 -23.5l-81 170q27 13 71 29.5t97.5 31.5t112 25t114.5 10q82 0 160.5 -20t140 -71t99 -138.5t37.5 -222.5v-212 q0 -63 -24.5 -119t-67 -98t-99.5 -66t-121 -24h-700zM295 -276q0 40 28 68t68 28q20 0 37.5 -7.5t31 -20.5t21 -30.5t7.5 -37.5t-7.5 -37.5t-21 -31t-31 -21t-37.5 -7.5t-37.5 7.5t-30.5 21t-20.5 31t-7.5 37.5zM436 -481q0 20 7.5 37.5t21 31t31 21t37.5 7.5t37.5 -7.5 t30.5 -21t20.5 -31t7.5 -37.5t-7.5 -37.5t-20.5 -31t-30.5 -21t-37.5 -7.5t-37.5 7.5t-31 21t-21 31t-7.5 37.5zM577 -276q0 20 7.5 37.5t21 30.5t31 20.5t37.5 7.5t37.5 -7.5t31 -20.5t21 -30.5t7.5 -37.5t-7.5 -37.5t-21 -31t-31 -21t-37.5 -7.5t-37.5 7.5t-31 21t-21 31 t-7.5 37.5z" />
<glyph unicode="&#x686;" horiz-adv-x="1125" arabic-form="medial" d="M-42 0v189h826v330q0 78 -21.5 128.5t-56 80t-79.5 41.5t-91 12q-44 0 -90.5 -8t-88.5 -19.5t-77.5 -25t-57.5 -23.5l-81 170q27 13 71 29.5t97.5 31.5t112 25t114.5 10q82 0 160.5 -20t140 -71t99 -138.5t37.5 -222.5v-330h194v-189h-1209zM297 -276q0 40 28 68t68 28 q20 0 37.5 -7.5t31 -20.5t21 -30.5t7.5 -37.5t-7.5 -37.5t-21 -31t-31 -21t-37.5 -7.5t-37.5 7.5t-30.5 21t-20.5 31t-7.5 37.5zM438 -481q0 20 7.5 37.5t21 31t31 21t37.5 7.5t37.5 -7.5t30.5 -21t20.5 -31t7.5 -37.5t-7.5 -37.5t-20.5 -31t-30.5 -21t-37.5 -7.5t-37.5 7.5 t-31 21t-21 31t-7.5 37.5zM579 -276q0 20 7.5 37.5t21 30.5t31 20.5t37.5 7.5t37.5 -7.5t31 -20.5t21 -30.5t7.5 -37.5t-7.5 -37.5t-21 -31t-31 -21t-37.5 -7.5t-37.5 7.5t-31 21t-21 31t-7.5 37.5z" />
<glyph unicode="&#xfdf2;" horiz-adv-x="1956" arabic-form="isolated" d="M87 308v213q0 93 34.5 174.5t94 142t139 96t170.5 35.5q90 0 170 -35.5t139.5 -96t94 -141t34.5 -169.5v-338h229v1156h189v-1156h125q25 0 47 9.5t38.5 26t26 38.5t9.5 47v1035h190v-1035q0 -64 -24.5 -120.5t-66.5 -98.5t-99 -66.5t-121 -24.5h-733v527 q1 51 -18.5 96.5t-53.5 80t-79.5 55t-96.5 20.5t-96.5 -20t-79 -55t-53 -82t-19.5 -101v-213q0 -25 9.5 -46.5t25.5 -37.5t37.5 -25.5t46.5 -9.5h207v-189h-207q-64 0 -120 24t-98 66t-66.5 98t-24.5 120z" />
<glyph unicode="&#xfdfa;" horiz-adv-x="1320" arabic-form="isolated" d="M105 420q0 54 47 89q-7 -12 -13.5 -21t-8.5 -12q-4 -9 -7 -18.5t-3 -19.5q-1 -16 13 -16q9 0 17 8q5 8 2 21l7 -7q2 -23 -9 -38q-5 -7 -10 -10t-14 -3q-21 0 -21 27zM110 870q2 30 16.5 57.5t45.5 50.5q-6 -10 -11 -19t-11 -20q-16 -24 -19 -45q0 -11 5.5 -17.5 t13.5 -6.5q10 0 17 11q5 6 6 12.5t0 15.5l5 -9q3 -31 -6 -47q-15 -18 -28 -14q-19 0 -26.5 7t-7.5 24zM120 650q-6 59 0 159h18q-5 -53 -5 -85t5 -40q18 -93 56 -93q26 0 52 50q11 28 22 53.5t24 54.5q22 45 48 66t59 20q17 0 51 -59q8 -21 25.5 -32t48.5 -11q15 -2 32.5 5 t32.5 21l-12 122q-30 19 -50 77q-5 -50 -30.5 -75t-72.5 -22q-34 1 -51 29t-14 84q0 2 1.5 11.5t7.5 28.5q2 17 3 31.5t-1 25.5q-11 -15 -18.5 -35t-12.5 -46q-4 -16 -7 -33.5t-6 -35.5q-18 -48 -46 -48q-20 0 -34 36q-6 17 -9.5 36t-1.5 39q0 32 2 50.5t4 26.5l14 -3 q-2 -13 -3 -27t-1 -29q0 -86 38 -87q13 0 40 89q14 51 33.5 81t42.5 41l-6 -39q-4 -22 -7.5 -46.5t-5.5 -57.5q-4 -69 50 -69q15 -2 28 4t27 17q12 14 19 28.5t7 30.5l-16 128l19 42q7 -18 9 -29.5t2 -19.5l7 -56t11 -75q5 -12 10.5 -22.5t11.5 -20.5q0 13 -1 17l8 54 q18 -7 30 -91q1 -1 7 -1q29 0 43 23q-11 26 -17 44t-11 27q-10 29 -16 52t-6 40l-10 23l14 42l45 -72l-1 -16q-9 4 -14 10t-8 13l-2 -11q20 -51 32 -86t12 -54q-2 -40 -18.5 -60t-45.5 -22l10 -88q19 18 32 28.5t24 14.5q-2 -35 9.5 -53.5t37.5 -18.5q51 -3 78 37 q12 18 18.5 40t3.5 49l-34 274q-1 6 -1.5 21t-0.5 36l4 54q11 -3 18 -25.5t13 -63.5l28 -276q13 -139 74 -142q-21 27 -30.5 60.5t-9.5 73.5q2 49 40 79q16 12 33.5 17t37.5 5q75 -2 126 -60v-5q-11 7 -29.5 14t-48.5 14q-37 3 -91 -15q-20 -6 -33.5 -11t-16.5 -10 q0 -17 27 -75q17 -32 38 -50t44 -18q15 -1 36.5 3.5t47.5 16.5q29 10 49 21t36 22l-22 -49q-26 -28 -97 -54q-82 -34 -139 -31q-28 0 -46 59q-23 60 -45 60q0 -20 -9 -40.5t-21 -41.5q-35 -47 -73 -44q-5 0 -9 0.5t-9 2.5q3 -8 4.5 -16.5t3.5 -16.5l19 -158q24 9 46 26 q15 15 32 31t33 31q2 -8 4.5 -15.5t3.5 -15.5q8 -28 21 -39q94 154 175 153q44 -2 66 -22t20 -61q-2 -36 -17.5 -63t-44.5 -47q-29 -19 -61 -27t-70 -7q-32 3 -69 15l-28 -54h-11q4 3 9 19.5t13 46.5q-7 5 -16 20t-20 40q-32 -67 -76 -82l7 -64q6 -38 22 -59.5t46 -23.5 q42 0 93 39q32 24 49 37t19 13l5 -3q-2 -4 -2 -23q-2 -11 0.5 -18.5t6.5 -15.5q5 -5 12 -9t17 -4q31 0 54 35q7 11 12 19.5t9 14.5t8 11h5q0 -16 1 -26.5t6 -18.5q22 -22 29 -22q16 0 34 15q0 8 -2.5 14.5t-11.5 14.5l22 50q8 -8 12 -21t4 -34q-2 -15 -7 -29.5t-10 -28.5 q-21 -30 -49 -30q-16 2 -27.5 11.5t-16.5 31.5q-31 -63 -82 -63q-11 2 -20 7t-17 15q-16 19 -16 45q-15 -11 -28 -20.5t-27 -20.5q-27 -17 -47 -27t-35 -10q-19 0 -44 30q-25 25 -44 25l-45 -25q-43 -29 -43 -58q0 -3 2 -10.5t7 -19.5q46 15 73 15q22 0 40 -26 q14 -28 14 -64q-1 -69 -47 -66q-13 0 -27.5 6t-31.5 17q-18 14 -29.5 27.5t-18.5 31.5q-11 -5 -32.5 -18t-48.5 -36q-19 -20 -40 -39.5t-41 -41.5q-29 -23 -49.5 -34.5t-35.5 -11.5q-43 4 -63.5 24t-18.5 62q5 107 59 178q-8 -1 -15 -1h-15q-147 5 -142 154q0 45 11.5 87 t33.5 83l12 -3q-9 -20 -17.5 -51t-19.5 -69q-1 -53 27 -93q35 -55 110 -58q32 0 71.5 9.5t87.5 29.5q111 52 111 66q0 9 -152 47l18 54l5 -1q29 -3 51.5 8.5t39.5 34.5q19 23 26 48.5t5 51.5l-11 87q-47 -34 -80 -34q-27 1 -47.5 13.5t-32.5 39.5q-3 8 -8.5 16t-10.5 16 q-9 17 -24 17q-56 4 -99 -90q-11 -23 -21.5 -47.5t-20.5 -46.5q-22 -59 -54 -59q-11 3 -23.5 11.5t-23.5 26.5q-11 16 -19.5 33.5t-12.5 39.5zM217 131q0 53 45 85q-8 -14 -13 -20.5t-7 -8.5q-10 -20 -10 -37q-1 -19 14 -19q7 0 12 6q3 5 4.5 11t-0.5 11l4 -5 q1 -13 -0.5 -22.5t-7.5 -14.5q-4 -6 -9 -10.5t-10 -4.5q-22 5 -22 29zM224 1105q5 53 49 85q-5 -6 -9 -14t-9 -16q-7 -8 -10 -17.5t-3 -20.5q0 -16 13 -19q7 0 15 8q5 10 5 25l3 -7q3 -21 -6 -38q-12 -15 -21 -14q-27 0 -27 28zM304 446q0 11 11 11q13 0 22.5 -12t17.5 -41 q0 11 3 21.5t8 24.5q10 22 22 22q5 0 15 -10v-18q-2 -4 -10 -4q0 3 -2.5 5t-4.5 6q-11 0 -31 -69h-7q-3 41 -19 44q-25 0 -25 20zM311 549q1 26 12 48t35 40q-10 -12 -15.5 -19.5t-7.5 -11.5q-10 -17 -10 -36q0 -20 16 -20q4 -1 13 8q6 10 4 23l5 -4q4 -28 -8 -40 q-5 -5 -10.5 -9t-10.5 -3q-23 0 -23 24zM325 99q-3 -37 9 -57.5t36 -20.5q32 -1 86 47q19 18 37.5 36t37.5 33q9 8 30.5 21.5t57.5 32.5q0 8 -0.5 14.5t-0.5 11.5q1 45 59 98q26 27 39.5 46t9.5 32l-8 62h-13q-46 2 -93 82q-2 -20 -13.5 -39t-35.5 -39q15 -5 31.5 -11.5 t34.5 -15.5q2 -5 2.5 -12t0.5 -18q-2 -18 -8 -35t-19 -36q-12 -9 -32 -19.5t-49 -22.5q-80 -50 -145 -57q-12 -19 -18.5 -29.5t-8.5 -15.5q-14 -30 -20.5 -51t-6.5 -37zM409 1229v10l24 37h3q-2 -10 -4 -19.5t-2 -19.5q0 -28 12 -28q11 0 16 4t5 16q-1 6 -1.5 16.5 t-2.5 21.5l12 13q0 -79 20 -68q5 -2 8 2t3 10q0 7 -3 18.5t-6 24.5l11 16q5 -19 8 -34t3 -25q-3 -35 -24 -34q-18 0 -23 20q-1 -23 -31 -23q-18 0 -18 37v19zM414 583l34 38l42 -34l-31 -42zM428 1379l2 26q40 -17 41 -48q3 -48 -14 -57l-4 1q10 18 3 44q-4 22 -28 34z M462 -93q1 26 13.5 48.5t33.5 39.5q-17 -20 -19 -30q-6 -9 -9 -19.5t-3 -19.5q0 -19 15 -19q2 0 6 3t7 7q2 3 3 9.5t0 11.5l4 -7q6 -22 -6 -37q-8 -11 -24 -11q-21 2 -21 24zM490 596l35 36l39 -34l-34 -39zM560 -5q1 36 4.5 63.5t12.5 47.5h11q-3 -14 -5.5 -32.5 t-5.5 -43.5q0 -53 40 -89q14 -11 31 -17.5t38 -6.5q77 -5 163 61q35 28 56.5 48.5t25.5 33.5q0 5 -1 10t-4 10q-9 19 -30 22l-44 4q-42 3 -41 50q2 45 16 67t37 22q31 -2 62 -49q26 -47 25 -103q0 -29 -6.5 -50.5t-17.5 -37.5q-15 -23 -32 -40t-36 -31q-51 -37 -93 -56 t-74 -18q-32 2 -57 13t-45 29q-15 19 -24 42.5t-6 50.5zM624 740l12 -90q6 -72 24.5 -106.5t47.5 -34.5h3l-21 141q-2 6 -3.5 16t-4.5 26l6 22q-5 4 -7.5 6.5t-4.5 5.5q-14 12 -18 22.5t-2 19.5q-9 -7 -16 -14.5t-16 -13.5zM662 1385l22 54l53 -113v-23l-27 28q-2 0 -2 -5 v-12l49 -319q6 -29 2 -61t-16 -68h-7q1 34 -1 67t-9 64l-49 338q-1 5 -3.5 13.5t-7.5 17.5q-4 11 -4 19zM678 159q27 -39 82 -40q-14 48 -37 48q-27 2 -45 -8zM833 159h69q-1 5 -6 9.5t-13 9.5q-8 9 -14 12t-11 3q-18 0 -25 -34zM896 1269q0 17 10 17q18 0 41 -56 q10 70 30 70q4 -2 9 -5t9 -8l-1 -20q-3 -1 -8 -1q-1 2 -4 6t-10 6q-10 0 -25 -71h-7q-3 31 -16 39q-7 0 -12 2.5t-8 4.5q-8 5 -8 16zM904 523q5 -3 17 -4.5t31 -4.5q32 0 61.5 6t60.5 17q22 10 36.5 19.5t21.5 16.5q-14 29 -38 41.5t-59 12.5q-17 2 -36.5 -7t-41.5 -28 q-19 -17 -31 -34t-22 -35zM990 75q4 2 19 23t45 59q20 38 38 41q10 -3 29 -3q0 12 17 34q3 -17 10 -13q4 1 5.5 4t1.5 5q0 12 1 16q5 -1 6 4q15 -46 -5 -49q3 2 -2 2.5t-19 2.5q7 -23 -20 -29h-20q-4 0 -7 1q-9 -1 -26 -31q-11 -17 -27 -33.5t-41 -31.5zM1002 1069 q15 5 39 19t56 34l-62 3q4 0 -2 -2.5t-20 -7.5q0 11 11 22q5 6 9 10t11 4l77 -1q3 -40 -34 -63q-33 -18 -71 -18h-14zM1160 688q0 2 2 8.5t10 17.5q43 -33 42 -90q0 -32 -20 -52v16q5 11 6 18t1 12q0 11 -4.5 23t-14.5 20q-22 25 -22 27z" />
<glyph unicode="&#xfdfb;" horiz-adv-x="4918" arabic-form="isolated" d="M105 191q0 38 12.5 76t41.5 80q5 7 27 36t60 77l10 -8q-113 -142 -113 -215q0 -84 70 -84q71 0 227 138q72 63 136 98t123 41q-6 27 -9 51.5t-3 44.5q0 33 7 67t20 72q39 90 92 90q28 0 66 -64q20 -32 39.5 -49t39.5 -17q38 0 136 40q29 12 57 24l56 24q-9 2 -22 6 q-11 3 -27.5 8t-39.5 12q-30 11 -52 15.5t-36 4.5q-18 0 -26 -8h-129v12q0 23 9.5 41.5t30.5 31.5q29 26 67 26q27 0 58.5 -7t67.5 -19q54 -20 86.5 -31t46.5 -16q68 -17 137 -24.5t142 -7.5q0 -5 -18 -50q-24 -42 -28 -42q-32 6 -64 8t-61 2q-24 0 -56.5 -7.5t-77.5 -24.5 q-42 -17 -72.5 -32t-48.5 -29q-14 -14 -37 -52.5t-53 -101.5q-77 -162 -77 -261q0 -37 22 -57q20 -22 55 -22q18 0 47 17.5t71 51.5q30 26 58 51t57 51q36 27 92.5 63t134.5 82q54 32 83.5 56.5t34.5 39.5q-2 21 -3.5 44t-4.5 46l-104 659q-3 13 -12 38q-5 12 -6.5 21 t-1.5 16l28 110l100 -203v-30l-46 46l86 -560q6 -42 6 -95q0 -72 -11 -124.5t-35 -85.5q-46 -63 -46 -145q0 -27 8.5 -48.5t23.5 -39.5q17 -20 35.5 -28.5t42.5 -8.5q97 0 324 189q261 223 365 265q-2 3 -25 19.5t-67 47.5q-32 24 -49 49.5t-17 52.5q0 64 46 92 q31 17 104 17q30 0 87.5 -7.5t143.5 -25.5q97 -18 162.5 -29t100.5 -13q0 -5 -4 -16t-12 -32q-8 -20 -12.5 -31.5t-7.5 -14.5q-74 -27 -151 -60t-162 -73q32 -47 32 -94q0 -15 -10 -38q-13 -26 -18 -26t-16.5 8.5t-31.5 23.5q-18 15 -31 28t-22 24q-11 -11 -25.5 -36.5 t-32.5 -67.5q-21 -54 -31.5 -100.5t-10.5 -90.5q0 -77 70 -77q57 0 203 149q35 33 92.5 71t140.5 80q66 30 100 57t37 47q-3 21 -5 44t-7 46l-99 659q-3 8 -6 17t-8 21t-6.5 21t-1.5 16l26 110l101 -203v-30l-45 46l85 -560q2 -17 3 -37.5t1 -44.5q0 -215 -76 -251 q-37 -19 -73 -37l-72 -36q-41 -21 -78.5 -50.5t-76.5 -67.5q-159 -161 -247 -161q-46 0 -72 38q-26 40 -26 95q0 42 11 91.5t35 106.5q18 43 36.5 79t41.5 68q-51 -26 -113 -69t-138 -106q-100 -85 -158.5 -132.5t-76.5 -60.5q-65 -44 -119 -67t-100 -23q-33 0 -59 13.5 t-43 40.5q-36 51 -36 125q0 80 36 157q-55 -29 -106 -59q-43 -27 -81.5 -53t-71.5 -53q-38 -32 -73.5 -62.5t-73.5 -60.5q-42 -36 -77 -53t-61 -17q-24 0 -42 9t-33 27q-18 21 -28 47.5t-10 61.5q0 56 20.5 123t58.5 146q23 39 45 79t45 81q-30 -18 -56.5 -26t-49.5 -8 q-22 0 -43 12.5t-38 39.5q-33 47 -60 47q-29 0 -58 -32q-34 -33 -34 -55q0 -21 17 -43.5t49 -46.5q29 -18 56 -35t54 -35q0 -18 -4 -41t-12 -52q-28 14 -58 32q-49 23 -84 23q-45 0 -93.5 -18t-99.5 -57l-82 -70t-85 -70q-89 -73 -165 -73q-40 0 -70 30q-32 31 -32 95z M207 510q0 29 11.5 61t31.5 66q23 36 44.5 58.5t41.5 33.5l2 -8q-42 -42 -62 -77.5t-20 -63.5q0 -40 26 -40q8 0 12 4q3 2 6.5 3t5.5 3l4 -6q-17 -41 -32 -62.5t-32 -21.5q-39 0 -39 50zM223 295v4q156 61 262 165q35 38 74 98q27 45 36 45q16 0 28 -31q5 -11 6.5 -20 t1.5 -14q0 -38 -16 -38q-21 0 -56 26q-9 -18 -22.5 -40t-33.5 -48q-46 -62 -116 -97.5t-164 -49.5zM414 835q0 49 38 49q48 0 81 -103q30 183 80 183q26 0 26 -54q0 -26 -18 -50q-15 18 -26 18q-14 0 -23.5 -18t-18.5 -53q-3 -24 -7 -49.5t-9 -52.5q-6 21 -18 47.5t-32 62.5 q-2 -17 -9 -23.5t-20 -6.5q-16 0 -30 14t-14 36zM533 123q8 21 15.5 43.5t18.5 48.5q26 -6 49 -17.5t47 -26.5q6 17 12 35.5t12 36.5q28 -8 52.5 -18.5t42.5 -25.5q0 -10 -12 -46q-12 -35 -20 -45q-29 14 -50 25.5t-39 17.5q-8 -26 -16 -43t-14 -28q-71 37 -98 43zM579 560 q6 -9 17 -13.5t25 -6.5q-5 9 -11.5 16.5t-12.5 13.5l-10.5 -3.5t-7.5 -6.5zM663 1046q49 14 80.5 29t48.5 32q-33 12 -74 12q-8 0 -12 -2t-5.5 -3t-3.5 -1q0 47 19.5 66.5t61.5 13.5q23 -3 47.5 -10.5t48.5 -19.5q-3 -15 -15.5 -33t-32.5 -41q-6 -6 -22 -13t-40 -18 t-43 -15.5t-30 -4.5q-12 0 -28 8zM842 928l4 50q214 217 528 265l-10 -42q-159 -30 -289.5 -98t-232.5 -175zM1131 484l10 38q36 30 59 30q15 0 32 -1.5t32 -6.5l-22 -38q-11 -6 -21.5 -15.5t-24.5 -26.5q-11 -14 -18 -25.5t-7 -20.5q0 -26 47 -26q62 0 100 52 q-5 -20 -14 -37.5t-26 -34.5q-15 -14 -33.5 -21.5t-36.5 -7.5q-61 0 -61 59q0 14 15.5 39.5t43.5 64.5q-5 0 -10 1t-10 1q-14 0 -29 -6t-26 -18zM1135 1004v24q6 18 18 36q6 13 14.5 22t18.5 15q-5 -61 0 -91t24 -30q14 0 22 10t8 30q0 9 -4 27t-10 46l22 30q8 -12 13 -32.5 t7 -48.5q3 -40 30 -40q18 0 18 24q-2 8 -5 19l-5 22.5t-8 31.5l20 42q14 -38 21 -70t7 -61q0 -72 -50 -72q-20 0 -46 26q-6 -23 -20 -34.5t-32 -11.5q-33 0 -39 48q0 20 -1 38t-1 38q-6 -8 -11 -17.5t-11 -20.5zM1352 64q0 55 44 125q45 71 83 92l2 -6q-39 -42 -60 -78.5 t-21 -63.5q0 -41 27 -41q4 0 12 4q3 3 5 4q1 1 3 2l8 -4q-32 -88 -63 -88q-40 0 -40 54zM1603 293q0 55 44 125q22 35 43 58t42 34l2 -6q-83 -86 -83 -144q0 -39 27 -39q8 0 14 6t8 6l4 -6q-15 -44 -30 -65t-33 -21q-38 0 -38 52zM1651 1324l29 110l100 -203v-30l-48 46 l104 -653q2 -11 2 -30v-46q0 -32 -8.5 -67.5t-23.5 -74.5h-16q3 44 0 97.5t-14 116.5l-104 659q0 8 -2.5 17t-6.5 21q-8 12 -10 21t-2 16zM1937 554q8 21 15.5 43t16.5 48q30 -8 54 -19t42 -25q0 -9 -12 -45q-12 -35 -20 -46q-35 18 -58.5 28.5t-37.5 15.5zM1939 1233 q40 -26 74 -84q30 -54 30 -103q0 -27 -4 -49.5t-10 -42.5q68 -19 68 -94q0 -18 -5 -34t-17 -33q-20 -32 -54 -32q-52 0 -52 58q0 6 5.5 26t16.5 53q24 66 24 110q0 39 -17.5 71t-50.5 58q0 2 -2.5 25.5t-5.5 70.5zM1993 850q0 -35 32 -35q29 0 56 35q-9 18 -25 30.5 t-39 21.5q-11 -14 -17.5 -26t-6.5 -26zM2063 88q0 52 48 127q21 35 40.5 57t42.5 33v-6q-81 -89 -81 -144q0 -40 28 -40q3 0 5.5 1t5.5 3q2 1 2.5 2t2.5 2q1 1 3 2l6 -6q-29 -85 -61 -85q-42 0 -42 54zM2145 934l31 70q47 50 110.5 93t144.5 84q81 39 158.5 65t154.5 37 l-36 -60q-79 -15 -157 -42t-156 -68q-76 -38 -138.5 -82t-111.5 -97zM2174 1223q94 30 126 62q-17 5 -34.5 7.5t-37.5 2.5h-5.5t-6.5 -2q-3 0 -5.5 -1t-4.5 -1q0 86 82 77q47 -9 94 -30q-5 -15 -17 -31.5t-35 -39.5q-8 -11 -56 -32q-49 -20 -74 -20q-5 0 -11.5 1.5 t-14.5 6.5zM2204 739q44 -27 73.5 -47t46.5 -35q12 -11 29 -25.5t36 -32.5l236 102q-101 24 -180 35t-141 11q-33 0 -58 -1.5t-42 -6.5zM2457 976v24q5 8 8 16.5t8 17.5q8 14 16.5 23t19.5 17q-15 -122 26 -122q28 0 28 40q0 18 -12 72l18 31q9 -12 14 -32t8 -49 q2 -20 9 -31t21 -11q19 0 19 26q0 2 -4.5 20t-12.5 54l19 41q24 -74 24 -133q0 -68 -47 -68q-9 0 -21.5 6t-24.5 18q-6 -21 -19 -33.5t-33 -12.5q-18 0 -27.5 12.5t-12.5 35.5q-2 18 -2 37v39q-5 -8 -10.5 -17t-11.5 -21zM2545 492l12 36q32 32 60 32q14 0 29 -2.5t32 -5.5 l-22 -40q-11 -5 -21.5 -14.5t-23.5 -23.5q-14 -17 -21 -28t-7 -20q0 -14 14 -21t37 -7q29 0 54.5 13t45.5 39q-5 -20 -15 -36.5t-27 -33.5q-31 -31 -67 -31q-62 0 -62 61q0 27 60 102q-5 2 -10.5 2h-11.5q-31 0 -56 -22zM2873 92q0 54 44 127q44 67 84 92l2 -10 q-82 -85 -82 -142q0 -40 28 -40q8 0 12 4q9 6 10 6l4 -4q-15 -42 -31 -64.5t-33 -22.5q-20 0 -29 14t-9 40zM2967 1324l26 110l102 -203v-30l-46 46l99 -653q2 -11 3 -30t1 -46q0 -32 -7.5 -67.5t-24.5 -74.5h-15q4 44 -0.5 97.5t-15.5 116.5l-100 659q-3 8 -6 17t-8 21 t-6.5 21t-1.5 16zM3019 522q0 35 3 55.5t9 31.5q2 -2 8 -14q-6 -57 12 -141q11 -65 30 -95t47 -30q24 0 42 41q14 34 14 62q3 23 8 56.5t10 77.5q3 17 10.5 41.5t21.5 57.5q15 32 28.5 54t27.5 34q10 0 22 -30q5 -14 7.5 -24t2.5 -18q0 2 -3 -14.5t-11 -51.5 q-8 -31 -12 -61.5t-4 -57.5q0 -26 4.5 -48t15.5 -40q12 -26 29.5 -37t41.5 -11q29 0 53.5 9t44.5 29q40 37 40 90q0 23 -7.5 58t-24.5 83q-30 96 -30 118q0 -4 18 68q2 0 5 -0.5t9 -3.5q24 -32 47.5 -108t44.5 -197q6 -40 43 -68q18 -15 36 -21.5t36 -6.5q43 0 64 24 q-15 60 -74 209q-27 69 -39.5 105t-12.5 39q0 4 18 75q8 -8 31.5 -34t64.5 -73v-16q-6 0 -16.5 3.5t-25.5 12.5q45 -113 69.5 -182.5t24.5 -96.5q0 -30 -6.5 -55t-21.5 -49q-31 -55 -86 -55q-32 0 -56.5 11.5t-41.5 31.5q-14 -14 -30 -35t-33 -48q-20 -33 -29 -61t-9 -51 q0 -32 18 -57q18 -24 52 -24q21 0 66.5 24t114.5 77q88 66 136.5 101.5t54.5 40.5q15 8 28 13.5t24 10.5q15 5 31 9t33 4q0 8 -1.5 20.5t-6.5 29.5q-6 33 -6 38q0 30 11 62t30 68q42 77 90 77q8 0 20.5 -16t33.5 -46q35 -63 95 -63q55 0 88 36q54 59 68 67v-7.5t-2 -16.5 q-6 -18 -6 -29q0 -23 11 -33.5t31 -10.5q42 0 63 36q15 32 25.5 52.5t16.5 26.5q6 -48 34 -71q25 -28 54 -28q18 0 40 16v14q-20 37 -44 96.5t-54 142.5q-5 10 -9.5 21.5t-10.5 25.5q-2 5 -4.5 10.5t-5.5 11.5q-3 9 -5.5 14t-2.5 10q0 3 4 13t10 27q8 15 11 26t5 14 q9 -8 33 -39t65 -87q-5 -5 -5.5 -7.5t-0.5 -4.5l-38 16q-2 -2 -2 -8q5 -9 12 -22q13 -24 38 -67q24 -47 36 -85t12 -73q0 -25 -5.5 -50.5t-14.5 -48.5q-14 -29 -32.5 -44.5t-41.5 -15.5q-20 0 -56 24q-18 9 -29 20t-17 22q-3 -12 -24 -42q-33 -34 -73 -34q-15 0 -26.5 3 t-17.5 11q-11 25 -26 46q-70 -70 -119 -70q-27 0 -47 8t-35 26q-11 11 -36 58q-12 34 -34 34q-18 0 -31 -11t-25 -31q-18 -33 -18 -50q0 -58 166 -141q6 -3 0 -50q-9 -41 -14 -44q-17 8 -32 14l-30 12q-17 9 -33.5 12.5t-30.5 3.5q-45 0 -93 -17t-102 -55 q-42 -32 -83.5 -65.5t-85.5 -65.5q-93 -72 -155 -72q-38 0 -76 38q-40 43 -40 103q0 104 110 227q0 1 -12 22q-8 8 -11 15t-5 15h-4q-17 -45 -30.5 -73.5t-27.5 -43.5q-17 -23 -40 -33.5t-52 -10.5q-135 0 -135 221q0 18 1 38t3 46q1 8 1.5 15t1.5 12t1 10 q-12 -14 -20.5 -44t-13.5 -71q-5 -35 -8 -68l-6 -66q-11 -55 -29 -82t-41 -27q-63 0 -99 111q-14 42 -21 81.5t-7 78.5zM3144 74q0 8 12.5 19.5t39.5 25.5q48 33 54 52q-37 9 -40 26q-2 8 0.5 18t7.5 24q12 25 22 28l-10 16l4 10q6 0 16 -3t24 -11l4 -6q12 -8 24.5 -22.5 t29.5 -35.5q9 -46 -22 -52q-8 -2 -19 -1.5t-25 5.5q-3 -20 -12 -36.5t-24 -26.5q-15 -9 -33.5 -21t-38.5 -27q5 -5 15.5 -8.5t30.5 -3.5q23 0 46 13t50 37q33 32 51 67l8 -4q-64 -151 -165 -151q-50 0 -50 68zM3154 944q0 61 52 145q26 38 49.5 64t46.5 38l2 -8 q-92 -98 -92 -163q0 -46 30 -46q8 0 14 6q5 8 10 8l6 -4q-36 -100 -70 -100q-48 0 -48 60zM3226 221q8 -9 16.5 -12.5t17.5 -3.5q9 16 6 26q0 13 -14 10q-17 -3 -26 -20zM3280 199q5 -5 10.5 -5.5t13.5 1.5q8 0 12 4q-5 5 -13.5 11.5t-20.5 18.5zM3332 950v24q5 11 8 20 t8 18q8 12 18 21t19 15q-15 -118 24 -118q28 0 28 36q0 9 -2.5 28t-7.5 46l20 32q8 -14 12.5 -34.5t7.5 -47.5q3 -40 28 -40q20 0 20 22q0 4 -18 76l20 43q14 -38 21 -71.5t7 -63.5q0 -35 -13 -53.5t-37 -18.5q-11 0 -21.5 7t-24.5 21q-14 -46 -52 -46q-18 0 -28.5 11 t-13.5 37q-2 18 -2 37v39q-4 -9 -8.5 -18.5t-12.5 -21.5zM3363 1316l6 72q38 -24 60 -87q22 -53 22 -94q0 -35 -8 -73.5t-22 -81.5q3 25 4.5 49.5t1.5 53.5q0 102 -64 161zM3589 976q46 15 76.5 30t48.5 30q-33 12 -70 12h-5.5t-6.5 -2t-5.5 -2h-4.5q0 87 80 75 q41 -6 92 -30q-5 -11 -17.5 -29.5t-32.5 -39.5q-5 -5 -18.5 -12t-37.5 -16q-24 -12 -42 -17t-32 -5q-5 0 -11.5 1.5t-13.5 4.5zM3762 1324l30 110l99 -203v-30l-48 46l102 -653q0 -11 1 -30t1 -46q0 -42 -5.5 -77t-16.5 -65h-24q3 44 -1 97.5t-13 116.5l-103 659 q-2 8 -5.5 17t-8.5 21q-3 12 -5.5 21t-2.5 16zM3935 46q0 29 11.5 59t34.5 66t43 59.5t41 34.5l2 -8q-41 -44 -61.5 -79t-20.5 -64q0 -40 28 -40q2 0 5.5 1.5t6.5 4.5t5 4q1 1 3 2l6 -4q-29 -88 -62 -88q-42 0 -42 52zM3997 918q0 30 12 65.5t38 74.5q46 81 97 105l2 -6 q-95 -98 -95 -163q0 -46 29 -46q5 0 8 1t8 3q5 3 6.5 4.5l3.5 3.5l6 -6q-33 -98 -69 -98q-46 0 -46 62zM4088 72v2q65 27 121 61.5t104 75.5q39 35 62.5 51.5t29.5 16.5q7 0 18 -8q15 -6 18 -6q21 0 46 34l4 -2q-9 -22 10 -22q18 0 24 32l6 4q6 -29 -6 -50q-9 -22 -26 -22 q-9 0 -15.5 4t-12.5 10q-24 -30 -38 -30q-5 0 -11.5 2.5t-14.5 5.5q-16 8 -30 8q-8 0 -46 -44q-41 -54 -103 -87q-29 -14 -62.5 -22.5t-77.5 -13.5zM4248 1097q0 50 36 50q44 0 77 -99q17 88 35.5 131.5t42.5 43.5t24 -52q0 -22 -16 -48q-16 16 -26 16q-23 0 -38 -64 q-5 -25 -9 -49t-7 -50q-6 20 -18 44.5t-30 58.5q-6 -29 -29 -29q-8 0 -14 4t-14 10q-6 8 -10 16t-4 17zM4311 777q92 30 126 59q-30 12 -70 12q-3 0 -6 -1t-6 -1q-5 -2 -8 -2h-6q0 86 82 74q46 -3 94 -30q-5 -12 -16.5 -29.5t-31.5 -37.5q-8 -5 -22 -13t-38 -19 q-48 -18 -70 -18q-10 0 -28 6zM4461 32l14 56q138 144 338 171l-18 -52q-102 -20 -185.5 -64t-148.5 -111zM4608 317q8 20 15.5 42t18.5 49q29 -8 52.5 -19.5t43.5 -26.5q0 -6 -3 -16.5t-9 -28.5q-8 -18 -13.5 -29l-8.5 -17q-33 18 -57.5 29.5t-38.5 16.5z" />
<glyph unicode="&#x621;" horiz-adv-x="1147" arabic-form="isolated" d="M105 0v189h218q-36 64 -56 138t-20 150q0 81 23 157t73 135.5t130 96.5t194 39h202v-189h-197q-59 -4 -103.5 -26t-73.5 -55t-43.5 -74t-14.5 -84q0 -53 12.5 -104.5t34 -92t50.5 -66t63 -25.5h445v-189h-937z" />
<glyph unicode="&#x622;" horiz-adv-x="399" arabic-form="isolated" d="M11 1507q26 42 54 60.5t58 18.5q16 0 35 -6t50 -21q19 -9 34 -13t29 -1.5t28.5 13.5t32.5 33l50 -69q-21 -23 -37 -38t-29 -23.5t-25.5 -12t-25.5 -3.5q-28 0 -83 26q-20 10 -33.5 16t-24 5.5t-21 -8t-24.5 -25.5l-18 -21zM105 0h189v1345h-189v-1345z" />
<glyph unicode="&#x622;" horiz-adv-x="463" arabic-form="final" d="M11 1507q26 42 54 60.5t58 18.5q16 0 35 -6t50 -21q19 -9 34 -13t29 -1.5t28.5 13.5t32.5 33l50 -69q-21 -23 -37 -38t-29 -23.5t-25.5 -12t-25.5 -3.5q-28 0 -83 26q-20 10 -33.5 16t-24 5.5t-21 -8t-24.5 -25.5l-18 -21zM105 310v1035h190v-1035q0 -25 9.5 -47 t26 -38.5t38.5 -26t47 -9.5h89v-189h-89q-65 0 -121.5 24.5t-98.5 66.5t-66.5 98.5t-24.5 120.5z" />
<glyph unicode="&#x623;" horiz-adv-x="399" arabic-form="isolated" d="M51 1445v94h49q-16 40 -16 80q0 30 8.5 58t27 50t48.5 35.5t73 14.5h81v-95h-80h1q-34 -1 -49.5 -20.5t-15.5 -42.5q0 -15 3 -29t8 -25.5t12.5 -18.5t15.5 -7h142v-94h-308zM105 0v1345h189v-1345h-189z" />
<glyph unicode="&#x623;" horiz-adv-x="463" arabic-form="final" d="M49 1445v94h49q-16 40 -16 80q0 30 8.5 58t27 50t48.5 35.5t73 14.5h81v-95h-80h1q-34 -1 -49.5 -20.5t-15.5 -42.5q0 -15 3 -29t8 -25.5t12.5 -18.5t15.5 -7h142v-94h-308zM105 310v1035h190v-1035q0 -25 9.5 -47t26 -38.5t38.5 -26t47 -9.5h89v-189h-89 q-65 0 -121.5 24.5t-98.5 66.5t-66.5 98.5t-24.5 120.5z" />
<glyph unicode="&#x624;" horiz-adv-x="1087" arabic-form="isolated" d="M105 307v214q0 93 34.5 174.5t93.5 142t139 96t170 35.5q61 0 117 -16.5t104.5 -46t89 -70.5t69 -90t44 -105t15.5 -115v-465q0 -90 -34.5 -170t-93.5 -139t-139 -93.5t-170 -34.5h-298v189h298q43 0 82.5 14t71 39t54 59t32.5 75h-371q-63 0 -119 24t-98 65.5 t-66.5 97.5t-24.5 120zM295 307q0 -24 9.5 -45.5t25.5 -37.5t37.5 -25.5t45.5 -9.5h378v337q0 51 -19.5 97t-53.5 80.5t-79.5 55t-96.5 20.5t-96 -20t-78.5 -55t-53 -82t-19.5 -101v-214zM355 1118v94h49q-16 40 -16 80q0 30 8.5 58t27 50t48.5 35.5t73 14.5h81v-95h-80h1 q-34 -1 -49.5 -20.5t-15.5 -42.5q0 -15 3 -29t8 -25.5t12.5 -18.5t15.5 -7h142v-94h-308z" />
<glyph unicode="&#x624;" horiz-adv-x="1131" arabic-form="final" d="M105 307v214q0 93 34.5 174.5t93.5 142t138.5 96t169.5 35.5q60 0 116.5 -16.5t105 -46t89 -70.5t69 -90t44 -105t15.5 -115v-337h193v-189h-197q-11 -80 -49 -148.5t-95.5 -119t-131.5 -79.5t-157 -29h-298v189h298q43 0 82.5 14t71 39t54 59t32.5 75h-371 q-63 0 -119 24t-98 65.5t-66 97.5t-24 120zM294 307q0 -24 9.5 -45.5t25.5 -37.5t37.5 -25.5t45.5 -9.5h378v337q0 51 -19.5 97t-53 80.5t-79 55t-97.5 20.5q-51 0 -96 -20t-78.5 -55t-53 -82t-19.5 -101v-214zM355 1118v94h49q-16 40 -16 80q0 30 8.5 58t27 50t48.5 35.5 t73 14.5h81v-95h-80h1q-34 -1 -49.5 -20.5t-15.5 -42.5q0 -15 3 -29t8 -25.5t12.5 -18.5t15.5 -7h142v-94h-308z" />
<glyph unicode="&#x625;" horiz-adv-x="399" arabic-form="isolated" d="M50 -338h49q-16 40 -16 80q0 30 8.5 58t27 50t48.5 35.5t73 14.5h81v-95h-80h1q-34 -1 -49.5 -20.5t-15.5 -42.5q0 -15 3 -29t8 -25.5t12.5 -18.5t15.5 -7h142v-94h-308v94zM105 0v1345h189v-1345h-189z" />
<glyph unicode="&#x625;" horiz-adv-x="463" arabic-form="final" d="M70 -338v-94h308v94h-142q-8 0 -15.5 7t-12.5 18.5t-8 25.5t-3 29q0 23 15.5 42.5t49.5 20.5h-1h80v95h-81q-43 -1 -73 -14.5t-48.5 -35.5t-27 -50t-8.5 -58q0 -40 16 -80h-49zM105 310v1035h190v-1035q0 -25 9.5 -47t26 -38.5t38.5 -26t47 -9.5h89v-189h-89 q-65 0 -121.5 24.5t-98.5 66.5t-66.5 98.5t-24.5 120.5z" />
<glyph unicode="&#x626;" horiz-adv-x="1204" arabic-form="isolated" d="M42 892v94h49q-16 40 -16 80q0 30 8.5 58t27 50t48.5 35.5t73 14.5h81v-95h-80h1q-34 -1 -49.5 -20.5t-15.5 -42.5q0 -15 3 -29t8 -25.5t12.5 -18.5t15.5 -7h142v-94h-308zM105 69v723h189v-723q0 -64 26.5 -112t69.5 -80t98 -48t113 -16t113.5 16.5t99 49t70 80.5 t26.5 112q0 66 -29.5 108t-88.5 42h-308v435q0 65 24.5 122t67 99.5t99 67t121.5 24.5h246v-190h-246q-25 0 -47.5 -9.5t-39 -26t-26 -39t-9.5 -48.5v-246h118q76 0 133.5 -24.5t96 -69t58 -107t19.5 -138.5q0 -111 -43 -195t-113 -140t-159.5 -84t-182.5 -28t-182 28 t-159 83.5t-112.5 139t-42.5 194.5z" />
<glyph unicode="&#x626;" horiz-adv-x="1144" arabic-form="final" d="M42 892v94h49q-16 40 -16 80q0 30 8.5 58t27 50t48.5 35.5t73 14.5h81v-95h-80h1q-34 -1 -49.5 -20.5t-15.5 -42.5q0 -15 3 -29t8 -25.5t12.5 -18.5t15.5 -7h142v-94h-308zM105 68v724h190v-724q0 -64 26.5 -112t69.5 -80t98 -48t112 -16q49 0 97 12t88.5 35.5t70.5 58.5 t44 82h-337v189h622v-189h-92q-13 -95 -59.5 -165.5t-114 -117.5t-150.5 -70.5t-169 -23.5q-93 0 -182 28t-159 83.5t-112.5 139t-42.5 194.5z" />
<glyph unicode="&#x626;" horiz-adv-x="576" arabic-form="initial" d="M-42 0v189h202q25 0 47.5 9.5t39 26t26 38.5t9.5 48v658h189v-658q0 -65 -24.5 -121.5t-67 -98.5t-99 -66.5t-120.5 -24.5h-202zM210 1119v94h49q-16 40 -16 80q0 30 8.5 58t27 50t48.5 35.5t73 14.5h81v-95h-80h1q-34 -1 -49.5 -20.5t-15.5 -42.5q0 -15 3 -29t8 -25.5 t12.5 -18.5t15.5 -7h142v-94h-308z" />
<glyph unicode="&#x626;" horiz-adv-x="623" arabic-form="medial" d="M-42 0v189h324v780h189v-780h194v-189h-707zM210 1119v94h49q-16 40 -16 80q0 30 8.5 58t27 50t48.5 35.5t73 14.5h81v-95h-80h1q-34 -1 -49.5 -20.5t-15.5 -42.5q0 -15 3 -29t8 -25.5t12.5 -18.5t15.5 -7h142v-94h-308z" />
<glyph unicode="&#x627;" horiz-adv-x="399" arabic-form="isolated" d="M105 0v1345h189v-1345h-189z" />
<glyph unicode="&#x627;" horiz-adv-x="463" arabic-form="final" d="M105 310v1035h190v-1035q0 -25 9.5 -47t26 -38.5t38.5 -26t47 -9.5h89v-189h-89q-64 0 -120.5 24.5t-99 66.5t-67 98.5t-24.5 120.5z" />
<glyph unicode="&#x628;" horiz-adv-x="1423" arabic-form="isolated" d="M105 439v353h190v-353q0 -52 19.5 -97.5t53.5 -79.5t79.5 -53.5t98.5 -19.5h463q25 0 47 9.5t38 26t25.5 38.5t9.5 48v658h189v-658q0 -65 -24 -121.5t-66 -98.5t-98.5 -66.5t-120.5 -24.5h-463q-92 0 -172 34.5t-140 94t-94.5 139.5t-34.5 171zM616 -278q0 40 28 68 t68 28q20 0 37.5 -7.5t31 -20.5t21 -30.5t7.5 -37.5t-7.5 -37.5t-21 -31t-31 -21t-37.5 -7.5t-37.5 7.5t-30.5 21t-20.5 31t-7.5 37.5z" />
<glyph unicode="&#x628;" horiz-adv-x="1470" arabic-form="final" d="M105 439v353h190v-353q0 -52 19.5 -97.5t53.5 -79.5t79.5 -53.5t97.5 -19.5h584v780h190v-780h193v-189h-967q-91 0 -171 34.5t-140 94t-94.5 139.5t-34.5 171zM616 -278q0 40 28 68t68 28q20 0 37.5 -7.5t31 -20.5t21 -30.5t7.5 -37.5t-7.5 -37.5t-21 -31t-31 -21 t-37.5 -7.5t-37.5 7.5t-30.5 21t-20.5 31t-7.5 37.5z" />
<glyph unicode="&#x628;" horiz-adv-x="576" arabic-form="initial" d="M-42 0v189h203q25 0 47 9.5t38.5 26t26 38.5t9.5 48v658h189v-658q0 -65 -24.5 -121.5t-66.5 -98.5t-98.5 -66.5t-120.5 -24.5h-203zM277 -278q0 20 7.5 37.5t21 30.5t31 20.5t37.5 7.5q40 0 68 -28t28 -68q0 -20 -7.5 -37.5t-20.5 -31t-30.5 -21t-37.5 -7.5t-37.5 7.5 t-31 21t-21 31t-7.5 37.5z" />
<glyph unicode="&#x628;" horiz-adv-x="623" arabic-form="medial" d="M-42 0v189h324v780h189v-780h194v-189h-707zM208 -278q0 20 7.5 37.5t21 30.5t31 20.5t37.5 7.5q40 0 68 -28t28 -68q0 -20 -7.5 -37.5t-20.5 -31t-30.5 -21t-37.5 -7.5t-37.5 7.5t-31 21t-21 31t-7.5 37.5z" />
<glyph unicode="&#x629;" horiz-adv-x="1077" arabic-form="isolated" d="M105 309v217q0 91 34 172t93 141t138 95t168 35q90 0 169 -35.5t138 -95.5t93 -139.5t34 -168.5v-217q0 -71 -24.5 -128.5t-66.5 -98.5t-99 -63.5t-122 -22.5h-244q-66 0 -123 22t-98.5 62.5t-65.5 97.5t-24 127zM295 309q0 -54 35 -87t86 -33h244q52 0 87.5 34t35.5 90 v217q0 51 -19 96t-52.5 79t-78 54t-95.5 20q-50 0 -94.5 -20t-77.5 -54t-52 -80.5t-19 -98.5v-217zM300 1248q0 20 7.5 37.5t21 31t31 21t37.5 7.5t37.5 -7.5t31 -21t21 -31t7.5 -37.5t-7.5 -37.5t-21 -30.5t-31 -20.5t-37.5 -7.5t-37.5 7.5t-31 20.5t-21 30.5t-7.5 37.5z M583 1248q0 20 7.5 37.5t21 31t31 21t37.5 7.5t37.5 -7.5t30.5 -21t20.5 -31t7.5 -37.5q0 -40 -28 -68t-68 -28q-20 0 -37.5 7.5t-31 20.5t-21 30.5t-7.5 37.5z" />
<glyph unicode="&#x629;" horiz-adv-x="1131" arabic-form="final" d="M105 308v213q0 93 34.5 174.5t93.5 142t139 96t170 35.5t170 -35.5t140 -96t94.5 -141t33.5 -169.5v-338h193v-189h-383v527q1 51 -18.5 96.5t-53.5 80t-79.5 55t-96.5 20.5t-96.5 -20t-79 -55t-53 -82t-19.5 -101v-213q0 -25 9.5 -46.5t25.5 -37.5t37.5 -25.5t46.5 -9.5 h207v-189h-207q-64 0 -120 24t-98 66t-66 98t-24 120zM309 1248q0 20 7.5 37.5t21 31t31 21t37.5 7.5t37.5 -7.5t31 -21t21 -31t7.5 -37.5t-7.5 -37.5t-21 -30.5t-31 -20.5t-37.5 -7.5t-37.5 7.5t-31 20.5t-21 30.5t-7.5 37.5zM592 1248q0 20 7.5 37.5t21 31t31 21t37.5 7.5 t37.5 -7.5t30.5 -21t20.5 -31t7.5 -37.5q0 -40 -28 -68t-68 -28q-20 0 -37.5 7.5t-31 20.5t-21 30.5t-7.5 37.5z" />
<glyph unicode="&#x62a;" horiz-adv-x="1423" arabic-form="isolated" d="M105 439v353h190v-353q0 -52 19.5 -97.5t53.5 -79.5t79.5 -53.5t98.5 -19.5h463q25 0 47 9.5t38 26t25.5 38.5t9.5 48v658h189v-658q0 -65 -24 -121.5t-66 -98.5t-98.5 -66.5t-120.5 -24.5h-463q-92 0 -172 34.5t-140 94t-94.5 139.5t-34.5 171zM474 1248q0 20 7.5 37.5 t21 31t31 21t37.5 7.5t37.5 -7.5t31 -21t21 -31t7.5 -37.5t-7.5 -37.5t-21 -30.5t-31 -20.5t-37.5 -7.5t-37.5 7.5t-31 20.5t-21 30.5t-7.5 37.5zM757 1248q0 20 7.5 37.5t21 31t31 21t37.5 7.5t37.5 -7.5t30.5 -21t20.5 -31t7.5 -37.5q0 -40 -28 -68t-68 -28 q-20 0 -37.5 7.5t-31 20.5t-21 30.5t-7.5 37.5z" />
<glyph unicode="&#x62a;" horiz-adv-x="1470" arabic-form="final" d="M105 439v353h190v-353q0 -52 19.5 -97.5t53.5 -79.5t79.5 -53.5t97.5 -19.5h584v780h190v-780h193v-189h-967q-91 0 -171 34.5t-140 94t-94.5 139.5t-34.5 171zM475 1248q0 20 7.5 37.5t20.5 31t30.5 21t37.5 7.5t37.5 -7.5t31 -21t21 -31t7.5 -37.5t-7.5 -37.5 t-21 -30.5t-31 -20.5t-37.5 -7.5q-40 0 -68 28t-28 68zM757 1248q0 20 7.5 37.5t21 31t31 21t37.5 7.5t37.5 -7.5t30.5 -21t20.5 -31t7.5 -37.5q0 -40 -28 -68t-68 -28q-20 0 -37.5 7.5t-31 20.5t-21 30.5t-7.5 37.5z" />
<glyph unicode="&#x62a;" horiz-adv-x="579" arabic-form="initial" d="M-42 0v189h203q25 0 47 9.5t38.5 26t26 38.5t9.5 48v658h189v-658q0 -65 -24.5 -121.5t-66.5 -98.5t-98.5 -66.5t-120.5 -24.5h-203zM-1 1248q0 20 7.5 37.5t20.5 31t30.5 21t37.5 7.5t37.5 -7.5t31 -21t21 -31t7.5 -37.5t-7.5 -37.5t-21 -30.5t-31 -20.5t-37.5 -7.5 q-40 0 -68 28t-28 68zM281 1248q0 20 7.5 37.5t21 31t31 21t37.5 7.5t37.5 -7.5t30.5 -21t20.5 -31t7.5 -37.5q0 -40 -28 -68t-68 -28q-20 0 -37.5 7.5t-31 20.5t-21 30.5t-7.5 37.5z" />
<glyph unicode="&#x62a;" horiz-adv-x="624" arabic-form="medial" d="M-41 0v189h324v780h189v-780h194v-189h-707zM-2 1248q0 20 7.5 37.5t20.5 31t30.5 21t37.5 7.5t37.5 -7.5t31 -21t21 -31t7.5 -37.5t-7.5 -37.5t-21 -30.5t-31 -20.5t-37.5 -7.5q-40 0 -68 28t-28 68zM280 1248q0 20 7.5 37.5t21 31t31 21t37.5 7.5t37.5 -7.5t30.5 -21 t20.5 -31t7.5 -37.5q0 -40 -28 -68t-68 -28q-20 0 -37.5 7.5t-31 20.5t-21 30.5t-7.5 37.5z" />
<glyph unicode="&#x62b;" horiz-adv-x="1423" arabic-form="isolated" d="M105 439v353h190v-353q0 -52 19.5 -97.5t53.5 -79.5t79.5 -53.5t98.5 -19.5h463q25 0 47 9.5t38 26t25.5 38.5t9.5 48v658h189v-658q0 -65 -24 -121.5t-66 -98.5t-98.5 -66.5t-120.5 -24.5h-463q-92 0 -172 34.5t-140 94t-94.5 139.5t-34.5 171zM474 1248q0 20 7.5 37.5 t21 31t31 21t37.5 7.5t37.5 -7.5t31 -21t21 -31t7.5 -37.5t-7.5 -37.5t-21 -30.5t-31 -20.5t-37.5 -7.5t-37.5 7.5t-31 20.5t-21 30.5t-7.5 37.5zM616 1453q0 20 7.5 37.5t20.5 31t30.5 21t37.5 7.5t37.5 -7.5t31 -21t21 -31t7.5 -37.5t-7.5 -37.5t-21 -31t-31 -21 t-37.5 -7.5t-37.5 7.5t-30.5 21t-20.5 31t-7.5 37.5zM757 1248q0 20 7.5 37.5t21 31t31 21t37.5 7.5t37.5 -7.5t30.5 -21t20.5 -31t7.5 -37.5q0 -40 -28 -68t-68 -28q-20 0 -37.5 7.5t-31 20.5t-21 30.5t-7.5 37.5z" />
<glyph unicode="&#x62b;" horiz-adv-x="1470" arabic-form="final" d="M105 439v353h190v-353q0 -52 19.5 -97.5t53.5 -79.5t79.5 -53.5t97.5 -19.5h584v780h190v-780h193v-189h-967q-91 0 -171 34.5t-140 94t-94.5 139.5t-34.5 171zM472 1248q0 20 7.5 37.5t21 31t31 21t37.5 7.5t37.5 -7.5t31 -21t21 -31t7.5 -37.5t-7.5 -37.5t-21 -30.5 t-31 -20.5t-37.5 -7.5t-37.5 7.5t-31 20.5t-21 30.5t-7.5 37.5zM614 1453q0 20 7.5 37.5t20.5 31t30.5 21t37.5 7.5t37.5 -7.5t31 -21t21 -31t7.5 -37.5t-7.5 -37.5t-21 -31t-31 -21t-37.5 -7.5t-37.5 7.5t-30.5 21t-20.5 31t-7.5 37.5zM755 1248q0 20 7.5 37.5t21 31t31 21 t37.5 7.5t37.5 -7.5t30.5 -21t20.5 -31t7.5 -37.5q0 -40 -28 -68t-68 -28q-20 0 -37.5 7.5t-31 20.5t-21 30.5t-7.5 37.5z" />
<glyph unicode="&#x62b;" horiz-adv-x="579" arabic-form="initial" d="M-42 0v189h203q25 0 47 9.5t38.5 26t26 38.5t9.5 48v658h189v-658q0 -65 -24.5 -121.5t-66.5 -98.5t-98.5 -66.5t-120.5 -24.5h-203zM-2 1248q0 20 7.5 37.5t21 31t31 21t37.5 7.5t37.5 -7.5t31 -21t21 -31t7.5 -37.5t-7.5 -37.5t-21 -30.5t-31 -20.5t-37.5 -7.5 t-37.5 7.5t-31 20.5t-21 30.5t-7.5 37.5zM140 1453q0 20 7.5 37.5t20.5 31t30.5 21t37.5 7.5t37.5 -7.5t31 -21t21 -31t7.5 -37.5t-7.5 -37.5t-21 -31t-31 -21t-37.5 -7.5t-37.5 7.5t-30.5 21t-20.5 31t-7.5 37.5zM281 1248q0 20 7.5 37.5t21 31t31 21t37.5 7.5t37.5 -7.5 t30.5 -21t20.5 -31t7.5 -37.5q0 -40 -28 -68t-68 -28q-20 0 -37.5 7.5t-31 20.5t-21 30.5t-7.5 37.5z" />
<glyph unicode="&#x62b;" horiz-adv-x="624" arabic-form="medial" d="M-41 0v189h324v780h189v-780h194v-189h-707zM-3 1248q0 20 7.5 37.5t21 31t31 21t37.5 7.5t37.5 -7.5t31 -21t21 -31t7.5 -37.5t-7.5 -37.5t-21 -30.5t-31 -20.5t-37.5 -7.5t-37.5 7.5t-31 20.5t-21 30.5t-7.5 37.5zM139 1453q0 20 7.5 37.5t20.5 31t30.5 21t37.5 7.5 t37.5 -7.5t31 -21t21 -31t7.5 -37.5t-7.5 -37.5t-21 -31t-31 -21t-37.5 -7.5t-37.5 7.5t-30.5 21t-20.5 31t-7.5 37.5zM280 1248q0 20 7.5 37.5t21 31t31 21t37.5 7.5t37.5 -7.5t30.5 -21t20.5 -31t7.5 -37.5q0 -40 -28 -68t-68 -28q-20 0 -37.5 7.5t-31 20.5t-21 30.5 t-7.5 37.5z" />
<glyph unicode="&#x62c;" horiz-adv-x="1065" arabic-form="isolated" d="M105 -92q0 53 17 103.5t50.5 90t84 63.5t118.5 24h274q25 0 47.5 9.5t39 25.5t26 37.5t9.5 45.5v212q0 78 -21.5 128.5t-56 80t-79.5 41.5t-91 12q-44 0 -90.5 -8t-88.5 -19.5t-77 -25t-57 -23.5l-81 170q27 13 71 29.5t97 31.5t111.5 25t114.5 10q82 0 160.5 -20 t140 -71t99 -138.5t37.5 -222.5v-212q0 -63 -24.5 -119t-66.5 -98t-99 -66t-121 -24h-274q-20 0 -35 -8t-25 -20.5t-15 -29t-5 -34.5q0 -17 5 -34t15 -30.5t25 -21.5t35 -8h265v-189h-265q-68 0 -118.5 24.5t-84 64t-50.5 90.5t-17 104zM767 -278q0 20 7.5 37.5t21 30.5 t31 20.5t37.5 7.5q40 0 68 -28t28 -68q0 -20 -7.5 -37.5t-20.5 -31t-30.5 -21t-37.5 -7.5t-37.5 7.5t-31 21t-21 31t-7.5 37.5z" />
<glyph unicode="&#x62c;" horiz-adv-x="1113" arabic-form="final" d="M105 -92q0 53 17 103.5t50.5 90t84 63.5t118.5 24h397v330q0 78 -21.5 128.5t-56 80t-79.5 41.5t-91 12q-44 0 -90 -8t-88.5 -19.5t-77.5 -25t-57 -23.5l-82 170q27 13 71 29.5t97.5 31.5t112 25t114.5 10q55 0 108.5 -8.5t102.5 -29t90.5 -54t72 -83.5t47.5 -118.5 t17 -158.5v-330h193v-189h-780q-20 0 -35 -8t-25 -20.5t-15 -29t-5 -34.5q0 -17 5 -34t15 -30.5t25 -21.5t35 -8h265v-189h-265q-68 0 -118.5 24.5t-84 64t-50.5 90.5t-17 104zM767 -278q0 20 7.5 37.5t21 30.5t31 20.5t37.5 7.5t37.5 -7.5t31 -20.5t21 -30.5t7.5 -37.5 t-7.5 -37.5t-21 -31t-31 -21t-37.5 -7.5t-37.5 7.5t-31 21t-21 31t-7.5 37.5z" />
<glyph unicode="&#x62c;" horiz-adv-x="1075" arabic-form="initial" d="M-42 0v189h700q25 0 47.5 9.5t39.5 25.5t26.5 37.5t9.5 45.5v212q0 78 -21.5 128.5t-56 80t-79.5 41.5t-91 12q-44 0 -90.5 -8t-88.5 -19.5t-77.5 -25t-57.5 -23.5l-81 170q27 13 71 29.5t97.5 31.5t112 25t114.5 10q82 0 160.5 -20t140 -71t99 -138.5t37.5 -222.5v-212 q0 -63 -24.5 -119t-67 -98t-99.5 -66t-121 -24h-700zM441 -278q0 40 28 68t69 28q40 0 68 -28t28 -68q0 -20 -7.5 -37.5t-20.5 -31t-30.5 -21t-37.5 -7.5t-38 7.5t-31 21t-20.5 31t-7.5 37.5z" />
<glyph unicode="&#x62c;" horiz-adv-x="1125" arabic-form="medial" d="M-42 0v189h826v330q0 78 -21.5 128.5t-56 80t-79.5 41.5t-91 12q-44 0 -90.5 -8t-88.5 -19.5t-77.5 -25t-57.5 -23.5l-81 170q27 13 71 29.5t97.5 31.5t112 25t114.5 10q82 0 160.5 -20t140 -71t99 -138.5t37.5 -222.5v-330h194v-189h-1209zM440 -278q0 20 7.5 37.5 t21 30.5t31 20.5t37.5 7.5q40 0 68 -28t28 -68q0 -20 -7.5 -37.5t-20.5 -31t-30.5 -21t-37.5 -7.5t-37.5 7.5t-31 21t-21 31t-7.5 37.5z" />
<glyph unicode="&#x62d;" horiz-adv-x="1065" arabic-form="isolated" d="M105 -92q0 53 17 103.5t50.5 90t84 63.5t118.5 24h274q25 0 47.5 9.5t39 25.5t26 37.5t9.5 45.5v212q0 78 -21.5 128.5t-56 80t-79.5 41.5t-91 12q-44 0 -90.5 -8t-88.5 -19.5t-77 -25t-57 -23.5l-81 170q27 13 71 29.5t97 31.5t111.5 25t114.5 10q82 0 160.5 -20 t140 -71t99 -138.5t37.5 -222.5v-212q0 -63 -24.5 -119t-66.5 -98t-99 -66t-121 -24h-274q-20 0 -35 -8t-25 -20.5t-15 -29t-5 -34.5q0 -17 5 -34t15 -30.5t25 -21.5t35 -8h396v-189h-396q-68 0 -118.5 24.5t-84 64t-50.5 90.5t-17 104z" />
<glyph unicode="&#x62d;" horiz-adv-x="1113" arabic-form="final" d="M105 -92q0 53 17 103.5t50.5 90t84 63.5t118.5 24h397v330q0 78 -21.5 128.5t-56 80t-79.5 41.5t-91 12q-44 0 -90 -8t-88.5 -19.5t-77.5 -25t-57 -23.5l-82 170q27 13 71 29.5t97.5 31.5t112 25t114.5 10q55 0 108.5 -8.5t102.5 -29t90.5 -54t72 -83.5t47.5 -118.5 t17 -158.5v-330h193v-189h-780q-20 0 -35 -8t-25 -20.5t-15 -29t-5 -34.5q0 -17 5 -34t15 -30.5t25 -21.5t35 -8h396v-189h-396q-68 0 -118.5 24.5t-84 64t-50.5 90.5t-17 104z" />
<glyph unicode="&#x62d;" horiz-adv-x="1075" arabic-form="initial" d="M-42 0v189h700q25 0 47.5 9.5t39.5 25.5t26.5 37.5t9.5 45.5v212q0 78 -21.5 128.5t-56 80t-79.5 41.5t-91 12q-44 0 -90.5 -8t-88.5 -19.5t-77.5 -25t-57.5 -23.5l-81 170q27 13 71 29.5t97.5 31.5t112 25t114.5 10q82 0 160.5 -20t140 -71t99 -138.5t37.5 -222.5v-212 q0 -63 -24.5 -119t-67 -98t-99.5 -66t-121 -24h-700z" />
<glyph unicode="&#x62d;" horiz-adv-x="1125" arabic-form="medial" d="M-42 0v189h826v330q0 78 -21.5 128.5t-56 80t-79.5 41.5t-91 12q-44 0 -90.5 -8t-88.5 -19.5t-77.5 -25t-57.5 -23.5l-81 170q27 13 71 29.5t97.5 31.5t112 25t114.5 10q82 0 160.5 -20t140 -71t99 -138.5t37.5 -222.5v-330h194v-189h-1209z" />
<glyph unicode="&#x62e;" horiz-adv-x="1065" arabic-form="isolated" d="M105 -92q0 53 17 103.5t50.5 90t84 63.5t118.5 24h274q25 0 47.5 9.5t39 25.5t26 37.5t9.5 45.5v212q0 78 -21.5 128.5t-56 80t-79.5 41.5t-91 12q-44 0 -90.5 -8t-88.5 -19.5t-77 -25t-57 -23.5l-81 170q27 13 71 29.5t97 31.5t111.5 25t114.5 10q82 0 160.5 -20 t140 -71t99 -138.5t37.5 -222.5v-212q0 -63 -24.5 -119t-66.5 -98t-99 -66t-121 -24h-274q-20 0 -35 -8t-25 -20.5t-15 -29t-5 -34.5q0 -17 5 -34t15 -30.5t25 -21.5t35 -8h397v-189h-397q-68 0 -118.5 24.5t-84 64t-50.5 90.5t-17 104zM427 1248q0 20 7.5 37.5t21 31t31 21 t37.5 7.5t37.5 -7.5t30.5 -21t20.5 -31t7.5 -37.5q0 -40 -28 -68t-68 -28q-20 0 -37.5 7.5t-31 20.5t-21 30.5t-7.5 37.5z" />
<glyph unicode="&#x62e;" horiz-adv-x="1113" arabic-form="final" d="M105 -92q0 53 17 103.5t50.5 90t84 63.5t118.5 24h397v330q0 78 -21.5 128.5t-56 80t-79.5 41.5t-91 12q-44 0 -90 -8t-88.5 -19.5t-77.5 -25t-57 -23.5l-82 170q27 13 71 29.5t97.5 31.5t112 25t114.5 10q55 0 108.5 -8.5t102.5 -29t90.5 -54t72 -83.5t47.5 -118.5 t17 -158.5v-330h193v-189h-780q-20 0 -35 -8t-25 -20.5t-15 -29t-5 -34.5q0 -17 5 -34t15 -30.5t25 -21.5t35 -8h396v-189h-396q-68 0 -118.5 24.5t-84 64t-50.5 90.5t-17 104zM427 1248q0 20 7.5 37.5t21 31t31 21t37.5 7.5t37.5 -7.5t31 -21t21 -31t7.5 -37.5t-7.5 -37.5 t-21 -30.5t-31 -20.5t-37.5 -7.5t-37.5 7.5t-31 20.5t-21 30.5t-7.5 37.5z" />
<glyph unicode="&#x62e;" horiz-adv-x="1075" arabic-form="initial" d="M-42 0v189h700q25 0 47.5 9.5t39.5 25.5t26.5 37.5t9.5 45.5v212q0 78 -21.5 128.5t-56 80t-79.5 41.5t-91 12q-44 0 -90.5 -8t-88.5 -19.5t-77.5 -25t-57.5 -23.5l-81 170q27 13 71 29.5t97.5 31.5t112 25t114.5 10q82 0 160.5 -20t140 -71t99 -138.5t37.5 -222.5v-212 q0 -63 -24.5 -119t-67 -98t-99.5 -66t-121 -24h-700zM436 1248q0 20 7.5 37.5t21 31t31 21t37.5 7.5t37.5 -7.5t30.5 -21t20.5 -31t7.5 -37.5q0 -40 -28 -68t-68 -28q-20 0 -37.5 7.5t-31 20.5t-21 30.5t-7.5 37.5z" />
<glyph unicode="&#x62e;" horiz-adv-x="1125" arabic-form="medial" d="M-42 0v189h826v330q0 78 -21.5 128.5t-56 80t-79.5 41.5t-91 12q-44 0 -90.5 -8t-88.5 -19.5t-77.5 -25t-57.5 -23.5l-81 170q27 13 71 29.5t97.5 31.5t112 25t114.5 10q82 0 160.5 -20t140 -71t99 -138.5t37.5 -222.5v-330h194v-189h-1209zM438 1248q0 20 7.5 37.5 t21 31t31 21t37.5 7.5t37.5 -7.5t30.5 -21t20.5 -31t7.5 -37.5q0 -40 -28 -68t-68 -28q-20 0 -37.5 7.5t-31 20.5t-21 30.5t-7.5 37.5z" />
<glyph unicode="&#x62f;" horiz-adv-x="913" arabic-form="isolated" d="M105 0v189h390q25 0 47.5 9.5t39.5 25.5t26.5 37.5t9.5 45.5v212q0 63 -25.5 111.5t-81 82t-142.5 50.5t-210 17v190q173 0 296 -29.5t201.5 -87t115 -141.5t36.5 -193v-212q0 -64 -24.5 -120t-67 -97.5t-99.5 -65.5t-122 -24h-390z" />
<glyph unicode="&#x62f;" horiz-adv-x="959" arabic-form="final" d="M105 0v189h514v330q0 63 -26 111.5t-81.5 82t-142.5 50.5t-210 17v190q174 0 297 -29.5t201 -87t114.5 -141.5t36.5 -193v-330h193v-189h-896z" />
<glyph unicode="&#x630;" horiz-adv-x="913" arabic-form="isolated" d="M105 0v189h390q25 0 47.5 9.5t39.5 25.5t26.5 37.5t9.5 45.5v212q0 63 -25.5 111.5t-81 82t-142.5 50.5t-210 17v190q173 0 296 -29.5t201.5 -87t115 -141.5t36.5 -193v-212q0 -64 -24.5 -120t-67 -97.5t-99.5 -65.5t-122 -24h-390zM392 1248q0 20 7.5 37.5t21 31t31 21 t37.5 7.5t37.5 -7.5t30.5 -21t20.5 -31t7.5 -37.5q0 -40 -28 -68t-68 -28q-20 0 -37.5 7.5t-31 20.5t-21 30.5t-7.5 37.5z" />
<glyph unicode="&#x630;" horiz-adv-x="959" arabic-form="final" d="M105 0v189h514v330q0 63 -26 111.5t-81.5 82t-142.5 50.5t-210 17v190q174 0 297 -29.5t201 -87t114.5 -141.5t36.5 -193v-330h193v-189h-896zM392 1248q0 20 7.5 37.5t21 31t31 21t37.5 7.5t37.5 -7.5t30.5 -21t20.5 -31t7.5 -37.5q0 -40 -28 -68t-68 -28 q-20 0 -37.5 7.5t-31 20.5t-21 30.5t-7.5 37.5z" />
<glyph unicode="&#x631;" horiz-adv-x="568" arabic-form="isolated" d="M14 -212q51 21 88.5 45.5t65.5 50.5t46 51.5t30 49.5q27 55 28 112v872h190v-864q-1 -93 -40 -183q-17 -38 -43.5 -79.5t-67 -82t-95.5 -78.5t-129 -69z" />
<glyph unicode="&#x631;" horiz-adv-x="612" arabic-form="final" d="M14 -212q50 21 88 45t65.5 49.5t45.5 50.5t30 48q27 54 28 109v879h190v-780h193v-189h-204q-9 -40 -30 -90t-62 -102.5t-107 -103t-164 -91.5z" />
<glyph unicode="&#x632;" horiz-adv-x="568" arabic-form="isolated" d="M14 -212q51 21 88.5 45.5t65.5 50.5t46 51.5t30 49.5q27 55 28 112v872h190v-864q-1 -93 -40 -183q-17 -38 -43.5 -79.5t-67 -82t-95.5 -78.5t-129 -69zM268 1248q0 20 7.5 37.5t21 31t31 21t37.5 7.5t37.5 -7.5t31 -21t21 -31t7.5 -37.5t-7.5 -37.5t-21 -30.5t-31 -20.5 t-37.5 -7.5t-37.5 7.5t-31 20.5t-21 30.5t-7.5 37.5z" />
<glyph unicode="&#x632;" horiz-adv-x="612" arabic-form="final" d="M14 -212q50 21 88 45t65.5 49.5t45.5 50.5t30 48q27 54 28 109v879h190v-780h193v-189h-204q-9 -40 -30 -90t-62 -102.5t-107 -103t-164 -91.5zM268 1248q0 20 7.5 37.5t20.5 31t30.5 21t37.5 7.5t37.5 -7.5t31 -21t21 -31t7.5 -37.5t-7.5 -37.5t-21 -30.5t-31 -20.5 t-37.5 -7.5q-40 0 -68 28t-28 68z" />
<glyph unicode="&#x633;" horiz-adv-x="2068" arabic-form="isolated" d="M105 62v730h190v-730q0 -62 26.5 -108.5t69.5 -77.5t98.5 -46.5t112.5 -15.5q58 0 113 15.5t98 46.5t69.5 77.5t26.5 108.5v907h191v-780h242v780h190v-780h119q25 0 47.5 9.5t39.5 25t26.5 37t9.5 45.5v663h189v-663q0 -63 -24.5 -119t-67 -97.5t-99.5 -65.5t-121 -24 h-557q-12 -93 -58.5 -163.5t-114 -117.5t-150.5 -70.5t-169 -23.5q-93 0 -182.5 27t-159 82t-112.5 136.5t-43 191.5z" />
<glyph unicode="&#x633;" horiz-adv-x="2114" arabic-form="final" d="M105 62v730h190v-730q0 -62 26.5 -108.5t69.5 -77.5t98.5 -46.5t113.5 -15.5q57 0 112.5 15.5t98.5 46.5t69.5 77.5t26.5 108.5v907h190v-780h242v780h190v-780h242v780h189v-780h193v-189h-1061q-12 -93 -58.5 -163.5t-114 -117.5t-150.5 -70.5t-169 -23.5 q-94 0 -183.5 27t-159.5 82t-112.5 136.5t-42.5 191.5z" />
<glyph unicode="&#x633;" horiz-adv-x="1471" arabic-form="initial" d="M-42 0v189h354v780h189v-780h243v780h189v-780h120q25 0 47.5 9.5t39.5 25.5t26.5 37.5t9.5 45.5v662h190v-662q0 -64 -24.5 -120t-67 -97.5t-99.5 -65.5t-122 -24h-1095z" />
<glyph unicode="&#x633;" horiz-adv-x="1517" arabic-form="medial" d="M-42 0v189h353v780h189v-780h243v780h189v-780h245v780h189v-780h193v-189h-1601z" />
<glyph unicode="&#x634;" horiz-adv-x="2068" arabic-form="isolated" d="M105 62v730h190v-730q0 -62 26.5 -108.5t69.5 -77.5t98.5 -46.5t112.5 -15.5q58 0 113 15.5t98 46.5t69.5 77.5t26.5 108.5v907h191v-780h242v780h190v-780h119q25 0 47.5 9.5t39.5 25t26.5 37t9.5 45.5v663h189v-663q0 -63 -24.5 -119t-67 -97.5t-99.5 -65.5t-121 -24 h-557q-12 -93 -58.5 -163.5t-114 -117.5t-150.5 -70.5t-169 -23.5q-93 0 -182.5 27t-159 82t-112.5 136.5t-43 191.5zM1202 1248q0 20 7.5 37.5t21 31t31 21t37.5 7.5t37.5 -7.5t31 -21t21 -31t7.5 -37.5t-7.5 -37.5t-21 -30.5t-31 -20.5t-37.5 -7.5t-37.5 7.5t-31 20.5 t-21 30.5t-7.5 37.5zM1344 1453q0 20 7.5 37.5t20.5 31t30.5 21t37.5 7.5t37.5 -7.5t31 -21t21 -31t7.5 -37.5t-7.5 -37.5t-21 -31t-31 -21t-37.5 -7.5t-37.5 7.5t-30.5 21t-20.5 31t-7.5 37.5zM1485 1248q0 20 7.5 37.5t21 31t31 21t37.5 7.5t37.5 -7.5t30.5 -21t20.5 -31 t7.5 -37.5q0 -40 -28 -68t-68 -28q-20 0 -37.5 7.5t-31 20.5t-21 30.5t-7.5 37.5z" />
<glyph unicode="&#x634;" horiz-adv-x="2114" arabic-form="final" d="M105 62v730h190v-730q0 -62 26.5 -108.5t69.5 -77.5t98.5 -46.5t113.5 -15.5q57 0 112 15.5t98 46.5t69.5 77.5t26.5 108.5v907h191v-780h242v780h190v-780h242v780h189v-780h193v-189h-1061q-12 -93 -58.5 -163.5t-114 -117.5t-150.5 -70.5t-169 -23.5q-94 0 -183.5 27 t-159.5 82t-112.5 136.5t-42.5 191.5zM1200 1248q0 20 7.5 37.5t21 31t31 21t37.5 7.5t37.5 -7.5t31 -21t21 -31t7.5 -37.5t-7.5 -37.5t-21 -30.5t-31 -20.5t-37.5 -7.5t-37.5 7.5t-31 20.5t-21 30.5t-7.5 37.5zM1342 1453q0 20 7.5 37.5t20.5 31t30.5 21t37.5 7.5 t37.5 -7.5t31 -21t21 -31t7.5 -37.5t-7.5 -37.5t-21 -31t-31 -21t-37.5 -7.5t-37.5 7.5t-30.5 21t-20.5 31t-7.5 37.5zM1483 1248q0 20 7.5 37.5t21 31t31 21t37.5 7.5t37.5 -7.5t30.5 -21t20.5 -31t7.5 -37.5q0 -40 -28 -68t-68 -28q-20 0 -37.5 7.5t-31 20.5t-21 30.5 t-7.5 37.5z" />
<glyph unicode="&#x634;" horiz-adv-x="1471" arabic-form="initial" d="M-42 0v189h354v780h189v-780h243v780h189v-780h120q25 0 47.5 9.5t39.5 25.5t26.5 37.5t9.5 45.5v662h190v-662q0 -64 -24.5 -120t-67 -97.5t-99.5 -65.5t-122 -24h-1095zM599 1248q0 20 7.5 37.5t21 31t31 21t37.5 7.5t37.5 -7.5t31 -21t21 -31t7.5 -37.5t-7.5 -37.5 t-21 -30.5t-31 -20.5t-37.5 -7.5t-37.5 7.5t-31 20.5t-21 30.5t-7.5 37.5zM741 1453q0 20 7.5 37.5t20.5 31t30.5 21t37.5 7.5t37.5 -7.5t31 -21t21 -31t7.5 -37.5t-7.5 -37.5t-21 -31t-31 -21t-37.5 -7.5t-37.5 7.5t-30.5 21t-20.5 31t-7.5 37.5zM882 1248q0 20 7.5 37.5 t21 31t31 21t37.5 7.5t37.5 -7.5t30.5 -21t20.5 -31t7.5 -37.5q0 -40 -28 -68t-68 -28q-20 0 -37.5 7.5t-31 20.5t-21 30.5t-7.5 37.5z" />
<glyph unicode="&#x634;" horiz-adv-x="1517" arabic-form="medial" d="M-42 0v189h353v780h189v-780h243v780h189v-780h245v780h189v-780h193v-189h-1601zM597 1248q0 20 7.5 37.5t21 31t31 21t37.5 7.5t37.5 -7.5t31 -21t21 -31t7.5 -37.5t-7.5 -37.5t-21 -30.5t-31 -20.5t-37.5 -7.5t-37.5 7.5t-31 20.5t-21 30.5t-7.5 37.5zM739 1453 q0 20 7.5 37.5t20.5 31t30.5 21t37.5 7.5t37.5 -7.5t31 -21t21 -31t7.5 -37.5t-7.5 -37.5t-21 -31t-31 -21t-37.5 -7.5t-37.5 7.5t-30.5 21t-20.5 31t-7.5 37.5zM880 1248q0 20 7.5 37.5t21 31t31 21t37.5 7.5t37.5 -7.5t30.5 -21t20.5 -31t7.5 -37.5q0 -40 -28 -68t-68 -28 q-20 0 -37.5 7.5t-31 20.5t-21 30.5t-7.5 37.5z" />
<glyph unicode="&#x635;" horiz-adv-x="2068" arabic-form="isolated" d="M105 62v730h190v-730q0 -62 26.5 -108.5t69.5 -77.5t98 -46.5t113 -15.5t113 15.5t98.5 46.5t70 77.5t26.5 108.5v907h190v-170q48 37 103 68.5t113.5 54t119 35t117.5 12.5q84 0 158.5 -24t130.5 -77.5t88.5 -139.5t32.5 -210v-212q0 -63 -24.5 -119t-67.5 -97.5 t-100 -65.5t-121 -24h-555q-12 -93 -58.5 -163.5t-114 -117.5t-151 -70.5t-169.5 -23.5q-93 0 -182.5 27t-159.5 82t-112.5 136.5t-42.5 191.5zM1100 189h550q25 0 47.5 9.5t39.5 25t26.5 37t9.5 45.5v212q0 72 -17.5 121.5t-47.5 80.5t-70 45t-85 14q-51 0 -104 -12 t-103.5 -32.5t-95 -49t-78 -61.5t-53 -69t-19.5 -72v-294z" />
<glyph unicode="&#x635;" horiz-adv-x="2113" arabic-form="final" d="M105 62v730h190v-730q0 -62 26.5 -108.5t70 -77.5t98.5 -46.5t113 -15.5q57 0 112 15.5t98 46.5t69.5 77.5t26.5 108.5v907h190v-170q48 37 103 68.5t114 54t119 35t118 12.5q83 0 157.5 -24t130.5 -77.5t88.5 -139.5t32.5 -210v-329h193v-189h-1061 q-12 -93 -58.5 -163.5t-114 -117.5t-150 -70.5t-168.5 -23.5q-93 0 -182.5 27t-159.5 82t-113 136.5t-43 191.5zM1099 189h673v329q0 72 -17.5 121.5t-47.5 80.5t-70 45t-84 14q-51 0 -104.5 -12t-104 -32.5t-95 -49t-78 -61.5t-53 -69t-19.5 -72v-294z" />
<glyph unicode="&#x635;" horiz-adv-x="1310" arabic-form="initial" d="M-42 0v189h193v780h190v-170q48 37 103 68.5t114 54t119 35t118 12.5q84 0 158.5 -24t130.5 -77.5t88.5 -139.5t32.5 -210v-212q0 -63 -24.5 -119t-67.5 -97.5t-100 -65.5t-121 -24h-934zM341 189h551q25 0 47.5 9.5t39.5 25t26.5 37t9.5 45.5v212q0 72 -17.5 121.5 t-47.5 80.5t-70 45t-85 14q-51 0 -104.5 -12t-104 -32.5t-95 -49t-78 -61.5t-53 -69t-19.5 -72v-294z" />
<glyph unicode="&#x635;" horiz-adv-x="1356" arabic-form="medial" d="M-42 0v189h194v780h190v-170q48 37 103 68.5t114 54t119 35t118 12.5q83 0 157.5 -24t130.5 -77.5t88.5 -139.5t32.5 -210v-329h193v-189h-1440zM342 189h673v329q0 72 -17.5 121.5t-47.5 80.5t-70 45t-84 14q-51 0 -104.5 -12t-104 -32.5t-95 -49t-78 -61.5t-53 -69 t-19.5 -72v-294z" />
<glyph unicode="&#x636;" horiz-adv-x="2068" arabic-form="isolated" d="M105 62v730h190v-730q0 -62 26.5 -108.5t69.5 -77.5t98 -46.5t113 -15.5t113 15.5t98.5 46.5t70 77.5t26.5 108.5v907h190v-170q48 37 103 68.5t113.5 54t119 35t117.5 12.5q84 0 158.5 -24t130.5 -77.5t88.5 -139.5t32.5 -210v-212q0 -63 -24.5 -119t-67.5 -97.5 t-100 -65.5t-121 -24h-555q-12 -93 -58.5 -163.5t-114 -117.5t-151 -70.5t-169.5 -23.5q-93 0 -182.5 27t-159.5 82t-112.5 136.5t-42.5 191.5zM1100 189h550q25 0 47.5 9.5t39.5 25t26.5 37t9.5 45.5v212q0 72 -17.5 121.5t-47.5 80.5t-70 45t-85 14q-51 0 -104 -12 t-103.5 -32.5t-95 -49t-78 -61.5t-53 -69t-19.5 -72v-294zM1339 1248q0 20 7.5 37.5t21 31t31 21t37.5 7.5t37.5 -7.5t31 -21t21 -31t7.5 -37.5t-7.5 -37.5t-21 -30.5t-31 -20.5t-37.5 -7.5t-37.5 7.5t-31 20.5t-21 30.5t-7.5 37.5z" />
<glyph unicode="&#x636;" horiz-adv-x="2113" arabic-form="final" d="M105 62v730h190v-730q0 -62 26.5 -108.5t70 -77.5t98.5 -46.5t113 -15.5q57 0 112 15.5t98 46.5t69.5 77.5t26.5 108.5v907h190v-170q48 37 103 68.5t114 54t119 35t118 12.5q83 0 157.5 -24t130.5 -77.5t88.5 -139.5t32.5 -210v-329h193v-189h-1061 q-12 -93 -58.5 -163.5t-114 -117.5t-150 -70.5t-168.5 -23.5q-93 0 -182.5 27t-159.5 82t-113 136.5t-43 191.5zM1099 189h673v329q0 72 -17.5 121.5t-47.5 80.5t-70 45t-84 14q-51 0 -104.5 -12t-104 -32.5t-95 -49t-78 -61.5t-53 -69t-19.5 -72v-294zM1339 1248 q0 20 7.5 37.5t21 31t31 21t37.5 7.5t37.5 -7.5t31 -21t21 -31t7.5 -37.5t-7.5 -37.5t-21 -30.5t-31 -20.5t-37.5 -7.5t-37.5 7.5t-31 20.5t-21 30.5t-7.5 37.5z" />
<glyph unicode="&#x636;" horiz-adv-x="1310" arabic-form="initial" d="M-42 0v189h193v780h190v-170q48 37 103 68.5t114 54t119 35t118 12.5q84 0 158.5 -24t130.5 -77.5t88.5 -139.5t32.5 -210v-212q0 -63 -24.5 -119t-67.5 -97.5t-100 -65.5t-121 -24h-934zM341 189h551q25 0 47.5 9.5t39.5 25t26.5 37t9.5 45.5v212q0 72 -17.5 121.5 t-47.5 80.5t-70 45t-85 14q-51 0 -104.5 -12t-104 -32.5t-95 -49t-78 -61.5t-53 -69t-19.5 -72v-294zM580 1248q0 20 7.5 37.5t21 31t31 21t37.5 7.5t37.5 -7.5t31 -21t21 -31t7.5 -37.5t-7.5 -37.5t-21 -30.5t-31 -20.5t-37.5 -7.5t-37.5 7.5t-31 20.5t-21 30.5t-7.5 37.5z " />
<glyph unicode="&#x636;" horiz-adv-x="1356" arabic-form="medial" d="M-52 0v189h204v780h190v-170q48 37 103 68.5t114 54t119 35t118 12.5q83 0 157.5 -24t130.5 -77.5t88.5 -139.5t32.5 -210v-329h193v-189h-1450zM342 189h673v329q0 72 -17.5 121.5t-47.5 80.5t-70 45t-84 14q-51 0 -104.5 -12t-104 -32.5t-95 -49t-78 -61.5t-53 -69 t-19.5 -72v-294zM582 1248q0 20 7.5 37.5t20.5 31t30.5 21t37.5 7.5t37.5 -7.5t31 -21t21 -31t7.5 -37.5t-7.5 -37.5t-21 -30.5t-31 -20.5t-37.5 -7.5q-40 0 -68 28t-28 68z" />
<glyph unicode="&#x637;" horiz-adv-x="1415" arabic-form="isolated" d="M105 0v189h152v1156h189v-545q48 38 103 69t113.5 53.5t119 35t118.5 12.5q83 0 157.5 -24t130.5 -78t89 -140t33 -210v-211q0 -64 -24.5 -120t-67.5 -97.5t-100 -65.5t-121 -24h-892zM446 189h551q25 0 47.5 9.5t39.5 25.5t26.5 37.5t9.5 45.5v211q0 72 -17.5 121.5 t-47.5 81t-70 45.5t-85 14q-51 0 -104.5 -12t-104 -32.5t-95 -49t-78 -61.5t-53 -69t-19.5 -72v-295z" />
<glyph unicode="&#x637;" horiz-adv-x="1461" arabic-form="final" d="M105 0v189h152v1156h189v-545q48 38 103 69t113.5 53.5t119 35t118.5 12.5q83 0 157.5 -24t130.5 -78t89 -140t33 -210v-329h193v-189h-1398zM446 189h675v329q0 72 -18 121.5t-48 81t-70 45.5t-85 14q-51 0 -104.5 -12t-104 -32.5t-95 -49t-78 -61.5t-53 -69t-19.5 -72 v-295z" />
<glyph unicode="&#x637;" horiz-adv-x="1309" arabic-form="initial" d="M-42 0v189h193v1156h190v-546q48 38 103 69.5t114 54t119 35t118 12.5q84 0 158 -24t130 -78t88.5 -140t32.5 -210v-211q0 -64 -24.5 -120t-67 -97.5t-99.5 -65.5t-121 -24h-934zM341 189h551q25 0 47.5 9.5t39 25.5t26 37.5t9.5 45.5v211q0 72 -17.5 122t-47.5 81 t-69.5 45t-84.5 14q-51 0 -104 -12t-103.5 -33t-95.5 -49.5t-78.5 -61.5t-53 -69t-19.5 -72v-294z" />
<glyph unicode="&#x637;" horiz-adv-x="1356" arabic-form="medial" d="M-42 0v189h194v1156h189v-545q48 38 103 69t113.5 53.5t119 35t118.5 12.5q83 0 157.5 -24t130.5 -78t89 -140t33 -210v-329h193v-189h-1440zM341 189h674v329q0 72 -17.5 121.5t-47.5 81t-70 45.5t-85 14q-51 0 -104.5 -12t-104 -32.5t-95 -49t-78 -61.5t-53 -69 t-19.5 -72v-295z" />
<glyph unicode="&#x638;" horiz-adv-x="1415" arabic-form="isolated" d="M105 0v189h152v1156h189v-545q48 38 103 69t113.5 53.5t119 35t118.5 12.5q83 0 157.5 -24t130.5 -78t89 -140t33 -210v-211q0 -64 -24.5 -120t-67.5 -97.5t-100 -65.5t-121 -24h-892zM446 189h551q25 0 47.5 9.5t39.5 25.5t26.5 37.5t9.5 45.5v211q0 72 -17.5 121.5 t-47.5 81t-70 45.5t-85 14q-51 0 -104.5 -12t-104 -32.5t-95 -49t-78 -61.5t-53 -69t-19.5 -72v-295zM687 1248q0 20 7.5 37.5t20.5 31t30.5 21t37.5 7.5t37.5 -7.5t31 -21t21 -31t7.5 -37.5t-7.5 -37.5t-21 -30.5t-31 -20.5t-37.5 -7.5q-40 0 -68 28t-28 68z" />
<glyph unicode="&#x638;" horiz-adv-x="1461" arabic-form="final" d="M105 0v189h152v1156h189v-545q48 38 103 69t113.5 53.5t119 35t118.5 12.5q83 0 157.5 -24t130.5 -78t89 -140t33 -210v-329h193v-189h-1398zM446 189h675v329q0 72 -18 121.5t-48 81t-70 45.5t-85 14q-51 0 -104.5 -12t-104 -32.5t-95 -49t-78 -61.5t-53 -69t-19.5 -72 v-295zM688 1248q0 20 7.5 37.5t20.5 31t30.5 21t37.5 7.5t37.5 -7.5t31 -21t21 -31t7.5 -37.5t-7.5 -37.5t-21 -30.5t-31 -20.5t-37.5 -7.5q-40 0 -68 28t-28 68z" />
<glyph unicode="&#x638;" horiz-adv-x="1309" arabic-form="initial" d="M-42 0v189h193v1156h190v-546q48 38 103 69.5t114 54t119 35t118 12.5q84 0 158 -24t130 -78t88.5 -140t32.5 -210v-211q0 -64 -24.5 -120t-67 -97.5t-99.5 -65.5t-121 -24h-934zM341 189h551q25 0 47.5 9.5t39 25.5t26 37.5t9.5 45.5v211q0 72 -17.5 122t-47.5 81 t-69.5 45t-84.5 14q-51 0 -104 -12t-103.5 -33t-95.5 -49.5t-78.5 -61.5t-53 -69t-19.5 -72v-294zM580 1248q0 20 7.5 37.5t21 31t31 21t37.5 7.5t37.5 -7.5t31 -21t21 -31t7.5 -37.5t-7.5 -37.5t-21 -30.5t-31 -20.5t-37.5 -7.5t-37.5 7.5t-31 20.5t-21 30.5t-7.5 37.5z " />
<glyph unicode="&#x638;" horiz-adv-x="1356" arabic-form="medial" d="M-42 0v189h194v1156h189v-545q48 38 103 69t113.5 53.5t119 35t118.5 12.5q83 0 157.5 -24t130.5 -78t89 -140t33 -210v-329h193v-189h-1440zM341 189h674v329q0 72 -17.5 121.5t-47.5 81t-70 45.5t-85 14q-51 0 -104.5 -12t-104 -32.5t-95 -49t-78 -61.5t-53 -69 t-19.5 -72v-295zM582 1248q0 20 7.5 37.5t20.5 31t30.5 21t37.5 7.5t37.5 -7.5t31 -21t21 -31t7.5 -37.5t-7.5 -37.5t-21 -30.5t-31 -20.5t-37.5 -7.5q-40 0 -68 28t-28 68z" />
<glyph unicode="&#x639;" horiz-adv-x="1207" arabic-form="isolated" d="M105 -92q0 49 14.5 96.5t44.5 86t76 64.5t109 33v345q0 92 34 171.5t92.5 138t137.5 91.5t168 33q98 2 217 -54l-78 -172q-41 18 -75.5 28t-63.5 9q-50 0 -94.5 -18.5t-77.5 -51.5t-52 -78t-19 -97v-344h564v-189h-727q-20 0 -35 -8t-25 -20.5t-15 -29t-5 -34.5 q0 -17 5 -34t15 -30.5t25 -21.5t35 -8h545v-189h-545q-68 0 -118.5 24.5t-84 64t-50.5 90.5t-17 104z" />
<glyph unicode="&#x639;" horiz-adv-x="1144" arabic-form="final" d="M105 -92q0 45 12.5 89t38.5 81t66 64.5t95 39.5q-43 50 -84.5 113.5t-67.5 136.5q-17 46 -26.5 94t-9.5 96q0 71 22 134.5t72.5 111t132.5 75t203 27.5t204 -28t133.5 -76t72.5 -112t22 -136q0 -46 -8.5 -92t-23.5 -91q-24 -72 -63 -133.5t-81 -112.5h371v-189h-811 q-20 0 -35 -8t-25.5 -20.5t-15.5 -29t-5 -34.5q0 -17 5 -34t15.5 -30.5t25.5 -21.5t35 -8h545v-189h-545q-68 0 -118.5 24.5t-84 64t-50.5 90.5t-17 104zM319 622q0 -31 6 -64.5t18 -64.5q18 -50 46 -94.5t59 -82t62 -67t55 -50.5q23 18 52.5 46t59 65.5t56.5 83.5t46 100 q10 31 16.5 63.5t6.5 60.5q0 33 -12.5 62.5t-41 51.5t-75 35t-114.5 13t-113.5 -12.5t-74 -34t-40.5 -50.5t-12 -61z" />
<glyph unicode="&#x639;" horiz-adv-x="1008" arabic-form="initial" d="M-42 0v189h193v347q0 92 34 171.5t92.5 138t137.5 91.5t169 33q99 2 216 -54l-76 -173q-41 18 -76.5 28t-63.5 9q-51 0 -95 -18.5t-77 -51.5t-52 -77.5t-19 -96.5v-347h562v-189h-945z" />
<glyph unicode="&#x639;" horiz-adv-x="1168" arabic-form="medial" d="M-42 0v189h380q-43 50 -81.5 110t-64.5 132q-17 47 -26.5 94.5t-9.5 95.5q0 71 22 134.5t72.5 111t132.5 75t203 27.5q122 0 205 -28t133.5 -76t72.5 -112t22 -136q0 -47 -9 -93t-24 -91q-24 -72 -63.5 -133t-81.5 -111h369v-189h-1252zM345 621q0 -31 6.5 -62.5 t17.5 -62.5q19 -51 46.5 -96t58.5 -83t61.5 -67.5t54.5 -49.5q24 20 54.5 49t60.5 66.5t57 82.5t44 96q23 64 23 123q0 33 -12.5 62.5t-41 51.5t-75 35t-114.5 13t-114 -12.5t-74 -34t-40.5 -50.5t-12.5 -61z" />
<glyph unicode="&#x63a;" horiz-adv-x="1207" arabic-form="isolated" d="M105 -92q0 49 14.5 96.5t44.5 86t76 64.5t109 33v345q0 92 34 171.5t92.5 138t137.5 91.5t168 33q98 2 217 -54l-78 -172q-41 18 -75.5 28t-63.5 9q-50 0 -94.5 -18.5t-77.5 -51.5t-52 -78t-19 -97v-344h564v-189h-727q-20 0 -35 -8t-25 -20.5t-15 -29t-5 -34.5 q0 -17 5 -34t15 -30.5t25 -21.5t35 -8h545v-189h-545q-68 0 -118.5 24.5t-84 64t-50.5 90.5t-17 104zM685 1248q0 20 7.5 37.5t20.5 31t30.5 21t37.5 7.5t37.5 -7.5t31 -21t21 -31t7.5 -37.5t-7.5 -37.5t-21 -30.5t-31 -20.5t-37.5 -7.5q-40 0 -68 28t-28 68z" />
<glyph unicode="&#x63a;" horiz-adv-x="1144" arabic-form="final" d="M105 -92q0 45 12.5 89t38.5 81t66 64.5t95 39.5q-43 50 -84.5 113.5t-67.5 136.5q-17 46 -26.5 94t-9.5 96q0 71 22 134.5t72.5 111t132.5 75t203 27.5t204 -28t133.5 -76t72.5 -112t22 -136q0 -46 -8.5 -92t-23.5 -91q-24 -72 -63 -133.5t-81 -112.5h371v-189h-811 q-20 0 -35 -8t-25.5 -20.5t-15.5 -29t-5 -34.5q0 -17 5 -34t15.5 -30.5t25.5 -21.5t35 -8h545v-189h-545q-68 0 -118.5 24.5t-84 64t-50.5 90.5t-17 104zM319 622q0 -31 6 -64.5t18 -64.5q18 -50 46 -94.5t59 -82t62 -67t55 -50.5q23 18 52.5 46t59 65.5t56.5 83.5t46 100 q10 31 16.5 63.5t6.5 60.5q0 33 -12.5 62.5t-41 51.5t-75 35t-114.5 13t-113.5 -12.5t-74 -34t-40.5 -50.5t-12 -61zM463 1248q0 20 7.5 37.5t20.5 31t30.5 21t37.5 7.5t37.5 -7.5t31 -21t21 -31t7.5 -37.5t-7.5 -37.5t-21 -30.5t-31 -20.5t-37.5 -7.5q-40 0 -68 28t-28 68z " />
<glyph unicode="&#x63a;" horiz-adv-x="1008" arabic-form="initial" d="M-42 0v189h193v347q0 92 34 171.5t92.5 138t137.5 91.5t169 33q99 2 216 -54l-76 -173q-41 18 -76.5 28t-63.5 9q-51 0 -95 -18.5t-77 -51.5t-52 -77.5t-19 -96.5v-347h562v-189h-945zM488 1248q0 20 7.5 37.5t21 31t31 21t37.5 7.5t37.5 -7.5t31 -21t21 -31t7.5 -37.5 t-7.5 -37.5t-21 -30.5t-31 -20.5t-37.5 -7.5t-37.5 7.5t-31 20.5t-21 30.5t-7.5 37.5z" />
<glyph unicode="&#x63a;" horiz-adv-x="1168" arabic-form="medial" d="M-42 0v189h380q-43 50 -81.5 110t-64.5 132q-17 47 -26.5 94.5t-9.5 95.5q0 71 22 134.5t72.5 111t132.5 75t203 27.5q122 0 205 -28t133.5 -76t72.5 -112t22 -136q0 -47 -9 -93t-24 -91q-24 -72 -63.5 -133t-81.5 -111h369v-189h-1252zM345 621q0 -31 6.5 -62.5 t17.5 -62.5q19 -51 46.5 -96t58.5 -83t61.5 -67.5t54.5 -49.5q24 20 54.5 49t60.5 66.5t57 82.5t44 96q23 64 23 123q0 33 -12.5 62.5t-41 51.5t-75 35t-114.5 13t-114 -12.5t-74 -34t-40.5 -50.5t-12.5 -61zM489 1248q0 20 7.5 37.5t21 31t31 21t37.5 7.5t37.5 -7.5 t30.5 -21t20.5 -31t7.5 -37.5q0 -40 -28 -68t-68 -28q-20 0 -37.5 7.5t-31 20.5t-21 30.5t-7.5 37.5z" />
<glyph unicode="&#x641;" horiz-adv-x="1874" arabic-form="isolated" d="M105 443v349h190v-349q0 -53 20 -99t54.5 -80.5t80.5 -54.5t99 -20h352v347q0 93 34 172t93 137.5t137.5 91.5t168.5 33t169 -33.5t138 -91.5t93 -136t34 -167v-229q0 -71 -24.5 -128.5t-67 -98.5t-99.5 -63.5t-122 -22.5h-906q-92 0 -173 35t-141 95t-95 140.5 t-35 172.5zM1091 189h364q52 0 87.5 33.5t35.5 90.5v229q0 50 -19 93.5t-52.5 75.5t-78 50.5t-94.5 18.5q-51 0 -95 -18.5t-77 -51.5t-52 -77.5t-19 -96.5v-347zM1237 1248q0 20 7.5 37.5t21 31t31 21t37.5 7.5t37.5 -7.5t31 -21t21 -31t7.5 -37.5t-7.5 -37.5t-21 -30.5 t-31 -20.5t-37.5 -7.5t-37.5 7.5t-31 20.5t-21 30.5t-7.5 37.5z" />
<glyph unicode="&#x641;" horiz-adv-x="1917" arabic-form="final" d="M105 443v349h189v-349q0 -53 20 -99t54.5 -80.5t80.5 -54.5t99 -20h352v347q0 93 34 172t92.5 137.5t137.5 91.5t168 33q90 0 169 -33.5t138 -91.5t93 -136t34 -167v-353h193v-189h-1411q-92 0 -172.5 35t-140.5 95t-95 140.5t-35 172.5zM1090 189h486v353q0 50 -19 93.5 t-52 75.5t-77.5 50.5t-95.5 18.5q-50 0 -94 -18.5t-77 -51.5t-52 -77.5t-19 -96.5v-347zM1235 1248q0 20 7.5 37.5t21 31t31 21t37.5 7.5t37.5 -7.5t31 -21t21 -31t7.5 -37.5t-7.5 -37.5t-21 -30.5t-31 -20.5t-37.5 -7.5t-37.5 7.5t-31 20.5t-21 30.5t-7.5 37.5z" />
<glyph unicode="&#x641;" horiz-adv-x="1123" arabic-form="initial" d="M-42 0v189h194v347q0 93 34 172t92.5 137.5t137.5 91.5t168 33q90 0 169 -33.5t138 -91.5t93 -136t33 -167v-229q0 -71 -24.5 -128.5t-66.5 -98.5t-99 -63.5t-121 -22.5h-748zM341 189h365q25 0 47.5 9t39 25t26 39t9.5 51v229q1 50 -18 93.5t-52.5 75.5t-78 50.5 t-95.5 18.5q-50 0 -94.5 -18.5t-77.5 -51.5t-52 -77.5t-19 -96.5v-347zM487 1248q0 20 7.5 37.5t21 31t31 21t37.5 7.5t37.5 -7.5t30.5 -21t20.5 -31t7.5 -37.5q0 -40 -28 -68t-68 -28q-20 0 -37.5 7.5t-31 20.5t-21 30.5t-7.5 37.5z" />
<glyph unicode="&#x641;" horiz-adv-x="1170" arabic-form="medial" d="M-42 0v189h194v347q0 93 34 172t92.5 137.5t137.5 91.5t168 33q90 0 169 -33.5t138 -91.5t93.5 -136t34.5 -167v-353h193v-189h-1254zM341 189h488v353q0 50 -19.5 93.5t-52.5 75.5t-77.5 50.5t-95.5 18.5q-50 0 -94.5 -18.5t-77.5 -51.5t-52 -77.5t-19 -96.5v-347z M487 1248q0 20 7.5 37.5t21 31t31 21t37.5 7.5t37.5 -7.5t30.5 -21t20.5 -31t7.5 -37.5q0 -40 -28 -68t-68 -28q-20 0 -37.5 7.5t-31 20.5t-21 30.5t-7.5 37.5z" />
<glyph unicode="&#x642;" horiz-adv-x="1428" arabic-form="isolated" d="M105 73v718h190v-718q0 -54 20 -101t55.5 -82t82.5 -55.5t101 -20.5h332q43 0 82 14t70.5 39t54 59t32.5 74h-370q-64 0 -120 24t-98 66t-66 98t-24 120v213q0 93 34 174.5t93.5 142t139 96t170.5 35.5q90 0 170 -35.5t139.5 -96.5t94 -141t34.5 -170v-464 q0 -90 -34.5 -170t-93.5 -139t-138.5 -93.5t-169.5 -34.5h-332q-93 0 -175 35.5t-142.5 96t-96 142t-35.5 174.5zM637 308q0 -25 9.5 -46.5t25.5 -37.5t37.5 -25.5t45.5 -9.5h378v337q0 51 -19.5 97t-53.5 80.5t-79.5 55t-96.5 20.5q-52 0 -97 -20t-78.5 -55t-52.5 -82 t-19 -101v-213zM644 1248q0 20 7.5 37.5t21 31t31 21t37.5 7.5t37.5 -7.5t31 -21t21 -31t7.5 -37.5t-7.5 -37.5t-21 -30.5t-31 -20.5t-37.5 -7.5t-37.5 7.5t-31 20.5t-21 30.5t-7.5 37.5zM927 1248q0 20 7.5 37.5t21 31t31 21t37.5 7.5t37.5 -7.5t30.5 -21t20.5 -31 t7.5 -37.5q0 -40 -28 -68t-68 -28q-20 0 -37.5 7.5t-31 20.5t-21 30.5t-7.5 37.5z" />
<glyph unicode="&#x642;" horiz-adv-x="1473" arabic-form="final" d="M105 73v718h190v-718q0 -54 20 -101t55 -82t81.5 -55.5t100.5 -20.5h333q43 0 82 14t71 39t54.5 59t32.5 74h-371q-64 0 -120 24t-98 66t-66.5 98t-24.5 120v213q0 93 34.5 174.5t94 142t139 96t170.5 35.5q90 0 170 -35.5t140 -96.5t94.5 -141t34.5 -170v-337h193v-189 h-198q-12 -80 -50 -148.5t-95.5 -118.5t-131 -79t-155.5 -29h-333q-93 0 -174 35.5t-142 96t-96 142t-35 174.5zM635 308q0 -25 9.5 -46.5t25.5 -37.5t37.5 -25.5t46.5 -9.5h378v337q0 51 -19.5 97t-53.5 80.5t-79.5 55t-96.5 20.5t-96.5 -20t-79 -55t-53 -82t-19.5 -101 v-213zM642 1248q0 20 7.5 37.5t21 31t31 21t37.5 7.5t37.5 -7.5t31 -21t21 -31t7.5 -37.5t-7.5 -37.5t-21 -30.5t-31 -20.5t-37.5 -7.5t-37.5 7.5t-31 20.5t-21 30.5t-7.5 37.5zM925 1248q0 20 7.5 37.5t21 31t31 21t37.5 7.5t37.5 -7.5t30.5 -21t20.5 -31t7.5 -37.5 q0 -40 -28 -68t-68 -28q-20 0 -37.5 7.5t-31 20.5t-21 30.5t-7.5 37.5z" />
<glyph unicode="&#x642;" horiz-adv-x="1123" arabic-form="initial" d="M-42 0v189h194v347q0 93 34 172t92.5 137.5t137.5 91.5t168 33q90 0 169 -33.5t138 -91.5t93 -136t33 -167v-229q0 -71 -24.5 -128.5t-66.5 -98.5t-99 -63.5t-121 -22.5h-748zM341 189h365q25 0 47.5 9t39 25t26 39t9.5 51v229q1 50 -18 93.5t-52.5 75.5t-78 50.5 t-95.5 18.5q-50 0 -94.5 -18.5t-77.5 -51.5t-52 -77.5t-19 -96.5v-347zM348 1248q0 20 7.5 37.5t21 31t31 21t37.5 7.5t37.5 -7.5t31 -21t21 -31t7.5 -37.5t-7.5 -37.5t-21 -30.5t-31 -20.5t-37.5 -7.5t-37.5 7.5t-31 20.5t-21 30.5t-7.5 37.5zM631 1248q0 20 7.5 37.5 t21 31t31 21t37.5 7.5t37.5 -7.5t30.5 -21t20.5 -31t7.5 -37.5q0 -40 -28 -68t-68 -28q-20 0 -37.5 7.5t-31 20.5t-21 30.5t-7.5 37.5z" />
<glyph unicode="&#x642;" horiz-adv-x="1170" arabic-form="medial" d="M-42 0v189h194v347q0 93 34 172t92.5 137.5t137.5 91.5t168 33q90 0 169 -33.5t138 -91.5t93.5 -136t34.5 -167v-353h193v-189h-1254zM341 189h487v353q0 50 -19 93.5t-52 75.5t-77.5 50.5t-95.5 18.5q-50 0 -94.5 -18.5t-77.5 -51.5t-52 -77.5t-19 -96.5v-347zM346 1248 q0 20 7.5 37.5t21 31t31 21t37.5 7.5t37.5 -7.5t31 -21t21 -31t7.5 -37.5t-7.5 -37.5t-21 -30.5t-31 -20.5t-37.5 -7.5t-37.5 7.5t-31 20.5t-21 30.5t-7.5 37.5zM629 1248q0 20 7.5 37.5t21 31t31 21t37.5 7.5t37.5 -7.5t30.5 -21t20.5 -31t7.5 -37.5q0 -40 -28 -68t-68 -28 q-20 0 -37.5 7.5t-31 20.5t-21 30.5t-7.5 37.5z" />
<glyph unicode="&#x643;" horiz-adv-x="1424" arabic-form="isolated" d="M105 439v353h190v-353q0 -52 19.5 -97.5t53.5 -79.5t79.5 -53.5t97.5 -19.5h464q25 0 47 9.5t38.5 26t26 38.5t9.5 48v1034h189v-1034q0 -65 -24.5 -121.5t-66.5 -98.5t-98.5 -66.5t-120.5 -24.5h-464q-91 0 -171 34.5t-140 94t-94.5 139.5t-34.5 171zM550 943v94h49 q-16 40 -16 80q0 30 8.5 58t27 50t48.5 35.5t73 14.5h81v-95h-80h1q-34 -1 -49.5 -20.5t-15.5 -42.5q0 -15 3 -29t8 -25.5t12.5 -18.5t15.5 -7h142v-94h-308z" />
<glyph unicode="&#x643;" horiz-adv-x="1470" arabic-form="final" d="M105 439v353h190v-353q0 -52 19.5 -97.5t53.5 -79.5t80 -53.5t98 -19.5h583v1156h190v-1156h193v-189h-966q-92 0 -172 34.5t-140 94t-94.5 139.5t-34.5 171zM550 943v94h49q-16 40 -16 80q0 30 8.5 58t27 50t48.5 35.5t73 14.5h81v-95h-80h1q-34 -1 -49.5 -20.5 t-15.5 -42.5q0 -15 3 -29t8 -25.5t12.5 -18.5t15.5 -7h142v-94h-308z" />
<glyph unicode="&#x643;" horiz-adv-x="1255" arabic-form="initial" d="M-42 0v189h879q26 0 48.5 9.5t39 25.5t26 37.5t9.5 45.5v212q0 77 -30.5 127.5t-80 80t-112.5 41.5t-127 12q-59 0 -118 -8t-111 -19.5t-92.5 -24.5t-62.5 -23l-86 157l536 497l136 -133l-293 -260q23 2 45.5 3t45.5 1q67 0 133 -8.5t126 -29t111.5 -54t89 -83.5 t59 -118.5t21.5 -157.5v-212q0 -64 -24.5 -120t-67 -97.5t-99.5 -65.5t-122 -24h-879z" />
<glyph unicode="&#x643;" horiz-adv-x="1307" arabic-form="medial" d="M-42 0v189h1008v330q0 77 -30.5 127.5t-80 80t-112.5 41.5t-127 12q-59 0 -118 -8t-111 -19.5t-92.5 -24.5t-62.5 -23l-86 157l537 497l136 -133l-293 -260q22 2 45 3t45 1q67 0 133 -8.5t126 -29t111.5 -54t89 -83.5t59 -118.5t21.5 -157.5v-330h193v-189h-1391z" />
<glyph unicode="&#x644;" horiz-adv-x="1205" arabic-form="isolated" d="M105 65v727h190v-727q0 -63 26.5 -110.5t69.5 -79t98 -47.5t113 -16t113 16t98.5 47.5t70 79t26.5 110.5v1280h190v-1280q0 -111 -43 -193.5t-113 -138t-159.5 -83t-182.5 -27.5t-182.5 27.5t-159.5 83t-112.5 138t-42.5 193.5z" />
<glyph unicode="&#x644;" horiz-adv-x="1249" arabic-form="final" d="M105 64v728h190v-728q0 -63 26.5 -110.5t69.5 -79t98 -47t113 -15.5q57 0 112 15.5t98 47t69.5 79t26.5 110.5v1281h190v-1156h193v-189h-197q-13 -94 -59.5 -164.5t-114 -118t-150.5 -71.5t-168 -24q-93 0 -182.5 27.5t-159.5 83t-112.5 138t-42.5 193.5z" />
<glyph unicode="&#x644;" horiz-adv-x="463" arabic-form="initial" d="M-42 0v189h89q25 0 47.5 9.5t39 26t26 38.5t9.5 47v1035h189v-1035q0 -64 -24.5 -120.5t-66.5 -98.5t-99 -66.5t-121 -24.5h-89z" />
<glyph unicode="&#x644;" horiz-adv-x="492" arabic-form="medial" d="M-42 0v189h193v1156h190v-1156h193v-189h-576z" />
<glyph unicode="&#x645;" horiz-adv-x="1430" arabic-form="isolated" d="M105 153q0 72 19.5 136.5t62 113.5t109.5 79.5t163 35.5v9q0 88 34 168t93 141t138 97t168 36q90 0 168.5 -35t137.5 -95t93 -140.5t34 -171.5v-216q0 -92 -34 -173t-93 -141t-137.5 -95t-168.5 -35q-89 0 -168 36t-138 96.5t-93 140.5t-34 169v19q-46 -5 -77 -20.5 t-50.5 -39t-28 -53t-8.5 -62.5v-528h-190v528zM648 309q0 -51 19 -97t52.5 -80.5t78 -54.5t94.5 -20q51 0 95.5 20t77.5 54.5t52 80.5t19 99v216q0 52 -19 98t-52 80t-77.5 54t-95.5 20q-50 0 -94.5 -20.5t-78 -55t-52.5 -80t-19 -96.5v-218z" />
<glyph unicode="&#x645;" horiz-adv-x="1477" arabic-form="final" d="M105 153q0 72 19.5 136.5t62 113.5t109.5 79.5t163 35.5v9q0 88 34 168t93 141t138 97t169 36q89 0 168 -35t137.5 -95t92.5 -140.5t34 -171.5v-216q0 -65 -16 -122h210v-189h-317q-59 -63 -138 -98t-171 -35q-90 0 -169 36t-138 96.5t-93 140.5t-34 169v19 q-46 -5 -77 -20.5t-50.5 -39t-28 -53t-8.5 -62.5v-528h-190v528zM648 309q0 -51 19 -97t52.5 -80.5t78 -54.5t95.5 -20q50 0 94.5 20t77.5 54.5t52 80.5t19 99v216q0 52 -19 98t-52 80t-77.5 54t-94.5 20q-51 0 -95.5 -20.5t-78 -55t-52.5 -80t-19 -96.5v-218z" />
<glyph unicode="&#x645;" horiz-adv-x="1124" arabic-form="initial" d="M-42 0v189h210q-8 29 -12 59.5t-4 62.5v216q0 91 34 171.5t93 140.5t137.5 95t168.5 35q89 0 168 -36t138 -97t93 -141t34 -168v-218q0 -89 -34 -169t-93 -140.5t-138 -96.5t-168 -36q-93 0 -171.5 35t-137.5 98h-318zM341 311q0 -53 19 -99t52 -80.5t77.5 -54.5 t95.5 -20q50 0 94.5 20t78 54.5t52.5 80.5t19 97v218q0 51 -19 96.5t-52.5 80t-78 55t-94.5 20.5q-51 0 -95.5 -20t-77.5 -54t-52 -80t-19 -98v-216z" />
<glyph unicode="&#x645;" horiz-adv-x="1169" arabic-form="medial" d="M-42 0v189h210q-8 29 -12 59.5t-4 62.5v216q0 91 34 171.5t92.5 140.5t137.5 95t168 35t168 -36t138.5 -97t93.5 -141t34 -168v-218q1 -32 -4 -62t-13 -58h210v-189h-318q-60 -61 -139.5 -97t-169.5 -36q-91 0 -169.5 35t-138.5 98h-318zM341 311q0 -53 19 -99t52 -80.5 t77.5 -54.5t94.5 -20t94.5 20t78 54.5t52.5 80.5t19 97v218q0 51 -19 96.5t-52.5 80t-78 55t-94.5 20.5t-94.5 -20t-77.5 -54t-52 -80t-19 -98v-216z" />
<glyph unicode="&#x646;" horiz-adv-x="1205" arabic-form="isolated" d="M105 67v725h190v-725q0 -63 26.5 -110.5t69.5 -79.5t98 -48t113 -16t113 16t98.5 48t70 79.5t26.5 110.5v902h190v-902q0 -111 -43 -194t-113 -138.5t-159.5 -83t-182.5 -27.5t-182.5 27.5t-159.5 83t-112.5 138.5t-42.5 194zM506 1248q0 20 7.5 37.5t20.5 31t30.5 21 t37.5 7.5t37.5 -7.5t31 -21t21 -31t7.5 -37.5t-7.5 -37.5t-21 -30.5t-31 -20.5t-37.5 -7.5q-40 0 -68 28t-28 68z" />
<glyph unicode="&#x646;" horiz-adv-x="1251" arabic-form="final" d="M105 67v725h190v-725q0 -63 26.5 -110.5t69.5 -79.5t98.5 -48t113.5 -16q57 0 112.5 16t98.5 48t69.5 79.5t26.5 110.5v902h190v-779h193v-190h-198q-13 -95 -59 -165.5t-113.5 -117t-150.5 -70t-169 -23.5q-94 0 -183.5 27.5t-159.5 83t-112.5 138.5t-42.5 194z M506 1248q0 20 7.5 37.5t21 31t31 21t37.5 7.5t37.5 -7.5t30.5 -21t20.5 -31t7.5 -37.5q0 -40 -28 -68t-68 -28q-20 0 -37.5 7.5t-31 20.5t-21 30.5t-7.5 37.5z" />
<glyph unicode="&#x646;" horiz-adv-x="576" arabic-form="initial" d="M-42 0v189h203q25 0 47 9.5t38.5 26t26 38.5t9.5 48v658h189v-658q0 -65 -24.5 -121.5t-66.5 -98.5t-98.5 -66.5t-120.5 -24.5h-203zM278 1248q0 20 7.5 37.5t21 31t31 21t37.5 7.5t37.5 -7.5t30.5 -21t20.5 -31t7.5 -37.5q0 -40 -28 -68t-68 -28q-20 0 -37.5 7.5 t-31 20.5t-21 30.5t-7.5 37.5z" />
<glyph unicode="&#x646;" horiz-adv-x="623" arabic-form="medial" d="M-42 0v189h324v780h189v-780h194v-189h-707zM204 1248q0 20 7.5 37.5t21 31t31 21t37.5 7.5t37.5 -7.5t30.5 -21t20.5 -31t7.5 -37.5q0 -40 -28 -68t-68 -28q-20 0 -37.5 7.5t-31 20.5t-21 30.5t-7.5 37.5z" />
<glyph unicode="&#x647;" horiz-adv-x="1077" arabic-form="isolated" d="M105 309v217q0 91 34 172t93 141t138 95t168 35q90 0 169 -35.5t138 -95.5t93 -139.5t34 -168.5v-217q0 -71 -24.5 -128.5t-66.5 -98.5t-99 -63.5t-122 -22.5h-244q-66 0 -123 22t-98.5 62.5t-65.5 97.5t-24 127zM295 309q0 -54 35 -87t86 -33h244q52 0 87.5 34t35.5 90 v217q0 51 -19 96t-52.5 79t-78 54t-95.5 20q-50 0 -94.5 -20t-77.5 -54t-52 -80.5t-19 -98.5v-217z" />
<glyph unicode="&#x647;" horiz-adv-x="1131" arabic-form="final" d="M105 308v213q0 93 34.5 174.5t93.5 142t139 96t170 35.5t170 -35.5t140 -96t94.5 -141t33.5 -169.5v-338h193v-189h-383v527q1 51 -18.5 96.5t-53.5 80t-79.5 55t-96.5 20.5t-96.5 -20t-79 -55t-53 -82t-19.5 -101v-213q0 -25 9.5 -46.5t25.5 -37.5t37.5 -25.5t46.5 -9.5 h207v-189h-207q-64 0 -120 24t-98 66t-66 98t-24 120z" />
<glyph unicode="&#x647;" horiz-adv-x="1441" arabic-form="initial" d="M-42 0v189h193v204q0 58 18 109.5t50.5 93t76 70t94.5 41.5q30 60 83 109t119 83t140.5 52.5t149.5 18.5q88 0 170 -25t145 -79.5t101 -140.5t38 -207v-211q0 -64 -24.5 -120t-67 -97.5t-99.5 -65.5t-121 -24h-1066zM341 190h240v206q0 27 -9 51t-25.5 41.5t-38.5 27.5 t-47 10t-47 -10t-38 -28t-25.5 -42.5t-9.5 -52.5v-203zM604 680q37 -20 67.5 -49.5t53 -66.5t34.5 -79.5t12 -88.5v-207h253q25 0 47.5 9.5t39.5 25.5t26.5 37.5t9.5 45.5v211q0 70 -22.5 120t-59 81.5t-84.5 46t-99 14.5q-39 0 -78.5 -7t-75.5 -19.5t-68 -31t-56 -42.5z " />
<glyph unicode="&#x647;" horiz-adv-x="1490" arabic-form="medial" d="M-42 0v189h193v203q0 58 18.5 109.5t50.5 93t75.5 70t94.5 41.5q30 60 82.5 109t118.5 83.5t141 53t150 18.5q88 0 170 -25t145 -79.5t101 -140.5t38 -207v-329h196v-189h-1574zM341 189h240v207q1 27 -8.5 50.5t-26 41.5t-38.5 28t-47 10t-47 -10.5t-38 -28.5 t-25.5 -42.5t-9.5 -52.5v-203zM602 679q38 -20 69.5 -49t53.5 -65.5t34 -79.5t12 -89v-207h376v329q0 70 -22.5 120t-59 81.5t-84.5 46t-99 14.5q-39 0 -78.5 -7t-76 -19.5t-68.5 -31.5t-57 -43z" />
<glyph unicode="&#x648;" horiz-adv-x="1087" arabic-form="isolated" d="M105 307v214q0 93 34.5 174.5t93.5 142t139 96t170 35.5q61 0 117 -16.5t104.5 -46t89 -70.5t69 -90t44 -105t15.5 -115v-465q0 -90 -34.5 -170t-93.5 -139t-139 -93.5t-170 -34.5h-298v189h298q43 0 82.5 14t71 39t54 59t32.5 75h-371q-63 0 -119 24t-98 65.5 t-66.5 97.5t-24.5 120zM295 307q0 -24 9.5 -45.5t25.5 -37.5t37.5 -25.5t45.5 -9.5h378v337q0 51 -19.5 97t-53.5 80.5t-79.5 55t-96.5 20.5t-96 -20t-78.5 -55t-53 -82t-19.5 -101v-214z" />
<glyph unicode="&#x648;" horiz-adv-x="1131" arabic-form="final" d="M105 307v214q0 93 34.5 174.5t93.5 142t138.5 96t169.5 35.5q60 0 116.5 -16.5t105 -46t89 -70.5t69 -90t44 -105t15.5 -115v-337h193v-189h-197q-11 -80 -49 -148.5t-95.5 -119t-131.5 -79.5t-157 -29h-298v189h298q43 0 82.5 14t71 39t54 59t32.5 75h-371 q-63 0 -119 24t-98 65.5t-66 97.5t-24 120zM294 307q0 -24 9.5 -45.5t25.5 -37.5t37.5 -25.5t45.5 -9.5h378v337q0 51 -19.5 97t-53 80.5t-79 55t-97.5 20.5q-51 0 -96 -20t-78.5 -55t-53 -82t-19.5 -101v-214z" />
<glyph unicode="&#x649;" horiz-adv-x="1205" arabic-form="isolated" d="M105 69v723h190v-723q0 -64 26.5 -112t69.5 -80t98 -48t113 -16t113 16.5t98.5 49t70 80.5t26.5 112q0 66 -29 108t-88 42h-308v435q0 65 24.5 122t67 99.5t99 67t121.5 24.5h246v-190h-246q-25 0 -47.5 -9.5t-39 -26t-26 -39t-9.5 -48.5v-246h118q76 0 133.5 -24.5 t96 -69t58 -107t19.5 -138.5q0 -111 -43 -195t-113 -140t-159.5 -84t-182.5 -28t-182.5 28t-159 83.5t-112.5 139t-43 194.5z" />
<glyph unicode="&#x649;" horiz-adv-x="1144" arabic-form="final" d="M105 68v724h189v-724q0 -64 26.5 -112t69.5 -80t98.5 -48t112.5 -16q49 0 97 12t88.5 35.5t70 58.5t43.5 82h-337v189h623v-189h-92q-13 -95 -59.5 -165.5t-114 -117.5t-150.5 -70.5t-169 -23.5q-93 0 -182 28t-159 83.5t-112.5 139t-42.5 194.5z" />
<glyph unicode="&#x64a;" horiz-adv-x="1205" arabic-form="isolated" d="M105 69v723h190v-723q0 -64 26.5 -112t69.5 -80t98 -48t112 -16q58 0 113.5 16.5t99 49t70 80.5t26.5 112q0 66 -29.5 108t-87.5 42h-308v435q0 65 24.5 122t67 99.5t99 67t121.5 24.5h246v-190h-246q-26 0 -48 -9.5t-39 -26t-26.5 -39t-9.5 -48.5v-246h119 q76 0 133.5 -24.5t96 -69t58 -107t19.5 -138.5q0 -111 -43 -195t-113 -140t-159.5 -84t-183.5 -28q-93 0 -182 28t-159 83.5t-112.5 139t-42.5 194.5zM360 -657q0 20 7.5 37.5t21 31t31 21t37.5 7.5t37.5 -7.5t31 -21t21 -31t7.5 -37.5t-7.5 -37.5t-21 -30.5t-31 -20.5 t-37.5 -7.5t-37.5 7.5t-31 20.5t-21 30.5t-7.5 37.5zM643 -657q0 20 7.5 37.5t21 31t31 21t37.5 7.5t37.5 -7.5t30.5 -21t20.5 -31t7.5 -37.5q0 -40 -28 -68t-68 -28q-20 0 -37.5 7.5t-31 20.5t-21 30.5t-7.5 37.5z" />
<glyph unicode="&#x64a;" horiz-adv-x="1144" arabic-form="final" d="M105 68v724h189v-724q0 -64 26.5 -112t69.5 -80t98.5 -48t112.5 -16q49 0 97 12t88.5 35.5t70 58.5t43.5 82h-337v189h623v-189h-92q-13 -95 -59.5 -165.5t-114 -117.5t-150.5 -70.5t-169 -23.5q-93 0 -182 28t-159 83.5t-112.5 139t-42.5 194.5zM361 -657q0 20 7.5 37.5 t21 31t31 21t37.5 7.5t37.5 -7.5t31 -21t21 -31t7.5 -37.5t-7.5 -37.5t-21 -30.5t-31 -20.5t-37.5 -7.5t-37.5 7.5t-31 20.5t-21 30.5t-7.5 37.5zM644 -657q0 20 7.5 37.5t21 31t31 21t37.5 7.5t37.5 -7.5t30.5 -21t20.5 -31t7.5 -37.5q0 -40 -28 -68t-68 -28 q-20 0 -37.5 7.5t-31 20.5t-21 30.5t-7.5 37.5z" />
<glyph unicode="&#x64a;" horiz-adv-x="577" arabic-form="initial" d="M-41 0v189h203q25 0 47 9.5t38.5 26t26 38.5t9.5 48v658h189v-658q0 -65 -24.5 -121.5t-66.5 -98.5t-98.5 -66.5t-120.5 -24.5h-203zM-4 -281q0 20 7.5 37.5t21 31t31 21t37.5 7.5t37.5 -7.5t31 -21t21 -31t7.5 -37.5t-7.5 -37.5t-21 -30.5t-31 -20.5t-37.5 -7.5 t-37.5 7.5t-31 20.5t-21 30.5t-7.5 37.5zM279 -281q0 20 7.5 37.5t21 31t31 21t37.5 7.5t37.5 -7.5t30.5 -21t20.5 -31t7.5 -37.5q0 -40 -28 -68t-68 -28q-20 0 -37.5 7.5t-31 20.5t-21 30.5t-7.5 37.5z" />
<glyph unicode="&#x64a;" horiz-adv-x="624" arabic-form="medial" d="M-41 0v189h324v780h189v-780h194v-189h-707zM-6 -281q0 20 7.5 37.5t21 31t31 21t37.5 7.5t37.5 -7.5t31 -21t21 -31t7.5 -37.5t-7.5 -37.5t-21 -30.5t-31 -20.5t-37.5 -7.5t-37.5 7.5t-31 20.5t-21 30.5t-7.5 37.5zM277 -281q0 20 7.5 37.5t21 31t31 21t37.5 7.5 t37.5 -7.5t30.5 -21t20.5 -31t7.5 -37.5q0 -40 -28 -68t-68 -28q-20 0 -37.5 7.5t-31 20.5t-21 30.5t-7.5 37.5z" />
<glyph unicode=" "  horiz-adv-x="325" />
<glyph unicode="&#x09;" horiz-adv-x="325" />
<glyph unicode="&#xa0;" horiz-adv-x="325" />
<glyph unicode="!" horiz-adv-x="419" d="M105 105q0 22 8 41t22.5 32.5t33.5 21.5t40 8q44 0 74.5 -29t30.5 -74q0 -22 -8.5 -41t-22.5 -33t-33 -22t-41 -8q-21 0 -40 8t-33.5 22t-22.5 33t-8 41zM110 298v1047h189v-1047h-189z" />
<glyph unicode="&#x22;" horiz-adv-x="694" d="M98 1409h138l-29 -566h-81zM459 1409h138l-29 -566h-81z" />
<glyph unicode="#" horiz-adv-x="1167" d="M70 475l15 108h250l31 223h-249l15 109h249l52 367h111l-52 -367h235l52 367h111l-52 -367h260l-16 -109h-259l-31 -223h259l-15 -108h-260l-56 -400h-111l56 400h-235l-56 -400h-111l56 400h-249zM445 583h236l31 223h-235z" />
<glyph unicode="$" horiz-adv-x="1167" d="M89 430h163q3 -140 60 -213q49 -65 133 -85q26 -6 72 -10v533q-147 25 -249 89q-154 98 -154 288q0 139 85 240q107 126 318 137v172h106v-172q183 -15 278 -108q102 -100 100 -264h-162q-11 118 -59 170q-55 60 -157 66v-482q85 -22 123 -34q293 -88 293 -374 q0 -220 -179 -334q-86 -55 -237 -64v-212h-106v212q-105 8 -177 34q-163 57 -224 234q-28 81 -27 177zM276 1046q0 -117 93 -180q48 -32 148 -50v458q-92 -3 -146 -40q-95 -65 -95 -188zM623 122q101 0 173 62q81 70 81 184q0 144 -105 210q-57 37 -149 54v-510z" />
<glyph unicode="%" horiz-adv-x="1753" d="M83 1013q0 197 93 299q84 94 236 94q153 0 236 -105q72 -93 72 -273q0 -203 -85 -312q-80 -102 -234 -102q-318 0 -318 399zM232 1004q0 -277 169 -277q69 0 105 40q67 74 67 255q0 270 -169 270q-172 0 -172 -288zM415 -68l793 1514h131l-790 -1514h-134zM1033 354 q0 195 76 296q87 114 255 114q102 0 178 -53q128 -88 128 -324q0 -415 -321 -415q-163 0 -244 108q-72 97 -72 274zM1184 364q0 -281 168 -281t168 285q0 283 -165 283q-96 0 -139 -87q-32 -66 -32 -200z" />
<glyph unicode="&#x26;" horiz-adv-x="1325" d="M86 368q0 189 159 315q95 75 170 109q-61 73 -99 140q-54 94 -54 187q0 117 73 196q94 102 256 102q139 0 227 -77q95 -84 95 -216q0 -222 -259 -366l256 -311q42 115 46 221h161q-4 -81 -32 -188q-28 -104 -65 -162l274 -318h-219l-149 177q-26 -44 -94 -101 q-125 -106 -316 -106q-204 0 -327 126q-103 106 -103 272zM260 374q0 -100 76 -179q77 -81 194 -81q134 0 237 100q25 25 64 79l-324 391q-80 -46 -120 -78q-127 -101 -127 -232zM424 1125q0 -69 62 -156q20 -28 78 -102q77 47 118 89q68 73 68 154q0 70 -46 121 q-44 48 -116 48q-69 0 -114 -42q-50 -46 -50 -112z" />
<glyph unicode="'" horiz-adv-x="333" d="M98 1409h138l-29 -566h-81z" />
<glyph unicode="(" horiz-adv-x="623" d="M86 497q0 293 112 562q82 199 196 350h128q-112 -174 -179 -383q-82 -255 -82 -525q0 -260 81 -513q64 -201 180 -385h-128l-9 15q-120 192 -161 280q-138 297 -138 599z" />
<glyph unicode=")" horiz-adv-x="623" d="M100 -397q114 175 180 383q82 259 82 527q0 478 -262 896h129l9 -15q122 -195 161 -280q138 -297 138 -598q0 -293 -112 -563q-84 -202 -196 -350h-129z" />
<glyph unicode="*" horiz-adv-x="2943" d="M105 743v587q0 11 8 18.5t19 7.5t18.5 -7.5t7.5 -18.5v-383q30 48 75 86q19 16 43 31.5t53.5 28t64.5 20t76 7.5q82 0 149.5 -30.5t115.5 -81.5t74 -116.5t26 -134.5q0 -70 -27 -137t-75 -119t-115 -83.5t-148 -31.5q-80 0 -147 30t-115.5 80t-75.5 114t-27 133zM159 757 q0 -65 24.5 -122.5t66.5 -100t98.5 -67t121.5 -24.5q64 0 120.5 24.5t98.5 67t66.5 100t24.5 122.5q0 64 -24.5 120.5t-66.5 99t-98.5 67t-120.5 24.5q-65 0 -121.5 -24.5t-98.5 -67t-66.5 -99t-24.5 -120.5zM870 754q0 76 28.5 143t78 116.5t116.5 78.5t143 29t143 -29 t117 -78.5t78.5 -116.5t28.5 -143q0 -8 -6 -16.5t-22 -8.5h-391q-11 0 -19.5 7.5t-8.5 20.5q0 11 8.5 19t19.5 8h362q-6 59 -32 110.5t-67.5 90t-95.5 60.5t-115 22q-65 0 -121.5 -24.5t-98.5 -67t-66 -99.5t-24 -122q0 -64 24 -120.5t66 -99t98.5 -67t121.5 -24.5 q42 0 81 11t73.5 30.5t63 47t48.5 60.5q6 11 17.5 13t21.5 -5q8 -6 11 -17t-5 -21q-24 -39 -56.5 -71t-72.5 -55.5t-86 -36t-96 -12.5q-76 0 -143 29t-116.5 79t-78 117t-28.5 142zM1222 111q0 18 19 18q7 0 12.5 -5t5.5 -13q0 -6 2 -18t10 -24t24 -21t44 -9q33 0 50.5 10 t24.5 23t7.5 23.5t0.5 11.5l-0.5 9t-8 19t-25 18.5t-50.5 8.5t-55 8t-35.5 20.5t-19.5 27t-6 28.5q0 13 4.5 31t17.5 34t35.5 27.5t58.5 11.5q32 -1 58 -13q22 -11 40.5 -33.5t18.5 -65.5q0 -7 -5.5 -12t-13.5 -5q-7 0 -12 5t-5 12q0 21 -9 38q-8 14 -24 26.5t-48 12.5 t-48.5 -11t-23.5 -24q-8 -16 -8 -35q1 -13 10 -23q8 -9 24 -16t46 -7q62 0 91.5 -27.5t29.5 -65.5q0 -19 -6.5 -37.5t-20.5 -33.5t-37.5 -24t-56.5 -9q-26 0 -47.5 8.5t-37 23.5t-23.5 34.5t-8 42.5zM1490 231q0 52 32.5 85.5t86.5 33.5q25 0 47.5 -9.5t38.5 -25.5t25.5 -38 t9.5 -46q0 -25 -9.5 -47t-25.5 -38.5t-38.5 -26t-47.5 -9.5h-81v-94q0 -19 -19 -19q-8 0 -13 5.5t-5 13.5zM1528 147h81q17 0 32.5 6.5t27 18t18 26.5t6.5 33q0 34 -24.5 59t-59.5 25q-38 0 -59.5 -24.5t-21.5 -59.5v-84zM1639 440v630q2 20 20 37t44 17t44 -17t19 -37v-630 q-1 -20 -19 -37t-44 -18q-26 1 -44 18t-20 37zM1737 174q0 37 14 69.5t38 56.5t56.5 38t68.5 14q37 0 69.5 -14t56.5 -38t38 -56.5t14 -69.5q0 -36 -14 -68.5t-38 -57t-56.5 -38.5t-69.5 -14q-36 0 -68.5 14t-56.5 38.5t-38 57t-14 68.5zM1777 174q0 -29 11 -54t29.5 -43.5 t43.5 -29.5t53 -11q29 0 54 11t44 29.5t29.5 43.5t10.5 54q0 28 -10.5 53t-29.5 44t-44 29.5t-54 10.5q-28 0 -53 -10.5t-43.5 -29.5t-29.5 -44t-11 -53zM1826 436v474q3 40 18 77q13 32 40.5 65t78.5 54q52 19 97 16t81 -19t61.5 -40t37.5 -46l289 -455q14 -22 33 -35 q17 -11 41.5 -15t56.5 13q15 7 24.5 17.5t15.5 22t8.5 21.5t2.5 17v466q2 20 19.5 37t42.5 17q27 0 45 -17t19 -37v-466q0 -41 -13 -78q-12 -32 -39 -65.5t-81 -55.5q-52 -21 -98 -17.5t-82 19t-61 37.5t-35 37q-5 8 -20 31.5t-36 57.5t-46.5 74t-51.5 81q-61 96 -135 212 q-9 18 -22 31q-11 11 -28 20.5t-39 7.5q-38 -4 -58.5 -19.5t-28.5 -32.5q-11 -20 -10 -46v-454q0 -22 -18 -39.5t-44 -18.5q-27 1 -45 17t-20 34zM2111 15v216q0 52 32.5 86.5t88.5 34.5q25 0 47 -9.5t38.5 -26t26 -38.5t9.5 -47q0 -39 -22.5 -70t-59.5 -44l56 -92 q4 -6 2.5 -13.5t-8.5 -10.5q-8 -5 -15.5 -3.5t-11.5 9.5l-64 103h-82v-95q0 -8 -5 -13.5t-13 -5.5q-19 0 -19 19zM2148 147h84q35 0 59.5 24.5t24.5 59.5q0 18 -6.5 33t-18 26.5t-27 18t-32.5 6.5q-38 0 -61 -23.5t-23 -60.5v-84zM2343 331q0 8 6 13.5t15 5.5h204 q8 0 13.5 -5.5t5.5 -13.5t-5.5 -14t-13.5 -6h-82v-294q0 -8 -5.5 -14t-13.5 -6q-9 0 -14.5 6t-5.5 14v294h-83q-9 0 -15 6t-6 14zM2599 108q0 19 16 19q8 0 13 -5.5t5 -13.5q0 -6 2.5 -18.5t11 -25t25 -21.5t44.5 -9q34 0 51 10.5t24.5 23.5t8 24t0.5 12t-0.5 9.5t-8 18.5 t-25 18.5t-50.5 8.5q-34 0 -56.5 8t-36 21t-19 28t-5.5 29q0 13 4.5 31t17 34.5t35 28t58.5 11.5q33 -1 59 -13q22 -11 40.5 -33.5t18.5 -66.5q0 -7 -5 -13t-13 -6q-9 0 -14 6t-5 13q0 21 -8 38q-7 14 -23 26t-48 12q-33 0 -49.5 -11t-24.5 -24q-9 -15 -9 -34q1 -13 10 -24 q8 -9 24 -16.5t47 -7.5q63 0 93 -27t30 -65q0 -19 -7 -38t-21.5 -34.5t-38 -25t-56.5 -9.5q-26 0 -48 9t-37.5 24t-23.5 35t-6 43z" />
<glyph unicode="+" horiz-adv-x="1167" d="M126 624v134h392v390h134v-390h390v-134h-390v-391h-134v391h-392z" />
<glyph unicode="," horiz-adv-x="456" d="M105 131q0 46 31 70q31 23 66 23q70 0 109.5 -44t39.5 -114q0 -98 -64.5 -157t-161.5 -58l-10 59q88 5 131 60q20 25 20 54q0 20 -21 20q-23 -2 -38 -3q-102 0 -102 90z" />
<glyph unicode="-" horiz-adv-x="573" d="M47 441v169h479v-169h-479z" />
<glyph unicode="." horiz-adv-x="403" d="M105 97q0 40 28 68t68 28q20 0 37.5 -7.5t31 -20.5t21 -30.5t7.5 -37.5t-7.5 -37.5t-21 -31t-31 -21t-37.5 -7.5t-37.5 7.5t-30.5 21t-20.5 31t-7.5 37.5z" />
<glyph unicode="/" horiz-adv-x="857" d="M-82 -397l726 1806h137l-721 -1806h-142z" />
<glyph unicode="0" horiz-adv-x="1084" d="M105 436v475q0 89 32.5 168.5t93.5 141.5q63 62 142.5 94.5t167.5 32.5t167.5 -33t141.5 -95q63 -63 96 -142t33 -167v-475q0 -87 -33 -166t-96 -142t-142 -95.5t-167 -32.5t-167.5 32.5t-142.5 94.5q-61 63 -93.5 142t-32.5 167zM290 436q0 -52 20 -97.5t54 -79.5 t79.5 -54t97.5 -20t97.5 20t79.5 54t54 79.5t20 97.5v475q0 51 -19 96.5t-54 81.5q-35 35 -81 53.5t-97 18.5t-96.5 -18.5t-80.5 -53.5q-36 -36 -55 -81.5t-19 -96.5v-475z" />
<glyph unicode="1" horiz-adv-x="707" d="M105 1136l82 212h256q80 0 121 -60q18 -26 28 -63t10 -80v-1144h-201v1135h-296z" />
<glyph unicode="2" horiz-adv-x="1124" d="M105 146q0 27 7.5 47t21 36.5t32 31.5t39.5 31q9 9 20 17l462 360q29 25 54 53t43 57q42 72 42 143q0 52 -18.5 97t-55.5 79q-35 33 -80.5 51t-96.5 18q-59 0 -107 -19t-82 -54.5t-52 -85.5t-18 -111q0 -37 12 -72t37 -66q34 -43 84 -69l-158 -113q-84 58 -126.5 144.5 t-42.5 198.5q0 48 9.5 91t29.5 84q36 76 102 133q66 56 150.5 85.5t178.5 29.5q86 0 164 -31t138 -89q61 -60 93 -136.5t32 -162.5q0 -152 -87 -267q-41 -54 -95 -101.5t-121 -100.5l-352 -277h648v-178h-725q-80 0 -129 35q-53 38 -53 111z" />
<glyph unicode="3" horiz-adv-x="1085" d="M105 373h188q12 -41 36 -75.5t56 -59.5t71.5 -39t83.5 -14q53 0 99.5 20t81 54.5t54.5 81.5t20 100q0 67 -20.5 109.5t-52.5 69t-71 41t-75 25.5q-32 10 -56.5 19t-41 20.5t-25.5 27.5t-9 40q0 12 11.5 38.5t47.5 77.5q26 37 57.5 74.5t59.5 69.5q18 22 33.5 40t24.5 32 l26 35h-467l-45 186h599q38 0 71 -8.5t56 -24.5q53 -35 53 -108q0 -28 -18 -63.5t-44.5 -73t-57.5 -74.5t-58 -68q-16 -18 -29.5 -33.5t-24.5 -29.5l-16 -20l23 -12q53 -29 96.5 -70t74.5 -93q31 -51 47 -109t16 -118q0 -88 -33.5 -168.5t-96.5 -143.5t-143 -96t-167 -33 q-82 0 -157.5 29t-136.5 84q-57 52 -93 118.5t-48 141.5z" />
<glyph unicode="4" horiz-adv-x="1246" d="M105 360q0 16 5 34.5t13 32.5l564 916h258l-577 -931h363v153h218v-153h192v-191h-192v-221h-218v221h-477q-27 0 -54 10t-48 28.5t-34 44t-13 56.5z" />
<glyph unicode="5" horiz-adv-x="1037" d="M105 869v323q0 78 54 118q50 37 135 37h574l-52 -186h-514v-309h213q84 0 160 -32.5t136 -92.5q59 -61 90 -138t31 -162t-31 -162.5t-89 -137.5q-60 -62 -136 -94t-161 -32q-75 0 -144.5 26t-126.5 76q-52 45 -87 103.5t-50 125.5h180q13 -35 36.5 -63.5t53.5 -48.5 t65 -31.5t73 -11.5q51 0 96 19.5t78.5 53.5t52.5 79.5t19 97.5q0 50 -18.5 95.5t-53.5 80.5t-80 54t-94 19q-23 0 -46.5 -1t-46.5 -2q-22 -1 -44.5 -2t-45.5 -1q-74 0 -109.5 11.5t-52.5 23.5q-65 44 -65 164z" />
<glyph unicode="6" horiz-adv-x="1201" d="M105 458q0 55 14.5 109t42.5 104l395 675h250l-256 -430h38q98 0 190 -33t163 -93q74 -65 112 -144q42 -87 42 -188q0 -94 -39 -179t-111 -150q-71 -62 -160 -95.5t-183 -33.5q-96 0 -186 33.5t-161 95.5q-73 65 -112 149.5t-39 179.5zM318 458q0 -57 23 -107t65 -89 q41 -37 93 -57t108 -20q55 0 107 20t92 57q43 39 65.5 89t22.5 107q0 56 -22.5 106.5t-65.5 89.5q-40 37 -92 57.5t-107 20.5q-56 0 -108 -20.5t-93 -57.5q-42 -39 -65 -89.5t-23 -106.5z" />
<glyph unicode="7" horiz-adv-x="1040" d="M105 1344h661q35 0 66 -13t54 -35.5t36 -53t13 -64.5q0 -22 -27 -114.5t-77 -245t-121.5 -360t-160.5 -458.5h-242l408 1132h-561z" />
<glyph unicode="8" horiz-adv-x="1074" d="M105 403q0 94 43.5 177t122.5 141l20 15l-18 18q-52 51 -79.5 114t-27.5 133q0 72 29 136t83 113q53 47 120 72.5t139 25.5t139 -25.5t120 -72.5q54 -49 83 -113t29 -136q0 -70 -27.5 -133t-79.5 -114l-18 -18l21 -15q79 -58 122 -141t43 -177q0 -84 -33.5 -158 t-97.5 -131q-61 -55 -139.5 -84.5t-161.5 -29.5q-84 0 -163 29.5t-139 84.5q-63 57 -96.5 131t-33.5 158zM299 409q0 -47 18.5 -89t53.5 -75q33 -32 76.5 -49t89.5 -17q49 0 92 18t75.5 49.5t51.5 73t19 89.5t-18.5 90.5t-53.5 75.5q-34 32 -76.5 49.5t-89.5 17.5 q-49 0 -92.5 -18.5t-75.5 -50t-51 -74t-19 -90.5zM355 990q0 -38 14.5 -71.5t39 -58t57.5 -39t71 -14.5q37 0 70.5 14.5t58 39t39 58t14.5 71.5q0 37 -14.5 70t-39 58t-58 39t-70.5 14t-70 -13.5t-58 -39.5q-54 -52 -54 -128z" />
<glyph unicode="9" horiz-adv-x="1124" d="M105 887q0 94 36 177t98 145.5t145.5 98.5t178.5 36q92 0 174.5 -35t147.5 -99q66 -66 100 -149t34 -174q0 -60 -13 -113.5t-37 -99.5l-368 -674h-228l238 430h-35q-97 0 -182.5 33t-151.5 96q-66 64 -101.5 148t-35.5 180zM289 887q0 -56 20 -106t58 -88 q38 -40 86.5 -60.5t104.5 -20.5q54 0 103 21t88 62q37 38 57 88t20 104t-19.5 103t-57.5 87q-39 40 -88 61t-103 21q-56 0 -104.5 -21.5t-85.5 -58.5t-58 -86.5t-21 -105.5z" />
<glyph unicode=":" horiz-adv-x="403" d="M105 98q0 40 28 68t68 28q20 0 37.5 -7.5t31 -20.5t21 -30.5t7.5 -37.5t-7.5 -37.5t-21 -31t-31 -21t-37.5 -7.5t-37.5 7.5t-30.5 21t-20.5 31t-7.5 37.5zM105 751q0 40 28 68t68 28q20 0 37.5 -7.5t31 -20.5t21 -30.5t7.5 -37.5t-7.5 -37.5t-21 -31t-31 -21t-37.5 -7.5 t-37.5 7.5t-30.5 21t-20.5 31t-7.5 37.5z" />
<glyph unicode=";" horiz-adv-x="456" d="M105 130q0 46 31 70q31 23 66 23q70 0 109.5 -44t39.5 -114q0 -98 -64.5 -157t-161.5 -58l-10 59q88 5 131 60q20 25 20 54q0 20 -21 20q-23 -2 -38 -3q-102 0 -102 90zM151 761q0 40 28 68t68 28q20 0 37.5 -7.5t31 -20.5t21 -30.5t7.5 -37.5t-7.5 -37.5t-21 -31 t-31 -21t-37.5 -7.5t-37.5 7.5t-30.5 21t-20.5 31t-7.5 37.5z" />
<glyph unicode="&#x3c;" horiz-adv-x="1167" d="M126 630v158l916 438v-183l-721 -335l720 -335v-181z" />
<glyph unicode="=" horiz-adv-x="1167" d="M126 465v134h916v-134h-916zM126 782v134h916v-134h-916z" />
<glyph unicode="&#x3e;" horiz-adv-x="1167" d="M126 192v183l719 334l-719 335v182l915 -439v-157z" />
<glyph unicode="?" horiz-adv-x="1089" d="M105 826q2 106 20 186.5t50 132.5q34 53 82 95t110 68q85 36 190 36q200 0 319 -116q108 -107 108 -268q0 -143 -82 -249v1q-18 -24 -56 -63t-96 -95q-30 -29 -49.5 -50.5t-27.5 -35.5v1q-7 -13 -12.5 -24.5t-9.5 -29.5t-6.5 -45t-2.5 -72h-188q0 48 2 78.5t5.5 52t9 37 t12.5 33.5v-1q12 32 36 67t56 70l104 104v-1q108 106 108 214q0 87 -54 146q-63 66 -178 66q-152 0 -218 -117q-19 -32 -29.5 -87.5t-15.5 -133.5h-187zM444 105q0 45 30 74t74 29t74 -29t30 -74q0 -44 -30 -74t-74 -30t-74 30t-30 74z" />
<glyph unicode="@" horiz-adv-x="1902" d="M156 658q0 269 132 460q120 173 336 261q179 73 394 73q357 0 557 -195q169 -165 169 -408q0 -213 -120 -362q-86 -106 -240 -157q-92 -30 -174 -30q-130 0 -167 110q-108 -110 -228 -110q-117 0 -189 89q-61 75 -61 198q0 169 107 318q138 191 328 191q133 0 192 -102 l28 69h143l-177 -509q-19 -54 -19 -85q0 -55 74 -55q70 0 144 36q107 52 160 164q47 99 47 220q0 194 -119 318q-158 164 -452 164q-315 0 -510 -168q-203 -175 -203 -494q0 -252 144 -394q105 -103 245 -136q128 -31 281 -31q278 0 461 55q73 23 162 66l53 -118 q-236 -139 -666 -139q-325 0 -509 104q-323 182 -323 597zM718 554q0 -63 28 -99q32 -41 89 -41q150 0 226 211l49 136q26 71 26 107q0 49 -35 83q-35 33 -84 33q-98 0 -190 -120q-54 -70 -85 -167q-24 -78 -24 -143z" />
<glyph unicode="A" horiz-adv-x="1342" d="M14 0l553 1415h209l551 -1415h-207l-157 433h-592l-161 -433h-196zM425 584h483l-139 374q-71 192 -100 285q-34 -97 -102 -277z" />
<glyph unicode="B" horiz-adv-x="1369" d="M164 0v1409h567q206 0 300 -47t145 -140q43 -77 43 -166q0 -135 -97 -230q-45 -45 -111 -70q78 -21 122 -51q148 -101 148 -293q0 -172 -103 -282q-83 -88 -203 -116q-63 -14 -156 -14h-655zM350 162h372q193 0 258 34q114 57 114 210q0 171 -152 229q-60 23 -251 23 h-341v-496zM350 809h335q137 0 204 19q78 22 117 94q26 47 26 108q0 153 -128 199q-51 18 -200 18h-354v-438z" />
<glyph unicode="C" horiz-adv-x="1431" d="M94 703q0 330 192 542q178 196 476 196q290 0 456 -180q114 -123 128 -275h-188q-24 109 -96 181q-115 116 -304 116q-253 0 -380 -206q-97 -156 -97 -373q0 -231 101 -385q126 -193 374 -193q211 0 324 147q73 95 92 258h185q-19 -215 -136 -359q-166 -204 -474 -204 q-326 0 -503 231q-150 195 -150 504z" />
<glyph unicode="D" horiz-adv-x="1420" d="M164 0v1409h506q176 0 276 -35q123 -43 216 -147q163 -180 163 -493q0 -376 -198 -578q-111 -112 -255 -142q-68 -14 -181 -14h-527zM350 162h305q147 0 220 25q142 48 213 223q49 121 49 315q0 275 -138 409q-75 75 -172 97q-70 16 -153 16h-324v-1085z" />
<glyph unicode="E" horiz-adv-x="1238" d="M164 0v1409h976v-162h-790v-447h738v-151h-738v-487h800v-162h-986z" />
<glyph unicode="F" horiz-adv-x="1136" d="M164 0v1409h926v-162h-740v-445h651v-151h-651v-651h-186z" />
<glyph unicode="G" horiz-adv-x="1519" d="M94 690q0 332 192 546q183 205 493 205q287 0 452 -169q121 -124 139 -296h-182q-14 95 -80 172q-114 135 -329 135q-239 0 -375 -172q-123 -155 -123 -413q0 -237 112 -389q136 -183 385 -183q193 0 316 121q122 119 126 346h-451v151h617v-744h-118l-29 107 q-11 43 -19 69q-171 -208 -453 -208q-339 0 -524 244q-149 196 -149 478z" />
<glyph unicode="H" horiz-adv-x="1444" d="M164 0v1409h186v-587h744v587h186v-1409h-186v660h-744v-660h-186z" />
<glyph unicode="I" horiz-adv-x="514" d="M164 0v1409h186v-1409h-186z" />
<glyph unicode="J" horiz-adv-x="995" d="M25 411q0 25 1 54h181v-51q0 -140 39 -200q58 -88 198 -88q133 0 183 85q38 63 38 242v956h186v-955q0 -128 -12 -199q-24 -135 -131 -214q-100 -73 -262 -73q-286 0 -378 193q-43 92 -43 250z" />
<glyph unicode="K" horiz-adv-x="1319" d="M164 0v1409h186v-555q-1 -99 -1 -146q32 30 93 93l623 608h244l-595 -565l618 -844h-236l-512 716l-234 -222v-494h-186z" />
<glyph unicode="L" horiz-adv-x="1141" d="M164 0v1409h186v-1247h748v-162h-934z" />
<glyph unicode="M" horiz-adv-x="1737" d="M164 0v1409h254l330 -859q88 -228 127 -357q47 144 123 354l317 862h258v-1409h-179l3 632q1 352 22 626l-20 -56l-64 -183l-44 -117l-335 -902h-162l-352 891q-76 194 -122 354q19 -302 20 -607l3 -638h-179z" />
<glyph unicode="N" horiz-adv-x="1455" d="M164 0v1409h202l526 -802q160 -243 235 -385q-13 280 -13 482v705h177v-1409h-205l-502 759q-191 289 -255 421q9 -105 12 -337l1 -131v-712h-178z" />
<glyph unicode="O" horiz-adv-x="1538" d="M95 703q0 341 185 535q195 203 501 203q289 0 476 -203q186 -202 186 -531q0 -293 -145 -487q-188 -252 -530 -252q-341 0 -530 254q-143 192 -143 481zM282 708q0 -254 117 -404q72 -93 183 -140q90 -38 190 -38q199 0 327 131q157 160 157 448q0 262 -135 421 q-133 157 -345 157q-219 0 -355 -150q-139 -154 -139 -425z" />
<glyph unicode="P" horiz-adv-x="1278" d="M164 0v1409h560q143 0 221 -23q126 -37 202 -147q67 -96 67 -235q0 -241 -164 -352q-80 -55 -187 -68q-41 -5 -131 -5h-382v-579h-186zM350 730h359q153 0 223 51q95 70 95 213q0 147 -111 213q-49 29 -121 36q-42 4 -113 4h-332v-517z" />
<glyph unicode="Q" horiz-adv-x="1514" d="M94 705q0 328 187 533q99 109 235 159q121 44 251 44q311 0 495 -210q180 -207 180 -524q0 -228 -88 -397q-52 -98 -121 -164l186 -148l-96 -117l-215 171q-146 -84 -343 -84q-302 0 -491 210q-180 200 -180 527zM281 709q0 -246 109 -396q76 -105 201 -154 q86 -33 182 -33q99 0 193 39l-155 124l97 117l185 -154q68 71 100 143q62 137 62 313q0 255 -134 416q-132 159 -355 159q-220 0 -355 -162q-130 -155 -130 -412z" />
<glyph unicode="R" horiz-adv-x="1416" d="M160 0v1409h644q178 0 277 -62q171 -106 171 -321q0 -165 -104 -266q-55 -53 -137 -81q102 -20 155 -101q40 -59 50 -154q4 -29 17 -180q16 -181 55 -224l18 -20h-213q-13 18 -24 57q-10 35 -19 220q-12 228 -107 290q-66 43 -226 43h-371v-610h-186zM346 761h351 q122 0 189 14q88 18 136 83q43 58 43 151q0 109 -66 172q-47 45 -127 57q-54 9 -126 9h-400v-486z" />
<glyph unicode="S" horiz-adv-x="1273" d="M55 465h180q3 -136 71 -213q110 -126 345 -126q173 0 260 72q88 72 88 184q0 87 -54 138q-57 54 -186 92q-36 10 -167 41q-196 46 -235 59q-127 43 -187 116q-67 83 -67 209q0 189 142 301q131 103 356 103q334 0 466 -209q59 -94 64 -236h-179q-16 130 -80 196 q-89 91 -273 91q-133 0 -212 -47q-105 -63 -105 -187q0 -101 75 -144q75 -44 308 -94q159 -34 226 -57q151 -52 227 -151q68 -89 68 -207q0 -199 -158 -321q-137 -107 -390 -107q-209 0 -357 82q-223 123 -226 415z" />
<glyph unicode="T" horiz-adv-x="1198" d="M33 1247v162h1133v-162h-474v-1247h-186v1247h-473z" />
<glyph unicode="U" horiz-adv-x="1420" d="M143 590v819h186v-824q0 -131 10 -191q46 -268 379 -268q242 0 321 139q40 72 49 190q3 46 3 130v824h186v-822q0 -189 -23 -269q-99 -350 -538 -350q-237 0 -368 90q-148 102 -187 285q-18 87 -18 247z" />
<glyph unicode="V" horiz-adv-x="1247" d="M14 1409h207l296 -888l39 -125q42 -133 69 -239q38 141 113 363l298 889h197l-504 -1409h-212z" />
<glyph unicode="W" horiz-adv-x="1835" d="M23 1409h193l209 -864q51 -215 73 -353q21 129 83 357l235 860h205l240 -880q48 -176 77 -337q20 127 71 333l217 884h186l-375 -1409h-197l-238 862q-58 212 -86 370q-31 -147 -92 -359l-237 -873h-199z" />
<glyph unicode="X" horiz-adv-x="1227" d="M7 0l497 726l-466 683h223l241 -369q77 -119 112 -188q58 97 119 188l250 369h210l-467 -683l495 -726h-226l-290 437q-48 74 -92 152q-36 -58 -96 -147l-297 -442h-213z" />
<glyph unicode="Y" horiz-adv-x="1240" d="M-19 1409h224l332 -526q59 -93 92 -153q35 66 87 148l330 531h213l-543 -832v-577h-186v577z" />
<glyph unicode="Z" horiz-adv-x="1235" d="M56 0v158l809 1004q10 13 78 89q-129 -4 -250 -4h-568v162h1034v-154l-801 -995q-8 -10 -40 -47q-16 -18 -47 -56q221 5 259 5h650v-162h-1124z" />
<glyph unicode="[" horiz-adv-x="623" d="M151 -397v1806h373v-132h-212v-1540h212v-134h-373z" />
<glyph unicode="\" horiz-adv-x="857" d="M76 1409h137l726 -1806h-143z" />
<glyph unicode="]" horiz-adv-x="623" d="M98 -263h212v1540h-212v132h373v-1806h-373v134z" />
<glyph unicode="^" horiz-adv-x="1024" d="M46 785l362 628h208l362 -628h-171l-296 503l-295 -503h-170z" />
<glyph unicode="_" horiz-adv-x="1024" d="M-16 -211h1057v-117h-1057v117z" />
<glyph unicode="`" horiz-adv-x="1024" d="M251 1444h208l146 -282h-117z" />
<glyph unicode="a" horiz-adv-x="1084" d="M71 261q0 201 192 278q57 23 144 37q12 1 170 21q127 15 158 59q21 29 21 77q0 178 -229 178q-143 0 -205 -73q-36 -43 -46 -136h-164q3 156 109 251q110 99 319 99q215 0 318 -101q50 -48 64 -134q3 -17 3 -118v-510q0 -65 62 -65q21 0 45 11v-131q-59 -21 -118 -21 q-79 0 -119 55q-26 36 -27 97q-143 -165 -370 -165q-144 0 -229 70q-98 81 -98 221zM244 275q0 -74 55 -122q50 -44 147 -44q125 0 221 72q70 53 86 114q7 27 7 83v136q-37 -25 -86 -36q-38 -9 -140 -21q-147 -17 -204 -45q-86 -42 -86 -137z" />
<glyph unicode="b" horiz-adv-x="1211" d="M156 0v1409h168v-528q106 171 337 171q205 0 333 -146q127 -144 127 -391q0 -255 -134 -403q-129 -142 -336 -142q-237 0 -339 178v-148h-156zM318 508q0 -189 85 -291q88 -106 233 -106q142 0 224 106q89 114 89 296q0 189 -90 298q-83 100 -219 100q-138 0 -226 -95 q-96 -104 -96 -308z" />
<glyph unicode="c" horiz-adv-x="1090" d="M91 496q0 277 151 425q135 131 340 131q233 0 350 -145q69 -86 85 -218h-174q-17 87 -63 139q-74 83 -199 83q-167 0 -251 -136q-67 -107 -67 -265q0 -167 68 -271q84 -128 241 -128t235 128q33 55 45 133h171q-20 -147 -98 -245q-126 -157 -349 -157q-248 0 -379 174 q-106 141 -106 352z" />
<glyph unicode="d" horiz-adv-x="1211" d="M90 512q0 252 126 394q130 146 333 146q161 0 264 -82q44 -35 74 -90v529h168v-1409h-158v150q-96 -180 -335 -180q-209 0 -338 141q-134 146 -134 401zM262 516q0 -185 89 -298q85 -107 227 -107q145 0 230 107q83 105 83 290q0 206 -96 309q-87 94 -217 94 q-141 0 -226 -99q-90 -106 -90 -296z" />
<glyph unicode="e" horiz-adv-x="1114" d="M91 503q0 240 132 393q135 156 346 156q172 0 294 -104q132 -113 161 -321q8 -58 8 -134v-17h-768q12 -365 322 -365q151 0 222 108q27 43 48 108h165q-80 -357 -447 -357q-247 0 -375 168q-108 144 -108 365zM266 606h593q-8 105 -52 175q-82 130 -243 130 q-155 0 -234 -117q-49 -72 -64 -188z" />
<glyph unicode="f" horiz-adv-x="607" d="M19 884v138h172v67q0 100 6 141q15 94 91 147q64 45 177 45q49 0 116 -8v-144q-52 11 -95 11q-82 0 -107 -34q-20 -26 -20 -108v-117h195v-138h-195v-884h-168v884h-172z" />
<glyph unicode="g" horiz-adv-x="1184" d="M89 507q0 251 130 398q129 147 327 147q135 0 229 -70q50 -37 97 -108v148h156v-911q0 -133 -17 -210q-34 -156 -146 -233q-123 -86 -312 -86q-212 0 -327 97q-85 72 -102 205h173q31 -171 263 -171q178 0 246 101q56 85 56 236v124q-32 -56 -62 -86q-99 -101 -265 -101 q-199 0 -324 143q-122 141 -122 377zM261 526q0 -227 110 -326q79 -71 187 -71q150 0 231 125q70 108 70 276q0 209 -104 307q-77 74 -190 74q-155 0 -234 -118q-70 -105 -70 -267z" />
<glyph unicode="h" horiz-adv-x="1168" d="M156 0v1409h168v-412q0 -19 -4 -122q118 177 348 177q228 0 311 -153q40 -74 40 -235v-664h-168v643q0 135 -34 185q-58 83 -197 83q-125 0 -206 -77q-63 -60 -81 -157q-9 -52 -9 -194v-483h-168z" />
<glyph unicode="i" horiz-adv-x="479" d="M140 1248q0 20 7.5 37.5t21 31t31 21t37.5 7.5t37.5 -7.5t30.5 -21t20.5 -31t7.5 -37.5q0 -40 -28 -68t-68 -28q-20 0 -37.5 7.5t-31 20.5t-21 30.5t-7.5 37.5zM156 0v1022h168v-1022h-168z" />
<glyph unicode="j" horiz-adv-x="479" d="M-12 -262q33 -7 59 -7q68 0 89 30q19 25 19 212v1049h168v-1048q0 -138 -6 -193q-21 -192 -253 -192q-35 0 -76 7v142zM140 1248q0 20 7.5 37.5t21 31t31 21t37.5 7.5t37.5 -7.5t30.5 -21t20.5 -31t7.5 -37.5q0 -40 -28 -68t-68 -28q-20 0 -37.5 7.5t-31 20.5t-21 30.5 t-7.5 37.5z" />
<glyph unicode="k" horiz-adv-x="1068" d="M156 0v1409h168v-692v-77v-69q48 51 69 71l402 380h224l-405 -370l435 -652h-214l-350 534l-161 -147v-387h-168z" />
<glyph unicode="l" horiz-adv-x="479" d="M156 0v1409h168v-1409h-168z" />
<glyph unicode="m" horiz-adv-x="1738" d="M156 0v1022h156v-148q65 83 123 120q93 58 212 58q143 0 223 -81q33 -35 60 -99q128 180 339 180q185 0 270 -127q50 -75 50 -220v-705h-168v644q0 123 -19 168q-42 99 -184 99q-99 0 -167 -56q-77 -64 -89 -173q-5 -44 -5 -141v-541h-168v656q0 147 -42 196 q-50 59 -149 59q-102 0 -175 -61q-75 -63 -92 -175q-7 -49 -7 -134v-541h-168z" />
<glyph unicode="n" horiz-adv-x="1168" d="M156 0v1022h156v-159q48 66 86 97q111 92 277 92q141 0 233 -71q86 -66 104 -187q7 -43 7 -134v-660h-168v601q0 107 -8 150q-14 72 -59 110q-60 50 -161 50q-133 0 -215 -84q-58 -60 -74 -158q-10 -59 -10 -174v-495h-168z" />
<glyph unicode="o" horiz-adv-x="1169" d="M91 511q0 225 113 369q136 172 390 172q221 0 357 -150q129 -142 129 -390q0 -272 -152 -420q-126 -122 -336 -122q-242 0 -375 157q-126 148 -126 384zM263 510q0 -196 96 -303q86 -96 232 -96q129 0 209 81q108 111 108 322q0 193 -94 300q-86 97 -222 97 q-142 0 -230 -95q-99 -108 -99 -306z" />
<glyph unicode="p" horiz-adv-x="1213" d="M156 -397v1419h156v-146q41 57 76 87q104 89 265 89q200 0 326 -132q144 -150 144 -415q0 -241 -127 -388q-128 -147 -331 -147q-224 0 -341 170v-537h-168zM316 511q0 -200 99 -306q87 -94 223 -94q141 0 222 99q91 112 91 295q0 191 -94 306q-82 100 -219 100 q-146 0 -233 -102q-89 -106 -89 -298z" />
<glyph unicode="q" horiz-adv-x="1211" d="M92 508q0 263 141 411q126 133 329 133q168 0 272 -92q32 -28 67 -85v147h156v-1419h-168v539q-118 -172 -343 -172q-201 0 -327 143q-127 143 -127 395zM264 505q0 -186 89 -294q84 -100 224 -100q134 0 220 93q98 106 98 312q0 189 -89 293q-88 102 -225 102 q-143 0 -224 -100q-93 -114 -93 -306z" />
<glyph unicode="r" horiz-adv-x="700" d="M156 0v1022h156v-213q76 163 208 215q71 28 176 28v-175q-37 3 -53 3q-135 0 -222 -89q-73 -75 -89 -209q-8 -66 -8 -185v-397h-168z" />
<glyph unicode="s" horiz-adv-x="997" d="M54 323h165q10 -85 46 -129q70 -83 228 -83q144 0 211 72q39 42 39 97q0 57 -39 89q-38 32 -97 50q-54 17 -121 33q-182 44 -217 56q-192 66 -192 243q0 163 143 245q97 56 246 56q230 0 337 -125q62 -72 72 -203h-169q-9 69 -36 105q-60 82 -212 82q-95 0 -150 -35 q-59 -37 -59 -108q0 -46 26 -73q32 -31 86 -47q63 -19 160 -41q213 -47 299 -110q96 -70 96 -200q0 -114 -76 -200q-112 -127 -348 -127q-240 0 -353 123q-79 86 -85 230z" />
<glyph unicode="t" horiz-adv-x="612" d="M1 884v138h172v303h168v-303h202v-138h-202v-603q0 -97 15 -122q21 -36 98 -36q43 0 89 13v-145q-64 -8 -128 -8q-163 0 -212 80q-22 35 -27 104q-3 44 -3 208v509h-172z" />
<glyph unicode="u" horiz-adv-x="1140" d="M149 359v663h168v-602q0 -170 32 -223q52 -86 181 -86q168 0 247 152q39 74 39 265v494h168v-1022h-156v160q-127 -190 -346 -190q-178 0 -267 112q-66 83 -66 277z" />
<glyph unicode="v" horiz-adv-x="951" d="M9 1022h186l183 -518q56 -156 108 -336q30 115 109 348l171 506h176l-373 -1022h-180z" />
<glyph unicode="w" horiz-adv-x="1468" d="M18 1022h186l141 -489q46 -156 92 -347q52 242 80 352l126 484h186l147 -543q26 -96 67 -293q39 178 72 289l159 547h176l-326 -1022h-179l-152 558q-30 111 -60 255q-30 -138 -60 -253l-146 -560h-182z" />
<glyph unicode="x" horiz-adv-x="991" d="M1 0l384 538l-356 484h216l163 -231q16 -23 81 -126q70 102 88 127l167 230h204l-353 -470l395 -552h-216l-220 322q-37 55 -65 102q-24 -39 -67 -102l-217 -322h-204z" />
<glyph unicode="y" horiz-adv-x="974" d="M9 1022h188l224 -598q25 -65 78 -237q51 159 83 252l205 583h177l-375 -988q-101 -266 -141 -329q-72 -116 -218 -116q-48 0 -98 11l-26 6v151q73 -22 108 -22q77 0 121 86q25 47 78 186z" />
<glyph unicode="z" horiz-adv-x="948" d="M57 0v125l535 665q15 19 85 95q-76 -1 -96 -1h-485v138h798v-111l-549 -684q-12 -15 -77 -90q80 1 127 1h524v-138h-862z" />
<glyph unicode="{" horiz-adv-x="623" d="M29 438v141q58 16 88 55q33 42 33 138v350q0 152 69 219q49 49 118 59q65 9 162 9h13v-132q-101 -3 -144 -36q-38 -29 -49 -84q-8 -41 -8 -104v-308q0 -106 -31 -163q-23 -44 -86 -78q71 -39 97 -104q20 -50 20 -141v-300q0 -104 21 -144q21 -41 50 -55q49 -24 130 -25 v-132h-14q-149 0 -202 19q-100 36 -130 147q-16 57 -16 148v320q0 106 -35 149q-29 36 -86 52z" />
<glyph unicode="|" horiz-adv-x="1024" d="M420 -352v1761h184v-1761h-184z" />
<glyph unicode="}" horiz-adv-x="623" d="M110 -265q102 3 145 36q38 30 49 84q8 42 8 104v308q0 106 31 163q24 44 86 77q-71 40 -97 105q-20 50 -20 141v300q0 104 -21 144q-21 41 -51 55q-49 24 -130 25v132h14q150 0 203 -19q100 -36 130 -147q16 -57 16 -148v-320q0 -106 35 -149q28 -35 85 -52v-141 q-57 -16 -87 -55q-33 -42 -33 -138v-350q0 -151 -69 -219q-49 -49 -118 -59q-65 -9 -163 -9h-13v132z" />
<glyph unicode="~" horiz-adv-x="1167" d="M87 623q28 62 79 128q81 105 201 105q76 0 240 -81q102 -50 135 -59q34 -10 61 -10q108 0 193 150l84 -66q-49 -110 -119 -167q-79 -65 -168 -65q-34 0 -76 13q-45 13 -183 81q-113 55 -175 55q-102 0 -188 -150z" />
<glyph unicode="&#xa9;" horiz-adv-x="1661" d="M95 703q0 209 108 387q106 175 295 271q157 80 343 80q197 0 374 -109t271 -293q80 -158 80 -335q0 -207 -108 -384t-293 -271q-157 -81 -334 -81q-207 0 -383 108q-177 108 -272 294q-81 158 -81 333zM206 703q0 -177 93 -330q92 -152 249 -233q134 -69 283 -69 q258 0 441 185q183 186 183 449q0 178 -92 331q-89 150 -248 233q-132 69 -276 69q-265 0 -449 -184q-88 -89 -136 -207q-48 -117 -48 -244zM420 704q0 190 118 311q110 113 292 113q178 0 281 -104q72 -73 81 -171h-132q-14 64 -57 105q-65 62 -176 62q-145 0 -219 -111 q-56 -85 -56 -204q0 -127 59 -211q72 -104 217 -104q212 0 240 227h131q-13 -134 -86 -217q-103 -118 -291 -118q-200 0 -310 133q-92 113 -92 289z" />
<glyph unicode="&#xab;" horiz-adv-x="921" d="M100 445v168l307 237v-170l-204 -150l204 -155v-173zM490 442v171l302 236v-171l-199 -150l199 -155v-168z" />
<glyph unicode="&#xad;" horiz-adv-x="573" d="M47 441v169h479v-169h-479z" />
<glyph unicode="&#xae;" horiz-adv-x="1115" d="M114 1180q0 191 147 325q125 114 303 114q189 0 322 -147q114 -125 114 -295q0 -198 -146 -329q-127 -114 -297 -114q-198 0 -329 146q-114 126 -114 300zM180 1180q0 -172 125 -283q107 -97 252 -97q168 0 280 124q97 107 97 253q0 166 -125 279q-107 97 -246 97 q-172 0 -286 -125q-97 -106 -97 -248zM369 944v465h227q63 0 99 -21q63 -36 63 -109t-65 -109q29 -18 40 -39q10 -20 14 -62q6 -70 11 -87q6 -18 29 -38h-97q-15 22 -17 62q-4 85 -21 108q-18 24 -85 24h-118v-194h-80zM449 1203h111q64 0 87 13q31 17 31 57q0 48 -41 61 q-20 7 -60 7h-128v-138z" />
<glyph unicode="&#xb6;" horiz-adv-x="1130" d="M76 1033q0 127 65 224q68 100 194 133q72 19 184 19h500v-113h-92v-1693h-137v1693h-181v-1693h-137v1064q-19 -1 -31 -1q-112 0 -203 55q-76 45 -119 127q-43 84 -43 185z" />
<glyph unicode="&#xd7;" horiz-adv-x="1167" d="M188 389l301 301l-301 302l95 95l301 -302l301 302l95 -95l-301 -302l301 -301l-95 -95l-301 302l-301 -302z" />
<glyph unicode="&#xe0;" horiz-adv-x="1084" d="M71 261q0 201 192 278q57 23 144 37q12 1 170 21q127 15 158 59q21 29 21 77q0 178 -229 178q-143 0 -205 -73q-36 -43 -46 -136h-164q3 156 109 251q110 99 319 99q215 0 318 -101q50 -48 64 -134q3 -17 3 -118v-510q0 -65 62 -65q21 0 45 11v-131q-59 -21 -118 -21 q-79 0 -119 55q-26 36 -27 97q-143 -165 -370 -165q-144 0 -229 70q-98 81 -98 221zM244 275q0 -74 55 -122q50 -44 147 -44q125 0 221 72q70 53 86 114q7 27 7 83v136q-37 -25 -86 -36q-38 -9 -140 -21q-147 -17 -204 -45q-86 -42 -86 -137zM280 1444h208l146 -282h-117z " />
<glyph unicode="&#xe1;" horiz-adv-x="1084" d="M71 261q0 201 192 278q57 23 144 37q12 1 170 21q127 15 158 59q21 29 21 77q0 178 -229 178q-143 0 -205 -73q-36 -43 -46 -136h-164q3 156 109 251q110 99 319 99q215 0 318 -101q50 -48 64 -134q3 -17 3 -118v-510q0 -65 62 -65q21 0 45 11v-131q-59 -21 -118 -21 q-79 0 -119 55q-26 36 -27 97q-143 -165 -370 -165q-144 0 -229 70q-98 81 -98 221zM244 275q0 -74 55 -122q50 -44 147 -44q125 0 221 72q70 53 86 114q7 27 7 83v136q-37 -25 -86 -36q-38 -9 -140 -21q-147 -17 -204 -45q-86 -42 -86 -137zM428 1162l146 282h208 l-238 -282h-116z" />
<glyph unicode="&#xe7;" horiz-adv-x="1090" d="M91 513q0 263 151 414q130 132 338 132q229 0 351 -144q68 -81 86 -219h-176q-46 222 -266 222q-165 0 -247 -135q-65 -106 -65 -258q0 -170 68 -277q83 -129 246 -129q225 0 281 259h164q-20 -205 -173 -318q-107 -79 -243 -81h-32l-72 -95q40 6 69 6q72 0 116 -32 q51 -38 51 -106q0 -106 -97 -151q-60 -28 -137 -28q-91 0 -192 40l36 73q61 -27 132 -27q108 0 108 80q0 42 -38 61q-28 14 -64 14q-30 0 -71 -13l-32 34l111 144q-137 21 -228 97q-175 147 -175 437z" />
<glyph unicode="&#xe8;" horiz-adv-x="1114" d="M91 503q0 240 132 393q135 156 346 156q172 0 294 -104q132 -113 161 -321q9 -64 8 -151h-768q12 -365 322 -365q151 0 222 108q27 43 48 108h165q-80 -357 -447 -357q-247 0 -375 168q-108 144 -108 365zM266 606h593q-8 105 -52 175q-82 130 -243 130q-155 0 -234 -117 q-49 -72 -64 -188zM302 1444h208l146 -282h-117z" />
<glyph unicode="&#xe9;" horiz-adv-x="1114" d="M91 503q0 240 132 393q135 156 346 156q172 0 294 -104q132 -113 161 -321q9 -64 8 -151h-768q12 -365 322 -365q151 0 222 108q27 43 48 108h165q-80 -357 -447 -357q-247 0 -375 168q-108 144 -108 365zM266 606h593q-8 105 -52 175q-82 130 -243 130q-155 0 -234 -117 q-49 -72 -64 -188zM471 1162l146 282h208l-238 -282h-116z" />
<glyph unicode="&#xea;" horiz-adv-x="1114" d="M91 503q0 240 132 393q135 156 346 156q172 0 294 -104q132 -113 161 -321q9 -64 8 -151h-768q12 -365 322 -365q151 0 222 108q27 43 48 108h165q-80 -357 -447 -357q-247 0 -375 168q-108 144 -108 365zM266 606h593q-8 105 -52 175q-82 130 -243 130q-155 0 -234 -117 q-49 -72 -64 -188zM267 1170l204 281h182l207 -281h-170l-132 188l-140 -188h-151z" />
<glyph unicode="&#xf4;" horiz-adv-x="1169" d="M91 511q0 225 113 369q136 172 390 172q221 0 357 -150q129 -142 129 -390q0 -272 -152 -420q-126 -122 -336 -122q-242 0 -375 157q-126 148 -126 384zM263 510q0 -196 96 -303q86 -96 232 -96q129 0 209 81q108 111 108 322q0 193 -94 300q-86 97 -222 97 q-142 0 -230 -95q-99 -108 -99 -306zM288 1170l204 281h182l207 -281h-170l-132 188l-140 -188h-151z" />
<glyph unicode="&#xf7;" horiz-adv-x="1167" d="M126 624v134h916v-134h-916zM468 360q0 50 38 85q33 30 79 30q49 0 84 -38q30 -33 30 -77q0 -52 -38 -86q-33 -30 -77 -30q-52 0 -86 38q-30 33 -30 78zM468 1023q0 50 38 84q33 30 79 30q49 0 83 -38q30 -33 30 -77q0 -51 -38 -85q-33 -30 -77 -30q-51 0 -85 38 q-30 33 -30 78z" />
<glyph unicode="&#x153;" horiz-adv-x="1809" d="M91 511q0 244 120 387q128 154 349 154q256 0 355 -192q112 192 355 192q170 0 285 -92q133 -106 162 -316q10 -73 10 -176h-741q0 -71 8 -111q18 -95 79 -162q78 -85 208 -85q200 0 269 214h166q-25 -120 -98 -203q-131 -151 -348 -151q-187 0 -295 105q-37 35 -68 104 q-28 -67 -82 -115q-105 -94 -272 -94q-223 0 -355 165q-107 135 -107 376zM263 509q0 -183 74 -289q38 -53 100 -83q55 -26 120 -26q97 0 166 58q62 52 92 163q23 87 23 192q0 199 -81 298q-34 43 -90 66q-54 23 -109 23q-134 0 -208 -93q-87 -109 -87 -309zM982 606h571 q-6 110 -46 174q-83 131 -240 131q-106 0 -183 -67q-89 -78 -102 -238z" />
<glyph unicode="&#x60c;" horiz-adv-x="456" d="M105 158q0 98 64.5 157t161.5 58l10 -59q-88 -5 -131 -60q-20 -25 -20 -54q0 -20 21 -20q23 2 38 3q102 0 102 -90q0 -46 -31 -70q-31 -23 -66 -23q-70 0 -109.5 44t-39.5 114z" />
<glyph unicode="&#x61b;" horiz-adv-x="456" d="M105 812q0 98 64.5 157t161.5 58l10 -59q-88 -5 -131 -60q-20 -25 -20 -54q0 -20 21 -20q23 2 38 3q102 0 102 -90q0 -46 -31 -70q-31 -23 -66 -23q-70 0 -109.5 44t-39.5 114zM112 96q0 -20 7.5 -37.5t21 -30.5t31 -20.5t37.5 -7.5q40 0 68 28t28 68q0 20 -7.5 37.5 t-20.5 31t-30.5 21t-37.5 7.5t-37.5 -7.5t-31 -21t-21 -31t-7.5 -37.5z" />
<glyph unicode="&#x61f;" horiz-adv-x="1089" d="M105 960q0 161 108 268q119 116 319 116q104 0 190 -36q62 -26 110 -68t82 -95q32 -52 50 -132.5t20 -186.5h-187q-5 78 -15.5 133.5t-29.5 87.5q-66 117 -218 117q-115 0 -178 -66q-54 -59 -54 -146q0 -108 108 -214v1l104 -104q32 -35 56 -70t36 -67v1 q7 -18 12.5 -33.5t9 -37t5.5 -52t2 -78.5h-188q0 45 -2.5 72t-6.5 45t-9.5 29.5t-12.5 24.5v-1q-8 14 -27.5 35.5t-49.5 50.5q-58 56 -96 95t-56 63v-1q-82 106 -82 249zM437 105q0 45 30 74t74 29t74 -29t30 -74q0 -44 -30 -74t-74 -30t-74 30t-30 74z" />
<glyph unicode="&#x621;" horiz-adv-x="1147" d="M105 0v189h218q-36 64 -56 138t-20 150q0 81 23 157t73 135.5t130 96.5t194 39h202v-189h-197q-59 -4 -103.5 -26t-73.5 -55t-43.5 -74t-14.5 -84q0 -53 12.5 -104.5t34 -92t50.5 -66t63 -25.5h445v-189h-937z" />
<glyph unicode="&#x622;" horiz-adv-x="399" d="M11 1507q26 42 54 60.5t58 18.5q16 0 35 -6t50 -21q19 -9 34 -13t29 -1.5t28.5 13.5t32.5 33l50 -69q-21 -23 -37 -38t-29 -23.5t-25.5 -12t-25.5 -3.5q-28 0 -83 26q-20 10 -33.5 16t-24 5.5t-21 -8t-24.5 -25.5l-18 -21zM105 0h189v1345h-189v-1345z" />
<glyph unicode="&#x623;" horiz-adv-x="398" d="M50 1445v94h49q-16 40 -16 80q0 30 8.5 58t27 50t48.5 35.5t73 14.5h81v-95h-80h1q-34 -1 -49.5 -20.5t-15.5 -42.5q0 -15 3 -29t8 -25.5t12.5 -18.5t15.5 -7h142v-94h-308zM104 0v1345h189v-1345h-189z" />
<glyph unicode="&#x624;" horiz-adv-x="1087" d="M105 307v214q0 93 34.5 174.5t93.5 142t139 96t170 35.5q61 0 117 -16.5t104.5 -46t89 -70.5t69 -90t44 -105t15.5 -115v-465q0 -90 -34.5 -170t-93.5 -139t-139 -93.5t-170 -34.5h-298v189h298q43 0 82.5 14t71 39t54 59t32.5 75h-371q-63 0 -119 24t-98 65.5 t-66.5 97.5t-24.5 120zM295 307q0 -24 9.5 -45.5t25.5 -37.5t37.5 -25.5t45.5 -9.5h378v337q0 51 -19.5 97t-53.5 80.5t-79.5 55t-96.5 20.5t-96 -20t-78.5 -55t-53 -82t-19.5 -101v-214zM355 1118v94h49q-16 40 -16 80q0 30 8.5 58t27 50t48.5 35.5t73 14.5h81v-95h-80h1 q-34 -1 -49.5 -20.5t-15.5 -42.5q0 -15 3 -29t8 -25.5t12.5 -18.5t15.5 -7h142v-94h-308z" />
<glyph unicode="&#x625;" horiz-adv-x="398" d="M50 -338h49q-16 40 -16 80q0 30 8.5 58t27 50t48.5 35.5t73 14.5h81v-95h-80h1q-34 -1 -49.5 -20.5t-15.5 -42.5q0 -15 3 -29t8 -25.5t12.5 -18.5t15.5 -7h142v-94h-308v94zM105 0v1345h189v-1345h-189z" />
<glyph unicode="&#x626;" horiz-adv-x="1267" d="M105 892v94h49q-16 40 -16 80q0 30 8.5 58t27 50t48.5 35.5t73 14.5h81v-95h-80h1q-34 -1 -49.5 -20.5t-15.5 -42.5q0 -15 3 -29t8 -25.5t12.5 -18.5t15.5 -7h142v-94h-308zM168 69v723h189v-723q0 -64 26.5 -112t69.5 -80t98 -48t113 -16t113.5 16.5t99 49t70 80.5 t26.5 112q0 66 -29.5 108t-88.5 42h-308v435q0 65 24.5 122t67 99.5t99 67t121.5 24.5h246v-190h-246q-25 0 -47.5 -9.5t-39 -26t-26 -39t-9.5 -48.5v-246h118q76 0 133.5 -24.5t96 -69t58 -107t19.5 -138.5q0 -111 -43 -195t-113 -140t-159.5 -84t-182.5 -28t-182 28 t-159 83.5t-112.5 139t-42.5 194.5z" />
<glyph unicode="&#x627;" horiz-adv-x="399" d="M105 0v1345h189v-1345h-189z" />
<glyph unicode="&#x628;" horiz-adv-x="1423" d="M105 439v353h190v-353q0 -52 19.5 -97.5t53.5 -79.5t79.5 -53.5t98.5 -19.5h463q25 0 47 9.5t38 26t25.5 38.5t9.5 48v658h189v-658q0 -65 -24 -121.5t-66 -98.5t-98.5 -66.5t-120.5 -24.5h-463q-92 0 -172 34.5t-140 94t-94.5 139.5t-34.5 171zM616 -278q0 40 28 68 t68 28q20 0 37.5 -7.5t31 -20.5t21 -30.5t7.5 -37.5t-7.5 -37.5t-21 -31t-31 -21t-37.5 -7.5t-37.5 7.5t-30.5 21t-20.5 31t-7.5 37.5z" />
<glyph unicode="&#x629;" horiz-adv-x="1078" d="M105 309v217q0 91 34 172t93 141t138 95t168 35q90 0 169 -35.5t138 -95.5t93 -139.5t34 -168.5v-217q0 -71 -24.5 -128.5t-66.5 -98.5t-99 -63.5t-122 -22.5h-244q-66 0 -123 22t-98.5 62.5t-65.5 97.5t-24 127zM295 309q0 -54 35 -87t86 -33h244q52 0 87.5 34t35.5 90 v217q0 51 -19 96t-52.5 79t-78 54t-95.5 20q-50 0 -94.5 -20t-77.5 -54t-52 -80.5t-19 -98.5v-217zM300 1248q0 20 7.5 37.5t21 31t31 21t37.5 7.5t37.5 -7.5t31 -21t21 -31t7.5 -37.5t-7.5 -37.5t-21 -30.5t-31 -20.5t-37.5 -7.5t-37.5 7.5t-31 20.5t-21 30.5t-7.5 37.5z M583 1248q0 20 7.5 37.5t21 31t31 21t37.5 7.5t37.5 -7.5t30.5 -21t20.5 -31t7.5 -37.5q0 -40 -28 -68t-68 -28q-20 0 -37.5 7.5t-31 20.5t-21 30.5t-7.5 37.5z" />
<glyph unicode="&#x62a;" horiz-adv-x="1423" d="M105 439v353h190v-353q0 -52 19.5 -97.5t53.5 -79.5t79.5 -53.5t98.5 -19.5h463q25 0 47 9.5t38 26t25.5 38.5t9.5 48v658h189v-658q0 -65 -24 -121.5t-66 -98.5t-98.5 -66.5t-120.5 -24.5h-463q-92 0 -172 34.5t-140 94t-94.5 139.5t-34.5 171zM474 1248q0 20 7.5 37.5 t21 31t31 21t37.5 7.5t37.5 -7.5t31 -21t21 -31t7.5 -37.5t-7.5 -37.5t-21 -30.5t-31 -20.5t-37.5 -7.5t-37.5 7.5t-31 20.5t-21 30.5t-7.5 37.5zM757 1248q0 20 7.5 37.5t21 31t31 21t37.5 7.5t37.5 -7.5t30.5 -21t20.5 -31t7.5 -37.5q0 -40 -28 -68t-68 -28 q-20 0 -37.5 7.5t-31 20.5t-21 30.5t-7.5 37.5z" />
<glyph unicode="&#x62b;" horiz-adv-x="1423" d="M105 439v353h190v-353q0 -52 19.5 -97.5t53.5 -79.5t79.5 -53.5t98.5 -19.5h463q25 0 47 9.5t38 26t25.5 38.5t9.5 48v658h189v-658q0 -65 -24 -121.5t-66 -98.5t-98.5 -66.5t-120.5 -24.5h-463q-92 0 -172 34.5t-140 94t-94.5 139.5t-34.5 171zM474 1248q0 20 7.5 37.5 t21 31t31 21t37.5 7.5t37.5 -7.5t31 -21t21 -31t7.5 -37.5t-7.5 -37.5t-21 -30.5t-31 -20.5t-37.5 -7.5t-37.5 7.5t-31 20.5t-21 30.5t-7.5 37.5zM616 1453q0 20 7.5 37.5t20.5 31t30.5 21t37.5 7.5t37.5 -7.5t31 -21t21 -31t7.5 -37.5t-7.5 -37.5t-21 -31t-31 -21 t-37.5 -7.5t-37.5 7.5t-30.5 21t-20.5 31t-7.5 37.5zM757 1248q0 20 7.5 37.5t21 31t31 21t37.5 7.5t37.5 -7.5t30.5 -21t20.5 -31t7.5 -37.5q0 -40 -28 -68t-68 -28q-20 0 -37.5 7.5t-31 20.5t-21 30.5t-7.5 37.5z" />
<glyph unicode="&#x62c;" horiz-adv-x="1065" d="M105 -92q0 53 17 103.5t50.5 90t84 63.5t118.5 24h274q25 0 47.5 9.5t39 25.5t26 37.5t9.5 45.5v212q0 78 -21.5 128.5t-56 80t-79.5 41.5t-91 12q-44 0 -90.5 -8t-88.5 -19.5t-77 -25t-57 -23.5l-81 170q27 13 71 29.5t97 31.5t111.5 25t114.5 10q82 0 160.5 -20 t140 -71t99 -138.5t37.5 -222.5v-212q0 -63 -24.5 -119t-66.5 -98t-99 -66t-121 -24h-274q-20 0 -35 -8t-25 -20.5t-15 -29t-5 -34.5q0 -17 5 -34t15 -30.5t25 -21.5t35 -8h265v-189h-265q-68 0 -118.5 24.5t-84 64t-50.5 90.5t-17 104zM767 -278q0 20 7.5 37.5t21 30.5 t31 20.5t37.5 7.5q40 0 68 -28t28 -68q0 -20 -7.5 -37.5t-20.5 -31t-30.5 -21t-37.5 -7.5t-37.5 7.5t-31 21t-21 31t-7.5 37.5z" />
<glyph unicode="&#x62d;" horiz-adv-x="1065" d="M105 -92q0 53 17 103.5t50.5 90t84 63.5t118.5 24h274q25 0 47.5 9.5t39 25.5t26 37.5t9.5 45.5v212q0 78 -21.5 128.5t-56 80t-79.5 41.5t-91 12q-44 0 -90.5 -8t-88.5 -19.5t-77 -25t-57 -23.5l-81 170q27 13 71 29.5t97 31.5t111.5 25t114.5 10q82 0 160.5 -20 t140 -71t99 -138.5t37.5 -222.5v-212q0 -63 -24.5 -119t-66.5 -98t-99 -66t-121 -24h-274q-20 0 -35 -8t-25 -20.5t-15 -29t-5 -34.5q0 -17 5 -34t15 -30.5t25 -21.5t35 -8h396v-189h-396q-68 0 -118.5 24.5t-84 64t-50.5 90.5t-17 104z" />
<glyph unicode="&#x62e;" horiz-adv-x="1065" d="M105 -92q0 53 17 103.5t50.5 90t84 63.5t118.5 24h274q25 0 47.5 9.5t39 25.5t26 37.5t9.5 45.5v212q0 78 -21.5 128.5t-56 80t-79.5 41.5t-91 12q-44 0 -90.5 -8t-88.5 -19.5t-77 -25t-57 -23.5l-81 170q27 13 71 29.5t97 31.5t111.5 25t114.5 10q82 0 160.5 -20 t140 -71t99 -138.5t37.5 -222.5v-212q0 -63 -24.5 -119t-66.5 -98t-99 -66t-121 -24h-274q-20 0 -35 -8t-25 -20.5t-15 -29t-5 -34.5q0 -17 5 -34t15 -30.5t25 -21.5t35 -8h397v-189h-397q-68 0 -118.5 24.5t-84 64t-50.5 90.5t-17 104zM427 1248q0 20 7.5 37.5t21 31t31 21 t37.5 7.5t37.5 -7.5t30.5 -21t20.5 -31t7.5 -37.5q0 -40 -28 -68t-68 -28q-20 0 -37.5 7.5t-31 20.5t-21 30.5t-7.5 37.5z" />
<glyph unicode="&#x62f;" horiz-adv-x="913" d="M105 0v189h390q25 0 47.5 9.5t39.5 25.5t26.5 37.5t9.5 45.5v212q0 63 -25.5 111.5t-81 82t-142.5 50.5t-210 17v190q173 0 296 -29.5t201.5 -87t115 -141.5t36.5 -193v-212q0 -64 -24.5 -120t-67 -97.5t-99.5 -65.5t-122 -24h-390z" />
<glyph unicode="&#x630;" horiz-adv-x="913" d="M105 0v189h390q25 0 47.5 9.5t39.5 25.5t26.5 37.5t9.5 45.5v212q0 63 -25.5 111.5t-81 82t-142.5 50.5t-210 17v190q173 0 296 -29.5t201.5 -87t115 -141.5t36.5 -193v-212q0 -64 -24.5 -120t-67 -97.5t-99.5 -65.5t-122 -24h-390zM392 1248q0 20 7.5 37.5t21 31t31 21 t37.5 7.5t37.5 -7.5t30.5 -21t20.5 -31t7.5 -37.5q0 -40 -28 -68t-68 -28q-20 0 -37.5 7.5t-31 20.5t-21 30.5t-7.5 37.5z" />
<glyph unicode="&#x631;" horiz-adv-x="568" d="M14 -212q51 21 88.5 45.5t65.5 50.5t46 51.5t30 49.5q27 55 28 112v872h190v-864q-1 -93 -40 -183q-17 -38 -43.5 -79.5t-67 -82t-95.5 -78.5t-129 -69z" />
<glyph unicode="&#x632;" horiz-adv-x="568" d="M14 -212q51 21 88.5 45.5t65.5 50.5t46 51.5t30 49.5q27 55 28 112v872h190v-864q-1 -93 -40 -183q-17 -38 -43.5 -79.5t-67 -82t-95.5 -78.5t-129 -69zM268 1248q0 20 7.5 37.5t21 31t31 21t37.5 7.5t37.5 -7.5t31 -21t21 -31t7.5 -37.5t-7.5 -37.5t-21 -30.5t-31 -20.5 t-37.5 -7.5t-37.5 7.5t-31 20.5t-21 30.5t-7.5 37.5z" />
<glyph unicode="&#x633;" horiz-adv-x="2068" d="M105 62v730h190v-730q0 -62 26.5 -108.5t69.5 -77.5t98.5 -46.5t112.5 -15.5q58 0 113 15.5t98 46.5t69.5 77.5t26.5 108.5v907h191v-780h242v780h190v-780h119q25 0 47.5 9.5t39.5 25t26.5 37t9.5 45.5v663h189v-663q0 -63 -24.5 -119t-67 -97.5t-99.5 -65.5t-121 -24 h-557q-12 -93 -58.5 -163.5t-114 -117.5t-150.5 -70.5t-169 -23.5q-93 0 -182.5 27t-159 82t-112.5 136.5t-43 191.5z" />
<glyph unicode="&#x634;" horiz-adv-x="2068" d="M105 62v730h190v-730q0 -62 26.5 -108.5t69.5 -77.5t98.5 -46.5t112.5 -15.5q58 0 113 15.5t98 46.5t69.5 77.5t26.5 108.5v907h191v-780h242v780h190v-780h119q25 0 47.5 9.5t39.5 25t26.5 37t9.5 45.5v663h189v-663q0 -63 -24.5 -119t-67 -97.5t-99.5 -65.5t-121 -24 h-557q-12 -93 -58.5 -163.5t-114 -117.5t-150.5 -70.5t-169 -23.5q-93 0 -182.5 27t-159 82t-112.5 136.5t-43 191.5zM1202 1248q0 20 7.5 37.5t21 31t31 21t37.5 7.5t37.5 -7.5t31 -21t21 -31t7.5 -37.5t-7.5 -37.5t-21 -30.5t-31 -20.5t-37.5 -7.5t-37.5 7.5t-31 20.5 t-21 30.5t-7.5 37.5zM1344 1453q0 20 7.5 37.5t20.5 31t30.5 21t37.5 7.5t37.5 -7.5t31 -21t21 -31t7.5 -37.5t-7.5 -37.5t-21 -31t-31 -21t-37.5 -7.5t-37.5 7.5t-30.5 21t-20.5 31t-7.5 37.5zM1485 1248q0 20 7.5 37.5t21 31t31 21t37.5 7.5t37.5 -7.5t30.5 -21t20.5 -31 t7.5 -37.5q0 -40 -28 -68t-68 -28q-20 0 -37.5 7.5t-31 20.5t-21 30.5t-7.5 37.5z" />
<glyph unicode="&#x635;" horiz-adv-x="2068" d="M105 62v730h190v-730q0 -62 26.5 -108.5t69.5 -77.5t98 -46.5t113 -15.5t113 15.5t98.5 46.5t70 77.5t26.5 108.5v907h190v-170q48 37 103 68.5t113.5 54t119 35t117.5 12.5q84 0 158.5 -24t130.5 -77.5t88.5 -139.5t32.5 -210v-212q0 -63 -24.5 -119t-67.5 -97.5 t-100 -65.5t-121 -24h-555q-12 -93 -58.5 -163.5t-114 -117.5t-151 -70.5t-169.5 -23.5q-93 0 -182.5 27t-159.5 82t-112.5 136.5t-42.5 191.5zM1100 189h550q25 0 47.5 9.5t39.5 25t26.5 37t9.5 45.5v212q0 72 -17.5 121.5t-47.5 80.5t-70 45t-85 14q-51 0 -104 -12 t-103.5 -32.5t-95 -49t-78 -61.5t-53 -69t-19.5 -72v-294z" />
<glyph unicode="&#x636;" horiz-adv-x="2068" d="M105 62v730h190v-730q0 -62 26.5 -108.5t69.5 -77.5t98 -46.5t113 -15.5t113 15.5t98.5 46.5t70 77.5t26.5 108.5v907h190v-170q48 37 103 68.5t113.5 54t119 35t117.5 12.5q84 0 158.5 -24t130.5 -77.5t88.5 -139.5t32.5 -210v-212q0 -63 -24.5 -119t-67.5 -97.5 t-100 -65.5t-121 -24h-555q-12 -93 -58.5 -163.5t-114 -117.5t-151 -70.5t-169.5 -23.5q-93 0 -182.5 27t-159.5 82t-112.5 136.5t-42.5 191.5zM1100 189h550q25 0 47.5 9.5t39.5 25t26.5 37t9.5 45.5v212q0 72 -17.5 121.5t-47.5 80.5t-70 45t-85 14q-51 0 -104 -12 t-103.5 -32.5t-95 -49t-78 -61.5t-53 -69t-19.5 -72v-294zM1339 1248q0 20 7.5 37.5t21 31t31 21t37.5 7.5t37.5 -7.5t31 -21t21 -31t7.5 -37.5t-7.5 -37.5t-21 -30.5t-31 -20.5t-37.5 -7.5t-37.5 7.5t-31 20.5t-21 30.5t-7.5 37.5z" />
<glyph unicode="&#x637;" horiz-adv-x="1415" d="M105 0v189h152v1156h189v-545q48 38 103 69t113.5 53.5t119 35t118.5 12.5q83 0 157.5 -24t130.5 -78t89 -140t33 -210v-211q0 -64 -24.5 -120t-67.5 -97.5t-100 -65.5t-121 -24h-892zM446 189h551q25 0 47.5 9.5t39.5 25.5t26.5 37.5t9.5 45.5v211q0 72 -17.5 121.5 t-47.5 81t-70 45.5t-85 14q-51 0 -104.5 -12t-104 -32.5t-95 -49t-78 -61.5t-53 -69t-19.5 -72v-295z" />
<glyph unicode="&#x638;" horiz-adv-x="1415" d="M105 0v189h152v1156h189v-545q48 38 103 69t113.5 53.5t119 35t118.5 12.5q83 0 157.5 -24t130.5 -78t89 -140t33 -210v-211q0 -64 -24.5 -120t-67.5 -97.5t-100 -65.5t-121 -24h-892zM446 189h551q25 0 47.5 9.5t39.5 25.5t26.5 37.5t9.5 45.5v211q0 72 -17.5 121.5 t-47.5 81t-70 45.5t-85 14q-51 0 -104.5 -12t-104 -32.5t-95 -49t-78 -61.5t-53 -69t-19.5 -72v-295zM687 1248q0 20 7.5 37.5t20.5 31t30.5 21t37.5 7.5t37.5 -7.5t31 -21t21 -31t7.5 -37.5t-7.5 -37.5t-21 -30.5t-31 -20.5t-37.5 -7.5q-40 0 -68 28t-28 68z" />
<glyph unicode="&#x639;" horiz-adv-x="1207" d="M105 -92q0 49 14.5 96.5t44.5 86t76 64.5t109 33v345q0 92 34 171.5t92.5 138t137.5 91.5t168 33q98 2 217 -54l-78 -172q-41 18 -75.5 28t-63.5 9q-50 0 -94.5 -18.5t-77.5 -51.5t-52 -78t-19 -97v-344h564v-189h-727q-20 0 -35 -8t-25 -20.5t-15 -29t-5 -34.5 q0 -17 5 -34t15 -30.5t25 -21.5t35 -8h545v-189h-545q-68 0 -118.5 24.5t-84 64t-50.5 90.5t-17 104z" />
<glyph unicode="&#x63a;" horiz-adv-x="1207" d="M105 -92q0 49 14.5 96.5t44.5 86t76 64.5t109 33v345q0 92 34 171.5t92.5 138t137.5 91.5t168 33q98 2 217 -54l-78 -172q-41 18 -75.5 28t-63.5 9q-50 0 -94.5 -18.5t-77.5 -51.5t-52 -78t-19 -97v-344h564v-189h-727q-20 0 -35 -8t-25 -20.5t-15 -29t-5 -34.5 q0 -17 5 -34t15 -30.5t25 -21.5t35 -8h545v-189h-545q-68 0 -118.5 24.5t-84 64t-50.5 90.5t-17 104zM685 1248q0 20 7.5 37.5t20.5 31t30.5 21t37.5 7.5t37.5 -7.5t31 -21t21 -31t7.5 -37.5t-7.5 -37.5t-21 -30.5t-31 -20.5t-37.5 -7.5q-40 0 -68 28t-28 68z" />
<glyph unicode="&#x640;" horiz-adv-x="345" d="M-42 0v189h429v-189h-429z" />
<glyph unicode="&#x641;" horiz-adv-x="1874" d="M105 443v349h190v-349q0 -53 20 -99t54.5 -80.5t80.5 -54.5t99 -20h352v347q0 93 34 172t93 137.5t137.5 91.5t168.5 33t169 -33.5t138 -91.5t93 -136t34 -167v-229q0 -71 -24.5 -128.5t-67 -98.5t-99.5 -63.5t-122 -22.5h-906q-92 0 -173 35t-141 95t-95 140.5 t-35 172.5zM1091 189h364q52 0 87.5 33.5t35.5 90.5v229q0 50 -19 93.5t-52.5 75.5t-78 50.5t-94.5 18.5q-51 0 -95 -18.5t-77 -51.5t-52 -77.5t-19 -96.5v-347zM1237 1248q0 20 7.5 37.5t21 31t31 21t37.5 7.5t37.5 -7.5t31 -21t21 -31t7.5 -37.5t-7.5 -37.5t-21 -30.5 t-31 -20.5t-37.5 -7.5t-37.5 7.5t-31 20.5t-21 30.5t-7.5 37.5z" />
<glyph unicode="&#x642;" horiz-adv-x="1428" d="M105 73v718h190v-718q0 -54 20 -101t55.5 -82t82.5 -55.5t101 -20.5h332q43 0 82 14t70.5 39t54 59t32.5 74h-370q-64 0 -120 24t-98 66t-66 98t-24 120v213q0 93 34 174.5t93.5 142t139 96t170.5 35.5q90 0 170 -35.5t139.5 -96.5t94 -141t34.5 -170v-464 q0 -90 -34.5 -170t-93.5 -139t-138.5 -93.5t-169.5 -34.5h-332q-93 0 -175 35.5t-142.5 96t-96 142t-35.5 174.5zM637 308q0 -25 9.5 -46.5t25.5 -37.5t37.5 -25.5t45.5 -9.5h378v337q0 51 -19.5 97t-53.5 80.5t-79.5 55t-96.5 20.5q-52 0 -97 -20t-78.5 -55t-52.5 -82 t-19 -101v-213zM644 1248q0 20 7.5 37.5t21 31t31 21t37.5 7.5t37.5 -7.5t31 -21t21 -31t7.5 -37.5t-7.5 -37.5t-21 -30.5t-31 -20.5t-37.5 -7.5t-37.5 7.5t-31 20.5t-21 30.5t-7.5 37.5zM927 1248q0 20 7.5 37.5t21 31t31 21t37.5 7.5t37.5 -7.5t30.5 -21t20.5 -31 t7.5 -37.5q0 -40 -28 -68t-68 -28q-20 0 -37.5 7.5t-31 20.5t-21 30.5t-7.5 37.5z" />
<glyph unicode="&#x643;" horiz-adv-x="1424" d="M105 439v353h190v-353q0 -52 19.5 -97.5t53.5 -79.5t79.5 -53.5t97.5 -19.5h464q25 0 47 9.5t38.5 26t26 38.5t9.5 48v1034h189v-1034q0 -65 -24.5 -121.5t-66.5 -98.5t-98.5 -66.5t-120.5 -24.5h-464q-91 0 -171 34.5t-140 94t-94.5 139.5t-34.5 171zM550 943v94h49 q-16 40 -16 80q0 30 8.5 58t27 50t48.5 35.5t73 14.5h81v-95h-80h1q-34 -1 -49.5 -20.5t-15.5 -42.5q0 -15 3 -29t8 -25.5t12.5 -18.5t15.5 -7h142v-94h-308z" />
<glyph unicode="&#x644;" horiz-adv-x="1205" d="M105 65v727h190v-727q0 -63 26.5 -110.5t69.5 -79t98 -47.5t113 -16t113 16t98.5 47.5t70 79t26.5 110.5v1280h190v-1280q0 -111 -43 -193.5t-113 -138t-159.5 -83t-182.5 -27.5t-182.5 27.5t-159.5 83t-112.5 138t-42.5 193.5z" />
<glyph unicode="&#x645;" horiz-adv-x="1430" d="M105 153q0 72 19.5 136.5t62 113.5t109.5 79.5t163 35.5v9q0 88 34 168t93 141t138 97t168 36q90 0 168.5 -35t137.5 -95t93 -140.5t34 -171.5v-216q0 -92 -34 -173t-93 -141t-137.5 -95t-168.5 -35q-89 0 -168 36t-138 96.5t-93 140.5t-34 169v19q-46 -5 -77 -20.5 t-50.5 -39t-28 -53t-8.5 -62.5v-528h-190v528zM648 309q0 -51 19 -97t52.5 -80.5t78 -54.5t94.5 -20q51 0 95.5 20t77.5 54.5t52 80.5t19 99v216q0 52 -19 98t-52 80t-77.5 54t-95.5 20q-50 0 -94.5 -20.5t-78 -55t-52.5 -80t-19 -96.5v-218z" />
<glyph unicode="&#x646;" horiz-adv-x="1205" d="M105 67v725h190v-725q0 -63 26.5 -110.5t69.5 -79.5t98 -48t113 -16t113 16t98.5 48t70 79.5t26.5 110.5v902h190v-902q0 -111 -43 -194t-113 -138.5t-159.5 -83t-182.5 -27.5t-182.5 27.5t-159.5 83t-112.5 138.5t-42.5 194zM506 1248q0 20 7.5 37.5t20.5 31t30.5 21 t37.5 7.5t37.5 -7.5t31 -21t21 -31t7.5 -37.5t-7.5 -37.5t-21 -30.5t-31 -20.5t-37.5 -7.5q-40 0 -68 28t-28 68z" />
<glyph unicode="&#x647;" horiz-adv-x="1078" d="M105 309v217q0 91 34 172t93 141t138 95t168 35q90 0 169 -35.5t138 -95.5t93 -139.5t34 -168.5v-217q0 -71 -24.5 -128.5t-66.5 -98.5t-99 -63.5t-122 -22.5h-244q-66 0 -123 22t-98.5 62.5t-65.5 97.5t-24 127zM295 309q0 -54 35 -87t86 -33h244q52 0 87.5 34t35.5 90 v217q0 51 -19 96t-52.5 79t-78 54t-95.5 20q-50 0 -94.5 -20t-77.5 -54t-52 -80.5t-19 -98.5v-217z" />
<glyph unicode="&#x648;" horiz-adv-x="1087" d="M105 307v214q0 93 34.5 174.5t93.5 142t139 96t170 35.5q61 0 117 -16.5t104.5 -46t89 -70.5t69 -90t44 -105t15.5 -115v-465q0 -90 -34.5 -170t-93.5 -139t-139 -93.5t-170 -34.5h-298v189h298q43 0 82.5 14t71 39t54 59t32.5 75h-371q-63 0 -119 24t-98 65.5 t-66.5 97.5t-24.5 120zM295 307q0 -24 9.5 -45.5t25.5 -37.5t37.5 -25.5t45.5 -9.5h378v337q0 51 -19.5 97t-53.5 80.5t-79.5 55t-96.5 20.5t-96 -20t-78.5 -55t-53 -82t-19.5 -101v-214z" />
<glyph unicode="&#x649;" horiz-adv-x="1205" d="M105 69v723h190v-723q0 -64 26.5 -112t69.5 -80t98 -48t112 -16q58 0 113.5 16.5t99 49t70 80.5t26.5 112q0 66 -29.5 108t-87.5 42h-308v435q0 65 24.5 122t67 99.5t99 67t121.5 24.5h246v-190h-246q-26 0 -48 -9.5t-39 -26t-26.5 -39t-9.5 -48.5v-246h119 q76 0 133.5 -24.5t96 -69t58 -107t19.5 -138.5q0 -111 -43 -195t-113 -140t-159.5 -84t-183.5 -28q-93 0 -182 28t-159 83.5t-112.5 139t-42.5 194.5z" />
<glyph unicode="&#x64a;" horiz-adv-x="1205" d="M105 69v723h190v-723q0 -64 26.5 -112t69.5 -80t98 -48t112 -16q58 0 113.5 16.5t99 49t70 80.5t26.5 112q0 66 -29.5 108t-87.5 42h-308v435q0 65 24.5 122t67 99.5t99 67t121.5 24.5h246v-190h-246q-26 0 -48 -9.5t-39 -26t-26.5 -39t-9.5 -48.5v-246h119 q76 0 133.5 -24.5t96 -69t58 -107t19.5 -138.5q0 -111 -43 -195t-113 -140t-159.5 -84t-183.5 -28q-93 0 -182 28t-159 83.5t-112.5 139t-42.5 194.5zM360 -657q0 20 7.5 37.5t21 31t31 21t37.5 7.5t37.5 -7.5t31 -21t21 -31t7.5 -37.5t-7.5 -37.5t-21 -30.5t-31 -20.5 t-37.5 -7.5t-37.5 7.5t-31 20.5t-21 30.5t-7.5 37.5zM643 -657q0 20 7.5 37.5t21 31t31 21t37.5 7.5t37.5 -7.5t30.5 -21t20.5 -31t7.5 -37.5q0 -40 -28 -68t-68 -28q-20 0 -37.5 7.5t-31 20.5t-21 30.5t-7.5 37.5z" />
<glyph unicode="&#x64b;" d="M-231 0v72h462v-72h-462zM-231 144v72h462v-72h-462z" />
<glyph unicode="&#x64c;" d="M-234 87l68 94q4 6 16.5 18t33.5 9q27 -3 43 -37v-1l36 -92q54 19 97 59q-46 11 -73 47q-17 21 -24 47.5t-4 52.5q5 26 20 47.5t40 34.5q26 13 54 13.5t51 -11.5q53 -28 62 -85q6 -33 -4 -70l18 4t17 4l18 -70q-21 -5 -42 -9.5t-44 -6.5q-7 -11 -14.5 -20.5t-13.5 -16.5 q-61 -65 -150 -93q-5 -2 -11.5 -3.5t-13.5 -1.5q-9 0 -17 4q-12 5 -17.5 14.5t-11.5 21.5l-27 73l-49 -69zM30.5 254q1.5 -14 12.5 -26q11 -15 27.5 -19t33.5 -4q8 17 11 34t1 33q-3 14 -13.5 25t-27.5 11q-15 0 -26 -8t-15.5 -20t-3 -26z" />
<glyph unicode="&#x64d;" d="M-231 0h462v-72h-462v72zM-231 -144h462v-72h-462v72z" />
<glyph unicode="&#x64e;" d="M-231 0v72h462v-72h-462z" />
<glyph unicode="&#x64f;" d="M-159 71q38 10 75.5 25t68.5 44q-45 11 -73 47q-17 21 -24 47.5t-3 52.5q5 26 20 47.5t39 34.5q26 13 54 13.5t52 -11.5q53 -28 62 -85q6 -33 -4 -70q9 2 17.5 4t17.5 4l17 -70q-20 -5 -41.5 -9.5t-44.5 -6.5q-7 -11 -14 -20.5t-13 -16.5q-43 -46 -92.5 -67t-96.5 -32z M-43.5 257q1.5 -14 11.5 -26q5 -7 15 -13.5t27 -8.5q5 -1 10 -1h10q7 17 10.5 34t0.5 33q-2 14 -13 25t-27 11q-15 0 -26 -8t-15.5 -20t-3 -26z" />
<glyph unicode="&#x650;" d="M-231 0h462v-72h-462v72z" />
<glyph unicode="&#x651;" d="M-230 103v126h72v-116q0 -17 12 -29t29 -12h84v157h72v-157h80q17 0 29 12t12 29v116h71v-126q0 -21 -8 -40t-21.5 -33t-32.5 -22t-40 -8h-257q-21 0 -39.5 8t-32.5 22t-22 33t-8 40z" />
<glyph unicode="&#x652;" d="M-158 159q0 33 12.5 62t34 50.5t50.5 34t62 12.5t61.5 -12.5t50 -34t34 -50.5t12.5 -62t-12.5 -61.5t-34 -50.5t-50 -34.5t-61.5 -12.5t-62 12.5t-50.5 34.5t-34 50.5t-12.5 61.5zM-87 159q0 -36 25.5 -61.5t62.5 -25.5q18 0 33.5 7t27 18.5t18.5 27.5t7 34t-7 34 t-18.5 27.5t-27 18.5t-33.5 7q-37 0 -62.5 -25.5t-25.5 -61.5z" />
<glyph unicode="&#x660;" horiz-adv-x="1079" d="M105 434v472q0 88 32.5 167.5t92.5 140.5q63 62 142 94.5t167 32.5q87 0 166 -33t140 -95q63 -63 96 -141t33 -166v-472q0 -87 -33 -165.5t-96 -140.5q-62 -63 -140.5 -95.5t-165.5 -32.5q-88 0 -167 32.5t-142 94.5q-60 62 -92.5 140.5t-32.5 166.5zM289 434 q0 -52 19.5 -97.5t53.5 -79.5t79.5 -53.5t97.5 -19.5q51 0 96.5 19.5t79.5 53.5t53.5 79.5t19.5 97.5v472q0 51 -18.5 96t-53.5 80t-80.5 54t-96.5 19t-96.5 -19t-80.5 -54t-54 -80t-19 -96v-472z" />
<glyph unicode="&#x661;" horiz-adv-x="705" d="M105 1131l82 212h255q79 0 120 -60q18 -26 28 -63t10 -79v-1140h-200v1130h-295z" />
<glyph unicode="&#x662;" horiz-adv-x="1123" d="M105 146q0 27 7.5 47t21 36.5t32 31.5t39.5 31q9 9 20 17l462 360q29 25 54 53t43 57q42 72 42 143q0 52 -18.5 97t-55.5 79q-35 33 -80.5 51t-96.5 18q-59 0 -107 -19t-82 -54.5t-52 -85.5t-18 -111q0 -77 49 -139q17 -20 38 -37.5t46 -30.5l-158 -113 q-84 58 -126.5 144.5t-42.5 198.5q0 48 9.5 91t29.5 84q36 76 102 133q66 56 150.5 85.5t178.5 29.5q86 0 164 -31t138 -89q60 -60 92 -136.5t32 -162.5q0 -78 -20.5 -143t-65.5 -124q-41 -54 -95 -101.5t-121 -100.5l-352 -277h648v-178h-725q-80 0 -129 35q-53 38 -53 111 z" />
<glyph unicode="&#x663;" horiz-adv-x="1082" d="M105 372h187q12 -41 36 -75.5t56 -59.5t71.5 -39t82.5 -14q53 0 99.5 20t81 54.5t54.5 81.5t20 100q0 67 -20.5 109t-52.5 68.5t-71 41t-75 25.5q-32 10 -56 18.5t-41 20t-25.5 27.5t-8.5 40q0 12 11.5 38t47.5 77q26 38 57 75.5t59 69.5q18 21 33.5 39t25.5 32l25 35 h-465l-45 186h597q38 0 70.5 -9t55.5 -25q54 -36 54 -107q0 -28 -18 -63.5t-44.5 -73t-57.5 -74t-58 -67.5q-16 -18 -29.5 -33.5t-24.5 -29.5l-17 -19l24 -13q53 -29 96 -69.5t74 -92.5q31 -51 47 -108.5t16 -117.5q0 -88 -33.5 -168t-96.5 -143t-142 -96t-167 -33 q-82 0 -157 29t-136 84q-57 51 -92.5 117.5t-47.5 141.5z" />
<glyph unicode="&#x664;" horiz-adv-x="1245" d="M105 360q0 16 5 34.5t13 32.5l564 915h257l-576 -931h363v153h217v-153h192v-190h-192v-221h-217v221h-477q-27 0 -54 10t-48 28t-34 43.5t-13 57.5z" />
<glyph unicode="&#x665;" horiz-adv-x="1032" d="M105 864v321q0 77 54 117q49 37 134 37h570l-52 -185h-510v-307h212q83 0 158.5 -32.5t134.5 -92.5t90 -136.5t31 -161.5t-31 -161.5t-89 -136.5q-60 -61 -135 -93t-159 -32q-75 0 -144 25.5t-126 75.5q-51 45 -86 103t-50 125h179q13 -35 36 -63t53 -48.5t65 -31.5 t73 -11q51 0 95.5 19.5t77.5 53t52 79t19 96.5q0 50 -18.5 95t-52.5 80q-35 35 -80 54t-93 19q-23 0 -46.5 -1t-46.5 -2q-22 -1 -44.5 -2t-44.5 -1q-74 0 -109.5 11.5t-51.5 22.5q-65 44 -65 164z" />
<glyph unicode="&#x666;" horiz-adv-x="1200" d="M105 457q0 56 14.5 109.5t42.5 103.5l395 674h250l-256 -428h37q99 0 190.5 -33t162.5 -93q74 -65 112 -145q42 -87 42 -188q0 -94 -38.5 -178.5t-111.5 -149.5q-70 -62 -159.5 -95.5t-183.5 -33.5q-96 0 -186 33.5t-160 95.5q-74 65 -112.5 149t-38.5 179zM318 457 q0 -56 22.5 -106t65.5 -89q40 -37 92.5 -57t107.5 -20q56 0 107.5 20t92.5 57q42 39 65 89t23 106q0 57 -23 107t-65 89q-41 38 -92.5 58t-107.5 20q-55 0 -107.5 -20t-92.5 -58q-43 -39 -65.5 -89t-22.5 -107z" />
<glyph unicode="&#x667;" horiz-adv-x="1038" d="M105 1340h660q35 0 65.5 -13t53.5 -35.5t36 -52.5t13 -64q0 -21 -26.5 -113.5t-76.5 -245t-121.5 -359.5t-160.5 -457h-241l406 1129h-559z" />
<glyph unicode="&#x668;" horiz-adv-x="1068" d="M105 400q0 94 43.5 176.5t121.5 139.5l20 15l-18 17q-52 51 -79 114t-27 132q0 72 28.5 135t82.5 112q52 47 118.5 72t138.5 25q71 0 138 -25t119 -72q54 -49 82.5 -112t28.5 -135q0 -69 -27 -132t-79 -114l-18 -17l21 -15q78 -57 121 -139.5t43 -176.5 q0 -83 -33.5 -156.5t-97.5 -130.5q-60 -54 -137.5 -83.5t-160.5 -29.5q-84 0 -162 29.5t-138 83.5q-63 57 -96 130.5t-33 156.5zM298 406q0 -47 18 -88.5t53 -74.5q33 -32 76 -49t89 -17q48 0 91 18t75.5 49t51 73t18.5 89q0 97 -71 165q-34 32 -76 49.5t-89 17.5 q-49 0 -92 -18.5t-75 -50t-50.5 -73.5t-18.5 -90zM353 983q0 -38 14.5 -70.5t39 -57.5t57.5 -39t70 -14t70 14t57.5 39t39 57.5t14.5 70.5q0 37 -14.5 70t-39 57.5t-57.5 38.5t-70 14t-69.5 -13.5t-57.5 -38.5q-54 -54 -54 -128z" />
<glyph unicode="&#x669;" horiz-adv-x="1124" d="M105 887q0 94 36 177t98 145.5t145.5 98.5t178.5 36q92 0 174.5 -35t147.5 -99q66 -66 100 -149t34 -174q0 -60 -13 -113.5t-37 -99.5l-368 -674h-228l238 430h-35q-97 0 -182.5 33t-151.5 96q-66 64 -101.5 148t-35.5 180zM289 887q0 -56 20 -106t58 -88 q38 -40 86.5 -60.5t104.5 -20.5q54 0 103 21t88 62q37 38 57 88t20 104t-19.5 103t-57.5 87q-39 40 -88 61t-103 21q-56 0 -104.5 -21.5t-85.5 -58.5t-58 -86.5t-21 -105.5z" />
<glyph unicode="&#x66a;" horiz-adv-x="1797" d="M105 1013q0 197 93 299q84 94 236 94q153 0 236 -105q72 -93 72 -273q0 -203 -85 -312q-80 -102 -234 -102q-318 0 -318 399zM254 1004q0 -277 169 -277q69 0 105 40q67 74 67 255q0 270 -169 270q-172 0 -172 -288zM437 -68l793 1514h131l-790 -1514h-134zM1055 354 q0 195 76 296q87 114 255 114q102 0 178 -53q128 -88 128 -324q0 -415 -321 -415q-163 0 -244 108q-72 97 -72 274zM1206 364q0 -281 168 -281t168 285q0 283 -165 283q-96 0 -139 -87q-32 -66 -32 -200z" />
<glyph unicode="&#x66d;" horiz-adv-x="2943" d="M105 743v587q0 11 8 18.5t19 7.5t18.5 -7.5t7.5 -18.5v-383q30 48 75 86q19 16 43 31.5t53.5 28t64.5 20t76 7.5q82 0 149.5 -30.5t115.5 -81.5t74 -116.5t26 -134.5q0 -70 -27 -137t-75 -119t-115 -83.5t-148 -31.5q-80 0 -147 30t-115.5 80t-75.5 114t-27 133zM159 757 q0 -65 24.5 -122.5t66.5 -100t98.5 -67t121.5 -24.5q64 0 120.5 24.5t98.5 67t66.5 100t24.5 122.5q0 64 -24.5 120.5t-66.5 99t-98.5 67t-120.5 24.5q-65 0 -121.5 -24.5t-98.5 -67t-66.5 -99t-24.5 -120.5zM870 754q0 76 28.5 143t78 116.5t116.5 78.5t143 29t143 -29 t117 -78.5t78.5 -116.5t28.5 -143q0 -8 -6 -16.5t-22 -8.5h-391q-11 0 -19.5 7.5t-8.5 20.5q0 11 8.5 19t19.5 8h362q-6 59 -32 110.5t-67.5 90t-95.5 60.5t-115 22q-65 0 -121.5 -24.5t-98.5 -67t-66 -99.5t-24 -122q0 -64 24 -120.5t66 -99t98.5 -67t121.5 -24.5 q42 0 81 11t73.5 30.5t63 47t48.5 60.5q6 11 17.5 13t21.5 -5q8 -6 11 -17t-5 -21q-24 -39 -56.5 -71t-72.5 -55.5t-86 -36t-96 -12.5q-76 0 -143 29t-116.5 79t-78 117t-28.5 142zM1222 111q0 18 19 18q7 0 12.5 -5t5.5 -13q0 -6 2 -18t10 -24t24 -21t44 -9q33 0 50.5 10 t24.5 23t7.5 23.5t0.5 11.5l-0.5 9t-8 19t-25 18.5t-50.5 8.5t-55 8t-35.5 20.5t-19.5 27t-6 28.5q0 13 4.5 31t17.5 34t35.5 27.5t58.5 11.5q32 -1 58 -13q22 -11 40.5 -33.5t18.5 -65.5q0 -7 -5.5 -12t-13.5 -5q-7 0 -12 5t-5 12q0 21 -9 38q-8 14 -24 26.5t-48 12.5 t-48.5 -11t-23.5 -24q-8 -16 -8 -35q1 -13 10 -23q8 -9 24 -16t46 -7q62 0 91.5 -27.5t29.5 -65.5q0 -19 -6.5 -37.5t-20.5 -33.5t-37.5 -24t-56.5 -9q-26 0 -47.5 8.5t-37 23.5t-23.5 34.5t-8 42.5zM1490 231q0 52 32.5 85.5t86.5 33.5q25 0 47.5 -9.5t38.5 -25.5t25.5 -38 t9.5 -46q0 -25 -9.5 -47t-25.5 -38.5t-38.5 -26t-47.5 -9.5h-81v-94q0 -19 -19 -19q-8 0 -13 5.5t-5 13.5zM1528 147h81q17 0 32.5 6.5t27 18t18 26.5t6.5 33q0 34 -24.5 59t-59.5 25q-38 0 -59.5 -24.5t-21.5 -59.5v-84zM1639 440v630q2 20 20 37t44 17t44 -17t19 -37v-630 q-1 -20 -19 -37t-44 -18q-26 1 -44 18t-20 37zM1737 174q0 37 14 69.5t38 56.5t56.5 38t68.5 14q37 0 69.5 -14t56.5 -38t38 -56.5t14 -69.5q0 -36 -14 -68.5t-38 -57t-56.5 -38.5t-69.5 -14q-36 0 -68.5 14t-56.5 38.5t-38 57t-14 68.5zM1777 174q0 -29 11 -54t29.5 -43.5 t43.5 -29.5t53 -11q29 0 54 11t44 29.5t29.5 43.5t10.5 54q0 28 -10.5 53t-29.5 44t-44 29.5t-54 10.5q-28 0 -53 -10.5t-43.5 -29.5t-29.5 -44t-11 -53zM1826 436v474q3 40 18 77q13 32 40.5 65t78.5 54q52 19 97 16t81 -19t61.5 -40t37.5 -46l289 -455q14 -22 33 -35 q17 -11 41.5 -15t56.5 13q15 7 24.5 17.5t15.5 22t8.5 21.5t2.5 17v466q2 20 19.5 37t42.5 17q27 0 45 -17t19 -37v-466q0 -41 -13 -78q-12 -32 -39 -65.5t-81 -55.5q-52 -21 -98 -17.5t-82 19t-61 37.5t-35 37q-5 8 -20 31.5t-36 57.5t-46.5 74t-51.5 81q-61 96 -135 212 q-9 18 -22 31q-11 11 -28 20.5t-39 7.5q-38 -4 -58.5 -19.5t-28.5 -32.5q-11 -20 -10 -46v-454q0 -22 -18 -39.5t-44 -18.5q-27 1 -45 17t-20 34zM2111 15v216q0 52 32.5 86.5t88.5 34.5q25 0 47 -9.5t38.5 -26t26 -38.5t9.5 -47q0 -39 -22.5 -70t-59.5 -44l56 -92 q4 -6 2.5 -13.5t-8.5 -10.5q-8 -5 -15.5 -3.5t-11.5 9.5l-64 103h-82v-95q0 -8 -5 -13.5t-13 -5.5q-19 0 -19 19zM2148 147h84q35 0 59.5 24.5t24.5 59.5q0 18 -6.5 33t-18 26.5t-27 18t-32.5 6.5q-38 0 -61 -23.5t-23 -60.5v-84zM2343 331q0 8 6 13.5t15 5.5h204 q8 0 13.5 -5.5t5.5 -13.5t-5.5 -14t-13.5 -6h-82v-294q0 -8 -5.5 -14t-13.5 -6q-9 0 -14.5 6t-5.5 14v294h-83q-9 0 -15 6t-6 14zM2599 108q0 19 16 19q8 0 13 -5.5t5 -13.5q0 -6 2.5 -18.5t11 -25t25 -21.5t44.5 -9q34 0 51 10.5t24.5 23.5t8 24t0.5 12t-0.5 9.5t-8 18.5 t-25 18.5t-50.5 8.5q-34 0 -56.5 8t-36 21t-19 28t-5.5 29q0 13 4.5 31t17 34.5t35 28t58.5 11.5q33 -1 59 -13q22 -11 40.5 -33.5t18.5 -66.5q0 -7 -5 -13t-13 -6q-9 0 -14 6t-5 13q0 21 -8 38q-7 14 -23 26t-48 12q-33 0 -49.5 -11t-24.5 -24q-9 -15 -9 -34q1 -13 10 -24 q8 -9 24 -16.5t47 -7.5q63 0 93 -27t30 -65q0 -19 -7 -38t-21.5 -34.5t-38 -25t-56.5 -9.5q-26 0 -48 9t-37.5 24t-23.5 35t-6 43z" />
<glyph unicode="&#x6de;" horiz-adv-x="1072" d="M105 409l37 117l18 4l-11 14l38 120l98 72l17 -8v19l101 74h124l9 -18l10 18h122l104 -74l-2 -19l16 8l98 -72l39 -120l-11 -14l17 -4l38 -117l-38 -116l-17 -3l11 -16l-39 -119l-98 -72l-16 9l2 -20l-104 -73h-122l-10 18l-9 -18h-124l-101 73v20l-17 -9l-98 72l-38 119 l11 16l-18 3zM123 409l33 -101l38 -7l-26 -30l34 -104l85 -64l35 17l-4 -40l92 -63h105l21 35l20 -35h107l89 63l-3 40l35 -17l86 64l34 104l-25 30l37 7l33 101l-33 103l-37 6l25 30l-34 105l-86 63l-35 -17l3 40l-89 64h-107l-20 -36l-21 36h-105l-92 -64l4 -40l-35 17 l-85 -63l-34 -105l26 -30l-38 -6zM144 409l26 84l39 10l22 -25l-14 -44l55 -25l-55 -23l14 -44l-22 -26l-39 10zM189 268l25 26l34 -6l17 -48l58 17l-31 -54l37 -26l-4 -35l-36 -14l-72 51zM189 552l28 88l72 52l36 -15l4 -34l-37 -26l31 -54l-58 16l-17 -47l-34 -7z M229 311l23 27l-12 39l58 23l90 -37l-50 -86l-62 -12l-12 37zM229 507l35 10l12 38l62 -14l50 -84l-90 -38l-58 25l12 38zM316 209l33 53l96 23l8 -96l-41 -48l-34 21l-32 -11l3 35zM316 611l33 22l-3 36l32 -13l34 22l41 -47l-8 -97l-96 24zM326 409l71 31l20 -31l-20 -29z M339 91l4 38l33 13l39 -28l40 47l4 -62h48l19 -30l-20 -33h-89zM339 729l78 55h89l20 -33l-19 -30h-48l-4 -63l-40 47l-39 -27l-33 13zM362 286l43 69l35 -14l4 -36zM362 534l82 -20l-4 -35l-35 -15zM372 409l19 -7l4 7l-4 8zM400 311l25 8l-1 11l-11 3zM400 507l13 -20 l11 3l1 11zM416 374l23 35l-23 37l42 19l3 46l43 -10l32 33l32 -33l42 10l4 -46l43 -19l-25 -37l25 -35l-43 -21l-4 -44l-42 10l-32 -34l-32 34l-43 -10l-3 44zM442 381l33 -14l2 -37l33 8l26 -27l25 27l34 -8l1 37l34 14l-18 28l18 29l-34 14l-1 37l-34 -7l-25 27l-26 -27 l-33 7l-2 -37l-33 -14l19 -29zM462 290l36 7l25 -27l-53 -62zM462 530l8 81l53 -62l-25 -26zM471 180l65 77l63 -77l-6 -63h-40l-17 -28l-18 28h-40zM471 639l7 63h40l18 28l17 -28h40l6 -63l-63 -77zM481 276l2 -24l16 18l-7 7zM481 543l11 -2l7 8l-16 20zM547 69l18 30h48 l5 62l39 -47l39 28l34 -13l3 -38l-78 -55h-88zM547 751l20 33h88l78 -55l-3 -38l-34 -13l-39 27l-39 -47l-5 63h-48zM550 270l24 27l36 -7l-7 -82zM550 549l53 62l7 -81l-36 -7zM573 270l15 -18l3 24l-11 1zM573 549l7 -8l11 2l-3 26zM619 189l8 96l98 -23l31 -53l-32 -23 l3 -35l-33 11l-33 -21zM619 631l42 47l33 -22l33 13l-3 -36l32 -22l-31 -53l-98 -24zM627 305l5 36l35 14l43 -69zM627 514l83 20l-43 -70l-35 15zM647 319l25 -8l-12 22l-12 -3zM647 501l1 -11l12 -3l12 20zM655 409l19 31l71 -31l-71 -29zM676 409l6 -7l18 7l-18 8z M685 363l89 37l58 -23l-12 -39l23 -27l-35 -9l-12 -37l-62 12zM685 457l49 84l62 14l12 -38l35 -10l-23 -25l12 -38l-58 -25zM744 177l36 26l-32 54l59 -17l17 48l33 6l26 -26l-29 -89l-71 -51l-37 14zM744 643l2 34l37 15l71 -52l29 -88l-26 -27l-33 7l-17 47l-59 -16 l32 54zM801 409l55 25l-14 44l21 25l39 -10l27 -84l-27 -83l-39 -10l-21 26l14 44z" />
<glyph unicode="&#x6e9;" horiz-adv-x="1446" d="M105 1v55h171v191h27q15 0 15 14v36q0 18 11 28q13 11 30 11h32v87q-3 0 -31 31q-38 40 -60 82q-31 62 -31 126q0 73 55 153q29 43 67.5 79.5t86.5 68.5q18 11 43.5 25t58.5 30q21 11 47 23t58 26q12 6 21.5 10t16.5 7q8 4 13 6q5 -1 12 -5l15 -7.5t21 -9.5 q64 -28 106 -50q32 -16 58 -30t45 -25q98 -66 154 -148q55 -80 55 -153q0 -64 -31 -125q-21 -43 -60 -83q-28 -31 -31 -31v-87h31q18 0 31 -11q11 -11 11 -28v-36q0 -14 14 -14h27v-191h147v-55h-196v196h-12q-17 0 -23 8q-7 8 -7 33v33q0 8 -3 11q-3 4 -12 4h-57v164 q6 0 32 26q19 17 34 35t27 38q32 55 32 111q0 50 -38 110q-43 73 -125 136q-20 14 -46.5 30t-59.5 33q-25 13 -51 25.5t-53 23.5q-44 19 -47 19t-48 -19q-29 -12 -54.5 -24.5t-48.5 -23.5q-33 -17 -60 -33t-48 -31q-83 -63 -124 -136q-38 -61 -38 -110q0 -58 31 -111 q12 -20 27 -38t34 -35q26 -26 33 -26v-164h-57q-9 0 -12 -4q-4 -3 -4 -11v-33q0 -24 -6 -33q-6 -8 -23 -8h-12v-196h-221z" />
<glyph unicode="&#x2000;" horiz-adv-x="888" />
<glyph unicode="&#x2001;" horiz-adv-x="1777" />
<glyph unicode="&#x2002;" horiz-adv-x="888" />
<glyph unicode="&#x2003;" horiz-adv-x="1777" />
<glyph unicode="&#x2004;" horiz-adv-x="592" />
<glyph unicode="&#x2005;" horiz-adv-x="444" />
<glyph unicode="&#x2006;" horiz-adv-x="296" />
<glyph unicode="&#x2007;" horiz-adv-x="296" />
<glyph unicode="&#x2008;" horiz-adv-x="222" />
<glyph unicode="&#x2009;" horiz-adv-x="355" />
<glyph unicode="&#x200a;" horiz-adv-x="98" />
<glyph unicode="&#x2010;" horiz-adv-x="573" d="M47 441v169h479v-169h-479z" />
<glyph unicode="&#x2011;" horiz-adv-x="573" d="M47 441v169h479v-169h-479z" />
<glyph unicode="&#x2012;" horiz-adv-x="573" d="M47 441v169h479v-169h-479z" />
<glyph unicode="&#x2013;" horiz-adv-x="1167" d="M161 441v169h845v-169h-845z" />
<glyph unicode="&#x2014;" horiz-adv-x="2142" d="M47 441v169h2048v-169h-2048z" />
<glyph unicode="&#x2015;" horiz-adv-x="2048" d="M308 441v169h1432v-169h-1432z" />
<glyph unicode="&#x2018;" horiz-adv-x="531" d="M153 926v155q0 115 25 178q55 137 200 171v-97q-110 -37 -114 -194h114v-213h-225z" />
<glyph unicode="&#x2019;" horiz-adv-x="531" d="M153 905v97q110 36 114 194h-114v213h225v-155q0 -115 -25 -178q-55 -137 -200 -171z" />
<glyph unicode="&#x201a;" horiz-adv-x="531" d="M153 0v213h225v-155q0 -115 -25 -178q-55 -138 -200 -172v98q110 37 114 194h-114z" />
<glyph unicode="&#x201c;" horiz-adv-x="879" d="M153 937v161q0 132 51 211q60 92 163 120v-95q-108 -46 -108 -194h108v-203h-214zM514 937v165q0 137 59 220q58 82 153 109v-97q-65 -32 -87 -82q-21 -46 -21 -112h108v-203h-212z" />
<glyph unicode="&#x201d;" horiz-adv-x="879" d="M153 915v97q66 32 88 82q21 47 21 112h-109v203h214v-166q0 -136 -59 -219q-58 -81 -155 -109zM514 917v95q106 45 107 194h-107v203h212v-161q0 -132 -51 -211q-60 -94 -161 -120z" />
<glyph unicode="&#x2022;" horiz-adv-x="1409" d="M414 716q0 125 87 209q88 85 210 85q117 0 203 -85q86 -86 86 -208q0 -121 -86 -207q-85 -86 -207 -86q-120 0 -206 85q-87 86 -87 207z" />
<glyph unicode="&#x202f;" horiz-adv-x="355" />
<glyph unicode="&#x205f;" horiz-adv-x="444" />
<glyph unicode="&#x2122;" horiz-adv-x="1793" d="M23 1305v104h693v-104h-283v-699h-125v699h-285zM798 606v803h164l200 -485q48 -119 69 -181q23 66 67 179l192 487h167v-803h-121v361q0 167 10 302q-29 -79 -59 -154l-203 -509h-106l-213 503q-23 54 -56 145q9 -163 9 -284v-364h-120z" />
<glyph unicode="&#x25fc;" horiz-adv-x="1020" d="M0 0v1020h1020v-1020h-1020z" />
<glyph unicode="&#xfd3e;" horiz-adv-x="588" d="M105 -358v1768h378v-169h-192v-1429h192v-170h-378z" />
<glyph unicode="&#xfd3f;" horiz-adv-x="588" d="M105 -188h192v1429h-192v169h378v-1768h-378v170z" />
</font>
</defs>
</svg>
